<?xml version="1.0" encoding="UTF-8"?><svg version="1.1" width="50px" height="41px" viewBox="0 0 50.0 41.0" xmlns="http://www.w3.org/2000/svg" xmlns:xlink="http://www.w3.org/1999/xlink"><defs><clipPath id="i0"><path d="M375,0 L375,812 L0,812 L0,0 L375,0 Z"></path></clipPath><clipPath id="i1"><path d="M17.7406175,0 C27.5400297,0 35.49,8.37411765 35.49,18.715431 C35.49,29.0477206 27.5400297,37.4218382 17.7406175,37.4218382 C7.94120524,37.4218382 0,29.0477206 0,18.715431 C0,8.37411765 7.94120524,0 17.7406175,0 Z"></path></clipPath><clipPath id="i2"><path d="M1.82,0 L2.57,1.1 L3.84,1.33 L3.08,2.42 L3.28,3.76 L2.05,3.33 L0.9,3.93 L0.91,2.57 L0,1.61 L1.23,1.2 L1.82,0 Z"></path></clipPath><clipPath id="i3"><path d="M1.82,0 L2.57,1.1 L3.84,1.33 L3.08,2.42 L3.28,3.76 L2.05,3.33 L0.9,3.93 L0.91,2.57 L0,1.61 L1.23,1.2 L1.82,0 Z"></path></clipPath><clipPath id="i4"><path d="M1.82,0 L2.57,1.1 L3.84,1.33 L3.08,2.42 L3.28,3.76 L2.05,3.33 L0.9,3.93 L0.91,2.57 L0,1.61 L1.23,1.2 L1.82,0 Z"></path></clipPath><clipPath id="i5"><path d="M10.45,0 C16.2196911,0 20.9,5.11338044 20.9,11.4159191 C20.9,17.7269518 16.2196911,22.8318382 10.45,22.8318382 C4.68030889,22.8318382 0,17.7269518 0,11.4159191 C0,5.11338044 4.68030889,0 10.45,0 Z"></path></clipPath><clipPath id="i6"><path d="M39.0297286,0 C40.9810382,-0.0169900586 42.5480842,1.56723255 42.5310946,3.53555125 L42.4456106,14.1376342 C42.4284819,16.1059529 40.8358341,17.7068287 38.8845245,17.7239563 L3.50136252,18.0054487 C1.55005292,18.0224387 -0.0169930934,16.4382161 0,14.4788444 L0.0854840273,3.87676139 C0.102612755,1.90844269 1.69525696,0.298620008 3.63761556,0.281488853 Z"></path></clipPath><clipPath id="i7"><path d="M39.0297286,0 C40.9810382,-0.0169900586 42.5480842,1.56723255 42.5310946,3.53555125 L42.4456106,14.1376342 C42.4284819,16.1059529 40.8358341,17.7068287 38.8845245,17.7239563 L3.50136252,18.0054487 C1.55005292,18.0224387 -0.0169930934,16.4382161 0,14.4788444 L0.0854840273,3.87676139 C0.102612755,1.90844269 1.69525696,0.298620008 3.63761556,0.281488853 Z"></path></clipPath></defs><g transform="translate(-295.0 -620.0)"><g clip-path="url(#i0)"><g transform="translate(297.1600000000002 622.0)"><g transform="translate(5.174959539398742 0.0)"><g clip-path="url(#i1)"><path d="M17.7406175,0 C7.94120524,0 0,8.37411765 0,18.715431 C0,29.0477206 7.94120524,37.4218382 17.7406175,37.4218382 C27.5400297,37.4218382 35.49,29.0477206 35.49,18.715431 C35.49,8.37411765 27.5400297,0 17.7406175,0 Z" stroke="#FF5757" stroke-width="2" fill="none" stroke-miterlimit="5"></path></g></g><g transform="translate(6.332957690385001 2.094665527343751)"><g transform="translate(0.0 10.56466674804688)"><g clip-path="url(#i2)"><polygon points="0,0 3.84,0 3.84,3.93 0,3.93 0,0" stroke="none" fill="#FF5757"></polygon></g></g><g transform="translate(3.84429931640625 4.758514404296877)"><g clip-path="url(#i3)"><polygon points="0,0 3.84,0 3.84,3.93 0,3.93 0,0" stroke="none" fill="#FF5757"></polygon></g></g><g transform="translate(9.98260498046875 0.8294372558593748)"><g clip-path="url(#i2)"><polygon points="0,0 3.84,0 3.84,3.93 0,3.93 0,0" stroke="none" fill="#FF5757"></polygon></g></g><g transform="translate(17.4476318359375 2.220446049250313e-16)"><g clip-path="url(#i4)"><polygon points="0,0 3.84,0 3.84,3.93 0,3.93 0,0" stroke="none" fill="#FF5757"></polygon></g></g></g><g transform="translate(12.46988141439874 7.294525146484377)"><g clip-path="url(#i5)"><path d="M10.45,0 C4.68030889,0 0,5.11338044 0,11.4159191 C0,17.7269518 4.68030889,22.8318382 10.45,22.8318382 C16.2196911,22.8318382 20.9,17.7269518 20.9,11.4159191 C20.9,5.11338044 16.2196911,0 10.45,0 Z" stroke="#FF5757" stroke-width="2" fill="none" stroke-miterlimit="5"></path></g></g><g transform="translate(1.1368683772161603e-13 0.28108674377861576)"><g transform="translate(-3.907985046680551e-14 21.265547566055186) rotate(-30.000000445292045)"><path d="M0.0854840273,3.87676139 L0,14.4788444 C-0.0169930934,16.4382161 1.55005292,18.0224387 3.50136252,18.0054487 L38.8845245,17.7239563 C40.8358341,17.7068287 42.4284819,16.1059529 42.4456106,14.1376342 L42.5310946,3.53555125 C42.5480842,1.56723255 40.9810382,-0.0169900586 39.0297286,0 L3.63761556,0.281488853 C1.69525696,0.298620008 0.102612755,1.90844269 0.0854840273,3.87676139 Z" stroke="#FFFFFF" stroke-width="2" fill="none" stroke-miterlimit="5"></path><g clip-path="url(#i6)"><polygon points="-0.000136908301,-0.000135390183 42.5312314,-0.000135390183 42.5312314,18.0055841 -0.000136908301,18.0055841 -0.000136908301,-0.000135390183" stroke="none" fill="#FFFFFF"></polygon></g></g><g transform="translate(-3.552713678800501e-14 21.265578083633546) rotate(-30.000000445292045)"><g clip-path="url(#i7)"><polygon points="-0.000136908301,-0.000135390183 42.5312314,-0.000135390183 42.5312314,18.0055841 -0.000136908301,18.0055841 -0.000136908301,-0.000135390183" stroke="none" fill="#FFFFFF"></polygon><path d="M38.8845245,17.7239563 C40.8358341,17.7068287 42.4284819,16.1059529 42.4456106,14.1376342 L42.5310946,3.53555125 C42.5480842,1.56723255 40.9810382,-0.0169900586 39.0297286,0 L3.63761556,0.281488853 C1.69525696,0.298620008 0.102612755,1.90844269 0.0854840273,3.87676139 L0,14.4788444 C-0.0169930934,16.4382161 1.55005292,18.0224387 3.50136252,18.0054487 L38.8845245,17.7239563 Z" stroke="#FF5757" stroke-width="2" fill="none" stroke-miterlimit="5"></path></g></g><g transform="translate(6.1424103615742425 19.98407081082936) rotate(-30.000000445292045)"><text transform="translate(0.0 11.0)" font-family="PingFangSC-Regular, PingFang SC" font-size="10.0" font-weight="normal" fill="#FF5757" text-anchor="right">已签到</text></g></g><g transform="translate(39.93765625455899 35.54732773605872) rotate(180.0)"><g transform="translate(0.0 10.56467914581299)"><g clip-path="url(#i2)"><polygon points="0,0 3.84,0 3.84,3.93 0,3.93 0,0" stroke="none" fill="#FF5757"></polygon></g></g><g transform="translate(3.8443157668607455 4.758515357971191)"><g clip-path="url(#i2)"><polygon points="0,0 3.84,0 3.84,3.93 0,3.93 0,0" stroke="none" fill="#FF5757"></polygon></g></g><g transform="translate(9.982584952880643 0.8294520378112791)"><g clip-path="url(#i2)"><polygon points="0,0 3.84,0 3.84,3.93 0,3.93 0,0" stroke="none" fill="#FF5757"></polygon></g></g><g transform="translate(17.447652816345105 -4.440892098500626e-16)"><g clip-path="url(#i4)"><polygon points="0,0 3.84,0 3.84,3.93 0,3.93 0,0" stroke="none" fill="#FF5757"></polygon></g></g></g></g></g></g></svg>