<svg xmlns="http://www.w3.org/2000/svg" xmlns:xlink="http://www.w3.org/1999/xlink" width="24" height="24" viewBox="0 0 24 24"><defs><style>.a{fill:#fff;stroke:#707070;opacity:0;}.b{fill:#ddd;}.c{fill:url(#a);}.d{stroke:none;}.e{fill:none;}</style><linearGradient id="a" x1="0.5" x2="0.794" y2="1" gradientUnits="objectBoundingBox"><stop offset="0" stop-color="#ddd"/><stop offset="1" stop-color="#e8e8e8"/></linearGradient></defs><g transform="translate(701 -141)"><g class="a" transform="translate(-701 141)"><rect class="d" width="24" height="24"/><rect class="e" x="0.5" y="0.5" width="23" height="23"/></g><path class="b" d="M3.915,12.059,1.877,19.566A.954.954,0,0,1,.7,20.241a.965.965,0,0,1-.669-1.184L1.86,12.331h0L4.751,1.444A1.914,1.914,0,0,1,6.5.017a13.233,13.233,0,0,1,4.2.449c3.213.888,4.3,3.217,6.876,3.9A8.581,8.581,0,0,0,22,4.386L18.908,16.024q-1.353.98-4.072.344c-3.414-.8-4.234-3.31-6.96-3.993a12.647,12.647,0,0,0-3.961-.316Z" transform="translate(-700 142.862)"/><path class="c" d="M12.667,4.3A8.646,8.646,0,0,1,9.546,2.679c-.207-.156-.406-.311-.783-.608A7.872,7.872,0,0,0,5.773.4a11.34,11.34,0,0,0-3.6-.383L0,8.178a14.237,14.237,0,0,1,3.909.4A8.146,8.146,0,0,1,7.293,10.42c.143.117.286.237.555.463a6.526,6.526,0,0,0,2.992,1.681,5.189,5.189,0,0,0,2.026.162L15.01,4.659A10.657,10.657,0,0,1,12.667,4.3Z" transform="translate(-695.572 144.789)"/></g></svg>