<?xml version="1.0" encoding="UTF-8"?><svg version="1.1" width="18px" height="18px" viewBox="0 0 18.0 18.0" xmlns="http://www.w3.org/2000/svg" xmlns:xlink="http://www.w3.org/1999/xlink"><defs><clipPath id="i0"><path d="M375,0 L375,1303 L0,1303 L0,0 L375,0 Z"></path></clipPath><clipPath id="i1"><path d="M8,0 C12.43,0 16,3.61 16,8 C16,12.43 12.43,16 8,16 C3.61,16 0,12.43 0,8 C0,3.57 3.57,0 8,0 Z M8.00282654,2.91282654 C7.67282654,2.91282654 7.38282654,3.20282654 7.38282654,3.53282654 L7.38282654,7.38282654 L3.53282654,7.38282654 C3.20282654,7.38282654 2.91282654,7.67282654 2.91282654,8.00282654 C2.91282654,8.33282654 3.20282654,8.61282654 3.53282654,8.61282654 L7.38282654,8.61282654 L7.38282654,12.4728265 C7.38282654,12.8028265 7.67282654,13.0828265 8.00282654,13.0828265 C8.33282654,13.0828265 8.61282654,12.8028265 8.61282654,12.4728265 L8.61282654,8.61282654 L12.4728265,8.61282654 C12.8428265,8.61282654 13.0828265,8.33282654 13.0828265,8.00282654 C13.0828265,7.67282654 12.8028265,7.38282654 12.4728265,7.38282654 L8.61282654,7.38282654 L8.61282654,3.53282654 C8.61282654,3.20282654 8.33282654,2.91282654 8.00282654,2.91282654 Z"></path></clipPath></defs><g transform="translate(-305.0 -1128.0)"><g clip-path="url(#i0)"><g transform="translate(16.0 1126.0)"><g transform="translate(289.0 0.0)"><g transform="translate(0.0 2.0)"><g transform="translate(1.0003662109375 1.000030517578125)"><g clip-path="url(#i1)"><polygon points="0,0 16,0 16,16 0,16 0,0" stroke="none" fill="#FF5757"></polygon></g></g></g></g></g></g></g></svg>