<?xml version="1.0" encoding="UTF-8"?><svg version="1.1" width="28px" height="28px" viewBox="0 0 28.0 28.0" xmlns="http://www.w3.org/2000/svg" xmlns:xlink="http://www.w3.org/1999/xlink"><defs><clipPath id="i0"><path d="M375,0 L375,812 L0,812 L0,0 L375,0 Z"></path></clipPath><clipPath id="i1"><path d="M15.9436025,0.000895046122 C17.3585446,0.0174652995 17.5636364,0.276340612 17.5636364,1.78227947 L17.5636364,16.492266 C17.5597791,16.7277383 17.5263374,16.961792 17.4640977,17.1889226 L12.9619579,12.6868114 L10.8953148,14.7534545 L15.3799023,19.2380421 C15.169113,19.2900968 14.9530107,19.3175988 14.7359023,19.32 L1.78227947,19.32 C0.220565099,19.32 0,19.0994349 0,17.5377205 L0.000895046122,1.62003384 C0.0174652995,0.205091782 0.276340612,0 1.78227947,0 Z"></path></clipPath><clipPath id="i2"><path d="M19.5636364,-2 L19.5636364,21.32 L-2,21.32 L-2,-2 L19.5636364,-2 Z M15.9436025,0.000895046122 L1.61399444,0.000967337134 C0.256785566,0.0175660102 0.0168279821,0.25951263 0.000895046122,1.62003384 L0.000895046122,17.6999662 C0.0174652995,19.1149082 0.276340612,19.32 1.78227947,19.32 L14.7359023,19.32 C14.9530107,19.3175988 15.169113,19.2900968 15.3799023,19.2380421 L10.8953148,14.7534545 L12.9619579,12.6868114 L17.4640977,17.1889226 C17.5263374,16.961792 17.5597791,16.7277383 17.5636364,16.492266 L17.5636364,1.78227947 C17.5636364,0.276340612 17.3585446,0.0174652995 15.9436025,0.000895046122 Z"></path></clipPath><clipPath id="i3"><path d="M2.07253196,0 L2.49990234,0.439090909 C2.64357223,0.583063053 2.64357223,0.816167594 2.49990234,0.960139737 L0.954279474,2.50573402 C0.810307331,2.64940391 0.57720279,2.64940391 0.433230646,2.50573402 L0,2.07250337 L2.07253196,0 Z"></path></clipPath><clipPath id="i4"><path d="M2.07018786,0 L3.55197674,1.48178888 L1.4823892,3.55194815 L0,2.06958754 L2.07018786,0 Z"></path></clipPath><clipPath id="i5"><path d="M0,0 L2.1017761,0.0351329901 L0.0292727273,2.1017761 L0,0 Z"></path></clipPath><clipPath id="i6"><path d="M13.4654545,0 C13.7887922,0 14.0509091,0.262116928 14.0509091,0.585454545 C14.0509091,0.908792163 13.7887922,1.17090909 13.4654545,1.17090909 L0.585454545,1.17090909 C0.262116928,1.17090909 0,0.908792163 0,0.585454545 C0,0.262116928 0.262116928,0 0.585454545,0 L13.4654545,0 Z"></path></clipPath><clipPath id="i7"><path d="M13.4654545,0 C13.7887922,0 14.0509091,0.262116928 14.0509091,0.585454545 C14.0509091,0.908792163 13.7887922,1.17090909 13.4654545,1.17090909 L0.585454545,1.17090909 C0.262116928,1.17090909 0,0.908792163 0,0.585454545 C0,0.262116928 0.262116928,0 0.585454545,0 L13.4654545,0 Z"></path></clipPath><clipPath id="i8"><path d="M6.32874077,0 C6.65207838,0 6.91419531,0.262116928 6.91419531,0.585454545 C6.91419531,0.908792163 6.65207838,1.17090909 6.32874077,1.17090909 L0.585454545,1.17090909 C0.262116928,1.17090909 0,0.908792163 0,0.585454545 C0,0.262116928 0.262116928,0 0.585454545,0 L6.32874077,0 Z"></path></clipPath><clipPath id="i9"><path d="M6.32874073,0 C6.65207835,0 6.91419528,0.262116928 6.91419528,0.585454545 C6.91419528,0.908792163 6.65207835,1.17090909 6.32874073,1.17090909 L0.585454511,1.17090909 C0.262116907,1.17090909 0,0.908792149 0,0.585454545 C0,0.262116942 0.262116907,0 0.585454511,0 L6.32874073,0 Z"></path></clipPath></defs><g transform="translate(-130.0 -135.0)"><g clip-path="url(#i0)"><g transform="translate(116.0 135.0)"><g transform="translate(14.0 0.0)"><g transform="translate(5.672727272727343 4.836363636363643)"><g clip-path="url(#i1)"><polygon points="0,0 17.5636364,0 17.5636364,19.32 0,19.32 0,0" stroke="none" fill="#FFD2D2"></polygon></g><g clip-path="url(#i2)"><path d="M12.9619579,12.6868114 L17.4640977,17.1889226 C17.5263374,16.961792 17.5597791,16.7277383 17.5636364,16.492266 L17.5636364,1.78227947 C17.5636364,0.220565099 17.3430713,0 15.7813569,0 L1.78227947,0 C0.220565099,0 0,0.220565099 0,1.78227947 L0,17.5377205 C0,19.0994349 0.220565099,19.32 1.78227947,19.32 L14.7359023,19.32 C14.9530107,19.3175988 15.169113,19.2900968 15.3799023,19.2380421 L10.8953148,14.7534545 L12.9619579,12.6868114 Z" stroke="#FF5757" stroke-width="2" fill="none" stroke-miterlimit="5"></path></g></g><g transform="translate(23.35345454545461 24.30858753551138)"><g clip-path="url(#i3)"><polygon points="0,0 2.60765476,0 2.60765476,2.61348643 0,2.61348643 0,0" stroke="none" fill="#FF5757"></polygon></g></g><g transform="translate(21.585370383522786 22.537587535511392)"><g clip-path="url(#i4)"><polygon points="0,0 3.55197674,0 3.55197674,3.55194815 0,3.55194815 0,0" stroke="none" fill="#FF5757"></polygon></g></g><g transform="translate(16.181636363636358 17.130909090909086)"><g clip-path="url(#i5)"><polygon points="0,0 2.1017761,0 2.1017761,2.1017761 0,2.1017761 0,0" stroke="none" fill="#FF5757"></polygon></g></g><g transform="translate(7.341272727272781 7.76363636363638)"><g clip-path="url(#i6)"><polygon points="0,0 14.0509091,0 14.0509091,1.17090909 0,1.17090909 0,0" stroke="none" fill="#FF5757"></polygon></g></g><g transform="translate(7.341272727272781 11.861818181818194)"><g clip-path="url(#i7)"><polygon points="0,0 14.0509091,0 14.0509091,1.17090909 0,1.17090909 0,0" stroke="none" fill="#FF5757"></polygon></g></g><g transform="translate(7.177356889204589 20.058181818181822)"><g clip-path="url(#i8)"><polygon points="0,0 6.91419531,0 6.91419531,1.17090909 0,1.17090909 0,0" stroke="none" fill="#FF5757"></polygon></g></g><g transform="translate(7.17735692410031 15.960000000000008)"><g clip-path="url(#i9)"><polygon points="0,0 6.91419528,0 6.91419528,1.17090909 0,1.17090909 0,0" stroke="none" fill="#FF5757"></polygon></g></g></g></g></g></g></svg>