<svg xmlns="http://www.w3.org/2000/svg" width="27.593" height="27.593" viewBox="0 0 27.593 27.593"><defs><style>.a,.b{fill:none;}.a{opacity:0;}.b{stroke:#292d32;stroke-linecap:round;stroke-linejoin:round;stroke-width:1.5px;}.c{fill:#292d32;}</style></defs><path class="a" d="M0,0H27.593V27.593H0Z"/><path class="b" d="M8.048,0A8.042,8.042,0,0,1,0,8.048L1.207,6.036" transform="translate(17.246 17.246)"/><path class="b" d="M0,8.048A8.042,8.042,0,0,1,8.048,0L6.841,2.012" transform="translate(2.299 2.299)"/><path class="c" d="M11.5,2.529v.126a.569.569,0,0,1-.575.575H.575A.569.569,0,0,1,0,2.656V2.529C0,.506.506,0,2.552,0H8.945C10.991,0,11.5.506,11.5,2.529Z" transform="translate(13.797 2.299)"/><path class="c" d="M.575,0A.569.569,0,0,0,0,.575V2.863C0,4.886.506,5.392,2.552,5.392H8.945c2.047,0,2.552-.506,2.552-2.529V.575A.569.569,0,0,0,10.922,0Z" transform="translate(13.797 6.68)"/><path class="c" d="M11.5,2.529v.126a.569.569,0,0,1-.575.575H.575A.569.569,0,0,1,0,2.656V2.529C0,.506.506,0,2.552,0H8.945C10.991,0,11.5.506,11.5,2.529Z" transform="translate(2.299 15.521)"/><path class="c" d="M.575,0A.569.569,0,0,0,0,.575V2.863C0,4.886.506,5.392,2.552,5.392H8.945c2.047,0,2.552-.506,2.552-2.529V.575A.569.569,0,0,0,10.922,0Z" transform="translate(2.299 19.902)"/></svg>