<?xml version="1.0" encoding="UTF-8"?>
<svg width="24px" height="24px" viewBox="0 0 24 24" version="1.1" xmlns="http://www.w3.org/2000/svg" xmlns:xlink="http://www.w3.org/1999/xlink">
    <title>编组 3</title>
    <defs>
        <linearGradient x1="27.6435693%" y1="13.8735211%" x2="65.4852211%" y2="84.5610837%" id="linearGradient-1">
            <stop stop-color="#FF7A7A" offset="0%"></stop>
            <stop stop-color="#FF4444" offset="100%"></stop>
        </linearGradient>
    </defs>
    <g id="党员责任区" stroke="none" stroke-width="1" fill="none" fill-rule="evenodd">
        <g id="党员非党员备份-2" transform="translate(-15.000000, -94.000000)">
            <g id="编组-3" transform="translate(16.000000, 95.000000)">
                <circle id="椭圆形" stroke="#FEB8B8" fill="#FFFFFF" cx="11" cy="11" r="11"></circle>
                <g id="撤销_undo" transform="translate(4.000000, 4.000000)" fill="url(#linearGradient-1)" fill-rule="nonzero">
                    <path d="M7,0 C10.8658667,0 14,3.13413333 14,7 C14,10.8658667 10.8658667,14 7,14 C3.13413333,14 0,10.8658667 0,7 C0,3.13413333 3.13413333,0 7,0 Z M6.37326667,2.93673333 C6.1910334,2.7545551 5.89563326,2.7545551 5.7134,2.93673333 L3.4034,5.24673333 L3.367,5.28733333 C3.22032531,5.47311447 3.23597041,5.73928166 3.4034,5.9066 L5.7134,8.2166 L5.754,8.25253333 C5.93966576,8.39933164 6.20582593,8.38388753 6.37326667,8.2166 L6.40966667,8.17553333 C6.55634136,7.98975219 6.54069626,7.72358501 6.37326667,7.55626667 L4.69933333,5.8828 L8.27353333,5.8828 L8.37246667,5.8856 C9.42433333,5.93413333 10.2531333,6.755 10.2531333,7.74993333 C10.2531333,8.77566667 9.37113333,9.6166 8.27353333,9.6166 L4.59666667,9.6166 L4.54206667,9.6194 C4.29501012,9.64651468 4.11255435,9.8625031 4.12711265,10.1106164 C4.14167095,10.3587297 4.34813441,10.5518978 4.59666667,10.5499482 L8.27306667,10.5499482 L8.37946667,10.5480667 C9.9344,10.4939333 11.186,9.2666 11.186,7.74993333 C11.186,6.19826667 9.877,4.94993333 8.27306667,4.94993333 L5.019,4.94946667 L6.37233333,3.5966 L6.4092,3.556 C6.55587469,3.37021886 6.54022959,3.10405168 6.3728,2.93673333 L6.37326667,2.93673333 Z" id="形状"></path>
                </g>
            </g>
        </g>
    </g>
</svg>