<?xml version="1.0" encoding="UTF-8"?><svg version="1.1" width="48px" height="48px" viewBox="0 0 48.0 48.0" xmlns="http://www.w3.org/2000/svg" xmlns:xlink="http://www.w3.org/1999/xlink"><defs><clipPath id="i0"><path d="M375,0 L375,812 L0,812 L0,0 L375,0 Z"></path></clipPath><clipPath id="i1"><path d="M25,0 C37.7025492,-2.33342044e-15 48,10.2974508 48,23 L48,25 C48,37.7025492 37.7025492,48 25,48 L23,48 C10.2974508,48 1.55561363e-15,37.7025492 0,25 L0,23 C-1.55561363e-15,10.2974508 10.2974508,2.33342044e-15 23,0 L25,0 Z"></path></clipPath><linearGradient id="i2" x1="5.73913014px" y1="7.30434752px" x2="34.956522px" y2="42.7826071px" gradientUnits="userSpaceOnUse"><stop stop-color="#98CFFF" offset="0%"></stop><stop stop-color="#66B6FF" offset="100%"></stop></linearGradient><clipPath id="i3"><path d="M18.8,0 L18.8,9.4 L0,9.4 L0,0 L18.8,0 Z"></path></clipPath><clipPath id="i4"><path d="M21.1500371,0 L21.1500371,9.4 L2.3500371,9.4 L2.3500371,0 L21.1500371,0 Z"></path></clipPath><clipPath id="i5"><path d=""></path></clipPath><clipPath id="i6"><path d="M16.45,0 L18.8,1.18 L14.1,1.18 L16.45,0 Z M11.75,0 L14.1,1.18 L9.4,1.18 L11.75,0 Z M7.05,0 L9.4,1.18 L4.7,1.18 L7.05,0 Z M2.35,0 L4.7,1.18 L0,1.18 L2.35,0 Z"></path></clipPath></defs><g transform="translate(-118.0 -508.0)"><g clip-path="url(#i0)"><g transform="translate(104.0 508.0)"><g transform="translate(14.0 0.0)"><g clip-path="url(#i1)"><polygon points="0,0 48,0 48,48 0,48 0,0" stroke="none" fill="url(#i2)"></polygon></g><g transform="translate(12.1116943359375 14.461791992187498)"><g transform="translate(2.350055456161499 9.400089263916016)"><g clip-path="url(#i3)"><polygon points="0,0 18.8,0 18.8,9.4 0,9.4 0,0" stroke="none" fill="#FFECEC"></polygon></g></g><g transform="translate(0.0 9.400089263916016)"><g clip-path="url(#i4)"><polygon points="2.3500371,0 21.1500371,0 21.1500371,9.4 2.3500371,9.4 2.3500371,0" stroke="none" fill="#FFFFFF"></polygon></g><polygon points="21.1500371,0 21.1500371,9.4 2.3500371,9.4 2.3500371,0 21.1500371,0 21.1500371,0" stroke="#FFFFFF" stroke-width="2" fill="none" stroke-linecap="round" stroke-linejoin="round" stroke-dasharray=" 0.0 0.0"></polygon></g><g transform="translate(21.1503005027771 18.80022621154785)"><g clip-path="url(#i5)"><polygon points="0,0 2.35,0 2.35,0 0,0 0,0" stroke="none" fill="#FFFFFF"></polygon></g><path d="M0,0 L2.35,0" stroke="#FFFFFF" stroke-width="2" fill="none" stroke-linecap="round" stroke-linejoin="round" stroke-dasharray=" 0.0 0.0"></path></g><g transform="translate(16.45025634765625 4.112514495849609)"><g clip-path="url(#i5)"><polygon points="0,0 0,0 0,5.29 0,5.29 0,0" stroke="none" fill="#FFFFFF"></polygon></g><path d="M0,5.29 L0,0" stroke="#FFFFFF" stroke-width="2" fill="none" stroke-linecap="round" stroke-linejoin="round" stroke-dasharray=" 0.0 0.0"></path></g><g transform="translate(11.75017833709717 4.112514495849609)"><g clip-path="url(#i5)"><polygon points="0,0 0,0 0,5.29 0,5.29 0,0" stroke="none" fill="#FFFFFF"></polygon></g><path d="M0,5.29 L0,0" stroke="#FFFFFF" stroke-width="2" fill="none" stroke-linecap="round" stroke-linejoin="round" stroke-dasharray=" 0.0 0.0"></path></g><g transform="translate(7.050100326538086 4.112514495849609)"><g clip-path="url(#i5)"><polygon points="0,0 0,0 0,5.29 0,5.29 0,0" stroke="none" fill="#FFFFFF"></polygon></g><path d="M0,5.29 L0,0" stroke="#FFFFFF" stroke-width="2" fill="none" stroke-linecap="round" stroke-linejoin="round" stroke-dasharray=" 0.0 0.0"></path></g><g transform="translate(16.45025634765625 0.0)"><g clip-path="url(#i5)"><polygon points="0,0 0,0 0,1.18 0,1.18 0,0" stroke="none" fill="#FFFFFF"></polygon></g><path d="M0,1.18 L0,0" stroke="#FFFFFF" stroke-width="2" fill="none" stroke-linecap="round" stroke-linejoin="round" stroke-dasharray=" 0.0 0.0"></path></g><g transform="translate(11.75017833709717 0.0)"><g clip-path="url(#i5)"><polygon points="0,0 0,0 0,1.18 0,1.18 0,0" stroke="none" fill="#FFFFFF"></polygon></g><path d="M0,1.18 L0,0" stroke="#FFFFFF" stroke-width="2" fill="none" stroke-linecap="round" stroke-linejoin="round" stroke-dasharray=" 0.0 0.0"></path></g><g transform="translate(7.050100326538086 0.0)"><g clip-path="url(#i5)"><polygon points="0,0 0,0 0,1.18 0,1.18 0,0" stroke="none" fill="#FFFFFF"></polygon></g><path d="M0,1.18 L0,0" stroke="#FFFFFF" stroke-width="2" fill="none" stroke-linecap="round" stroke-linejoin="round" stroke-dasharray=" 0.0 0.0"></path></g><g transform="translate(2.350055456161499 9.400089263916016)"><g clip-path="url(#i5)"><polygon points="0,0 0,0 0,9.4 0,9.4 0,0" stroke="none" fill="#FFFFFF"></polygon></g><path d="M0,0 L0,9.4" stroke="#FFFFFF" stroke-width="2" fill="none" stroke-linecap="round" stroke-linejoin="round" stroke-dasharray=" 0.0 0.0"></path></g><g transform="translate(21.15030097961426 9.400089263916016)"><g clip-path="url(#i5)"><polygon points="0,0 0,0 0,9.4 0,9.4 0,0" stroke="none" fill="#FFFFFF"></polygon></g><path d="M0,0 L0,9.4" stroke="#FFFFFF" stroke-width="2" fill="none" stroke-linecap="round" stroke-linejoin="round" stroke-dasharray=" 0.0 0.0"></path></g><g transform="translate(2.350055456161499 14.10020065307617)"><g clip-path="url(#i6)"><polygon points="0,0 18.8,0 18.8,1.18 0,1.18 0,0" stroke="none" fill="#6EBBFF"></polygon></g><polygon points="18.8,1.18 16.45,0 14.1,1.18 11.75,0 9.4,1.18 7.05,0 4.7,1.18 2.35,0 0,1.18 18.8,1.18 18.8,1.18" stroke="#71BCFF" stroke-width="2" fill="none" stroke-linecap="round" stroke-linejoin="round" stroke-dasharray=" 0.0 0.0"></polygon></g></g></g></g></g></g></svg>