<?xml version="1.0" encoding="UTF-8"?>
<svg width="20px" height="20px" viewBox="0 0 20 20" version="1.1" xmlns="http://www.w3.org/2000/svg" xmlns:xlink="http://www.w3.org/1999/xlink">
    <title>Group 68</title>
    <defs>
        <linearGradient x1="19.5652%" y1="8.6957%" x2="78.2609%" y2="89.1304%" id="linearGradient-1">
            <stop stop-color="#9DE9FF" offset="0%"></stop>
            <stop stop-color="#36C5FF" offset="100%"></stop>
        </linearGradient>
        <path d="M6.68958924,0.0472930055 C6.5004934,-0.035288766 6.27729123,-0.00802876373 6.11668928,0.115843894 L3.01992106,2.50911174 L0.549586777,2.49989144 C0.407549032,2.49989144 0.270691995,2.55200615 0.170099914,2.64541175 C0.0686443814,2.73881734 0.0112248674,2.86589706 0.0112248674,2.99899001 L0,6.99859358 C0,7.13168653 0.056124337,7.25916713 0.157148144,7.35297361 C0.257740224,7.44758185 0.395028987,7.50009744 0.538361909,7.50009744 L3.03589491,7.50009744 L6.11712101,9.88454587 C6.21555446,9.96071353 6.33859627,10 6.46163809,10 C6.53934871,10 6.61705933,9.98436559 6.69002097,9.95269588 C6.87911681,9.87051499 7,9.69412674 7,9.50009966 L7,0.499889219 C7,0.306263027 6.87911681,0.129874777 6.68958924,0.0472930055 L6.68958924,0.0472930055 L6.68958924,0.0472930055 Z M8.68900664,3.04740978 C8.44947576,2.93076978 8.16476508,3.03698833 8.04831024,3.28229306 C7.93224487,3.52839944 8.03273099,3.8262122 8.27031446,3.94926539 C8.30108347,3.96569921 9.02863415,4.35490001 9.02863415,5.46318036 C9.02863415,6.64721657 8.34821068,7.03962397 8.32562078,7.05245036 C8.08570042,7.17590438 7.98833015,7.47652292 8.10829033,7.72343094 C8.19397617,7.89899217 8.36495837,8 8.54373019,8 C8.61656315,8 8.69095404,7.98316536 8.76028168,7.94749196 C8.81091422,7.92103753 10,7.28773447 10,5.46318036 C10,3.70275819 8.74236555,3.07346338 8.68900664,3.04740978 L8.68900664,3.04740978 L8.68900664,3.04740978 Z M9.89942724,1.07851213 C9.62934018,0.93058556 9.27094639,0.997934243 9.09433294,1.22804224 C8.91865892,1.45815024 8.99569245,1.76763347 9.26437036,1.919168 C9.3277821,1.95484677 10.8285267,2.82757344 10.8285267,4.99996933 C10.8285267,7.17717584 9.38884526,8.05070429 9.33153983,8.08397774 C9.06192249,8.2375167 8.98958613,8.54740082 9.16901788,8.77750882 C9.28174987,8.92182742 9.46775766,9 9.65705346,9 C9.7683763,9 9.88157801,8.97233893 9.98162765,8.91581415 C10.0638281,8.86931149 12,7.73641044 12,4.99956845 C12,2.25751496 9.98538538,1.12541568 9.89942724,1.07851213 L9.89942724,1.07851213 Z" id="path-2"></path>
        <filter x="-33.3%" y="-20.0%" width="166.7%" height="180.0%" filterUnits="objectBoundingBox" id="filter-3">
            <feOffset dx="0" dy="2" in="SourceAlpha" result="shadowOffsetOuter1"></feOffset>
            <feGaussianBlur stdDeviation="1" in="shadowOffsetOuter1" result="shadowBlurOuter1"></feGaussianBlur>
            <feColorMatrix values="0 0 0 0 0.179512838   0 0 0 0 0.551497444   0 0 0 0 0.694802989  0 0 0 0.382129589 0" type="matrix" in="shadowBlurOuter1"></feColorMatrix>
        </filter>
    </defs>
    <g id="学习心得" stroke="none" stroke-width="1" fill="none" fill-rule="evenodd">
        <g id="学习心得-管理员-主题心得" transform="translate(-28.000000, -285.000000)">
            <g id="编组-6" transform="translate(0.000000, 149.000000)">
                <g id="编组-2" transform="translate(16.000000, 126.000000)">
                    <g id="Group-68" transform="translate(12.000000, 10.000000)">
                        <path d="M0,10 C0,4.47716 4.47716,0 10,0 C15.52284,0 20,4.47716 20,10 C20,15.52284 15.52284,20 10,20 C4.47716,20 0,15.52284 0,10 C0,10 0,10 0,10 Z" id="Rectangle-23" fill="url(#linearGradient-1)"></path>
                        <g id="通知" transform="translate(4.000000, 5.000000)" fill-rule="nonzero">
                            <g id="形状">
                                <use fill="black" fill-opacity="1" filter="url(#filter-3)" xlink:href="#path-2"></use>
                                <use fill="#FFFFFF" xlink:href="#path-2"></use>
                            </g>
                        </g>
                    </g>
                </g>
            </g>
        </g>
    </g>
</svg>