<?xml version="1.0" encoding="UTF-8"?>
<svg width="48px" height="48px" viewBox="0 0 48 48" version="1.1" xmlns="http://www.w3.org/2000/svg" xmlns:xlink="http://www.w3.org/1999/xlink">
    <title>Group 81</title>
    <defs>
        <linearGradient x1="23.9130139%" y1="11.9565226%" x2="73.913008%" y2="84.7826123%" id="linearGradient-1">
            <stop stop-color="#FDA2A7" offset="0%"></stop>
            <stop stop-color="#FC7B82" offset="100%"></stop>
        </linearGradient>
    </defs>
    <g id="一部一品" stroke="none" stroke-width="1" fill="none" fill-rule="evenodd">
        <g id="党务---1备份" transform="translate(-210.000000, -596.000000)">
            <g id="编组-4备份" transform="translate(196.000000, 596.000000)">
                <g id="Group-81" transform="translate(13.999985, 0.000000)">
                    <rect id="路径" x="0" y="0" width="48" height="48"></rect>
                    <g id="编组-18">
                        <path d="M23,0 L25,0 C37.7025492,-2.33342044e-15 48,10.2974508 48,23 L48,25 C48,37.7025492 37.7025492,48 25,48 L23,48 C10.2974508,48 1.55561363e-15,37.7025492 0,25 L0,23 C-1.55561363e-15,10.2974508 10.2974508,2.33342044e-15 23,0 Z" id="Rectangle-23" fill="url(#linearGradient-1)"></path>
                        <path d="M37.0000153,21.4 L37.0000153,24.7 C37.0000153,25.9 36.4066087,26.95 35.3681471,27.4 L35.3681471,35.65 L32.9945208,35.65 L31.9560592,31 L31.0659493,35.8 L28.8406746,35.8 L28.8406746,28.45 C29.7307845,27.55 30.3241911,26.2 30.3241911,24.85 L30.3241911,21.1 C30.3241911,20.05 30.0274878,19.15 29.5824328,18.4 C29.8791361,18.4 30.0274878,18.25 30.3241911,18.25 L33.8846306,18.25 C35.6648504,18.4 37.0000153,19.75 37.0000153,21.4 Z M31.9560592,11.2 C33.736279,11.2 35.0714438,12.7 35.0714438,14.5 C35.0714438,16.3 33.5879273,17.8 31.9560592,17.8 C30.1758394,17.8 28.8406746,16.3 28.8406746,14.5 C28.8406746,12.7 30.3241911,11.2 31.9560592,11.2 Z M23.6483669,10 C25.5769384,10 27.0604548,11.65 27.0604548,13.6 C27.0604548,15.55 25.5769383,17.2 23.6483669,17.2 C21.7197955,17.2 20.236279,15.55 20.236279,13.6 C20.0879273,11.65 21.7197955,10 23.6483669,10 Z M18.1593559,21.1 C18.1593559,19.3 19.6428724,17.8 21.4230922,17.8 L25.4285867,17.8 C27.2088065,17.8 28.6923229,19.3 28.6923229,21.1 L28.6923229,24.85 C28.6923229,26.2 27.9505647,27.25 26.9121032,27.85 L26.9121032,36.85 L24.5384768,36.85 L23.5000153,31.6 L22.6099054,37 L19.9395757,37 L19.9395757,28 C18.9011142,27.4 18.1593559,26.35 18.1593559,25 L18.1593559,21.1 Z M15.0439713,11.2 C16.8241911,11.2 18.1593559,12.7 18.1593559,14.5 C18.1593559,16.3 16.6758394,17.8 15.0439713,17.8 C13.2637515,17.8 11.9285867,16.3 11.9285867,14.5 C11.780235,12.7 13.2637515,11.2 15.0439713,11.2 L15.0439713,11.2 Z M10.0000153,21.4 C10.0000153,19.75 11.3351801,18.25 12.9670482,18.25 L16.6758394,18.25 C16.9725427,18.25 17.1208944,18.25 17.4175977,18.4 C16.9725427,19.15 16.6758395,20.05 16.6758394,21.1 L16.6758394,24.85 C16.6758394,26.2 17.269246,27.4 18.1593559,28.45 L18.1593559,35.8 L15.9340812,35.8 L15.0439713,31 L14.1538614,35.8 L11.6318834,35.8 L11.6318834,27.55 C10.7417735,27.1 10.0000153,26.05 10.0000153,24.85 L10.0000153,21.4 L10.0000153,21.4 Z" id="形状" fill="#FFFFFF" fill-rule="nonzero"></path>
                    </g>
                    <g id="千人计划" transform="translate(10.000015, 10.000000)"></g>
                </g>
            </g>
        </g>
    </g>
</svg>