<?xml version="1.0" encoding="UTF-8"?>
<svg width="34px" height="34px" viewBox="0 0 34 34" version="1.1" xmlns="http://www.w3.org/2000/svg" xmlns:xlink="http://www.w3.org/1999/xlink">
    <title>编组备份</title>
    <g id="组织队伍分析" stroke="none" stroke-width="1" fill="currentColor" fill-rule="evenodd">
        <g id="党建翼联" transform="translate(-323.000000, -148.000000)" fill="currentColor" fill-rule="nonzero">
            <g id="编组备份" transform="translate(323.000000, 148.000000)">
                <g id="更多-(1)" transform="translate(4.000000, 4.000000)">
                    <path d="M10.5657553,0 L1.95505509,0 C0.875057934,0 0,0.884819277 0,1.9713253 L0,10.5592771 C0,11.6490361 0.878310938,12.5306024 1.95505509,12.5306024 L10.5625023,12.5306024 C11.6424994,12.5306024 12.5175931,11.6457831 12.5175931,10.5592771 L12.5175931,1.9713253 C12.5240634,0.881566265 11.6424994,0 10.5657553,0 Z M10.4031051,10.790241 L2.17300632,10.790241 C1.95830809,10.790241 1.7826459,10.6145783 1.7826459,10.3966265 L1.7826459,2.16 C1.7826459,1.94204819 1.95505509,1.76638554 2.17300632,1.76638554 L10.3998521,1.76638554 C10.6145503,1.76638554 10.7902125,1.94204819 10.7902125,2.16 L10.7902125,10.3998795 L10.7934655,10.3998795 C10.7934655,10.6178313 10.6210563,10.790241 10.4031051,10.790241 L10.4031051,10.790241 Z M25.0481267,0 L16.4374266,0 C15.3574294,0 14.4823715,0.884819277 14.4823715,1.9713253 L14.4823715,10.5592771 C14.4823715,11.6490361 15.3606824,12.5306024 16.4374266,12.5306024 L25.0448737,12.5306024 C26.1248709,12.5306024 26.9999646,11.6457831 26.9999646,10.5592771 L26.9999646,1.9713253 C27.0064348,0.881566265 26.1248709,0 25.0481267,0 Z M24.8301755,10.8195181 L16.5707997,10.8195181 C16.3561015,10.8195181 16.1804393,10.6438554 16.1804393,10.4259036 L16.1804393,2.16 C16.1804393,1.94204819 16.3528485,1.76638554 16.5707997,1.76638554 L24.8269225,1.76638554 C25.0416207,1.76638554 25.2172829,1.94204819 25.2172829,2.16 L25.2172829,10.4259036 L25.2205359,10.4259036 C25.2172829,10.6438554 25.0448737,10.8195181 24.8301755,10.8195181 L24.8301755,10.8195181 Z M10.5657553,14.4693976 L1.95505509,14.4693976 C0.875057934,14.4693976 0,15.3542169 0,16.4407229 L0,25.0286747 C0,26.1184337 0.878310938,27 1.95505509,27 L10.5625023,27 C11.6424994,27 12.5175931,26.1151807 12.5175931,25.0286747 L12.5175931,16.4407229 C12.5240634,15.3509639 11.6424994,14.4693976 10.5657553,14.4693976 Z M10.4031051,25.2043373 L2.17300632,25.2043373 C1.95830809,25.2043373 1.7826459,25.0286747 1.7826459,24.8107229 L1.7826459,16.5740964 C1.7826459,16.3561446 1.95505509,16.1804819 2.17300632,16.1804819 L10.3998521,16.1804819 C10.6145503,16.1804819 10.7902125,16.3561446 10.7902125,16.5740964 L10.7902125,24.8107229 L10.7934655,24.8107229 C10.7934655,25.0286747 10.6210563,25.2043373 10.4031051,25.2043373 L10.4031051,25.2043373 Z M25.0481267,14.4693976 L16.4374266,14.4693976 C15.3574294,14.4693976 14.4823715,15.3542169 14.4823715,16.4407229 L14.4823715,25.0286747 C14.4823715,26.1184337 15.3606824,27 16.4374266,27 L25.0448737,27 C26.1248709,27 26.9999646,26.1151807 26.9999646,25.0286747 L26.9999646,16.4407229 C27.0064348,15.3509639 26.1248709,14.4693976 25.0481267,14.4693976 Z M24.8301755,25.2043373 L16.5707997,25.2043373 C16.3561015,25.2043373 16.1804393,25.0286747 16.1804393,24.8107229 L16.1804393,16.5740964 C16.1804393,16.3561446 16.3528485,16.1804819 16.5707997,16.1804819 L24.8269225,16.1804819 C25.0416207,16.1804819 25.2172829,16.3561446 25.2172829,16.5740964 L25.2172829,24.8107229 L25.2205359,24.8107229 C25.2172829,25.0286747 25.0448737,25.2043373 24.8301755,25.2043373 L24.8301755,25.2043373 Z" id="形状"></path>
                </g>
            </g>
        </g>
    </g>
</svg>