<?xml version="1.0" encoding="UTF-8"?>
<svg width="34px" height="34px" viewBox="0 0 34 34" version="1.1" xmlns="http://www.w3.org/2000/svg" xmlns:xlink="http://www.w3.org/1999/xlink">
    <title>编组</title>
    <g id="组织队伍分析" stroke="none" stroke-width="1" fill="currentColor" fill-rule="evenodd">
        <g id="党建翼联" transform="translate(-264.000000, -148.000000)" fill="currentColor" fill-rule="nonzero">
            <g id="编组" transform="translate(264.000000, 148.000000)">
                <g id="更多" transform="translate(4.000000, 5.000000)">
                    <path d="M8.80624631,4.53051845 L24.6246744,4.53051845 C24.9899246,4.53051845 25.3403171,4.38932342 25.5978494,4.13762797 C25.8551099,3.8867332 26,3.54390758 26,3.18609631 C26,2.82828504 25.8551099,2.48545941 25.5978494,2.23456465 C25.3379147,1.98219448 24.9884533,1.84110981 24.6246744,1.84167248 L8.80624631,1.84167248 C8.44099612,1.84167248 8.0906036,1.98286919 7.83307126,2.23456465 C7.57581079,2.48545941 7.43092069,2.82828504 7.43092069,3.18609631 C7.43092069,3.54390758 7.57581079,3.8867332 7.83307126,4.13762797 C8.0906036,4.38932345 8.44099612,4.53051845 8.80624631,4.53051845 L8.80624631,4.53051845 Z M24.6246744,10.6264583 L8.80624631,10.6264583 C8.44099612,10.6264583 8.09184171,10.767655 7.83307126,11.0193504 C7.57581079,11.2702452 7.43092069,11.6130708 7.43092069,11.9708821 C7.43092069,12.3286933 7.57581079,12.671519 7.83307126,12.9224137 C8.09184171,13.1741092 8.44099612,13.3153042 8.80624631,13.3153042 L24.6246744,13.3153042 C24.9899246,13.3153042 25.339079,13.1741092 25.5978494,12.9224137 C25.8551099,12.671519 26,12.3286933 26,11.9708821 C26,11.6130708 25.8551099,11.2702452 25.5978494,11.0193504 C25.3379147,10.7669802 24.9884533,10.6258956 24.6246744,10.6264583 L24.6246744,10.6264583 Z M24.6246744,19.4100179 L8.80624631,19.4100179 C8.44099612,19.4100179 8.0906036,19.5524407 7.83307126,19.8041362 C7.57581079,20.055031 7.43092069,20.3978566 7.43092069,20.7556679 C7.43092069,21.1134791 7.57581079,21.4563047 7.83307126,21.7071995 C8.0906036,21.958895 8.44099612,22.10009 8.80624631,22.10009 L24.6246744,22.10009 C24.9899246,22.10009 25.3403171,21.958895 25.5978494,21.7071995 C25.8551099,21.4563047 26,21.1134791 26,20.7556679 C26,20.3978566 25.8551099,20.055031 25.5978494,19.8041362 C25.3379147,19.551766 24.9884533,19.4106814 24.6246744,19.4112457 L24.6246744,19.4100179 Z M0.000621690054,2.76251125 C0.000621690054,4.28820408 1.24786972,5.5250225 2.78642813,5.5250225 C4.32498655,5.5250225 5.57223457,4.28820408 5.57223457,2.76251125 C5.57223457,1.23681841 4.32498655,0 2.78642813,0 C1.24786972,0 0.000621690054,1.23681841 0.000621690054,2.76251125 Z M0.000621690054,11.9708821 C-0.0206545849,12.9714945 0.50549665,13.9052611 1.37598611,14.4117572 C2.24647558,14.9182532 3.32514254,14.9182532 4.19563201,14.4117572 C5.06612147,13.9052611 5.5922727,12.9714945 5.57099643,11.9708821 C5.5390449,10.4682181 4.30148124,9.26660667 2.78580906,9.26660667 C1.27013688,9.26660667 0.0325732147,10.4682181 0.000621690054,11.9708821 L0.000621690054,11.9708821 Z M0.000621690054,21.1792529 C-0.0206545849,22.1798653 0.50549665,23.113632 1.37598611,23.620128 C2.24647558,24.126624 3.32514254,24.126624 4.19563201,23.620128 C5.06612147,23.113632 5.5922727,22.1798653 5.57099643,21.1792529 C5.5390449,19.6765889 4.30148124,18.4749775 2.78580906,18.4749775 C1.27013688,18.4749775 0.0325732147,19.6765889 0.000621690054,21.1792529 L0.000621690054,21.1792529 Z" id="形状"></path>
                </g>
            </g>
        </g>
    </g>
</svg>