<?xml version="1.0" encoding="UTF-8"?><svg version="1.1" width="18px" height="18px" viewBox="0 0 18.0 18.0" xmlns="http://www.w3.org/2000/svg" xmlns:xlink="http://www.w3.org/1999/xlink"><defs><clipPath id="i0"><path d="M375,0 L375,812 L0,812 L0,0 L375,0 Z"></path></clipPath><clipPath id="i1"><path d="M9.11754,2.93418 C9.48231,2.93418 9.78057,3.15513 9.78057,3.42594 C9.78057,3.69675 9.48231,3.9177 9.11754,3.9177 L8.48763,3.9177 C8.12277,3.9177 7.83009,3.69675 7.82451,3.42594 C7.82451,3.15513 8.12277,2.93418 8.48763,2.93418 Z M5.21082,2.93418 C5.5755,2.93418 5.87385,3.15513 5.87385,3.42594 C5.87385,3.69675 5.5755,3.9177 5.21082,3.9177 L4.57533,3.9177 C4.21065,3.9177 3.9123,3.69675 3.9123,3.42594 C3.9123,3.15513 4.21065,2.93418 4.57533,2.93418 Z M1.29303,2.93418 C1.6578,2.93418 1.95624,3.15513 1.95624,3.42594 C1.95624,3.69675 1.6578,3.9177 1.29303,3.9177 L0.66312,3.9177 C0.29295,3.9177 0,3.69675 0,3.42594 C0,3.15513 0.29844,2.93418 0.66312,2.93418 Z M9.11754,0 C9.48231,0 9.78057,0.22104 9.78057,0.49176 C9.78057,0.76257 9.48231,0.98352 9.11754,0.98352 L8.48763,0.98352 C8.12277,0.98352 7.83009,0.76257 7.82451,0.49176 C7.82451,0.22104 8.12277,0 8.48763,0 Z M5.21082,0 C5.5755,0 5.87385,0.22104 5.87385,0.49176 C5.87385,0.76257 5.5755,0.98352 5.21082,0.98352 L4.57533,0.98352 C4.21065,0.98352 3.9123,0.76257 3.9123,0.49176 C3.9123,0.22104 4.21065,0 4.57533,0 Z M1.29303,0 C1.6578,0 1.95624,0.22104 1.95624,0.49176 C1.95624,0.76257 1.6578,0.98352 1.29303,0.98352 L0.66312,0.98352 C0.29295,0.98352 0,0.76257 0,0.49176 C0,0.22104 0.29844,0 0.66312,0 Z"></path></clipPath><clipPath id="i2"><path d="M11.30571,0 C11.5711141,0.00029759411 11.7861924,0.215375903 11.78649,0.48078 L11.78649,0.91196 L12.7755,0.91196 C14.36697,0.91196 15.66,2.22155 15.66,3.82958 L15.66,11.70386 C15.66,13.31171 14.36697,14.61581 12.7755,14.61581 L2.6082,14.60483 C1.14939,14.46668 0,13.21784 0,11.70386 L0,4.13351 C0,2.02823 1.29294,0.91196 2.8845,0.91745 L3.92337,0.91745 L3.92337,0.47511 C3.9234197,0.212699435 4.13615943,0 4.39857,0 C4.66395949,0.000297684372 4.879012,0.215390462 4.87926,0.48078 L4.87926,0.91745 L10.82493,0.91745 L10.82493,0.47511 C10.83042,0.21006 11.04606,0 11.30571,0 Z M14.68746,5.80787 L0.98352,5.80787 L0.98352,11.99114 C0.98352,12.89735 1.76832,13.63787 2.74086,13.63787 L12.92481,13.63787 C13.89186,13.63787 14.68197,12.90293 14.68197,11.99114 L14.68746,5.80787 Z M3.92337,1.89557 L2.93967,1.89557 C1.69092,1.89557 0.98352,2.73545 0.98352,3.54221 L0.98352,4.82975 L14.68197,4.82975 L14.68197,3.54221 C14.77035,2.60828 13.69287,1.89557 12.72582,1.89557 L11.79207,1.89557 L11.79207,3.3488 C11.7917724,3.6142041 11.5766941,3.82928241 11.31129,3.82958 C11.05146,3.82958 10.836,3.61952 10.83042,3.36545 L10.83042,1.89557 L4.88475,1.89557 L4.88475,3.3488 C4.8846011,3.61423062 4.66949059,3.8293814 4.40406,3.82958 C4.14423,3.82958 3.92895,3.61952 3.92337,3.36545 L3.92337,1.89557 Z"></path></clipPath></defs><g transform="translate(-341.0 -389.0)"><g clip-path="url(#i0)"><g transform="translate(136.5 387.0)"><g transform="translate(204.5 2.0)"><g transform="translate(4.109670000000001 9.95598)"><g clip-path="url(#i1)"><polygon points="0,0 9.78057,0 9.78057,3.9177 0,3.9177 0,0" stroke="none" fill="#333333"></polygon></g></g><g transform="translate(1.17 2.1920499999996537)"><g clip-path="url(#i2)"><polygon points="0,0 15.66,0 15.66,14.61581 0,14.61581 0,0" stroke="none" fill="#333333"></polygon></g></g></g></g></g></g></svg>