<?xml version="1.0" encoding="UTF-8"?><svg version="1.1" width="14px" height="14px" viewBox="0 0 14.0 14.0" xmlns="http://www.w3.org/2000/svg" xmlns:xlink="http://www.w3.org/1999/xlink"><defs><clipPath id="i0"><path d="M375,0 L375,812 L0,812 L0,0 L375,0 Z"></path></clipPath><clipPath id="i1"><path d="M12.7233265,0 C12.8662394,0 13.0032537,0.0569830231 13.1040188,0.158326462 C13.3130436,0.369083269 13.3130436,0.708954281 13.1040188,0.919711089 L7.39255724,6.63117262 L13.1040188,12.3426342 C13.2053622,12.4433992 13.2623452,12.5804136 13.2623452,12.7233265 C13.2623452,12.8662394 13.2053622,13.0032537 13.1040188,13.1040188 C12.8934803,13.3140188 12.5499418,13.3113265 12.3426342,13.1040188 L6.63117262,7.39255724 L0.919711089,13.1040188 C0.818946018,13.2053622 0.681931658,13.2623452 0.539018775,13.2623452 C0.396105893,13.2623452 0.259091532,13.2053622 0.158326462,13.1040188 C-0.0506983329,12.893262 -0.0506983329,12.553391 0.158326462,12.3426342 L5.86978801,6.63117262 L0.158326462,0.919711089 C0.0569830231,0.818946018 0,0.681931658 0,0.539018775 C0,0.396105893 0.0569830231,0.259091532 0.158326462,0.158326462 C0.369083269,-0.0506983329 0.708954281,-0.0506983329 0.919711089,0.158326462 L6.63117262,5.86978801 L12.3426342,0.158326462 C12.4433992,0.0569830231 12.5804136,0 12.7233265,0 Z"></path></clipPath></defs><g transform="translate(-333.0 -652.0)"><g clip-path="url(#i0)"><g transform="translate(333.0 652.0)"><g transform="translate(0.3688273781635134 0.3688273781635134)"><g clip-path="url(#i1)"><polygon points="0,0 13.2623452,0 13.2623452,13.2623452 0,13.2623452 0,0" stroke="none" fill="#999999"></polygon></g></g></g></g></g></svg>