<svg xmlns="http://www.w3.org/2000/svg" width="20" height="20" viewBox="0 0 20 20"><defs><style>.a{opacity:0.5;}.b{fill:#fff;}</style></defs><g class="a" transform="translate(-55.556 -55.556)"><path class="b" d="M4.076,3.21,7.107.179a.612.612,0,1,1,.866.866L4.942,4.076,7.973,7.107a.612.612,0,0,1-.866.866L4.076,4.942,1.045,7.973a.612.612,0,0,1-.866-.866L3.21,4.076.179,1.045A.612.612,0,0,1,1.045.179Z" transform="translate(61.269 61.282)"/><path class="b" d="M10,20a10.16,10.16,0,0,1-1.022-.052,10.025,10.025,0,0,1-.993-.152c-.322-.066-.645-.149-.958-.246s-.619-.21-.919-.336A10.029,10.029,0,0,1,.786,13.892c-.127-.3-.24-.609-.336-.919s-.18-.636-.246-.958a10.025,10.025,0,0,1-.152-.993,10.15,10.15,0,0,1,0-2.045A10.025,10.025,0,0,1,.2,7.985c.066-.322.149-.645.246-.958s.21-.619.336-.919A10.029,10.029,0,0,1,6.108.786c.3-.127.609-.24.919-.336S7.662.269,7.985.2A10.025,10.025,0,0,1,8.978.052a10.15,10.15,0,0,1,2.045,0A10.025,10.025,0,0,1,12.015.2c.322.066.645.149.958.246s.619.21.919.336a10.029,10.029,0,0,1,5.322,5.322c.127.3.24.609.336.919s.18.636.246.958a10.025,10.025,0,0,1,.152.993,10.15,10.15,0,0,1,0,2.045,10.025,10.025,0,0,1-.152.993c-.066.322-.149.645-.246.958s-.21.619-.336.919a10.029,10.029,0,0,1-5.322,5.322c-.3.127-.609.24-.919.336s-.636.18-.958.246a10.025,10.025,0,0,1-.993.152A10.16,10.16,0,0,1,10,20ZM10,1.25A8.75,8.75,0,1,0,18.75,10,8.76,8.76,0,0,0,10,1.25Z" transform="translate(55.556 55.556)"/></g></svg>