<?xml version="1.0" encoding="UTF-8"?><svg version="1.1" width="52px" height="52px" viewBox="0 0 52.0 52.0" xmlns="http://www.w3.org/2000/svg" xmlns:xlink="http://www.w3.org/1999/xlink"><defs><clipPath id="i0"><path d="M375,0 L375,858 L0,858 L0,0 L375,0 Z"></path></clipPath><filter id="i1" x="-50%" y="-46.1538462%" filterUnits="userSpaceOnUse" width="173.076923%" height="173.076923%"><feGaussianBlur stdDeviation="4" in="SourceAlpha" result="i2"></feGaussianBlur><feOffset dx="1" dy="3" in="i2" result="i3"></feOffset><feColorMatrix values="0 0 0 1.0 0 0 0 0 0.3411764705882353 0 0 0 0 0.3411764705882353 0 0 0 0 0.3 0" type="matrix" in="i3"></feColorMatrix></filter><clipPath id="i4"><path d="M18,0 C27.9411255,0 36,8.0588745 36,18 C36,27.9411255 27.9411255,36 18,36 C8.0588745,36 0,27.9411255 0,18 C0,8.0588745 8.0588745,0 18,0 Z"></path></clipPath><linearGradient id="i5" x1="3.94684285e-14px" y1="3.49720253e-15px" x2="36px" y2="36px" gradientUnits="userSpaceOnUse"><stop stop-color="#FF8F8F" offset="0%"></stop><stop stop-color="#FF5757" offset="100%"></stop></linearGradient><clipPath id="i6"><path d="M11.5675637,0 C12.6675637,0 13.5342304,0.9 13.5342304,1.96666668 L13.5342304,3.26666668 C13.5342304,3.63333334 13.2342304,3.93333334 12.8675637,3.93333334 C12.5008971,3.93333334 12.2008971,3.63333334 12.2008971,3.26666668 L12.2008971,1.96666668 C12.2008971,1.60000002 11.9008971,1.30000002 11.5342304,1.3 L1.96756374,1.3 C1.60089708,1.3 1.30089708,1.6 1.30089708,1.96666668 L1.30089708,14.2 C1.30089708,14.5666667 1.60089708,14.8666667 1.96756374,14.8666667 L3.26756374,14.8666667 C3.6342304,14.8666667 3.9342304,15.1666667 3.93423042,15.5333333 C3.93423044,15.9 3.63423042,16.2 3.26756374,16.2 L1.96756374,16.2 C0.867563738,16.2 0.000897077834,15.3 0.000897077834,14.2333333 L0.000897077834,1.96666668 C-0.032436262,0.9 0.867563738,0 1.96756374,0 L11.5675637,0 Z"></path></clipPath><clipPath id="i7"><path d="M11.4333333,0 C12.4333333,0 13.2666667,0.8 13.2666667,1.8 L13.2666667,14.0666667 C13.2666667,15.1 12.4333333,15.9 11.4333333,15.9 L1.83333334,15.9 C0.8,15.9 0,15.0666667 0,14.0666667 L0,1.83333334 C0,0.8 0.83333334,0 1.83333334,0 Z M9.26666668,11.9 L4,11.9 C3.63333334,11.9 3.33333334,12.2 3.33333334,12.5666667 C3.33333334,12.9333333 3.63333334,13.2333333 4,13.2333333 L9.26666668,13.2333333 C9.63333334,13.2333333 9.9,12.9333333 9.93333334,12.5666667 C9.93333334,12.2 9.63333334,11.9 9.26666668,11.9 Z M9.26666668,9.93333334 L4,9.93333334 C3.63333334,9.93333334 3.33333334,10.2333333 3.33333334,10.6 C3.33333334,10.9666667 3.63333334,11.2666667 4,11.2666667 L9.26666668,11.2666667 C9.63333334,11.2666667 9.93333334,10.9666667 9.93333334,10.6 C9.93333334,10.2333333 9.63333334,9.93333334 9.26666668,9.93333334 Z M6.7,2.4 C5.8,2.4 4.73333334,2.86666668 4.73333334,4.26666668 C4.73333334,5.1 5.10000002,5.56666668 5.36666668,5.83333334 L4.56666668,5.83333334 C4.06666668,5.83333334 3.63333334,6.26666668 3.63333334,6.76666668 L3.63333334,8.23333334 L9.63333334,8.23333334 L9.63333334,6.76666668 C9.63333334,6.26666668 9.2,5.83333334 8.7,5.83333334 L7.9,5.83333334 C8.16666668,5.56666668 8.56666668,5.13333334 8.56666668,4.26666668 C8.56666666,2.9 7.6,2.4 6.7,2.4 Z"></path></clipPath></defs><g transform="translate(-29.0 -469.0)"><g clip-path="url(#i0)"><g transform="translate(16.0 371.0)"><g transform="translate(20.0 103.0)"><path d="M18,36 C27.9411255,36 36,27.9411255 36,18 C36,8.0588745 27.9411255,0 18,0 C8.0588745,0 0,8.0588745 0,18 C0,27.9411255 8.0588745,36 18,36 Z" stroke="none" fill="#000000" filter="url(#i1)"></path><g clip-path="url(#i4)"><polygon points="0,0 36,0 36,36 0,36 0,0" stroke="none" fill="url(#i5)"></polygon></g><g transform="translate(8.0 8.0)"><g transform="translate(1.999102922166374 0.6666666601562508)"><g clip-path="url(#i6)"><polygon points="1.18828558e-16,0 13.5342304,0 13.5342304,16.2 1.18828558e-16,16.2 1.18828558e-16,0" stroke="none" fill="#FFFFFF"></polygon></g></g><g transform="translate(4.76666666015625 3.4666666601562506)"><g clip-path="url(#i7)"><polygon points="0,0 13.2666667,0 13.2666667,15.9 0,15.9 0,0" stroke="none" fill="#FFFFFF"></polygon></g></g></g></g></g></g></g></svg>