<?xml version="1.0" encoding="UTF-8"?>
<svg width="16px" height="16px" viewBox="0 0 16 16" version="1.1" xmlns="http://www.w3.org/2000/svg" xmlns:xlink="http://www.w3.org/1999/xlink">
    <title>组 382</title>
    <defs>
        <rect id="path-1" x="0" y="0" width="16" height="16"></rect>
        <mask id="mask-2" maskContentUnits="userSpaceOnUse" maskUnits="objectBoundingBox" x="0" y="0" width="16" height="16" fill="white">
            <use xlink:href="#path-1"></use>
        </mask>
    </defs>
    <g id="组织生活" stroke="none" stroke-width="1" fill="none" fill-rule="evenodd">
        <g id="组织生活备份" transform="translate(-28.000000, -307.000000)">
            <g id="编组-5" transform="translate(16.000000, 255.000000)">
                <g id="组-382" transform="translate(12.000000, 52.000000)">
                    <rect id="路径" x="0" y="0" width="16" height="16"></rect>
                    <use id="矩形-95" stroke="#707070" mask="url(#mask-2)" stroke-width="2" fill="#FFFFFF" opacity="0" stroke-dasharray="0,0" xlink:href="#path-1"></use>
                    <g id="组-381" transform="translate(1.200195, 0.000000)">
                        <rect id="路径" x="0" y="0" width="13.6000004" height="15.9999899"></rect>
                        <path d="M2,0 L11.6000004,0 C12.7045699,7.78148667e-16 13.6000004,0.8954305 13.6000004,2 L13.6000004,8.39999962 C13.6000004,9.50456912 12.7045699,10.3999996 11.6000004,10.3999996 L2,10.3999996 C0.8954305,10.3999996 1.11632554e-15,9.50456912 0,8.39999962 L0,2 C-1.3527075e-16,0.8954305 0.8954305,-2.41183085e-16 2,0 Z" id="矩形-96" fill="#FF5757"></path>
                        <path d="M0.800000012,11.2000122 L12.8000004,11.2000122 C13.2418282,11.2000122 13.6000004,11.5581844 13.6000004,12.0000122 C13.6000004,12.44184 13.2418282,12.8000122 12.8000004,12.8000122 L0.800000012,12.8000122 C0.358172205,12.8000122 5.41083009e-17,12.44184 0,12.0000122 C-5.41083009e-17,11.5581844 0.358172205,11.2000122 0.800000012,11.2000122 Z" id="矩形-97" fill="#FF5757"></path>
                        <path d="M2.1018929,12.8435672 L5.81438525,12.8435672 C6.23618135,12.8435672 6.57811464,13.1855005 6.57811464,13.6072966 C6.57811464,14.0290927 6.23618135,14.371026 5.81438525,14.371026 L2.1018929,14.371026 C1.6800968,14.371026 1.33816351,14.0290927 1.33816351,13.6072966 C1.33816351,13.1855005 1.6800968,12.8435672 2.1018929,12.8435672 Z" id="矩形-98" fill="#FF5757" transform="translate(3.958139, 13.607297) rotate(-45.000000) translate(-3.958139, -13.607297) "></path>
                        <path d="M8.53323006,13.0924972 L11.5417906,13.0924972 C11.9635867,13.0924972 12.30552,13.4344305 12.30552,13.8562266 C12.30552,14.2780227 11.9635867,14.619956 11.5417906,14.619956 L8.53323006,14.619956 C8.11143396,14.619956 7.76950066,14.2780227 7.76950066,13.8562266 C7.76950066,13.4344305 8.11143396,13.0924972 8.53323006,13.0924972 Z" id="矩形-99" fill="#FF5757" transform="translate(10.037510, 13.856227) rotate(45.000000) translate(-10.037510, -13.856227) "></path>
                        <path d="M10.5008203,3.67749023 L7.07082031,6.94749023 L5.08082031,4.95749023 L3.09082031,6.94749023" id="路径" stroke="#FFFFFF" stroke-linecap="round" stroke-linejoin="round" stroke-dasharray="0,0"></path>
                    </g>
                </g>
            </g>
        </g>
    </g>
</svg>