<?xml version="1.0" encoding="UTF-8"?>
<svg width="12px" height="12px" viewBox="0 0 12 12" version="1.1" xmlns="http://www.w3.org/2000/svg" xmlns:xlink="http://www.w3.org/1999/xlink">
    <title>dangjian 1</title>
    <g id="新首页" stroke="none" stroke-width="1" fill="none" fill-rule="evenodd">
        <g id="首页备份-2" transform="translate(-80.000000, -60.000000)">
            <g id="组-1" transform="translate(28.000000, 59.998087)">
                <g id="dangjian-1" transform="translate(52.000000, 0.000000)">
                    <rect id="路径" x="0" y="0.00188227139" width="12" height="12"></rect>
                    <path d="M0,0.00188227139 L12,0.00188227139 L12,12.0018823 L0,12.0018823 L0,0.00188227139 Z"></path>
                    <path d="M5.45062103,3.94189381 L6.94062103,2.44189381 L6.00062103,1.50189381 C5.48062103,2.01189381 4.66062103,2.11189381 4.11062103,1.89189381 L1.12062103,4.88189381 L2.81062103,6.57189381 L3.95062103,5.45189381 L7.87062103,9.38189381 C5.94062103,10.4318938 3.29062103,10.1118938 1.32062103,8.07189381 L0.360621027,9.01189381 C0.650621027,9.40189381 0.880621027,9.76189381 1.18062103,10.0618938 C1.16062103,10.0885605 1.12395436,10.1252271 1.07062103,10.1718938 C1.03062103,10.1518938 0.970621027,10.1418938 0.910621027,10.1418938 C0.400621027,10.1318938 0.000621026615,10.5718938 0.000621026615,11.0818938 C0.000621026615,11.5818938 0.420621027,12.0018938 0.920621027,12.0018938 C1.43062103,12.0018938 1.86062103,11.5818938 1.86062103,11.0818938 C1.86062103,11.0218938 1.85062103,10.9618938 1.83062103,10.9018938 L1.98062103,10.7718938 C4.25062103,12.2918938 6.73062103,12.4818938 9.39062103,10.8818938 L10.490621,11.9918938 L11.990621,10.5018938 L10.880621,9.38189381 C14.060621,4.59189381 9.82062103,-0.108106189 6.00062103,0.00189381104 C9.09062103,1.17189381 10.970621,4.87189381 9.37062103,7.88189381 L5.45062103,3.94189381 Z" id="路径" fill="#FC6868"></path>
                </g>
            </g>
        </g>
    </g>
</svg>