<?xml version="1.0" encoding="UTF-8"?><svg version="1.1" width="77px" height="77px" viewBox="0 0 77.0 77.0" xmlns="http://www.w3.org/2000/svg" xmlns:xlink="http://www.w3.org/1999/xlink"><defs><clipPath id="i0"><path d="M375,0 L375,812 L0,812 L0,0 L375,0 Z"></path></clipPath><clipPath id="i1"><path d="M38.5,0 C59.76,0 77,17.24 77,38.5 C77,59.76 59.76,77 38.5,77 C17.24,77 0,59.76 0,38.5 C0,17.24 17.24,0 38.5,0 Z"></path></clipPath><clipPath id="i2"><path d="M17.6271186,0 C27.3623075,0 35.2542373,7.89192983 35.2542373,17.6271186 C35.2542373,27.3623075 27.3623075,35.2542373 17.6271186,35.2542373 C7.89192983,35.2542373 0,27.3623075 0,17.6271186 C0,7.89192983 7.89192983,0 17.6271186,0 Z"></path></clipPath><clipPath id="i3"><path d="M44.0677966,0 C61.5911365,-3.21898531e-15 75.7966102,14.2054737 75.7966102,31.7288136 C75.7966102,49.2521534 61.5911365,63.4576271 44.0677966,63.4576271 L31.7288136,63.4576271 C14.2054737,63.4576271 2.14599021e-15,49.2521534 0,31.7288136 C-2.14599021e-15,14.2054737 14.2054737,6.77169899e-15 31.7288136,0 L44.0677966,0 Z"></path></clipPath></defs><g transform="translate(-149.0 -166.0)"><g clip-path="url(#i0)"><g transform="translate(149.0 166.0)"><g clip-path="url(#i1)"><polygon points="0,0 77,0 77,77 0,77 0,0" stroke="none" fill="#EAE9E9"></polygon><g transform="translate(1.1016949152542566 9.5)"><g transform="translate(20.000000000000004 0.0)"><g clip-path="url(#i2)"><polygon points="0,0 35.2542373,0 35.2542373,35.2542373 0,35.2542373 0,0" stroke="none" fill="#FFFFFF"></polygon></g></g><g transform="translate(0.0 41.0)"><g clip-path="url(#i3)"><polygon points="0,0 75.7966102,0 75.7966102,26.5 0,26.5 0,0" stroke="none" fill="#FFFFFF"></polygon></g></g></g></g></g></g></g></svg>