<?xml version="1.0" encoding="UTF-8"?><svg version="1.1" width="40px" height="40px" viewBox="0 0 40.0 40.0" xmlns="http://www.w3.org/2000/svg" xmlns:xlink="http://www.w3.org/1999/xlink"><defs><clipPath id="i0"><path d="M375,0 L375,812 L0,812 L0,0 L375,0 Z"></path></clipPath><clipPath id="i1"><path d="M34,0 C36.209139,-4.05812251e-16 38,1.790861 38,4 L38,34 C38,36.209139 36.209139,38 34,38 L4,38 C1.790861,38 2.705415e-16,36.209139 0,34 L0,4 C-2.705415e-16,1.790861 1.790861,4.05812251e-16 4,0 L34,0 Z"></path></clipPath><clipPath id="i2"><path d="M10,0 C15.5228475,0 20,4.4771525 20,10 C20,15.5228475 15.5228475,20 10,20 C4.4771525,20 0,15.5228475 0,10 C0,4.4771525 4.4771525,0 10,0 Z"></path></clipPath><clipPath id="i3"><path d="M25,0 C34.9411255,-1.82615513e-15 43,8.0588745 43,18 C43,27.9411255 34.9411255,36 25,36 L18,36 C8.0588745,36 1.21743675e-15,27.9411255 0,18 C-1.21743675e-15,8.0588745 8.0588745,1.82615513e-15 18,0 L25,0 Z"></path></clipPath></defs><g transform="translate(-15.0 -620.0)"><g clip-path="url(#i0)"><g transform="translate(16.0 621.0)"><path d="M4,0 L34,0 C36.209139,-4.05812251e-16 38,1.790861 38,4 L38,34 C38,36.209139 36.209139,38 34,38 L4,38 C1.790861,38 2.705415e-16,36.209139 0,34 L0,4 C-2.705415e-16,1.790861 1.790861,4.05812251e-16 4,0 Z" stroke="#CCCCCC" stroke-width="2" fill="none" stroke-miterlimit="5"></path><g clip-path="url(#i1)"><polygon points="0,0 38,0 38,38 0,38 0,0" stroke="none" fill="#FFFFFF"></polygon></g><g clip-path="url(#i1)"><polygon points="0,0 38,0 38,38 0,38 0,0" stroke="none" fill="#E9E9E9"></polygon><g transform="translate(-2.5 3.0)"><g transform="translate(11.5 0.0)"><g clip-path="url(#i2)"><polygon points="0,0 20,0 20,20 0,20 0,0" stroke="none" fill="#FFFFFF"></polygon></g></g><g transform="translate(0.0 23.0)"><g clip-path="url(#i3)"><polygon points="2.5,0 40.5,0 40.5,12 2.5,12 2.5,0" stroke="none" fill="#FFFFFF"></polygon></g></g></g></g></g></g></g></svg>