<?xml version="1.0" encoding="UTF-8"?>
<svg width="18px" height="18px" viewBox="0 0 18 18" version="1.1" xmlns="http://www.w3.org/2000/svg" xmlns:xlink="http://www.w3.org/1999/xlink">
    <title>编组 2</title>
    <g id="组织队伍分析" stroke="none" stroke-width="1" fill="none" fill-rule="evenodd">
        <g id="党建翼联我的" transform="translate(-280.000000, -854.000000)" fill="#000000" fill-rule="nonzero">
            <g id="编组-3" transform="translate(22.000000, 641.000000)">
                <g id="编组-2" transform="translate(258.000000, 213.000000)">
                    <g id="删除-(1)" transform="translate(2.000000, 1.000000)">
                        <path d="M13.5004194,1.75 L10.4989378,1.75 L10.4989378,0.5 C10.4989378,0.223857625 10.2751561,0 9.9991074,0 L4.00114245,0 C3.72509374,0 3.50131204,0.223857625 3.50131204,0.5 L3.50131204,1.75 L0.499830412,1.75 C0.223781698,1.75 0,1.97385763 0,2.25 C0,2.52614237 0.223781698,2.75 0.499830412,2.75 L1.0271515,2.75 L2.24423855,13.6665 C2.32900357,14.4256874 2.97058412,15 3.73423301,15 L10.265517,15 C11.0292699,15 11.6710085,14.4257654 11.7560113,13.6665 L12.9730984,2.75 L13.4999196,2.75 C13.6784918,2.75008932 13.843547,2.65487239 13.9329104,2.50021651 C14.0222738,2.34556063 14.0223691,2.1549617 13.9331603,2.00021651 C13.8439515,1.84547131 13.6789916,1.75008932 13.5004194,1.75 Z M4.50097286,1 L9.49927699,1 L9.49927699,1.75 L4.50097286,1.75 L4.50097286,1 Z M10.7628483,13.5555 C10.7345862,13.8086257 10.5206301,14 10.2660168,14 L3.73423301,14 C3.47961974,14 3.26566365,13.8086257 3.23740158,13.5555 L2.03281029,2.75 L11.9674396,2.75 L10.7628483,13.5555 L10.7628483,13.5555 Z" id="形状"></path>
                        <path d="M8.46666667,12 C8.76121853,12 9,11.7852942 9,11.5204412 L9,4.47955881 C9,4.21470579 8.76121853,4 8.46666667,4 C8.1721148,4 7.93333333,4.21470579 7.93333333,4.47955881 L7.93333333,11.5204412 C7.93333333,11.7852942 8.1721148,12 8.46666667,12 Z M5.53333333,12 C5.8278852,12 6.06666667,11.7852942 6.06666667,11.5204412 L6.06666667,4.47955881 C6.06666667,4.21470579 5.8278852,4 5.53333333,4 C5.23878147,4 5,4.21470579 5,4.47955881 L5,11.5204412 C5,11.7852942 5.23878147,12 5.53333333,12 Z" id="形状"></path>
                    </g>
                </g>
            </g>
        </g>
    </g>
</svg>