<?xml version="1.0" encoding="UTF-8"?>
<svg width="48px" height="48px" viewBox="0 0 48 48" version="1.1" xmlns="http://www.w3.org/2000/svg" xmlns:xlink="http://www.w3.org/1999/xlink">
    <title>Group 93</title>
    <defs>
        <linearGradient x1="18.4782282%" y1="16.3043454%" x2="74.9999702%" y2="88.0434752%" id="linearGradient-1">
            <stop stop-color="#F8C29D" offset="0%"></stop>
            <stop stop-color="#FDA16D" offset="100%"></stop>
        </linearGradient>
    </defs>
    <g id="一部一品" stroke="none" stroke-width="1" fill="none" fill-rule="evenodd">
        <g id="党务---1备份" transform="translate(-302.000000, -596.000000)">
            <g id="编组-12备份" transform="translate(288.000000, 596.000000)">
                <g id="Group-93" transform="translate(13.999985, 0.000000)">
                    <rect id="路径" x="0" y="0" width="48" height="48"></rect>
                    <path d="M23,0 L25,0 C37.7025492,-2.33342044e-15 48,10.2974508 48,23 L48,25 C48,37.7025492 37.7025492,48 25,48 L23,48 C10.2974508,48 1.55561363e-15,37.7025492 0,25 L0,23 C-1.55561363e-15,10.2974508 10.2974508,2.33342044e-15 23,0 Z" id="Rectangle-23" fill="url(#linearGradient-1)"></path>
                    <g id="品牌" transform="translate(9.000015, 6.000000)" fill="#FFFFFF" fill-rule="nonzero">
                        <path d="M13.2430641,0.4333135 C14.2557079,-0.14477958 15.7452612,-0.144095985 16.7567781,0.4333135 L16.7567781,0.4333135 L17.5740152,0.899752849 C17.9887191,1.13650443 18.8399891,1.34837313 19.3150955,1.33369866 L19.3150955,1.33369866 L20.2531377,1.30466869 C21.4156609,1.26857491 22.7343742,1.96903142 23.3645438,2.95554948 L23.3645438,2.95554948 L23.873683,3.75248397 C24.1321968,4.15694403 24.7885108,4.74460748 25.2160615,4.95479001 L25.2160615,4.95479001 L26.0598938,5.36973189 C27.1056689,5.88402285 27.9515296,7.12383545 28.0558817,8.29346569 L28.0558817,8.29346569 L28.1406256,9.23828448 C28.1834483,9.71780323 28.4942508,10.5464565 28.7764298,10.9334622 L28.7764298,10.9334622 L29.3328993,11.6973563 C30.0225699,12.6441347 30.2015237,14.1392926 29.7567084,15.2240661 L29.7567084,15.2240661 L29.3972233,16.1004342 C29.2146634,16.5451353 29.1091844,17.4251493 29.1810814,17.9003386 L29.1810814,17.9003386 L29.3223963,18.8380025 C29.4981947,20.0005689 28.9692219,21.4083179 28.0764816,22.1598161 L28.0764816,22.1598161 L27.3552574,22.7668481 C26.9894615,23.0749214 26.4915914,23.8045446 26.3367536,24.259135 L26.3367536,24.259135 L26.0306841,25.1557831 C25.9626186,25.3563041 25.8704372,25.5527236 25.7586474,25.7420793 L25.7586474,25.7420793 L29.037062,31.4197876 L24.1967463,31.4197876 L21.8678683,35 L18.9507419,29.9480086 C18.2484499,30.1906846 17.4663724,30.2417263 16.800367,30.0537378 L16.800367,30.0537378 L15.8965829,29.7985292 C15.4379294,29.669102 14.5611913,29.6693298 14.1034393,29.7985292 L14.1034393,29.7985292 L13.1994299,30.0537378 C12.4993917,30.2515245 11.6717869,30.1845322 10.9433505,29.9099551 L10.9433505,29.9099551 L8.004362,35 L5.67539392,31.4197875 L0.835213409,31.4197875 L4.17808746,25.6301976 C4.0943353,25.4759332 4.02401597,25.3171113 3.96915783,25.1560109 L3.96915783,25.1560109 L3.66344893,24.2591349 C3.50829557,23.8036331 3.01006493,23.0744656 2.64485502,22.766848 L2.64485502,22.766848 L1.92363084,22.1598161 C1.02976362,21.4074063 0.502278273,19.9989738 0.677490699,18.8380024 L0.677490699,18.8380024 L0.819121091,17.9003386 C0.891108296,17.4241921 0.785088348,16.544406 0.602979239,16.1004342 L0.602979239,16.1004342 L0.24349409,15.224066 C-0.202087205,14.1378343 -0.021781135,12.6428131 0.666987936,11.6974018 L0.666987936,11.6974018 L1.22345745,10.933371 C1.50595192,10.545773 1.81652907,9.71689182 1.85935177,9.23828448 L1.85935177,9.23828448 L1.94387022,8.29332896 C2.0485379,7.12219481 2.89543539,5.88320253 3.9399483,5.36959516 L3.9399483,5.36959516 L4.78387076,4.95465329 C5.21209761,4.74401504 5.86818623,4.15612375 6.12611403,3.75234725 L6.12611403,3.75234725 L6.63534338,2.95550391 C7.26641453,1.9677098 8.58566876,1.26866604 9.74661431,1.30453196 L9.74661431,1.30453196 L10.6845213,1.33369866 C11.1606645,1.34841873 12.0117991,1.13604868 12.4258269,0.899752849 L12.4258269,0.899752849 Z M14.9999662,2.87821215 C8.24371843,2.87821215 2.76669695,8.4155101 2.76669695,15.2462145 C2.76669695,22.07701 8.24367333,27.6141257 14.9999662,27.6141257 C21.7560337,27.6141257 27.2332354,22.0770556 27.2332354,15.2462145 C27.2332354,8.4155557 21.7560337,2.87821215 14.9999662,2.87821215 Z M14.9999662,4.1801407 C21.0449517,4.1801407 25.9456249,9.13456037 25.9456249,15.24626 C25.9456249,21.3576863 21.0449517,26.3123794 14.9999662,26.3123794 C8.95489049,26.3123794 4.05439763,21.3576863 4.05439763,15.24626 C4.05439763,9.13460594 8.95489053,4.1801407 14.9999662,4.1801407 Z M14.5799847,15.002 L8.79798474,15.002 L8.79798474,21.26 L14.5799847,21.26 L14.5799847,15.002 Z M21.2019847,15.002 L15.4199847,15.002 L15.4199847,21.26 L21.2019847,21.26 L21.2019847,15.002 Z M12.8299847,16.78 L12.8299847,19.482 L10.5479847,19.482 L10.5479847,16.78 L12.8299847,16.78 Z M19.4519847,16.78 L19.4519847,19.482 L17.1699847,19.482 L17.1699847,16.78 L19.4519847,16.78 Z M20.2219847,8.968 L9.77798474,8.968 L9.77798474,14.12 L20.2219847,14.12 L20.2219847,8.968 Z M18.3879847,10.704 L18.3879847,12.384 L11.6119847,12.384 L11.6119847,10.704 L18.3879847,10.704 Z" id="形状结合"></path>
                    </g>
                </g>
            </g>
        </g>
    </g>
</svg>