<?xml version="1.0" encoding="UTF-8"?><svg version="1.1" width="20px" height="20px" viewBox="0 0 20.0 20.0" xmlns="http://www.w3.org/2000/svg" xmlns:xlink="http://www.w3.org/1999/xlink"><defs><clipPath id="i0"><path d="M375,0 L375,812 L0,812 L0,0 L375,0 Z"></path></clipPath><clipPath id="i1"><path d="M8.805,0 C13.6678672,0 17.61,3.94213278 17.61,8.805 C17.61,13.6678672 13.6678672,17.61 8.805,17.61 C3.94213278,17.61 0,13.6678672 0,8.805 C0,3.94213278 3.94213278,0 8.805,0 Z"></path></clipPath><clipPath id="i2"><path d="M6.041,0 C6.38,0 6.655,0.275 6.655,0.614 L6.655,1.012 L10.656,1.012 C11.231,1.012 11.698,1.478 11.698,2.054 L11.698,8.038 C11.698,8.613 11.232,9.08 10.656,9.08 L8.512,9.08 L9.66,11.177 C9.73836065,11.3199266 9.75667438,11.4881459 9.71090527,11.6445862 C9.66513615,11.8010265 9.55904072,11.9328479 9.416,12.011 C9.323,12.063 9.222,12.0870001 9.122,12.0870001 C8.89701814,12.0871355 8.6899181,11.9644096 8.582,11.767 L7.111,9.08 L5.136,9.08 L3.665,11.767 C3.553,11.971 3.342,12.0870001 3.125,12.0870001 C3.026,12.0870001 2.925,12.062 2.831,12.011 C2.68795928,11.9328479 2.58186385,11.8010265 2.53609473,11.6445862 C2.49032562,11.4881459 2.50863935,11.3199266 2.587,11.177 L3.735,9.08 L1.042,9.08 C0.467,9.08 0,8.614 0,8.038 L0,2.054 C0,1.479 0.466,1.012 1.042,1.012 L5.427,1.012 L5.427,0.614 C5.427,0.275 5.702,0 6.041,0 Z M6.504,5.826 L2.857,5.826 C2.518,5.826 2.243,6.101 2.243,6.44 C2.243,6.779 2.518,7.054 2.857,7.054 L6.504,7.054 C6.844,7.054 7.119,6.779 7.11800272,6.44 C7.11800272,6.101 6.843,5.826 6.504,5.826 Z M8.774,3.177 L2.857,3.177 C2.518,3.177 2.243,3.452 2.243,3.791 C2.243,4.13 2.518,4.405 2.857,4.405 L8.773,4.405 C9.113,4.405 9.388,4.13 9.388,3.791 C9.388,3.452 9.113,3.177 8.774,3.177 Z"></path></clipPath></defs><g transform="translate(-24.0 -149.0)"><g clip-path="url(#i0)"><g transform="translate(24.0 149.0)"><g transform="translate(1.000000000000064 1.000000000000007)"><g clip-path="url(#i1)"><polygon points="0,0 17.61,0 17.61,17.61 0,17.61 0,0" stroke="none" fill="rgba(255, 87, 87, 0.1)"></polygon></g><path d="M8.805,17.61 C13.6678672,17.61 17.61,13.6678672 17.61,8.805 C17.61,3.94213278 13.6678672,0 8.805,0 C3.94213278,0 0,3.94213278 0,8.805 C0,13.6678672 3.94213278,17.61 8.805,17.61 Z" stroke="#FF5757" stroke-width="1" fill="none" stroke-miterlimit="10"></path></g><g transform="translate(3.9999999999999307 4.000000000000005)"><g clip-path="url(#i2)"><polygon points="0,0 11.698,0 11.698,12.0870002 0,12.0870002 0,0" stroke="none" fill="#FF5757"></polygon></g></g></g></g></g></svg>