<svg xmlns="http://www.w3.org/2000/svg" width="14" height="14" viewBox="0 0 14 14"><defs><style>.a{fill:#ff5757;}</style></defs><path class="a" d="M66.364,69.754a.122.122,0,0,0-.022.04l-.7,2.67a.47.47,0,0,0,.112.441.433.433,0,0,0,.31.13.425.425,0,0,0,.115-.015l2.564-.723s.006,0,.009,0a.107.107,0,0,0,.08-.034l6.857-7.088a1.154,1.154,0,0,0,.315-.81,1.411,1.411,0,0,0-.4-.971l-.647-.67a1.323,1.323,0,0,0-.939-.414,1.08,1.08,0,0,0-.784.326l-6.855,7.09c-.007.007-.005.017-.01.025m8.65-5.27-.681.7-1.1-1.16.671-.694a.312.312,0,0,1,.434.032l.648.67a.372.372,0,0,1,.106.255.273.273,0,0,1-.074.193m-7.431,5.381,4.948-5.116,1.1,1.16L68.7,71.016l-1.114-1.151Zm-.9,2.074.358-1.357.954.986Zm8.766-4.647a.483.483,0,0,0-.473.49v6.608a.618.618,0,0,1-.608.628H63.554a.619.619,0,0,1-.608-.628V63.606a.619.619,0,0,1,.608-.628h6.964a.489.489,0,0,0,0-.978H63.482A1.51,1.51,0,0,0,62,63.531V74.467A1.509,1.509,0,0,0,63.482,76H74.438a1.509,1.509,0,0,0,1.482-1.532V67.78a.482.482,0,0,0-.473-.487" transform="translate(-62 -61.999)"/></svg>