<?xml version="1.0" encoding="UTF-8"?>
<svg width="18px" height="18px" viewBox="0 0 18 18" version="1.1" xmlns="http://www.w3.org/2000/svg" xmlns:xlink="http://www.w3.org/1999/xlink">
    <title>编组 2备份</title>
    <g id="组织队伍分析" stroke="none" stroke-width="1" fill="none" fill-rule="evenodd">
        <g id="党建翼联我的" transform="translate(-322.000000, -854.000000)" fill="#333333" fill-rule="nonzero">
            <g id="编组-3" transform="translate(22.000000, 641.000000)">
                <g id="编组-2备份" transform="translate(300.000000, 213.000000)">
                    <g id="编辑-(4)" transform="translate(1.000000, 1.000000)">
                        <path d="M6,9 C6.10714286,9.10714286 6.21428571,9.21428571 6.42857143,9.21428571 C6.64285714,9.21428571 6.75,9.10714286 6.85714286,9.10714286 L14.8928571,0.964285714 C14.8928571,0.857142857 15,0.642857143 15,0.535714286 C15,0.428571429 14.8928571,0.214285714 14.8928571,0.107142857 C14.6785714,0.107142857 14.5714286,0 14.4642857,0 C14.3571429,0 14.1428571,0.107142857 14.0357143,0.107142857 L6,8.25 C5.78571429,8.46428571 5.78571429,8.78571429 6,9 L6,9 Z M14.4642857,4.5 C14.1428571,4.5 13.9285714,4.71428571 13.9285714,5.03571429 L13.9285714,13.0714286 C13.9285714,13.5 13.6071429,13.9285714 13.0714286,13.9285714 L1.92857143,13.9285714 C1.39285714,13.9285714 1.07142857,13.5 1.07142857,13.0714286 L1.07142857,1.92857143 C1.07142857,1.39285714 1.39285714,1.07142857 1.92857143,1.07142857 L9.53571429,1.07142857 C9.85714286,1.07142857 10.0714286,0.857142857 10.0714286,0.535714286 C10.0714286,0.214285714 9.85714286,0 9.53571429,0 L1.39285714,0 C0.642857143,0 0,0.642857143 0,1.39285714 L0,13.5 C0,14.3571429 0.642857143,15 1.39285714,15 L13.5,15 C14.25,15 14.8928571,14.3571429 14.8928571,13.6071429 L14.8928571,5.03571429 C15,4.71428571 14.7857143,4.5 14.4642857,4.5 L14.4642857,4.5 Z" id="形状"></path>
                    </g>
                </g>
            </g>
        </g>
    </g>
</svg>