<?xml version="1.0" encoding="UTF-8"?><svg version="1.1" width="52px" height="52px" viewBox="0 0 52.0 52.0" xmlns="http://www.w3.org/2000/svg" xmlns:xlink="http://www.w3.org/1999/xlink"><defs><clipPath id="i0"><path d="M375,0 L375,812 L0,812 L0,0 L375,0 Z"></path></clipPath><filter id="i1" x="-50%" y="-46.1538462%" filterUnits="userSpaceOnUse" width="173.076923%" height="173.076923%"><feGaussianBlur stdDeviation="4" in="SourceAlpha" result="i2"></feGaussianBlur><feOffset dx="1" dy="3" in="i2" result="i3"></feOffset><feColorMatrix values="0 0 0 1.0 0 0 0 0 0.3411764705882353 0 0 0 0 0.3411764705882353 0 0 0 0 0.3 0" type="matrix" in="i3"></feColorMatrix></filter><clipPath id="i4"><path d="M18,0 C27.9411255,0 36,8.0588745 36,18 C36,27.9411255 27.9411255,36 18,36 C8.0588745,36 0,27.9411255 0,18 C0,8.0588745 8.0588745,0 18,0 Z"></path></clipPath><linearGradient id="i5" x1="3.94684285e-14px" y1="3.49720253e-15px" x2="36px" y2="36px" gradientUnits="userSpaceOnUse"><stop stop-color="#FF8F8F" offset="0%"></stop><stop stop-color="#FF5757" offset="100%"></stop></linearGradient><clipPath id="i6"><path d="M14.6666667,13.5833333 L15.8333333,14.8333333 L11.4166667,18.6666667 L11.3333333,18.6666667 L9.58333334,19.1666667 L10.25,17.4166667 L10.3333333,17.4166667 L14.6666667,13.5833333 Z M8.33333332,0 L8.33333332,5 C8.33333332,5.5 8.66666666,5.83333334 9.16666666,5.83333334 L15,5.83333334 L15,10.75 L6.5,19.1666667 L1.66666666,19.1666667 C0.75,19.1666667 0,18.4166667 0,17.5 L0,1.66666666 C0,0.75 0.75,0 1.66666666,0 L8.33333332,0 Z M16.5833333,12.1666667 C16.6666667,12.0833333 16.75,12.0833333 16.8333333,12.1666667 L17.5,13 C17.5833333,13.0833333 17.5833333,13.25 17.5,13.25 L16.6666667,13.9166667 C16.5833333,14 16.5,14 16.4166667,13.9166667 L15.75,13.0833333 C15.6666667,13 15.6666667,12.9166667 15.75,12.8333333 Z M9.58333334,10 L2.91666668,10 C2.66666668,10 2.50000002,10.2 2.50000002,10.5 C2.50000002,10.8 2.66666668,11 2.91666668,11 L9.58333334,11 C9.75,11 10,10.8 10,10.5 C10,10.2 9.83333334,10 9.58333334,10 Z M12.0833333,7.50000002 L2.91666668,7.50000002 C2.66666668,7.50000002 2.50000002,7.70000001 2.50000002,8.00000002 C2.50000002,8.30000002 2.66666668,8.50000002 2.91666668,8.50000002 L12.0833333,8.50000002 C12.25,8.50000002 12.5,8.30000002 12.5,8.00000002 C12.5,7.70000001 12.3333333,7.50000002 12.0833333,7.50000002 Z M9.16666666,0 L15,5 L10,5 C9.5,5 9.16666666,4.66666668 9.16666666,4.16666666 L9.16666666,0 Z"></path></clipPath></defs><g transform="translate(-21.0 -624.0)"><g clip-path="url(#i0)"><g transform="translate(28.0 629.0)"><path d="M18,36 C27.9411255,36 36,27.9411255 36,18 C36,8.0588745 27.9411255,0 18,0 C8.0588745,0 0,8.0588745 0,18 C0,27.9411255 8.0588745,36 18,36 Z" stroke="none" fill="#000000" filter="url(#i1)"></path><g clip-path="url(#i4)"><polygon points="0,0 36,0 36,36 0,36 0,0" stroke="none" fill="url(#i5)"></polygon></g><g transform="translate(9.0 8.0)"><g transform="translate(1.416666660156352 0.4166666601562383)"><g clip-path="url(#i6)"><polygon points="0,0 17.5625,0 17.5625,19.1666667 0,19.1666667 0,0" stroke="none" fill="#FFFFFF"></polygon></g></g></g></g></g></g></svg>