<?xml version="1.0" encoding="UTF-8"?><svg version="1.1" width="16px" height="16px" viewBox="0 0 16.0 16.0" xmlns="http://www.w3.org/2000/svg" xmlns:xlink="http://www.w3.org/1999/xlink"><defs><clipPath id="i0"><path d="M375,0 L375,812 L0,812 L0,0 L375,0 Z"></path></clipPath><clipPath id="i1"><path d="M5.94592304,0 C7.95485162,0 9.61221769,1.65736608 9.61221769,3.66629465 C9.61221769,5.22321428 8.70819982,6.47879465 7.35217304,7.03125 L7.60328911,8.53794643 L10.5162355,8.53794643 C11.0686909,8.53794643 11.5206998,8.98995537 11.6713695,9.54241072 L11.8722623,10.8482143 C11.9224855,11.25 11.6211463,11.6015625 11.2695838,11.6015625 L0.572039107,11.6015625 C0.220476607,11.6015625 -0.0808626766,11.1997768 0.0195837559,10.8482143 L0.270699823,9.4921875 C0.32092304,8.98995537 0.873378405,8.53794643 1.42583376,8.53794643 L4.33878019,8.53794643 L4.53967304,7.03125 C3.18364626,6.47879465 2.2796284,5.17299108 2.2796284,3.66629465 C2.2796284,1.65736607 3.93699446,0 5.94592304,0 Z"></path></clipPath><clipPath id="i2"><path d="M11.3002232,0 C11.7020089,0 12.0535714,0.3515625 12.0535714,0.753348216 C12.0535714,1.15513393 11.7020089,1.50669642 11.3002232,1.50669642 L0.753348216,1.50669642 C0.3515625,1.50669642 0,1.15513392 0,0.753348216 C0,0.351562514 0.3515625,0 0.753348216,0 L11.3002232,0 Z"></path></clipPath><clipPath id="i3"><path d="M0.251092086,0.0673002001 C0.406495445,-0.0224334 0.597968852,-0.0224334 0.753372212,0.0673002001 C0.908775572,0.1570338 1.00449398,0.322865194 1.0044643,0.502315249 C1.00449398,0.681765304 0.908775572,0.847596698 0.753372212,0.937330298 C0.597968852,1.0270639 0.406495445,1.0270639 0.251092086,0.937330298 C0.095688726,0.847596698 -2.96853152e-05,0.681765304 0,0.502315249 C-2.96853152e-05,0.322865194 0.095688726,0.1570338 0.251092086,0.0673002001 Z"></path></clipPath><clipPath id="i4"><path d="M0.515030718,0.012798583 C1.01726287,0.163468232 1.36882537,0.364361083 1.61994143,0.61547715 C1.8710575,0.816370002 2.12217358,1.1679325 2.32306643,1.56971822 C2.42351287,1.77061107 2.32306643,1.97150393 2.1723968,2.07195037 C2.07195037,2.07195037 2.02172715,2.12217358 1.97150393,2.12217358 C1.82083429,2.12217358 1.72038787,2.07195037 1.61994143,1.92128072 C1.46927179,1.61994143 1.26837893,1.36882537 1.1177093,1.21815572 C0.916816448,1.06748607 0.665700367,0.916816434 0.26391465,0.766146799 C0.0630217992,0.715923583 -0.0374246333,0.464807515 0.012798583,0.26391465 C0.0630217992,0.0630217992 0.314137867,-0.0374246333 0.515030718,0.012798583 Z"></path></clipPath></defs><g transform="translate(-28.0 -634.0)"><g clip-path="url(#i0)"><g transform="translate(16.0 564.0)"><g transform="translate(12.0 68.0)"><g transform="translate(0.0 2.0)"><g transform="translate(2.0038537441348154 0.96875)"><g clip-path="url(#i1)"><polygon points="1.14491749e-16,0 11.8777586,0 11.8777586,11.6015625 1.14491749e-16,11.6015625 1.14491749e-16,0" stroke="none" fill="#FF5757"></polygon></g></g><g transform="translate(1.97321428375 13.0223214325)"><g clip-path="url(#i2)"><polygon points="0,0 12.0535714,0 12.0535714,1.50669642 0,1.50669642 0,0" stroke="none" fill="#FF5757"></polygon></g></g><g transform="translate(9.908482141844026 3.5802740345082773)"><g clip-path="url(#i3)"><polygon points="-6.90276193e-09,0 1.0044643,0 1.0044643,1.0046305 -6.90276193e-09,1.0046305 -6.90276193e-09,0" stroke="none" fill="#FFFFFF"></polygon></g></g><g transform="translate(8.037424633294656 1.3577371332946562)"><g clip-path="url(#i4)"><polygon points="2.22044605e-16,0 2.36349921,0 2.36349921,2.12217358 2.22044605e-16,2.12217358 2.22044605e-16,0" stroke="none" fill="#FFFFFF"></polygon></g></g></g></g></g></g></g></svg>