<svg xmlns="http://www.w3.org/2000/svg" width="20.071" height="20.071" viewBox="0 0 20.071 20.071"><defs><style>.a{opacity:0;}.b{fill:#ebebeb;}.c,.f{fill:none;}.c{stroke:#50e3c2;stroke-miterlimit:10;stroke-width:0.1px;}.d{fill:#ff5757;}.e{stroke:none;}</style></defs><g transform="translate(-15.965 -739.965)"><g class="a" transform="translate(16 740)"><rect class="b" width="20" height="20"/><g class="c" transform="translate(2.222 2.222)"><rect class="e" width="15.556" height="15.556"/><rect class="f" x="0.05" y="0.05" width="15.456" height="15.456"/></g><g class="c" transform="translate(1.111 1.111)"><rect class="e" width="17.778" height="17.778" rx="8"/><rect class="f" x="0.05" y="0.05" width="17.678" height="17.678" rx="7.95"/></g><g class="c" transform="translate(3.333 1.111)"><rect class="e" width="13.333" height="17.778"/><rect class="f" x="0.05" y="0.05" width="13.233" height="17.678"/></g><g class="c" transform="translate(1.111 3.333)"><rect class="e" width="17.778" height="13.333"/><rect class="f" x="0.05" y="0.05" width="17.678" height="13.233"/></g><path class="c" d="M.889,0V20" transform="translate(9.111)"/><path class="c" d="M0,.889H20" transform="translate(0 9.111)"/><g class="c" transform="translate(4.444 4.444)"><rect class="e" width="11.111" height="11.111"/><rect class="f" x="0.05" y="0.05" width="11.011" height="11.011"/></g><path class="c" d="M0,0,20,20"/><path class="c" d="M0,20,20,0"/></g><g transform="translate(-155.06 739.96)"><path class="d" d="M549.089,132.963a.5.5,0,0,1-.5-.5v-4.068h-1.95a.5.5,0,0,1,0-1.006h2.405a.553.553,0,0,1,.553.553v4.529A.5.5,0,0,1,549.089,132.963ZM549.039,128.392Zm0,13.168h-2.4a.5.5,0,0,1,0-1.006h1.952v-3.985a.5.5,0,0,1,1.006,0v4.438a.553.553,0,0,1-.556.553Z" transform="translate(-365.217 -124.999)"/><path class="d" d="M546.636,141.56a.5.5,0,0,1-.5-.5V127.888a.5.5,0,0,1,1.006,0v13.168A.5.5,0,0,1,546.636,141.56Z" transform="translate(-365.217 -124.999)"/><path class="d" d="M174.564,3.443a.5.5,0,0,1-.5-.5V2.85a.559.559,0,0,1,.37-.546l6.78-2.237a.538.538,0,0,1,.481.073.561.561,0,0,1,.231.455V2.89a.5.5,0,1,1-1.006,0V1.224L175,3.184a.5.5,0,0,1-.44.259ZM181.528,1.023Zm-.148,17.885a.539.539,0,0,1-.171-.028l-6.775-2.237a.561.561,0,0,1-.372-.538v-.091a.5.5,0,0,1,.943-.252l5.912,1.96V16.058a.5.5,0,0,1,1.006,0v2.294a.561.561,0,0,1-.229.455.536.536,0,0,1-.314.1ZM181.525,17.925Z" transform="translate(0 0)"/><path class="d" d="M174.583,144.19a.5.5,0,0,1-.5-.5V130.619a.5.5,0,0,1,1.006,0v13.067A.5.5,0,0,1,174.583,144.19Zm4.843-6.534H178.5a.5.5,0,0,1,0-1.006h.928a.5.5,0,1,1,0,1.006Zm8.255,0h-4.732a.5.5,0,0,1,0-1.006h4.732a.5.5,0,0,1,0,1.006Z" transform="translate(-0.02 -127.679)"/><path class="d" d="M789.441,384.033a.5.5,0,0,1-.355-.148l-1.907-1.907a.5.5,0,0,1,.712-.712l1.907,1.907a.5.5,0,0,1-.355.858Z" transform="translate(-601.676 -374.056)"/><path class="d" d="M787.593,487.659a.5.5,0,0,1-.355-.858l1.907-1.907a.5.5,0,1,1,.712.712l-1.91,1.907a.5.5,0,0,1-.355.146Z" transform="translate(-601.736 -475.775)"/></g></g></svg>