<?xml version="1.0" encoding="UTF-8"?><svg version="1.1" width="14px" height="14px" viewBox="0 0 14.0 14.0" xmlns="http://www.w3.org/2000/svg" xmlns:xlink="http://www.w3.org/1999/xlink"><defs><clipPath id="i0"><path d="M375,0 L375,812 L0,812 L0,0 L375,0 Z"></path></clipPath><clipPath id="i1"><path d="M4.375,0 C6.7913125,0 8.75,1.9586875 8.75,4.375 C8.75,6.61864584 7.06125,8.46766666 4.88541666,8.72054168 L4.88541666,9.33333334 L6.125,9.33333334 C6.36662458,9.33333334 6.5625,9.52920876 6.5625,9.77083334 C6.5625,10.0124579 6.36662458,10.2083333 6.125,10.2083333 L4.88541666,10.2083333 L4.88541666,11.265625 C4.88541666,11.5072496 4.68954124,11.703125 4.44791666,11.703125 C4.20629208,11.703125 4.01041666,11.5072496 4.01041666,11.265625 L4.01041666,10.2083333 L2.625,10.2083333 C2.38337542,10.2083333 2.1875,10.0124579 2.1875,9.77083334 C2.1875,9.52920876 2.38337542,9.33333334 2.625,9.33333334 L4.01041666,9.33333334 L4.01041666,8.73497918 C1.76472916,8.54977084 0,6.66852084 0,4.375 C0,1.9586875 1.9586875,0 4.375,0 Z M4.375,0.875 C2.44197916,0.875 0.875,2.44197918 0.875,4.375 C0.875,6.30802082 2.44197916,7.875 4.375,7.875 C6.30802084,7.875 7.875,6.30802084 7.875,4.375 C7.875,2.44197916 6.30802084,0.875 4.375,0.875 Z"></path></clipPath></defs><g transform="translate(-128.0 -410.0)"><g clip-path="url(#i0)"><g transform="translate(0.0 292.0)"><g transform="translate(0.0 94.0)"><g transform="translate(128.0 24.0)"><g transform="translate(2.625 1.1666666621093764)"><g clip-path="url(#i1)"><polygon points="0,0 8.75,0 8.75,11.703125 0,11.703125 0,0" stroke="none" fill="#FF41A5"></polygon></g></g></g></g></g></g></g></svg>