<?xml version="1.0" encoding="UTF-8"?><svg version="1.1" width="52px" height="52px" viewBox="0 0 52.0 52.0" xmlns="http://www.w3.org/2000/svg" xmlns:xlink="http://www.w3.org/1999/xlink"><defs><clipPath id="i0"><path d="M375,0 L375,812 L0,812 L0,0 L375,0 Z"></path></clipPath><filter id="i1" x="-50%" y="-46.1538462%" filterUnits="userSpaceOnUse" width="173.076923%" height="173.076923%"><feGaussianBlur stdDeviation="4" in="SourceAlpha" result="i2"></feGaussianBlur><feOffset dx="1" dy="3" in="i2" result="i3"></feOffset><feColorMatrix values="0 0 0 1.0 0 0 0 0 0.3411764705882353 0 0 0 0 0.3411764705882353 0 0 0 0 0.3 0" type="matrix" in="i3"></feColorMatrix></filter><clipPath id="i4"><path d="M18,0 C27.9411255,0 36,8.0588745 36,18 C36,27.9411255 27.9411255,36 18,36 C8.0588745,36 0,27.9411255 0,18 C0,8.0588745 8.0588745,0 18,0 Z"></path></clipPath><linearGradient id="i5" x1="3.94684285e-14px" y1="3.49720253e-15px" x2="36px" y2="36px" gradientUnits="userSpaceOnUse"><stop stop-color="#FF8F8F" offset="0%"></stop><stop stop-color="#FF5757" offset="100%"></stop></linearGradient><clipPath id="i6"><path d="M12.8883333,0 L16.4033333,3.54666667 L16.4033333,16.4033333 C16.4033333,17.1 15.865,17.7016667 15.2,17.7016667 L1.20333335,17.7016667 C0.538333327,17.7016667 0,17.1316667 0,16.4033333 L0,1.29833335 C0,0.601666673 0.538333346,0 1.20333335,0 L12.8883333,0 Z M5.13,12.8566667 L3.19833335,12.8566667 C2.94500002,12.8566667 2.72333335,13.0783333 2.72333335,13.3316667 C2.72333335,13.585 2.94500002,13.8066667 3.19833335,13.8066667 L5.13,13.8066667 C5.38333333,13.8066667 5.605,13.585 5.605,13.3316667 C5.605,13.0783333 5.38333333,12.8566667 5.13,12.8566667 Z M13.8383333,8.70833335 C13.6483333,8.51833335 13.3316667,8.51833335 13.1416667,8.70833335 L9.24666667,12.6033333 L7.85333335,11.21 C7.66333335,11.02 7.34666667,11.02 7.15666667,11.21 C7.06166667,11.305 6.99833335,11.4316667 6.99833335,11.5583333 C6.99833335,11.685 7.06166667,11.8116667 7.15666667,11.9066667 L8.89833335,13.6483333 C8.99333335,13.7433333 9.12000002,13.8066667 9.24666667,13.8066667 C9.37333333,13.8066667 9.5,13.7433333 9.595,13.6483333 L13.87,9.405 C14.06,9.21500002 14.06,8.89833335 13.8383333,8.70833335 Z M6.96666667,8.74 L3.19833335,8.74 C2.94500002,8.74 2.72333335,8.96166667 2.72333335,9.215 C2.72333335,9.46833333 2.94500002,9.69 3.19833335,9.69 L6.96666667,9.69 C7.22,9.69 7.44166667,9.46833333 7.44166667,9.215 C7.44166667,8.96166667 7.22,8.74 6.96666667,8.74 Z M13.0466667,4.59166667 L3.19833335,4.59166667 C2.94500002,4.59166667 2.72333335,4.81333335 2.72333335,5.06666667 C2.72333335,5.32 2.94500002,5.54166667 3.19833335,5.54166667 L13.0466667,5.54166667 C13.3,5.54166667 13.5216667,5.32 13.5216667,5.06666667 C13.5216667,4.81333335 13.3,4.59166667 13.0466667,4.59166667 Z"></path></clipPath></defs><g transform="translate(-21.0 -353.0)"><g clip-path="url(#i0)"><g transform="translate(16.0 304.0)"><g transform="translate(12.0 52.0)"><g transform="translate(0.0 2.0)"><path d="M18,36 C27.9411255,36 36,27.9411255 36,18 C36,8.0588745 27.9411255,0 18,0 C8.0588745,0 0,8.0588745 0,18 C0,27.9411255 8.0588745,36 18,36 Z" stroke="none" fill="#000000" filter="url(#i1)"></path><g clip-path="url(#i4)"><polygon points="0,0 36,0 36,36 0,36 0,0" stroke="none" fill="url(#i5)"></polygon></g><g transform="translate(9.0 9.0)"><g transform="translate(1.2983333271484376 0.6333333271484367)"><g clip-path="url(#i6)"><polygon points="0,0 16.4033333,0 16.4033333,17.7016667 0,17.7016667 0,0" stroke="none" fill="#FFFFFF"></polygon></g></g></g></g></g></g></g></g></svg>