<?xml version="1.0" encoding="UTF-8"?><svg version="1.1" width="44px" height="44px" viewBox="0 0 44.0 44.0" xmlns="http://www.w3.org/2000/svg" xmlns:xlink="http://www.w3.org/1999/xlink"><defs><clipPath id="i0"><path d="M375,0 L375,859 L0,859 L0,0 L375,0 Z"></path></clipPath><clipPath id="i1"><path d="M22,0 C34.1502645,-2.23196738e-15 44,9.8497355 44,22 C44,34.1502645 34.1502645,44 22,44 C9.8497355,44 1.48797825e-15,34.1502645 0,22 C-1.48797825e-15,9.8497355 9.8497355,2.23196738e-15 22,0 Z"></path></clipPath><linearGradient id="i2" x1="8.13043547px" y1="4.3043468px" x2="33px" y2="39.6956506px" gradientUnits="userSpaceOnUse"><stop stop-color="#9BD0FF" offset="0%"></stop><stop stop-color="#63B4FF" offset="100%"></stop></linearGradient><clipPath id="i3"><path d="M5.8,2.12021981 C7.61,-0.999780191 11.48,-0.0697801906 12.08,1.09021981 C15.81,0.410219809 15.66,6.01021981 15.15,7.50021981 C15.3833333,7.50021981 15.47,7.97021981 15.41,8.91021981 C15.31,9.80021981 14.86,10.6202198 14.14,11.1902198 C13.89,12.1002198 13.45,12.9502198 12.84,13.6902198 C12.7,13.9102198 12.65,14.1702198 12.69,14.4202198 C11.95,15.5402198 11.57,16.8402198 11.58,18.1702198 C11.58,20.3602198 12.63,22.4202198 14.42,23.7602198 C13.07,23.8602198 11.59,24.0002198 10.12,24.0002198 C9.84653846,24.0002198 9.57094675,23.9985889 9.29438083,23.9950947 L8.74029259,23.9855531 C4.39512574,23.8902716 0,23.2996429 0,21.3202198 L0,19.7702198 C0,17.7302198 3.22,15.8802198 6.74,15.1902198 C7.32,14.9102198 7.66,14.3102198 7.58,13.6902198 C6.9,12.8902198 6.42,11.9502198 6.2,10.9402198 C5.95,10.8402198 5.73,10.6902198 5.54,10.5002198 C5.07,9.82021981 4.85,9.01021981 4.89,8.20021981 C5,7.36021981 5.19,7.66021981 5.24,7.52021981 C4.93,6.63021981 4.82,5.69021981 4.91,4.76021981 C5.01,3.83021981 5.31,2.93021981 5.8,2.12021981 Z"></path></clipPath><clipPath id="i4"><path d=""></path></clipPath><clipPath id="i5"><path d="M3.33,1.15997734 L4.53,2.61997734 L5.74,4.06997734 L3.77,3.81997734 C3.72,4.06997734 3.7,4.30997734 3.72,4.55997734 C3.72,6.54997734 5.48,8.21997734 7.29,8.87997734 C4.88,9.41997734 1.51,7.91997734 1.36,4.99997734 C1.36,4.43997734 1.41,3.88997734 1.51,3.33997734 L0,3.09997734 L3.33,1.15997734 Z M10.4588597,3.87 C10.5088597,4.43 10.4788597,4.98 10.3688597,5.53 L11.8788597,5.72 L10.3188597,6.69 L8.65885971,7.71 L7.39885971,6.31 L6.13885971,4.9 L8.09885971,5.09 C8.11885971,4.85 8.11885971,4.6 8.09885971,4.36 C8.09885971,2.37 6.19885971,0.69 4.42885971,0.13 C6.83885971,-0.45 10.2588597,0.96 10.4588597,3.87 Z"></path></clipPath></defs><g transform="translate(-28.0 -396.0)"><g clip-path="url(#i0)"><g transform="translate(28.0 396.0)"><g clip-path="url(#i1)"><polygon points="0,0 44,0 44,44 0,44 0,0" stroke="none" fill="url(#i2)"></polygon></g><g transform="translate(10.0 9.999997356985205)"><g transform="translate(0.0 -0.00021980936566201592)"><g clip-path="url(#i3)"><polygon points="0,0 15.4284091,0 15.4284091,24.0002198 0,24.0002198 0,0" stroke="none" fill="#FFFFFF"></polygon></g></g><g transform="translate(10.1 24.0)"><g clip-path="url(#i4)"><polygon points="0,0 0.02,0 0.02,0 0,0 0,0" stroke="none" fill="#FFFFFF"></polygon></g></g><g transform="translate(12.12472534179688 13.90223693676188)"><g clip-path="url(#i5)"><polygon points="0,0.00165728083 11.8788597,0.00165728083 11.8788597,8.98866587 0,8.98866587 0,0.00165728083" stroke="none" fill="#FFFFFF"></polygon></g></g></g></g></g></g></svg>