<?xml version="1.0" encoding="UTF-8"?><svg version="1.1" width="16px" height="16px" viewBox="0 0 16.0 16.0" xmlns="http://www.w3.org/2000/svg" xmlns:xlink="http://www.w3.org/1999/xlink"><defs><clipPath id="i0"><path d="M375,0 L375,1322 L0,1322 L0,0 L375,0 Z"></path></clipPath><clipPath id="i1"><path d="M8,0 C12.418278,0 16,3.581722 16,8 C16,12.418278 12.418278,16 8,16 C3.581722,16 0,12.418278 0,8 C0,3.581722 3.581722,0 8,0 Z"></path></clipPath><clipPath id="i2"><path d="M4.93734492,0 L8.88006467,0.262729467 L9.14279414,4.20544922 L4.42306057,8.92492883 C4.28365194,9.06434399 4.09456934,9.14266716 3.89741116,9.14266716 C3.70025297,9.14266716 3.51117038,9.06434399 3.37176175,8.92492883 L0.217738322,5.77090541 C0.0783231673,5.63149678 0,5.44241419 0,5.245256 C0,5.04809781 0.0783231673,4.85901522 0.217738322,4.71960659 L4.93734492,0 Z M6.27448425,1.78729687 C5.67740646,1.78729687 5.19347123,2.27123211 5.19347123,2.8683099 C5.19347123,3.46538768 5.67740646,3.94932291 6.27448425,3.94932291 C6.87156203,3.94932291 7.35549726,3.46538769 7.35549726,2.8683099 C7.35549726,2.27123211 6.87156204,1.78729687 6.27448425,1.78729687 Z"></path></clipPath></defs><g transform="translate(-16.0 -995.0)"><g clip-path="url(#i0)"><g transform="translate(0.0 149.0)"><g transform="translate(0.0 836.0)"><g transform="translate(16.0 8.0)"><g transform="translate(0.0 2.0)"><g clip-path="url(#i1)"><polygon points="0,0 16,0 16,16 0,16 0,0" stroke="none" fill="#FFD03E"></polygon></g><g transform="translate(3.428571428571429 3.4285714285714413)"><g transform="translate(6.30047670204803e-05 0.0)"><g clip-path="url(#i2)"><polygon points="0,0 9.14279414,0 9.14279414,9.14266716 0,9.14266716 0,0" stroke="none" fill="#FFFFFF"></polygon></g></g></g></g></g></g></g></g></g></svg>