<?xml version="1.0" encoding="UTF-8"?><svg version="1.1" width="44px" height="44px" viewBox="0 0 44.0 44.0" xmlns="http://www.w3.org/2000/svg" xmlns:xlink="http://www.w3.org/1999/xlink"><defs><clipPath id="i0"><path d="M375,0 L375,859 L0,859 L0,0 L375,0 Z"></path></clipPath><clipPath id="i1"><path d="M21.9999924,0 C34.1502527,-2.2319666e-15 43.9999847,9.84973209 43.9999847,21.9999924 C43.9999847,34.1502527 34.1502527,43.9999847 21.9999924,43.9999847 C9.84973209,43.9999847 1.48797774e-15,34.1502527 0,21.9999924 C-1.48797774e-15,9.84973209 9.84973209,2.2319666e-15 21.9999924,0 Z"></path></clipPath><linearGradient id="i2" x1="10.5217225px" y1="5.26086813px" x2="32.5217122px" y2="37.3043365px" gradientUnits="userSpaceOnUse"><stop stop-color="#FDA2A7" offset="0%"></stop><stop stop-color="#FC7B82" offset="100%"></stop></linearGradient><clipPath id="i3"><path d="M12,0 L12,6.82 C12,10.23 9.31,13 6,13 C2.69,13 0,10.23 0,6.82 L0,0 L12,0 Z"></path></clipPath><clipPath id="i4"><path d="M4,0 L4,5 C2,5 0,3.33 0,0 L4,0 Z"></path></clipPath><clipPath id="i5"><path d="M4,0 C4,3.33 2,5 0,5 L0,0 Z"></path></clipPath><clipPath id="i6"><path d=""></path></clipPath><clipPath id="i7"><path d="M7.02,0 L9,3 L0,3 L1.85,0 L7.02,0 Z"></path></clipPath></defs><g transform="translate(-235.0 -396.0)"><g clip-path="url(#i0)"><g transform="translate(219.0 396.0)"><g transform="translate(15.999984741210938 0.0)"><g clip-path="url(#i1)"><polygon points="0,0 43.9999847,0 43.9999847,43.9999847 0,43.9999847 0,0" stroke="none" fill="url(#i2)"></polygon></g><g transform="translate(12.000000000000002 12.037017822265618)"><g transform="translate(4.0 0.0)"><g clip-path="url(#i3)"><polygon points="0,0 12,0 12,13 0,13 0,0" stroke="none" fill="#FFFFFF"></polygon></g><path d="M6,13 C9.31,13 12,10.23 12,6.82 L12,0 L0,0 L0,6.82 C0,10.23 2.69,13 6,13 Z" stroke="#FFFFFF" stroke-width="2" fill="none" stroke-linejoin="round"></path></g><g transform="translate(0.0 3.5)"><g clip-path="url(#i4)"><polygon points="0,0 4,0 4,5 0,5 0,0" stroke="none" fill="#FFFFFF"></polygon></g><path d="M4,5 L4,0 L0,0 C0,3.33 2,5 4,5 Z" stroke="#FFFFFF" stroke-width="2" fill="none" stroke-linecap="round" stroke-linejoin="round" stroke-dasharray=" 0.0 0.0"></path></g><g transform="translate(16.00001525878906 3.5)"><g clip-path="url(#i5)"><polygon points="0,0 4,0 4,5 0,5 0,0" stroke="none" fill="#FFFFFF"></polygon></g><path d="M4,0 L0,0 L0,5 C2,5 4,3.33 4,0 Z" stroke="#FFFFFF" stroke-width="2" fill="none" stroke-linecap="round" stroke-linejoin="round" stroke-dasharray=" 0.0 0.0"></path></g><g transform="translate(10.0 14.0)"><g clip-path="url(#i6)"><polygon points="0,0 0,0 0,2 0,2 0,0" stroke="none" fill="#FFFFFF"></polygon></g><path d="M0,0 L0,2" stroke="#FFFFFF" stroke-width="2" fill="none" stroke-linecap="round" stroke-linejoin="round" stroke-dasharray=" 0.0 0.0"></path></g><g transform="translate(5.5 16.0)"><g clip-path="url(#i7)"><polygon points="0,0 9,0 9,3 0,3 0,0" stroke="none" fill="#FFFFFF"></polygon></g><polygon points="9,3 7.02,0 1.85,0 0,3 9,3 9,3" stroke="#FFFFFF" stroke-width="2" fill="none" stroke-linejoin="round"></polygon></g></g></g></g></g></g></svg>