<?xml version="1.0" encoding="UTF-8"?>
<svg width="28px" height="29px" viewBox="0 0 28 29" version="1.1" xmlns="http://www.w3.org/2000/svg" xmlns:xlink="http://www.w3.org/1999/xlink">
    <title>编组 20</title>
    <defs>
        <linearGradient x1="14.6007345%" y1="13.5435643%" x2="89.0327146%" y2="93.7785987%" id="linearGradient-1">
            <stop stop-color="#FF9667" offset="0%"></stop>
            <stop stop-color="#FF0604" offset="100%"></stop>
        </linearGradient>
        <circle id="path-2" cx="11" cy="11" r="11"></circle>
        <filter x="-18.2%" y="-9.1%" width="136.4%" height="136.4%" filterUnits="objectBoundingBox" id="filter-3">
            <feOffset dx="0" dy="2" in="SourceAlpha" result="shadowOffsetOuter1"></feOffset>
            <feGaussianBlur stdDeviation="1" in="shadowOffsetOuter1" result="shadowBlurOuter1"></feGaussianBlur>
            <feColorMatrix values="0 0 0 0 1   0 0 0 0 0.109803922   0 0 0 0 0.0745098039  0 0 0 0.36 0" type="matrix" in="shadowBlurOuter1"></feColorMatrix>
        </filter>
    </defs>
    <g id="新首页" stroke="none" stroke-width="1" fill="none" fill-rule="evenodd">
        <g id="首页备份-2" transform="translate(-27.000000, -430.000000)">
            <g id="编组-21备份-5" transform="translate(27.000000, 430.000000)">
                <g id="编组-17" transform="translate(2.500000, 3.000000)">
                    <g id="椭圆形">
                        <use fill="black" fill-opacity="1" filter="url(#filter-3)" xlink:href="#path-2"></use>
                        <use fill="url(#linearGradient-1)" fill-rule="evenodd" xlink:href="#path-2"></use>
                    </g>
                    <g id="党员管理" transform="translate(3.269231, 5.000000)" fill="#FFFFFF" fill-rule="nonzero">
                        <path d="M11.6002934,8.88129851 C11.4298968,8.82319016 11.0937088,8.74923407 11.0233133,8.55642001 C10.9700256,8.3552314 10.9434794,8.14785352 10.9443651,7.93967913 C10.9360316,7.78120181 10.9318649,7.62294461 10.9318649,7.46490751 C10.9318649,7.36057661 11.1950257,7.14002901 11.2555527,7.0442823 C11.442051,6.63510475 11.5396097,6.19076159 11.5417401,5.74080639 C11.9029283,5.84051504 11.9483236,5.17028805 12.0108243,4.96624851 C12.0562195,4.82493957 12.3345121,3.84964377 11.9029283,3.98302883 C11.9978047,3.79138949 12.0568949,3.58392476 12.0772724,3.3709102 C12.1848281,2.82876755 12.1693122,2.26927015 12.0318771,1.73397161 C11.6660585,0.68789683 10.6751309,-0.00652284612 9.57066561,0.00921017136 C8.44716146,-0.0848013115 7.38824433,0.547951441 6.93511005,1.58407848 C6.76379775,2.11496912 6.72383079,2.67973769 6.81866139,3.22960127 C6.83604685,3.49127872 6.90303565,3.7472208 7.016032,3.98368915 C6.61339595,3.8628502 6.82918783,4.72126899 6.87524097,4.87116212 C6.94103117,5.08378584 6.99958445,5.8457976 7.37722023,5.74146671 C7.40211582,6.08292875 7.45626384,6.42160464 7.53906413,6.75374055 C7.60779689,6.96990744 7.72403743,7.16781451 7.87919948,7.33284307 C7.95420032,7.41604367 7.99104283,7.42462786 7.98709541,7.53093972 C8.00030088,7.86308081 7.97379578,8.19561338 7.90814717,8.52142294 C7.82525151,8.83771724 7.13182277,8.97110232 6.85550392,9.02987098 C6.12538671,9.09796561 5.42084479,9.33458078 4.79692844,9.72122828 C4.0845149,10.2578358 3.67351124,11.1062214 3.69296883,12 L15.2305968,12 C15.2439797,10.7782241 14.4771093,9.68485826 13.3266283,9.28541565 C12.7660958,9.08731901 12.160168,9.07741418 11.6002934,8.88129851 Z" id="路径"></path>
                        <path d="M4.58828331,8.94646367 C4.44853201,9.0156602 4.27939375,9.10167085 4.62093548,8.93029626 L4.65358766,8.91412885 C4.93381756,8.79914785 5.23216523,8.73349273 5.53519632,8.72011987 C5.65078501,8.70783264 5.70433457,8.63022905 5.6174798,8.52029064 C5.45291285,8.31205435 4.88411199,8.27131246 4.64509808,8.17754147 C4.5185104,8.1487217 4.4325367,8.03217339 4.44330766,7.90398882 C4.4393894,7.83026541 4.39824767,7.50433034 4.45571549,7.45130122 C4.49685722,7.41055934 4.75611548,7.42672676 4.81423635,7.4189664 C5.05218072,7.39326732 5.28600299,7.33852948 5.51038067,7.25599886 C5.60485012,7.22053244 5.69472944,7.17407576 5.77812849,7.1176058 C5.87673805,7.04388239 5.70368153,6.86474744 5.65862153,6.76644957 C5.52504513,6.45751703 5.4495773,6.12702019 5.43593372,5.79123115 C5.45649963,5.13376452 5.43577998,4.47566765 5.37389458,3.82074672 C5.21723051,2.89033663 4.36353993,2.23628377 3.41476422,2.319764 C2.80012942,2.28089464 2.20910472,2.56043894 1.85333733,3.05829148 C1.5424052,3.66766746 1.42471862,4.35587856 1.51571385,5.03265608 C1.54038216,5.41334824 1.53207994,5.79543322 1.4908982,6.17472221 C1.46764616,6.33743759 1.42760094,6.4973619 1.37139125,6.65198428 C1.32633125,6.77032975 1.09515386,7.06392999 1.18592691,7.12536616 C1.58809147,7.35728511 2.05352335,7.45860354 2.51682947,7.41508622 C2.55236834,7.63012261 2.54392957,7.85003737 2.49201382,8.06178278 C2.37642513,8.35538302 1.51244864,8.4329866 1.25645561,8.51899725 C0.515941128,8.72288894 0.00261866789,9.3894822 0,10.1506127 L3.27501292,10.1506127 C3.32856248,10.1506127 3.5362303,9.77100178 3.59239204,9.71021231 C3.87576466,9.4004325 4.21171024,9.14216734 4.58501809,8.94711037 L4.58828331,8.94646367 Z" id="形状"></path>
                    </g>
                </g>
            </g>
        </g>
    </g>
</svg>