<?xml version="1.0" encoding="UTF-8"?>
<svg width="14px" height="14px" viewBox="0 0 14 14" version="1.1" xmlns="http://www.w3.org/2000/svg" xmlns:xlink="http://www.w3.org/1999/xlink">
    <title>编组 21</title>
    <g id="新首页" stroke="none" stroke-width="1" fill="none" fill-rule="evenodd">
        <g id="iPhone-SE" transform="translate(-47.000000, -165.000000)" fill="#FF5A63" fill-rule="nonzero">
            <g id="编组-22" transform="translate(39.254545, 27.000000)">
                <g id="编组-21" transform="translate(7.745455, 138.000000)">
                    <g id="女-(4)" transform="translate(2.000000, 2.000000)">
                        <path d="M6.2770423,7.03770693 L6.2770423,6.89017474 L8.18534065,6.89017474 L8.18534065,2.97509197 C8.18534065,1.3320049 6.75815305,0 4.99919277,0 C3.24023248,0 1.81304488,1.3320049 1.81304488,2.97509197 L1.81304488,6.89017474 L3.72215047,6.89017474 L3.72215047,7.03602085 L3.71892154,7.03602085 L0,9.58874923 L0,11 L10,11 L10,9.60476701 L6.2770423,7.03770693 Z M6.37391024,9.4977008 C5.46335163,10.4174586 4.9927349,9.01801042 4.9927349,9.01801042 C4.9927349,9.01801042 4.52211818,10.4174586 3.61075234,9.4977008 C3.61075234,9.4977008 3.21036487,9.22708461 3.16758153,7.41370325 L4.9927349,9.01716738 L6.81788828,7.41370325 C6.77510494,9.22624157 6.37391024,9.4977008 6.37391024,9.4977008 L6.37391024,9.4977008 Z" id="形状"></path>
                    </g>
                </g>
            </g>
        </g>
    </g>
</svg>