<?xml version="1.0" encoding="UTF-8"?>
<svg width="28px" height="29px" viewBox="0 0 28 29" version="1.1" xmlns="http://www.w3.org/2000/svg" xmlns:xlink="http://www.w3.org/1999/xlink">
    <title>编组 20</title>
    <defs>
        <linearGradient x1="14.6007345%" y1="13.5435643%" x2="89.0327146%" y2="93.7785987%" id="linearGradient-1">
            <stop stop-color="#FF9667" offset="0%"></stop>
            <stop stop-color="#FF0604" offset="100%"></stop>
        </linearGradient>
        <circle id="path-2" cx="11" cy="11" r="11"></circle>
        <filter x="-18.2%" y="-9.1%" width="136.4%" height="136.4%" filterUnits="objectBoundingBox" id="filter-3">
            <feOffset dx="0" dy="2" in="SourceAlpha" result="shadowOffsetOuter1"></feOffset>
            <feGaussianBlur stdDeviation="1" in="shadowOffsetOuter1" result="shadowBlurOuter1"></feGaussianBlur>
            <feColorMatrix values="0 0 0 0 1   0 0 0 0 0.109803922   0 0 0 0 0.0745098039  0 0 0 0.36 0" type="matrix" in="shadowBlurOuter1"></feColorMatrix>
        </filter>
    </defs>
    <g id="新首页" stroke="none" stroke-width="1" fill="none" fill-rule="evenodd">
        <g id="首页备份-2" transform="translate(-98.000000, -370.000000)">
            <g id="编组-21备份-2" transform="translate(98.000000, 370.000000)">
                <g id="编组-17" transform="translate(2.500000, 3.000000)">
                    <g id="椭圆形">
                        <use fill="black" fill-opacity="1" filter="url(#filter-3)" xlink:href="#path-2"></use>
                        <use fill="url(#linearGradient-1)" fill-rule="evenodd" xlink:href="#path-2"></use>
                    </g>
                    <g id="党委" transform="translate(5.000000, 5.000000)" fill="#FFFFFF" fill-rule="nonzero">
                        <path d="M8.4549184,12 C6.48035718,12 4.91093185,10.3895171 4.91093185,8.36347996 C4.91093185,6.3374428 6.53088925,4.72726 8.4549184,4.72726 C10.4294796,4.72726 12.049437,6.33750281 11.9988463,8.36347996 C11.9988463,10.3895171 10.429421,12 8.4549184,12 Z M8.4549184,5.3505314 C6.83472652,5.3505314 5.51854777,6.70126285 5.51854777,8.36353997 C5.51854777,10.0260572 6.83478514,11.3765486 8.4549184,11.3765486 C10.0748758,11.3765486 11.3913476,10.0260572 11.3913476,8.36353997 C11.3913476,6.70126285 10.0748172,5.3505314 8.4549184,5.3505314 Z M1.92373604,7.94804571 L1.92373604,7.11675711 L3.94882934,7.11675711 L3.94882934,7.94804571 L1.92373604,7.94804571 L1.92373604,7.94804571 Z M1.92373604,2.54554002 L6.98655722,2.54554002 L6.98655722,3.37652855 L1.92373604,3.37652855 L1.92373604,2.54554002 L1.92373604,2.54554002 Z M1.92373604,4.6752857 L5.97415713,4.6752857 L5.97415713,5.50651429 L1.92373604,5.50651429 L1.92373604,4.6752857 L1.92373604,4.6752857 Z M9.01165052,0.830988522 L0.860510769,0.830988522 L0.860510769,10.9610543 L4.40449732,10.9610543 C4.55638664,11.1688314 4.70827597,11.5843257 4.91093185,11.8440771 L0.404842794,11.8440771 C0.202421397,11.8440771 0,11.6363 0,11.4285829 L0,0.415494261 C0,0.207717122 0.202421397,0 0.404842794,0 L9.4673185,0 C9.66997438,0 9.87239578,0.207717122 9.87239578,0.415494261 L9.87239578,3.79226287 C9.66997438,3.79226287 9.2143064,3.74028858 9.0115919,3.74028858 L9.0115919,0.830988522 L9.01165052,0.830988522 Z" id="形状"></path>
                        <path d="M7.94373549,9.02078071 L7.59839392,9.02078071 L7.59839392,8.04173148 L9.36484743,8.04173148 L9.36484743,9.02078071 L8.96639442,9.02078071 L8.96639442,9.4287129 C8.95748389,9.52858036 9.0016848,9.5738328 9.09923163,9.5647103 L9.2718731,9.5647103 C9.43994207,9.58301533 9.5152712,9.46952412 9.49768464,9.22477681 C9.6215527,9.2610868 9.710189,9.28383305 9.76330043,9.29277551 C9.83405706,9.31108055 9.90047566,9.31552177 9.96249763,9.30639926 C9.96249763,9.59663908 9.92263474,9.77314762 9.84296759,9.83670509 C9.780887,9.90914501 9.59499698,9.94551502 9.28512165,9.94551502 L9.00619868,9.94551502 C8.64303606,9.97270249 8.48364313,9.85477006 8.52807852,9.59195779 L8.52807852,9.02084073 L8.39524131,9.02084073 C8.3242502,9.61020281 7.94367687,9.93189127 7.25305235,9.98626622 C7.22649663,9.90470379 7.16875407,9.80033509 7.08041087,9.67352022 C7.03597548,9.63721023 7.01833029,9.61470404 7.02729944,9.60552152 C7.61170109,9.58739653 7.91717978,9.39258296 7.94373549,9.02078071 L7.94373549,9.02078071 Z M8.15623986,7.34830078 L7.93042832,7.52504939 L8.28901844,7.52504939 L8.28901844,6.79080747 L8.39529994,6.79080747 C8.61648034,6.79080747 8.73167236,6.80911251 8.74064151,6.84518243 C8.74064151,6.86348746 8.736069,6.89067494 8.72733434,6.92674485 C8.71842381,6.96305484 8.71402717,6.99030233 8.71402717,7.00830728 L8.71402717,7.52498937 L8.86011293,7.52498937 C8.97507046,7.33461702 9.07261729,7.15786841 9.15228444,6.99468354 C9.18757482,6.93136613 9.2097339,6.89505614 9.21870305,6.88587362 C9.35154026,6.94024857 9.49762601,7.00824727 9.65701894,7.0898097 C9.65701894,7.09893221 9.63046322,7.13062092 9.57735179,7.18499587 C9.52424035,7.25767586 9.43560405,7.37536823 9.31173599,7.5385531 L9.9758048,7.5385531 L9.9758048,8.31360624 L9.51093318,8.31360624 L9.51093318,7.89217035 L7.46555671,7.89217035 L7.46555671,8.31366626 L7.02724082,8.31366626 L7.02724082,7.52498937 L7.75772823,7.52498937 C7.65886404,7.38746401 7.55242976,7.25581471 7.43894237,7.13068094 L7.78428394,6.88593363 L7.89056544,7.03549476 C7.97997644,7.13900098 8.06853769,7.24327332 8.15623986,7.34830078 L8.15623986,7.34830078 Z M8.03670982,8.66722349 L8.91328298,8.66722349 L8.91328298,8.3952887 L8.03670982,8.3952887 L8.03670982,8.66722349 Z" id="形状"></path>
                    </g>
                </g>
            </g>
        </g>
    </g>
</svg>