<?xml version="1.0" encoding="UTF-8"?>
<svg width="28px" height="29px" viewBox="0 0 28 29" version="1.1" xmlns="http://www.w3.org/2000/svg" xmlns:xlink="http://www.w3.org/1999/xlink">
    <title>编组 20</title>
    <defs>
        <linearGradient x1="14.6007345%" y1="13.5435643%" x2="89.0327146%" y2="93.7785987%" id="linearGradient-1">
            <stop stop-color="#FF9667" offset="0%"></stop>
            <stop stop-color="#FF0604" offset="100%"></stop>
        </linearGradient>
        <circle id="path-2" cx="11" cy="11" r="11"></circle>
        <filter x="-18.2%" y="-9.1%" width="136.4%" height="136.4%" filterUnits="objectBoundingBox" id="filter-3">
            <feOffset dx="0" dy="2" in="SourceAlpha" result="shadowOffsetOuter1"></feOffset>
            <feGaussianBlur stdDeviation="1" in="shadowOffsetOuter1" result="shadowBlurOuter1"></feGaussianBlur>
            <feColorMatrix values="0 0 0 0 1   0 0 0 0 0.109803922   0 0 0 0 0.0745098039  0 0 0 0.36 0" type="matrix" in="shadowBlurOuter1"></feColorMatrix>
        </filter>
    </defs>
    <g id="新首页" stroke="none" stroke-width="1" fill="none" fill-rule="evenodd">
        <g id="首页备份-2" transform="translate(-239.000000, -370.000000)">
            <g id="编组-21备份-4" transform="translate(239.000000, 370.000000)">
                <g id="编组-17" transform="translate(2.500000, 3.000000)">
                    <g id="椭圆形">
                        <use fill="black" fill-opacity="1" filter="url(#filter-3)" xlink:href="#path-2"></use>
                        <use fill="url(#linearGradient-1)" fill-rule="evenodd" xlink:href="#path-2"></use>
                    </g>
                    <g id="省直部门(单位）-党组(党委)巡察" transform="translate(4.500000, 4.000000)" fill="#FFFFFF" fill-rule="nonzero">
                        <path d="M7.1293798,0.161950766 L12.227865,2.95429329 C12.7043142,3.21503637 13,3.73827247 13,4.31925705 L13,9.68111467 C13,10.2236003 12.7426217,10.7153372 12.3206409,10.9906632 L12.227865,11.0460784 L7.1293798,13.8384209 C6.9318569,13.9457514 6.71637736,14 6.50029927,14 C6.28422118,14 6.0681431,13.9463348 5.8706202,13.8384209 L0.772733558,11.0460784 C0.295685816,10.7859187 0,10.2620993 0,9.68111467 L0,4.31925705 C0,3.73827249 0.295685802,3.21503637 0.772134997,2.95429329 L5.87121874,0.161950766 C6.26155309,-0.0539835886 6.73964402,-0.0539835886 7.12997837,0.161950766 L7.1293798,0.161950766 Z M1.02233069,4.59983293 L1.02233069,9.68053136 C1.02233069,9.83802718 1.10253696,9.97977342 1.23182467,10.0503549 L6.00828768,12.6653688 L6.00828768,7.36184292 L1.02233069,4.59983293 Z M11.9770708,4.67216434 L7.03181546,7.36300955 L7.03181546,12.6432027 L11.7687739,10.0503549 C11.9016303,9.97298683 11.9814499,9.83189889 11.9776693,9.68111467 L11.9770708,4.67216434 Z M6.50029927,1.11450881 C6.44072287,1.11463549 6.38218241,1.12970159 6.33030987,1.15825765 L1.67236061,3.70852327 L6.5182559,6.3935353 L11.3892905,3.7423557 L6.67028869,1.15825765 C6.61841615,1.12970159 6.55987568,1.11463549 6.50029927,1.11450881 Z" id="形状"></path>
                    </g>
                </g>
            </g>
        </g>
    </g>
</svg>