<?xml version="1.0" encoding="UTF-8"?>
<svg width="28px" height="29px" viewBox="0 0 28 29" version="1.1" xmlns="http://www.w3.org/2000/svg" xmlns:xlink="http://www.w3.org/1999/xlink">
    <title>编组 20</title>
    <defs>
        <linearGradient x1="14.6007345%" y1="13.5435643%" x2="89.0327146%" y2="93.7785987%" id="linearGradient-1">
            <stop stop-color="#FF9667" offset="0%"></stop>
            <stop stop-color="#FF0604" offset="100%"></stop>
        </linearGradient>
        <circle id="path-2" cx="11" cy="11" r="11"></circle>
        <filter x="-18.2%" y="-9.1%" width="136.4%" height="136.4%" filterUnits="objectBoundingBox" id="filter-3">
            <feOffset dx="0" dy="2" in="SourceAlpha" result="shadowOffsetOuter1"></feOffset>
            <feGaussianBlur stdDeviation="1" in="shadowOffsetOuter1" result="shadowBlurOuter1"></feGaussianBlur>
            <feColorMatrix values="0 0 0 0 1   0 0 0 0 0.109803922   0 0 0 0 0.0745098039  0 0 0 0.36 0" type="matrix" in="shadowBlurOuter1"></feColorMatrix>
        </filter>
    </defs>
    <g id="新首页" stroke="none" stroke-width="1" fill="none" fill-rule="evenodd">
        <g id="首页备份-2" transform="translate(-168.000000, -370.000000)">
            <g id="编组-21备份-3" transform="translate(168.000000, 370.000000)">
                <g id="编组-17" transform="translate(2.500000, 3.000000)">
                    <g id="椭圆形">
                        <use fill="black" fill-opacity="1" filter="url(#filter-3)" xlink:href="#path-2"></use>
                        <use fill="url(#linearGradient-1)" fill-rule="evenodd" xlink:href="#path-2"></use>
                    </g>
                    <g id="三级党委-01" transform="translate(5.500000, 6.000000)" fill="#FFFFFF" fill-rule="nonzero">
                        <polygon id="路径" points="11 2.44444445 11 0 0 0 0 2.44444445 5.19444445 2.44444445 5.19444445 4.27777778 0 4.27777778 0 6.72222222 2.13888889 6.72222222 2.13888889 8.55555555 0 8.55555555 0 11 4.88888889 11 4.88888889 8.55555555 2.75 8.55555555 2.75 6.72222222 8.25 6.72222222 8.25 8.55555555 6.11111111 8.55555555 6.11111111 11 11 11 11 8.55555555 8.86111111 8.55555555 8.86111111 6.72222222 11 6.72222222 11 4.27777778 5.80555555 4.27777778 5.80555555 2.44444445"></polygon>
                    </g>
                </g>
            </g>
        </g>
    </g>
</svg>