<?xml version="1.0" encoding="UTF-8"?>
<svg width="28px" height="29px" viewBox="0 0 28 29" version="1.1" xmlns="http://www.w3.org/2000/svg" xmlns:xlink="http://www.w3.org/1999/xlink">
    <title>编组 20</title>
    <defs>
        <linearGradient x1="14.6007345%" y1="13.5435643%" x2="89.0327146%" y2="93.7785987%" id="linearGradient-1">
            <stop stop-color="#FF9667" offset="0%"></stop>
            <stop stop-color="#FF0604" offset="100%"></stop>
        </linearGradient>
        <circle id="path-2" cx="11" cy="11" r="11"></circle>
        <filter x="-18.2%" y="-9.1%" width="136.4%" height="136.4%" filterUnits="objectBoundingBox" id="filter-3">
            <feOffset dx="0" dy="2" in="SourceAlpha" result="shadowOffsetOuter1"></feOffset>
            <feGaussianBlur stdDeviation="1" in="shadowOffsetOuter1" result="shadowBlurOuter1"></feGaussianBlur>
            <feColorMatrix values="0 0 0 0 1   0 0 0 0 0.109803922   0 0 0 0 0.0745098039  0 0 0 0.36 0" type="matrix" in="shadowBlurOuter1"></feColorMatrix>
        </filter>
    </defs>
    <g id="新首页" stroke="none" stroke-width="1" fill="none" fill-rule="evenodd">
        <g id="首页备份-2" transform="translate(-27.000000, -370.000000)">
            <g id="编组-21备份" transform="translate(27.000000, 370.000000)">
                <g id="编组-17" transform="translate(2.500000, 3.000000)">
                    <g id="椭圆形">
                        <use fill="black" fill-opacity="1" filter="url(#filter-3)" xlink:href="#path-2"></use>
                        <use fill="url(#linearGradient-1)" fill-rule="evenodd" xlink:href="#path-2"></use>
                    </g>
                    <g id="服务总数" transform="translate(4.500000, 5.000000)" fill="#FFFFFF" fill-rule="nonzero">
                        <path d="M0.11642885,7.89140785 L2.35682629,8.92635742 L6.50041457,10.8567634 L10.4956626,8.9946041 L12.8851649,7.89365773 C13.0187582,8.16675071 13.0352383,8.48095309 12.9309223,8.76605008 C12.8266064,9.05114707 12.61019,9.28337353 12.3300357,9.41083383 L7.01807637,11.8857132 C6.69045445,12.0380956 6.31037469,12.0380956 5.98275277,11.8857132 L0.671558049,9.41083383 C0.390807988,9.2833905 0.173944762,9.05077573 0.0695857867,8.76513819 C-0.0347731884,8.47950065 -0.0178977634,8.16473535 0.11642885,7.89140785 L0.11642885,7.89140785 Z M12.8805771,5.50052433 C13.0179056,5.77414336 13.0369083,6.09052336 12.9332847,6.37806443 C12.8296611,6.66560549 12.6121715,6.89999919 12.3300357,7.02819991 L7.01807637,9.50307933 C6.6902411,9.65569887 6.3098234,9.65569887 5.98198814,9.50307933 L0.671558049,7.02744994 C0.107681583,6.77082018 -0.148097349,6.12260321 0.0927249937,5.5605214 L5.97587101,8.23039133 L6.50041457,8.47487942 L11.8116093,5.99999999 L11.8093154,5.99850007 L12.8798125,5.5012743 L12.8805771,5.50052433 Z M7.01807637,0.114286752 L12.3292711,2.58916617 C12.7381591,2.77427562 13,3.17566699 13,3.61736608 C13,4.05906518 12.7381591,4.46045655 12.3292711,4.64556599 L7.01807637,7.12044541 C6.69045445,7.27282775 6.31037469,7.27282775 5.98275277,7.12044541 L0.671558049,4.64556599 C0.262220827,4.46063816 0,4.05901427 0,3.6169911 C0,3.17496794 0.262220827,2.77334405 0.671558049,2.58841622 L5.98275277,0.114286752 C6.31037469,-0.038095584 6.69045445,-0.038095584 7.01807637,0.114286752 Z" id="形状"></path>
                    </g>
                </g>
            </g>
        </g>
    </g>
</svg>