<?xml version="1.0" encoding="UTF-8"?>
<svg width="28px" height="29px" viewBox="0 0 28 29" version="1.1" xmlns="http://www.w3.org/2000/svg" xmlns:xlink="http://www.w3.org/1999/xlink">
    <title>编组 20</title>
    <defs>
        <linearGradient x1="14.6007345%" y1="13.5435643%" x2="89.0327146%" y2="93.7785987%" id="linearGradient-1">
            <stop stop-color="#FF9667" offset="0%"></stop>
            <stop stop-color="#FF0604" offset="100%"></stop>
        </linearGradient>
        <circle id="path-2" cx="11" cy="11" r="11"></circle>
        <filter x="-18.2%" y="-9.1%" width="136.4%" height="136.4%" filterUnits="objectBoundingBox" id="filter-3">
            <feOffset dx="0" dy="2" in="SourceAlpha" result="shadowOffsetOuter1"></feOffset>
            <feGaussianBlur stdDeviation="1" in="shadowOffsetOuter1" result="shadowBlurOuter1"></feGaussianBlur>
            <feColorMatrix values="0 0 0 0 1   0 0 0 0 0.109803922   0 0 0 0 0.0745098039  0 0 0 0.36 0" type="matrix" in="shadowBlurOuter1"></feColorMatrix>
        </filter>
    </defs>
    <g id="新首页" stroke="none" stroke-width="1" fill="none" fill-rule="evenodd">
        <g id="首页备份-2" transform="translate(-98.000000, -430.000000)">
            <g id="编组-21备份-6" transform="translate(98.000000, 430.000000)">
                <g id="编组-17" transform="translate(2.500000, 3.000000)">
                    <g id="椭圆形">
                        <use fill="black" fill-opacity="1" filter="url(#filter-3)" xlink:href="#path-2"></use>
                        <use fill="url(#linearGradient-1)" fill-rule="evenodd" xlink:href="#path-2"></use>
                    </g>
                    <g id="发展党员-(1)" transform="translate(5.500000, 5.000000)" fill="#FFFFFF" fill-rule="nonzero">
                        <path d="M5.11155914,11.9861163 C4.6453952,11.9861163 4.18629436,12.0216586 3.72719351,11.9790078 C2.68891929,11.8794894 1.64358198,11.7515372 0.612370854,11.609368 C0.181522368,11.5525003 0.117954558,11.4600904 0.0473236591,11.0264744 C-0.0374334201,10.5146655 -0.0021179704,10.0099649 0.103828378,9.50526441 C0.202711638,9.04321463 0.548803044,8.78731013 0.96552535,8.63803251 C1.33986912,8.49586335 1.73540215,8.40345339 2.11680901,8.26128423 C2.34282789,8.18309119 2.55472058,8.06935586 2.75955019,7.94851207 C3.1762725,7.69971604 3.35284975,7.32296776 3.29634503,6.83248415 C3.26809267,6.60501349 3.20452486,6.39175974 3.01382143,6.25669904 C2.65360384,6.00079455 2.45583733,5.64537164 2.3357648,5.22597261 C2.31457553,5.16199649 2.2651339,5.09091191 2.20862918,5.05536962 C1.79190687,4.77103129 1.65770816,4.18102927 1.9119794,3.7331964 C1.96848412,3.63367799 1.99673648,3.50572574 2.01086266,3.39199041 C2.07443047,2.92994063 2.09561974,2.45367394 2.194503,2.00584108 C2.4770266,0.783186279 3.43054374,0.0296897171 4.68071065,0.00125588443 C5.2104424,-0.0129610319 5.71192178,0.0936658401 6.19927499,0.314028042 C6.87733162,0.612583284 7.3152432,1.13150073 7.50594663,1.84234654 C7.60482989,2.21909482 7.6683977,2.61006002 7.72490241,2.99391676 C7.76728095,3.292472 7.75315477,3.58391878 7.91560584,3.88247402 C8.12749854,4.26633076 7.91560584,4.80657358 7.55538826,5.06958653 C7.456505,5.14067111 7.41412646,5.28994873 7.37174792,5.41079252 C7.32936938,5.53163631 7.27286466,5.61693781 7.14572904,5.67380547 C4.82903554,6.75429111 3.8755184,9.51948132 5.02680206,11.8084048 C5.05505442,11.872381 5.08330678,11.9363571 5.11155914,11.9861163 L5.11155914,11.9861163 Z" id="路径"></path>
                        <path d="M8.50388457,6 C6.58490566,6 5,7.58314207 5,9.50774616 C5,11.4401107 6.57713652,13.0077318 8.50388457,13 C10.4384018,13 12,11.4401107 12,9.49998566 C12,7.57538157 10.4306326,6 8.50388457,6 L8.50388457,6 Z M8,11 L6,9.34316354 L6.62135922,8.82841823 L8,9.97050938 L10.3786408,8 L11,8.51474531 L8,11 Z" id="形状"></path>
                    </g>
                </g>
            </g>
        </g>
    </g>
</svg>