<?xml version="1.0" encoding="UTF-8"?>
<svg width="28px" height="29px" viewBox="0 0 28 29" version="1.1" xmlns="http://www.w3.org/2000/svg" xmlns:xlink="http://www.w3.org/1999/xlink">
    <title>编组 20</title>
    <defs>
        <linearGradient x1="14.6007345%" y1="13.5435643%" x2="89.0327146%" y2="93.7785987%" id="linearGradient-1">
            <stop stop-color="#FF9667" offset="0%"></stop>
            <stop stop-color="#FF0604" offset="100%"></stop>
        </linearGradient>
        <circle id="path-2" cx="11" cy="11" r="11"></circle>
        <filter x="-18.2%" y="-9.1%" width="136.4%" height="136.4%" filterUnits="objectBoundingBox" id="filter-3">
            <feOffset dx="0" dy="2" in="SourceAlpha" result="shadowOffsetOuter1"></feOffset>
            <feGaussianBlur stdDeviation="1" in="shadowOffsetOuter1" result="shadowBlurOuter1"></feGaussianBlur>
            <feColorMatrix values="0 0 0 0 1   0 0 0 0 0.109803922   0 0 0 0 0.0745098039  0 0 0 0.36 0" type="matrix" in="shadowBlurOuter1"></feColorMatrix>
        </filter>
    </defs>
    <g id="新首页" stroke="none" stroke-width="1" fill="none" fill-rule="evenodd">
        <g id="首页备份-2" transform="translate(-238.000000, -430.000000)">
            <g id="编组-21备份-8" transform="translate(238.000000, 430.000000)">
                <g id="编组-17" transform="translate(2.500000, 3.000000)">
                    <g id="椭圆形">
                        <use fill="black" fill-opacity="1" filter="url(#filter-3)" xlink:href="#path-2"></use>
                        <use fill="url(#linearGradient-1)" fill-rule="evenodd" xlink:href="#path-2"></use>
                    </g>
                    <g id="女-(4)" transform="translate(5.500000, 4.000000)" fill="#FFFFFF" fill-rule="nonzero">
                        <path d="M7.53245076,8.31729001 L7.53245076,8.14293378 L9.82240878,8.14293378 L9.82240878,3.51601778 C9.82240878,1.57418761 8.10978366,0 5.99903132,0 C3.88827898,0 2.17565386,1.57418761 2.17565386,3.51601778 L2.17565386,8.14293378 L4.46658056,8.14293378 L4.46658056,8.31529736 L4.46270584,8.31529736 L0,11.3321582 L0,13 L12,13 L12,11.3510883 L7.53245076,8.31729001 Z M7.51348961,11.6081501 C6.51570102,12.759239 6,11.0078113 6,11.0078113 C6,11.0078113 5.48429898,12.759239 4.48562583,11.6081501 C4.48562583,11.6081501 4.04688191,11.2694704 4,9 L6,11.0067563 L8,9 C7.95311809,11.2684153 7.51348961,11.6081501 7.51348961,11.6081501 L7.51348961,11.6081501 Z" id="形状"></path>
                    </g>
                </g>
            </g>
        </g>
    </g>
</svg>