<?xml version="1.0" encoding="UTF-8"?><svg version="1.1" width="12px" height="12px" viewBox="0 0 12.0 12.0" xmlns="http://www.w3.org/2000/svg" xmlns:xlink="http://www.w3.org/1999/xlink"><defs><clipPath id="i0"><path d="M375,0 L375,812 L0,812 L0,0 L375,0 Z"></path></clipPath><clipPath id="i1"><path d="M6.13108428,0 C7.65355079,0 9.08679805,0.546794003 10.1934298,1.50577051 L10.1934298,0.782625004 C10.1934647,0.518110886 10.3914376,0.295475401 10.6541351,0.264527251 L10.7146581,0.260875001 C10.9793712,0.26064522 11.2023062,0.45868505 11.2332776,0.721580254 L11.2364081,0.782625004 L11.2364081,2.86962502 C11.2363732,3.13413914 11.0384002,3.35677462 10.7757028,3.38772277 L10.7146581,3.39137502 L8.62765805,3.39137502 C8.35170197,3.39079665 8.12391766,3.17543309 8.10788309,2.89994264 C8.09184853,2.6244522 8.29310945,2.38411661 8.56713505,2.35152726 L8.62765805,2.34787501 L9.5704603,2.34787501 C8.62393755,1.50406206 7.39911821,1.0395523 6.13108428,1.04350001 C3.31833002,1.04350001 1.04297826,3.26563327 1.04297826,6.00012503 C1.04297826,8.7346168 3.31780827,10.9567501 6.13108428,10.9567501 C8.3662613,10.9567501 10.3176063,9.5401988 10.9817941,7.50015629 C11.071122,7.22612131 11.3656858,7.07638664 11.6397208,7.16571456 C11.9137558,7.25504247 12.0634905,7.5496063 11.9741626,7.82364129 C11.1701458,10.2930841 8.81757505,12.0002501 6.13056253,12.0002501 C2.74753552,12.0002501 0,9.3168898 0,6.00012503 C0,2.68336027 2.74753552,0 6.13108428,0 Z"></path></clipPath></defs><g transform="translate(-301.0 -371.0)"><g clip-path="url(#i0)"><g transform="translate(301.0 371.0000000000005)"><g clip-path="url(#i1)"><polygon points="0,0 12,0 12,12.0002501 0,12.0002501 0,0" stroke="none" fill="#FF5757"></polygon></g></g></g></g></svg>