<?xml version="1.0" encoding="UTF-8"?><svg version="1.1" width="20px" height="23px" viewBox="0 0 20.0 23.0" xmlns="http://www.w3.org/2000/svg" xmlns:xlink="http://www.w3.org/1999/xlink"><defs><clipPath id="i0"><path d="M20,0 L20,23 L0,23 L0,0 L20,0 Z"></path></clipPath><clipPath id="i1"><path d="M12.7781276,0 C18.8824963,6.07752335 19.8959766,6.78903396 19.9862156,7.0830678 L19.9920978,7.10956142 C19.9978176,7.15218237 19.9841769,7.18838645 19.9670742,7.23705083 L19.9670742,20.9914458 C19.9670742,22.0909977 19.0772046,22.9906311 17.9773657,22.9906311 L1.99970698,22.9906311 C0.889869605,22.9906311 0,22.0909977 0,20.9914458 L0,1.99918531 C0,0.899633391 0.889869605,0 1.99970698,0 Z"></path></clipPath><linearGradient id="i2" x1="9.99671089px" y1="0px" x2="9.99671089px" y2="22.9906311px" gradientUnits="userSpaceOnUse"><stop stop-color="#FFBC1B" offset="0%"></stop><stop stop-color="#F6AD00" offset="100%"></stop></linearGradient><clipPath id="i3"><path d="M0.12,0 L7.14,7.02 L0,7.18 L0.12,0 Z"></path></clipPath><clipPath id="i4"><path d="M3.9391202,1.31604764 L9.32791662,7.89604764 L13.1170703,5.26604764 L13.1170703,10.5260476 L0,10.5260476 L0,7.89604764 L3.9391202,1.31604764 Z M11.1500436,-2.48689958e-14 C11.6696582,-2.48689958e-14 12.1692876,0.21 12.5390134,0.58 C12.9087392,0.95 13.1185835,1.45 13.1185835,1.97 C13.1185835,2.77 12.6389393,3.49 11.8994877,3.8 C11.1600362,4.1 10.3106661,3.93 9.75108117,3.37 C9.18150362,2.8 9.01162961,1.95 9.32139986,1.21 C9.6311701,0.48 10.3506365,-2.48689958e-14 11.1500436,-2.48689958e-14 Z"></path></clipPath></defs><g clip-path="url(#i0)"><g transform="translate(0.0 0.009368896484375)"><g clip-path="url(#i1)"><polygon points="0,0 19.9934218,0 19.9934218,22.9906311 0,22.9906311 0,0" stroke="none" fill="url(#i2)"></polygon></g></g><g transform="translate(12.859375 0.0)"><g clip-path="url(#i3)"><polygon points="0,0 7.14,0 7.14,7.18 0,7.18 0,0" stroke="none" fill="#FFFFFF" opacity="50%"></polygon></g></g><g transform="translate(3.4498367309570312 9.495328903198239)"><g clip-path="url(#i4)"><polygon points="0,-2.48689958e-14 13.1185835,-2.48689958e-14 13.1185835,10.5260476 0,10.5260476 0,-2.48689958e-14" stroke="none" fill="#FFFFFF"></polygon></g></g></g></svg>