<?xml version="1.0" encoding="UTF-8"?><svg version="1.1" width="16px" height="16px" viewBox="0 0 16.0 16.0" xmlns="http://www.w3.org/2000/svg" xmlns:xlink="http://www.w3.org/1999/xlink"><defs><clipPath id="i0"><path d="M375,0 L375,812 L0,812 L0,0 L375,0 Z"></path></clipPath><clipPath id="i1"><path d="M16,0 L16,16 L0,16 L0,0 L16,0 Z"></path></clipPath><clipPath id="i2"><path d="M8,0 C12.42,0 16,3.58 16,8 C16,12.42 12.42,16 8,16 C3.58,16 0,12.42 0,8 C0,3.58 3.58,0 8,0 Z M8,10.6875 C7.45,10.6875 7,11.1375 7,11.6875 C7,12.2375 7.45,12.6875 8,12.6875 C8.55,12.6875 9,12.2375 9,11.6875 C9,11.1375 8.55,10.6875 8,10.6875 Z M8.0025,3.3125 C7.6225,3.3125 7.3125,3.6225 7.3125,4.0025 L7.3125,9.3025 C7.3125,9.6825 7.6225,9.9925 8.0025,9.9925 C8.3825,9.9925 8.6925,9.6825 8.6925,9.3025 L8.6925,4.0025 C8.6925,3.6225 8.3825,3.3125 8.0025,3.3125 Z"></path></clipPath></defs><g transform="translate(-148.0 -519.0)"><g clip-path="url(#i0)"><g transform="translate(148.0 517.0)"><g transform="translate(0.0 2.0)"><g clip-path="url(#i1)"><g clip-path="url(#i2)"><polygon points="0,0 16,0 16,16 0,16 0,0" stroke="none" fill="#FF5757"></polygon></g></g></g></g></g></g></svg>