<?xml version="1.0" encoding="UTF-8"?>
<svg width="20px" height="20px" viewBox="0 0 20 20" version="1.1" xmlns="http://www.w3.org/2000/svg" xmlns:xlink="http://www.w3.org/1999/xlink">
    <title>编组 4</title>
    <g id="党员积分" stroke="none" stroke-width="1" fill="none" fill-rule="evenodd">
        <g id="我的" transform="translate(-16.000000, -426.000000)" fill="#FF5757" fill-rule="nonzero">
            <g id="编组-4" transform="translate(16.000000, 426.000000)">
                <path d="M10.5,9.65586168 C6.79468598,9.65586168 4,8.22636412 4,6.32793084 C4,4.42949757 6.79468598,3 10.5,3 C14.205314,3 17,4.42949757 17,6.32793084 C17,8.22636412 14.205314,9.65586168 10.5,9.65586168 Z M10.5,4.52025932 C7.49335749,4.52025932 5.57004832,5.59427337 5.57004832,6.33549433 C5.57004832,7.07671528 7.49335749,8.15072934 10.5,8.15072934 C13.5066425,8.15072934 15.4299517,7.07671528 15.4299517,6.33549433 C15.4299517,5.59427337 13.5144928,4.52025932 10.5,4.52025932 Z M10.5,13.3317126 C7.58756039,13.3317126 5.09118358,12.4089681 4.29045894,11.0324149 C4.10609574,10.6722074 4.24608507,10.2359794 4.60929032,10.0388881 C4.97249557,9.84179675 5.43225057,9.95257671 5.65640097,10.2911939 C6.08816426,11.0324149 7.93297101,11.8190167 10.5,11.8190167 C12.9963768,11.8190167 14.8490338,11.0551053 15.3200483,10.3290113 C15.5477053,9.97352783 16.0344203,9.86763911 16.4033817,10.0945435 C16.772343,10.3138844 16.8822464,10.7828201 16.6467391,11.1383036 C15.7753623,12.4694759 13.3653382,13.3317126 10.5,13.3317126 Z M10.5,17 C7.58756039,17 5.09118358,16.0772555 4.29045894,14.7007023 C4.10609579,14.3404948 4.24608514,13.9042669 4.60929037,13.7071756 C4.97249559,13.5100842 5.43225056,13.6208642 5.65640097,13.9594814 C6.08816426,14.7007023 7.93297101,15.4873042 10.5,15.4873041 C12.9963768,15.4873041 14.8490338,14.7233928 15.3200483,13.9972988 C15.5477053,13.6418152 16.0344203,13.5359265 16.4033817,13.7628309 C16.772343,13.9821718 16.8822464,14.4511075 16.6467391,14.806591 C15.7753623,16.1377634 13.3653382,17 10.5,17 L10.5,17 Z" id="形状"></path>
            </g>
        </g>
    </g>
</svg>