<?xml version="1.0" encoding="UTF-8"?><svg version="1.1" width="28px" height="28px" viewBox="0 0 28.0 28.0" xmlns="http://www.w3.org/2000/svg" xmlns:xlink="http://www.w3.org/1999/xlink"><defs><clipPath id="i0"><path d="M375,0 L375,812 L0,812 L0,0 L375,0 Z"></path></clipPath><clipPath id="i1"><path d="M4.42708302,4.6875013 C4.42708302,5.26281279 3.96072966,5.72916698 3.38541694,5.72916698 L0,5.72916698 L4.42708302,4.6875013 Z"></path></clipPath><clipPath id="i2"><path d="M15.6250012,0 C16.2003179,0 16.6666679,0.466374972 16.6666679,1.0416666 L4.16666698,20.8333321 L1.04166675,20.8333321 C0.466366702,20.8333321 0,20.3669779 0,19.7916655 L0,1.0416666 C0,0.466374972 0.466366702,0 1.04166675,0 Z"></path></clipPath></defs><g transform="translate(-305.0 -72.0)"><g clip-path="url(#i0)"><g transform="translate(291.0 72.0)"><g opacity="60.0000024%"><g transform="translate(14.0 0.0)"><g transform="translate(5.166671752929689 4.083251953125)"><g transform="translate(12.239578247070312 15.104248046875)"><g clip-path="url(#i1)"><polygon points="0,0 4.42708302,0 4.42708302,5.72916698 0,5.72916698 0,0" stroke="none" fill="#FFD2D2"></polygon></g><path d="M4.42708302,0 L4.42708302,4.6875013 C4.42708302,5.26281279 3.96072966,5.72916698 3.38541694,5.72916698 C3.38541694,5.72916698 2.25694463,5.72916698 0,5.72916698" stroke="#FF5757" stroke-width="1" fill="none" stroke-linecap="round" stroke-linejoin="round"></path></g><g clip-path="url(#i2)"><polygon points="0,0 16.6666679,0 16.6666679,20.8333321 0,20.8333321 0,0" stroke="none" fill="#FFD2D2"></polygon></g><path d="M16.6666679,6.24999962 L16.6666679,1.0416666 C16.6666679,0.466374972 16.2003179,0 15.6250012,0 C15.6250012,0 10.7638897,0 1.04166675,0 C0.466366702,0 0,0.466374972 0,1.0416666 C0,1.0416666 0,7.29166622 0,19.7916655 C0,20.3669779 0.466366702,20.8333321 1.04166675,20.8333321 C1.04166675,20.8333321 2.08333349,20.8333321 4.16666698,20.8333321" stroke="#FF5757" stroke-width="1" fill="none" stroke-linecap="round" stroke-linejoin="round"></path><g transform="translate(4.166664123535156 5.25)"><path d="M0,0 L7.29166698,0.1" stroke="#FF5757" stroke-width="1.67" fill="none" stroke-linecap="round" stroke-miterlimit="10"></path></g><g transform="translate(8.812492370605469 11.89599609375)"><path d="M0.520835876,0.520751953 L6.85416603,7.9375" stroke="#FF5757" stroke-width="1" fill="none" stroke-linecap="round" stroke-miterlimit="10"></path></g><g transform="translate(4.166664123535156 9.416748046875)"><path d="M0,0 L4.16666698,0.1" stroke="#FF5757" stroke-width="1.67" fill="none" stroke-linecap="round" stroke-miterlimit="10"></path></g></g></g></g></g></g></g></svg>