<?xml version="1.0" encoding="UTF-8"?><svg version="1.1" width="28px" height="28px" viewBox="0 0 28.0 28.0" xmlns="http://www.w3.org/2000/svg" xmlns:xlink="http://www.w3.org/1999/xlink"><defs><clipPath id="i0"><path d="M375,0 L375,812 L0,812 L0,0 L375,0 Z"></path></clipPath><clipPath id="i1"><path d="M12.21875,0 L17,5.3125 L17,20.1875 C17,20.7743187 16.524323,21.25 15.9375,21.25 L1.0625,21.25 C0.475694,21.25 0,20.7743187 0,20.1875 L0,1.0625 C0,0.4757025 0.475694,0 1.0625,0 L12.21875,0 Z"></path></clipPath></defs><g transform="translate(-217.0 -72.0)"><g clip-path="url(#i0)"><g transform="translate(203.0 72.0)"><g opacity="60.0000024%"><g transform="translate(14.0 0.0)"><g transform="translate(6.0 3.0)"><g clip-path="url(#i1)"><polygon points="0,0 17,0 17,21.25 0,21.25 0,0" stroke="none" fill="#FFD2D2"></polygon></g><path d="M15.9375,21.25 C16.524323,21.25 17,20.7743187 17,20.1875 C17,20.1875 17,15.2291667 17,5.3125 L12.21875,0 L1.0625,0 C0.475694,0 0,0.4757025 0,1.0625 C0,1.0625 0,7.4375 0,20.1875 C0,20.7743187 0.475694,21.25 1.0625,21.25 C1.0625,21.25 6.02083333,21.25 15.9375,21.25 L15.9375,21.25 Z" stroke="#FF5757" stroke-width="1" fill="none" stroke-linecap="round" stroke-linejoin="round"></path><g transform="translate(4.78125 9.03125)"><path d="M0,2.38339894 C0,4.76674581 2.4171875,6.93350525 3.71875,7.4375 C5.0203125,6.93350525 7.4375,4.76674581 7.4375,2.38339894 C7.4375,1.06706556 6.52178756,0 5.3921875,0 C4.70044794,0 4.08886975,0.400189562 3.71875,1.01266769 C3.34863025,0.400189562 2.73705206,0 2.0453125,0 C0.915712437,0 0,1.06706556 0,2.38339894 C0,2.38339894 0,2.38339894 0,2.38339894 Z" stroke="#FF5757" stroke-width="1.67" fill="none" stroke-linecap="round" stroke-linejoin="round"></path></g><g transform="translate(11.6875 0.0)"><path d="M0,0 L0,5.3125 L5.3125,5.3125" stroke="#FF5757" stroke-width="1" fill="none" stroke-linecap="round" stroke-linejoin="round"></path></g></g></g></g></g></g></g></svg>