<?xml version="1.0" encoding="UTF-8"?><svg version="1.1" width="20px" height="20px" viewBox="0 0 20.0 20.0" xmlns="http://www.w3.org/2000/svg" xmlns:xlink="http://www.w3.org/1999/xlink"><defs><clipPath id="i0"><path d="M375,0 L375,812 L0,812 L0,0 L375,0 Z"></path></clipPath><clipPath id="i1"><path d="M10,0 C15.5228475,0 20,4.4771525 20,10 C20,15.5228475 15.5228475,20 10,20 C4.4771525,20 0,15.5228475 0,10 C0,4.4771525 4.4771525,0 10,0 Z"></path></clipPath><linearGradient id="i2" x1="3.49720253e-14px" y1="2.22044605e-15px" x2="20px" y2="20px" gradientUnits="userSpaceOnUse"><stop stop-color="#FF7B7B" offset="0%"></stop><stop stop-color="#FF5757" offset="100%"></stop></linearGradient><clipPath id="i3"><path d="M11,0 L11,11 L0,11 L0,0 L11,0 Z"></path></clipPath><clipPath id="i4"><path d="M5.9583332,0 L5.9583332,8.25 L0,8.25 L0,0 L5.9583332,0 Z"></path></clipPath><clipPath id="i5"><path d="M1.8333334,0 L1.8333334,7.33333425 L0.9166667,8.25 L0,7.33333425 L0,0 L1.8333334,0 Z"></path></clipPath></defs><g transform="translate(-28.0 -431.0)"><g clip-path="url(#i0)"><g transform="translate(0.0 149.0)"><g transform="translate(16.0 272.0)"><g transform="translate(12.0 10.0)"><g clip-path="url(#i1)"><polygon points="0,0 20,0 20,20 0,20 0,0" stroke="none" fill="url(#i2)"></polygon></g><g transform="translate(4.499999999999999 4.5)"><g clip-path="url(#i3)"><polygon points="0,0 11,0 11,11 0,11 0,0" stroke="none" fill="rgba(255, 255, 255, 0.00784314)"></polygon></g><g transform="translate(1.4166623629056398 1.875)"><g clip-path="url(#i4)"><polygon points="0,0 5.9583332,0 5.9583332,8.25 0,8.25 0,0" stroke="none" fill="#FFD2D2"></polygon></g><polygon points="0,8.25 5.9583332,8.25 5.9583332,0 0,0 0,8.25 0,8.25 0,8.25" stroke="#FFFFFF" stroke-width="0.5" fill="none" stroke-linecap="round" stroke-linejoin="round"></polygon></g><g transform="translate(3.749999999999996 1.8961538461538474) rotate(90.0)"><path d="M0,0.478846154 L8.25,0.521153846" stroke="#FFFFFF" stroke-width="0.5" fill="none" stroke-linecap="round" stroke-linejoin="round"></path></g><g transform="translate(8.75 1.875)"><g clip-path="url(#i5)"><polygon points="0,0 1.8333334,0 1.8333334,8.25 0,8.25 0,0" stroke="none" fill="#FFD2D2"></polygon></g><polygon points="0,0 0,7.33333425 0.9166667,8.25 1.8333334,7.33333425 1.8333334,0 0,0 0,0 0,0" stroke="#FFFFFF" stroke-width="0.5" fill="none" stroke-linecap="round" stroke-linejoin="round"></polygon></g><g transform="translate(8.75 3.25)"><path d="M0,0 L1.8333334,0.11" stroke="#FFFFFF" stroke-width="0.5" fill="none" stroke-linecap="round" stroke-linejoin="round"></path></g><g transform="translate(1.4166623629056398 1.875)"><path d="M0,0 L5.9583332,0.11" stroke="#FFFFFF" stroke-width="0.5" fill="none" stroke-linecap="round" stroke-linejoin="round"></path></g><g transform="translate(1.4166623629056398 10.125)"><path d="M0,0 L5.9583332,0.11" stroke="#FFFFFF" stroke-width="0.5" fill="none" stroke-linecap="round" stroke-linejoin="round"></path></g><g transform="translate(9.250034497334305 1.8961193488194392) rotate(90.0)"><path d="M0,0.478846154 L3.6666668,0.521153846" stroke="#FFFFFF" stroke-width="0.5" fill="none" stroke-linecap="round" stroke-linejoin="round"></path></g><g transform="translate(11.0833334005796 1.8961193488194514) rotate(90.0)"><path d="M0,0.478846154 L3.6666668,0.521153846" stroke="#FFFFFF" stroke-width="0.5" fill="none" stroke-linecap="round" stroke-linejoin="round"></path></g></g></g></g></g></g></g></svg>