<?xml version="1.0" encoding="UTF-8"?><svg version="1.1" width="26px" height="26px" viewBox="0 0 26.0 26.0" xmlns="http://www.w3.org/2000/svg" xmlns:xlink="http://www.w3.org/1999/xlink"><defs><clipPath id="i0"><path d="M375,0 L375,812 L0,812 L0,0 L375,0 Z"></path></clipPath><clipPath id="i1"><path d="M26,0 L26,26 L0,26 L0,0 L26,0 Z"></path></clipPath><clipPath id="i2"><path d="M14.083333,0 L14.083333,19.5 L0,19.5 L0,0 L14.083333,0 Z"></path></clipPath><clipPath id="i3"><path d="M4.33333349,0 L4.33333349,17.3333355 L2.16666675,19.5 L0,17.3333355 L0,0 L4.33333349,0 Z"></path></clipPath></defs><g transform="translate(-43.0 -136.0)"><g clip-path="url(#i0)"><g transform="translate(28.0 135.0)"><g transform="translate(15.0 1.0)"><g clip-path="url(#i1)"><polygon points="0,0 26,0 26,26 0,26 0,0" stroke="none" fill="rgba(255, 255, 255, 0.00784314)"></polygon></g><g transform="translate(2.166656494140624 3.25)"><g clip-path="url(#i2)"><polygon points="0,0 14.083333,0 14.083333,19.5 0,19.5 0,0" stroke="none" fill="#FFD2D2"></polygon></g><polygon points="0,19.5 14.083333,19.5 14.083333,0 0,0 0,19.5 0,19.5 0,19.5" stroke="#FF5757" stroke-width="1" fill="none" stroke-linecap="round" stroke-linejoin="round"></polygon></g><g transform="translate(6.55 3.3000000000000007) rotate(90.0)"><path d="M0,0 L19.5,0.1" stroke="#FF5757" stroke-width="1" fill="none" stroke-linecap="round" stroke-linejoin="round"></path></g><g transform="translate(19.5 3.25)"><g clip-path="url(#i3)"><polygon points="0,0 4.33333349,0 4.33333349,19.5 0,19.5 0,0" stroke="none" fill="#FFD2D2"></polygon></g><polygon points="0,0 0,17.3333355 2.16666675,19.5 4.33333349,17.3333355 4.33333349,0 0,0 0,0 0,0" stroke="#FF5757" stroke-width="1" fill="none" stroke-linecap="round" stroke-linejoin="round"></polygon></g><g transform="translate(19.5 6.5)"><path d="M0,0 L4.33333349,0.1" stroke="#FF5757" stroke-width="1" fill="none" stroke-linecap="round" stroke-linejoin="round"></path></g><g transform="translate(2.166656494140624 3.25)"><path d="M0,0 L14.083333,0.1" stroke="#FF5757" stroke-width="1" fill="none" stroke-linecap="round" stroke-linejoin="round"></path></g><g transform="translate(2.166656494140624 22.75)"><path d="M0,0 L14.083333,0.1" stroke="#FF5757" stroke-width="1" fill="none" stroke-linecap="round" stroke-linejoin="round"></path></g><g transform="translate(19.550081539154053 3.299918460845947) rotate(90.0)"><path d="M0,0 L8.66666698,0.1" stroke="#FF5757" stroke-width="1" fill="none" stroke-linecap="round" stroke-linejoin="round"></path></g><g transform="translate(23.883333492279053 3.299918460845947) rotate(90.0)"><path d="M0,0 L8.66666698,0.1" stroke="#FF5757" stroke-width="1" fill="none" stroke-linecap="round" stroke-linejoin="round"></path></g></g></g></g></g></svg>