<?xml version="1.0" encoding="UTF-8"?><svg version="1.1" width="14px" height="14px" viewBox="0 0 14.0 14.0" xmlns="http://www.w3.org/2000/svg" xmlns:xlink="http://www.w3.org/1999/xlink"><defs><clipPath id="i0"><path d="M375,0 L375,1143 L0,1143 L0,0 L375,0 Z"></path></clipPath><clipPath id="i1"><path d="M13.1898146,0 L13.1898146,11.9061136 L0,11.9061136 L0,0 L13.1898146,0 Z"></path></clipPath><clipPath id="i2"><path d="M0.49,0 C0.76,0 0.98,0.22 0.98,0.49 L0.98,0.97 C0.98,1.24 0.76,1.46 0.49,1.46 C0.22,1.46 0,1.24 0,0.97 L0,0.49 C0,0.22 0.22,0 0.49,0 Z"></path></clipPath><clipPath id="i3"><path d="M0.229264832,0.0792648317 C0.459264832,-0.0707351683 0.759264832,-0.000735168298 0.909264832,0.229264832 C1.02926483,0.409264832 1.21926483,0.519264832 1.42926483,0.539264832 C1.64926483,0.519264832 1.84926483,0.399264832 1.96926483,0.219264832 C2.11926483,-0.000735168298 2.41926483,-0.0607351683 2.64926483,0.0892648317 C2.87926483,0.229264832 2.93926483,0.529264832 2.79926483,0.759264832 C2.48926483,1.21926483 1.97926483,1.49926483 1.42926483,1.51926483 C0.879264832,1.49926483 0.369264832,1.21926483 0.0792648317,0.749264832 C-0.0707351683,0.519264832 -0.000735168298,0.219264832 0.229264832,0.0792648317 Z"></path></clipPath></defs><g transform="translate(-346.0 -1084.0)"><g clip-path="url(#i0)"><g transform="translate(15.0 1082.0)"><g transform="translate(320.0 2.0)"><g transform="translate(11.0 0.0)"><g transform="translate(0.4895343780517578 1.13140869140625)"><g clip-path="url(#i1)"><g transform="translate(3.942492127418518 0.35395061374535075)"><path d="M0.12,4.53973383 C0.04,4.59973383 0,4.68973383 0,4.78973383 L0,10.8697338 C0,11.0097338 0.11,11.1197338 0.26,11.1197338 L7.01,11.1197338 C7.97,10.6797338 8.56,6.76973383 8.86,5.35973383 C9.06,4.4264005 8.56666667,4.05973383 7.38,4.25973383 L4.14,4.25973383 C4.43,2.70973383 5.02,0.789733829 3.77,0.199733829 C2.44,-0.400266171 2.36,0.419733829 2.22,1.74973383 C2.09,2.93973383 0.57,4.18973383 0.12,4.53973383 Z" stroke="#999999" stroke-width="1" fill="none" stroke-miterlimit="10"></path></g><g transform="translate(0.3542221188545227 4.980362892150879)"><path d="M0.258000016,0 L1.8092401,0 C1.95172964,-2.61749039e-17 2.06724024,0.115510595 2.06724024,0.258000135 L2.06724024,6.31352806 C2.06724024,6.45601773 1.95172954,6.57152843 1.80923986,6.57152843 L0.258000374,6.57152843 C0.115510702,6.57152843 7.29611033e-17,6.45601773 0,6.31352806 L0,0.258000016 C-1.74499279e-17,0.115510542 0.115510542,1.37197194e-16 0.258000016,0 Z" stroke="#999999" stroke-width="1" fill="none" stroke-miterlimit="10"></path></g><g transform="translate(5.760359525680542 6.375716924667358)"><g clip-path="url(#i2)"><polygon points="0,0 0.98,0 0.98,1.46 0,1.46 0,0" stroke="none" fill="#999999"></polygon></g></g><g transform="translate(9.599419116973873 6.375716924667358)"><g clip-path="url(#i2)"><polygon points="0,0 0.98,0 0.98,1.46 0,1.46 0,0" stroke="none" fill="#999999"></polygon></g></g><g transform="translate(6.734863872563889 8.51705942112171)"><g clip-path="url(#i3)"><polygon points="-2.77555756e-17,0 2.87410456,0 2.87410456,1.51926483 -2.77555756e-17,1.51926483 -2.77555756e-17,0" stroke="none" fill="#999999"></polygon></g></g></g></g></g></g></g></g></g></svg>