<?xml version="1.0" encoding="UTF-8"?><svg version="1.1" width="21px" height="21px" viewBox="0 0 21.0 21.0" xmlns="http://www.w3.org/2000/svg" xmlns:xlink="http://www.w3.org/1999/xlink"><defs><clipPath id="i0"><path d="M375,0 L375,812 L0,812 L0,0 L375,0 Z"></path></clipPath><clipPath id="i1"><path d="M18.618,0 L18.618,16.8059998 L0,16.8059998 L0,0 L18.618,0 Z"></path></clipPath><clipPath id="i2"><path d="M0.7,0 C1.08,0 1.39,0.31 1.39,0.69 L1.39,1.37 C1.39,1.76 1.08,2.06 0.69,2.06 C0.31,2.06 0,1.76 0,1.37 L0,0.69 C0,0.31 0.31,0 0.69,0 Z"></path></clipPath><clipPath id="i3"><path d="M0.69,0 C1.08,0 1.39,0.31 1.39,0.69 L1.39,1.37 C1.39,1.76 1.08,2.06 0.69,2.06 C0.31,2.06 0,1.76 0,1.37 L0,0.69 C0,0.31 0.31,0 0.69,0 Z"></path></clipPath><clipPath id="i4"><path d="M0.320477412,0.110025861 C0.650477412,-0.0999741391 1.08047741,2.58608629e-05 1.28047741,0.330025861 C1.45047741,0.580025861 1.72047741,0.730025861 2.02047741,0.760025861 C2.33047741,0.730025861 2.61047741,0.570025861 2.78047741,0.320025861 C3.00047741,2.58608629e-05 3.42047741,-0.0799741391 3.74047741,0.120025861 C4.06047741,0.330025861 4.15047741,0.750025861 3.95047741,1.07002586 C3.52047741,1.72002586 2.80047741,2.12002586 2.02047741,2.14002586 C1.24047741,2.12002586 0.530477412,1.72002586 0.110477412,1.06002586 C-0.0995225877,0.740025861 0.000477412274,0.310025861 0.320477412,0.110025861 Z"></path></clipPath><clipPath id="i5"><path d="M20,0 L20,20 L0,20 L0,0 L20,0 Z"></path></clipPath><clipPath id="i6"><path d="M3.23,1.85757663 C3.21,1.88757663 3.44,-0.762423371 5.7,0.217576629 C7.98,0.937576629 7.46,3.74757663 6.92,5.98757663 L11.59,5.90757663 C12.89,6.00757663 13.5466667,6.6042433 13.56,7.69757663 C13.09,9.93757663 12.19,16.3075766 10.48,16.7275766 L0.41,16.7275766 L0,16.3175766 L0,7.02757663 C0,6.86757663 0.07,6.71757663 0.2,6.62757663 C0.91,6.07757663 3.2,4.56757663 3.23,1.85757663 Z"></path></clipPath><clipPath id="i7"><path d="M3.01,0 C3.48,0 3.86,0.33 3.86,0.73 L3.86,9.75 C3.86,10.15 3.48,10.48 3.01,10.48 L0.85,10.48 C0.38,10.48 0,10.15 0,9.75 L0,0.73 C0,0.33 0.38,0 0.85,0 Z"></path></clipPath><clipPath id="i8"><path d="M0.69,0 C1.07,0 1.37,0.31 1.37,0.69 L1.37,1.36 C1.37,1.74 1.07,2.04 0.69,2.04 C0.31,2.04 0,1.74 0,1.36 L0,0.69 C0,0.31 0.31,0 0.69,0 Z"></path></clipPath><clipPath id="i9"><path d="M0.320477412,0.110477412 C0.650477412,-0.0995225877 1.07047741,0.000477412274 1.27047741,0.320477412 C1.44047741,0.570477412 1.71047741,0.730477412 2.01047741,0.750477412 C2.31047741,0.730477412 2.59047741,0.560477412 2.77047741,0.320477412 C2.98047741,0.000477412274 3.40047741,-0.0795225877 3.72047741,0.120477412 C4.03047741,0.330477412 4.12047741,0.750477412 3.92047741,1.07047741 C3.49047741,1.71047741 2.78047741,2.11047741 2.01047741,2.13047741 C1.24047741,2.11047741 0.520477412,1.71047741 0.110477412,1.06047741 C-0.0995225877,0.730477412 0.000477412274,0.310477412 0.320477412,0.110477412 Z"></path></clipPath></defs><g transform="translate(-337.0 -711.0)"><g clip-path="url(#i0)"><g transform="translate(337.0 711.0000079870224)"><g transform="translate(0.20311546325683594 0.0)"><g transform="translate(0.487884521484375 1.652671456336975)"><g clip-path="url(#i1)"><g transform="translate(5.565000057220458 0.5000899112607264)"><path d="M3.13,2.46915114 C2.95,4.14915114 0.8,5.91915114 0.17,6.39915114 C0.06,6.48915114 0,6.61915114 0,6.75915114 L0,15.3391511 C0,15.5391511 0.16,15.6991511 0.36,15.6991511 L9.9,15.6991511 C11.25,15.0791511 12.09,9.54915114 12.51,7.56915114 C12.7833333,6.24915114 12.0866667,5.72915114 10.42,6.00915114 L5.84,6.00915114 C6.25,3.81915114 7.09,1.10915114 5.32,0.279151141 C3.44,-0.560848859 3.34,0.589151141 3.13,2.46915114 Z" stroke="#999999" stroke-width="1" fill="none" stroke-miterlimit="10"></path></g><g transform="translate(0.5 7.029999732971191)"><path d="M0.258000016,0 L2.65999985,0 C2.80248939,2.26937365e-16 2.91799998,0.115510595 2.91799998,0.258000135 L2.91799998,9.01799965 C2.91799998,9.16048932 2.80248928,9.27600002 2.65999961,9.27600002 L0.258000374,9.27600002 C0.115510702,9.27600002 7.29611033e-17,9.16048932 0,9.01799965 L0,0.258000016 C-1.74499279e-17,0.115510542 0.115510542,-2.93362594e-17 0.258000016,0 Z" stroke="#999999" stroke-width="1" fill="none" stroke-miterlimit="10"></path></g><g transform="translate(8.130999565124512 8.999603271484375)"><g clip-path="url(#i2)"><polygon points="0,0 1.39,0 1.39,2.06 0,2.06 0,0" stroke="none" fill="#999999"></polygon></g></g><g transform="translate(13.55000019073486 8.999603271484375)"><g clip-path="url(#i3)"><polygon points="0,0 1.39,0 1.39,2.06 0,2.06 0,0" stroke="none" fill="#999999"></polygon></g></g><g transform="translate(9.505039163278134 12.02113814929988)"><g clip-path="url(#i4)"><polygon points="0,5.55111512e-17 4.0565277,5.55111512e-17 4.0565277,2.14002586 0,2.14002586 0,5.55111512e-17" stroke="none" fill="#999999"></polygon></g></g></g></g><g clip-path="url(#i5)"><g transform="translate(5.574951171875001 1.6372119238878167)"><g clip-path="url(#i6)"><polygon points="0,2.77555756e-17 13.56,2.77555756e-17 13.56,16.7275766 0,16.7275766 0,2.77555756e-17" stroke="none" fill="#FF5757"></polygon></g></g><g transform="translate(0.513773441314697 8.132231712341309)"><g clip-path="url(#i7)"><polygon points="0,0 3.86,0 3.86,10.48 0,10.48 0,0" stroke="none" fill="#FF5757"></polygon></g></g><g transform="translate(8.624970436096191 10.66382564604282)"><g clip-path="url(#i8)"><polygon points="0,0 1.37,0 1.37,2.04 0,2.04 0,0" stroke="none" fill="#FFFFFF"></polygon></g></g><g transform="translate(14.04995822906494 10.65131343901157)"><g clip-path="url(#i8)"><polygon points="0,0 1.37,0 1.37,2.04 0,2.04 0,0" stroke="none" fill="#FFFFFF"></polygon></g></g><g transform="translate(10.00924353383667 13.68994274891426)"><g clip-path="url(#i9)"><polygon points="0,0 4.02699154,0 4.02699154,2.13047741 0,2.13047741 0,0" stroke="none" fill="#FFFFFF"></polygon></g></g></g></g></g></g></g></svg>