<?xml version="1.0" encoding="UTF-8"?><svg version="1.1" width="14px" height="14px" viewBox="0 0 14.0 14.0" xmlns="http://www.w3.org/2000/svg" xmlns:xlink="http://www.w3.org/1999/xlink"><defs><clipPath id="i0"><path d="M375,0 L375,812 L0,812 L0,0 L375,0 Z"></path></clipPath><clipPath id="i1"><path d="M6.24810427,3.87097597 C6.39108733,3.87097597 6.5207794,3.92755362 6.61629264,4.01941533 L6.75324929,4.12965884 L6.88380527,4.25045469 L6.92695204,4.29355946 C7.93969739,5.30701834 7.85382361,6.90676371 6.84106427,7.92086615 L4.49183304,10.2707969 C3.47767464,11.2842558 1.81858151,11.2842558 0.804423105,10.2707969 L0.7606188,10.2270066 C-0.2535396,9.21356171 -0.2535396,7.55375506 0.7606188,6.53889714 L1.83951131,5.52934162 C1.87142369,5.49050395 1.90837264,5.45604532 1.94923893,5.42666524 L1.96030542,5.41631225 C2.05366412,5.35520168 2.16530843,5.31837864 2.28558488,5.31837864 C2.60431678,5.31837864 2.8626936,5.57675546 2.8626936,5.89548737 C2.8626936,6.07873513 2.77718357,6.24192048 2.64397989,6.3476468 L1.60579977,7.38547715 C1.05507716,7.93482869 1.05507716,8.83076725 1.60579977,9.38144788 L1.64995383,9.42562993 C2.20066244,9.97563903 3.09594345,9.97563903 3.64662408,9.42562993 L5.99655483,7.07639869 C6.54724945,6.52569007 6.711652,5.57808455 6.16095736,5.02807545 L6.11715306,4.98425716 C6.07116624,4.93827034 6.02198958,4.89758592 5.97188955,4.85627193 C5.92223721,4.82601045 5.87801321,4.78778836 5.8408404,4.74345243 L5.78876005,4.669426 C5.74299599,4.59095233 5.71675853,4.49970619 5.71675853,4.40232171 C5.71675853,4.10887068 5.95463924,3.87097597 6.24810427,3.87097597 Z M6.5389251,0.7606188 C7.5530835,-0.2535396 9.21217663,-0.2535396 10.226321,0.7606188 L10.2701253,0.804423105 C11.2842837,1.81856751 11.2842837,3.47768862 10.2693838,4.49183307 L9.17882322,5.4981288 C9.14190225,5.5445913 9.09798603,5.58523375 9.04854355,5.6183353 L9.03249643,5.63315125 C8.9433209,5.683671 8.84057456,5.71478591 8.73053917,5.71478591 C8.41438152,5.71478591 8.15808929,5.45847968 8.15808929,5.14233602 C8.15808929,4.95370191 8.24937739,4.78640335 8.39014995,4.68210406 L9.42493036,3.64662411 C9.975625,3.09661501 9.975625,2.2003267 9.42493036,1.64960409 L9.38109809,1.60649932 C8.83038948,1.0557907 7.93480069,1.0557907 7.38547712,1.60649932 L5.03486084,3.95574453 C4.48418019,4.50642518 4.27506398,5.30647275 4.82574462,5.85715338 L4.86886339,5.89957262 C4.95472317,5.98544639 5.07886101,6.07609094 5.14517604,6.22499198 L5.17228552,6.2935056 C5.18705121,6.34077593 5.19501026,6.3910454 5.19501026,6.44317405 C5.19501026,6.72018623 4.97043452,6.94478995 4.69339436,6.94478995 C4.60248401,6.94478995 4.51729576,6.92047443 4.4437756,6.8781951 C4.39643171,6.85077369 4.35493584,6.81700058 4.3196098,6.77754733 C4.27081088,6.73591156 4.2230053,6.692499 4.17694852,6.64645621 L4.13384376,6.60400899 C3.11968535,5.58919303 3.17553548,4.12469396 4.18969388,3.11053556 Z"></path></clipPath></defs><g transform="translate(-40.0 -487.0)"><g clip-path="url(#i0)"><g transform="translate(16.0 415.0)"><g transform="translate(16.0 65.0)"><g transform="translate(8.0 4.0)"><g transform="translate(0.0 3.0)"><g transform="translate(1.4277984594726556 1.4624319711914069)"><g clip-path="url(#i1)"><polygon points="-1.11022302e-16,-1.11022302e-16 11.0306515,-1.11022302e-16 11.0306515,11.0308911 -1.11022302e-16,11.0308911 -1.11022302e-16,-1.11022302e-16" stroke="none" fill="#FF5757"></polygon></g></g></g></g></g></g></g></g></svg>