<?xml version="1.0" encoding="UTF-8"?><svg version="1.1" width="22px" height="22px" viewBox="0 0 22.0 22.0" xmlns="http://www.w3.org/2000/svg" xmlns:xlink="http://www.w3.org/1999/xlink"><defs><clipPath id="i0"><path d="M375,0 L375,812 L0,812 L0,0 L375,0 Z"></path></clipPath><clipPath id="i1"><path d="M10.3125,0 C10.6921958,0 11,0.307804234 11,0.6875 L11,1.4100625 C15.379375,1.7455625 18.8794375,5.245625 19.2149375,9.625 L19.9375,9.625 C20.3171958,9.625 20.625,9.93280423 20.625,10.3125 C20.625,10.6921958 20.3171958,11 19.9375,11 L19.2149375,11 C18.8794375,15.379375 15.379375,18.8794375 11,19.2149375 L11,19.9375 C11,20.3171958 10.6921958,20.625 10.3125,20.625 C9.93280423,20.625 9.625,20.3171958 9.625,19.9375 L9.625,19.2149375 C5.245625,18.8794375 1.7455625,15.379375 1.4100625,11 L0.6875,11 C0.307804234,11 0,10.6921958 0,10.3125 C0,9.93280423 0.307804234,9.625 0.6875,9.625 L1.4100625,9.625 C1.7455625,5.245625 5.245625,1.7455625 9.625,1.4100625 L9.625,0.6875 C9.625,0.307804234 9.93280423,0 10.3125,0 Z M11,2.7850625 L11,4.125 C11,4.50469577 10.6921958,4.8125 10.3125,4.8125 C9.93280423,4.8125 9.625,4.50469577 9.625,4.125 L9.625,2.7850625 C6.00325,3.113 3.113,6.00325 2.7850625,9.625 L4.125,9.625 C4.50469577,9.625 4.8125,9.93280423 4.8125,10.3125 C4.8125,10.6921958 4.50469577,11 4.125,11 L2.7850625,11 C3.113,14.62175 6.00325,17.512 9.625,17.8399375 L9.625,16.5 C9.625,16.1203042 9.93280423,15.8125 10.3125,15.8125 C10.6921958,15.8125 11,16.1203042 11,16.5 L11,17.8399375 C14.62175,17.512 17.512,14.62175 17.8399375,11 L16.5,11 C16.1203042,11 15.8125,10.6921958 15.8125,10.3125 C15.8125,9.93280423 16.1203042,9.625 16.5,9.625 L17.8399375,9.625 C17.512,6.00325 14.62175,3.1136875 11,2.7850625 Z M10.3125,8.59375 C11.2617394,8.59375 12.03125,9.36326059 12.03125,10.3125 C12.03125,11.2617394 11.2617394,12.03125 10.3125,12.03125 C9.36326059,12.03125 8.59375,11.2617394 8.59375,10.3125 C8.59375,9.36326059 9.36326059,8.59375 10.3125,8.59375 Z"></path></clipPath></defs><g transform="translate(-326.0 -500.0)"><g clip-path="url(#i0)"><g transform="translate(317.0 491.0)"><g transform="translate(9.0 9.0)"><g transform="translate(0.6875 0.6875)"><g clip-path="url(#i1)"><polygon points="0,0 20.625,0 20.625,20.625 0,20.625 0,0" stroke="none" fill="#FF5757"></polygon></g></g></g></g></g></g></svg>