<?xml version="1.0" encoding="UTF-8"?><svg version="1.1" width="14px" height="14px" viewBox="0 0 14.0 14.0" xmlns="http://www.w3.org/2000/svg" xmlns:xlink="http://www.w3.org/1999/xlink"><defs><clipPath id="i0"><path d="M375,0 L375,812 L0,812 L0,0 L375,0 Z"></path></clipPath><clipPath id="i1"><path d="M10.3541667,0 C10.5957913,0 10.7916667,0.195875422 10.7916667,0.4375 L10.7916667,3.0625 C10.7916667,3.30412458 10.5957913,3.5 10.3541667,3.5 C10.1125421,3.5 9.91666668,3.30412458 9.91666668,3.0625 L9.91666668,1.46329168 L8.46927084,2.9106875 C9.21664962,3.78165676 9.62673622,4.89186599 9.625,6.03954168 C9.625,8.69735418 7.4703125,10.8520417 4.8125,10.8520417 C2.1546875,10.8520417 0,8.69735418 0,6.03954168 C0,3.38172918 2.1546875,1.22704168 4.8125,1.22704168 C5.91583937,1.22540346 6.98595237,1.60451449 7.8421875,2.300375 L9.2675625,0.875 L7.72916668,0.875 C7.4875421,0.875 7.29166668,0.679124578 7.29166668,0.4375 C7.29166668,0.195875422 7.4875421,0 7.72916668,0 L10.3541667,0 Z M4.8125,2.10204168 C2.63783332,2.10204168 0.875,3.864875 0.875,6.03954168 C0.875,8.21420835 2.63783334,9.97704168 4.8125,9.97704168 C6.98716666,9.97704168 8.75,8.21420834 8.75,6.03954168 C8.75,3.86487501 6.98716668,2.10204168 4.8125,2.10204168 Z"></path></clipPath></defs><g transform="translate(-132.0 -348.0)"><g clip-path="url(#i0)"><g transform="translate(0.0 292.0)"><g transform="translate(0.0 32.0)"><g transform="translate(132.0 24.0)"><g transform="translate(1.6041666621093746 1.543791662109375)"><g clip-path="url(#i1)"><polygon points="0,0 10.7916667,0 10.7916667,10.8520417 0,10.8520417 0,0" stroke="none" fill="#3F90FD"></polygon></g></g></g></g></g></g></g></svg>