<?xml version="1.0" encoding="UTF-8"?><svg version="1.1" width="76px" height="76px" viewBox="0 0 76.0 76.0" xmlns="http://www.w3.org/2000/svg" xmlns:xlink="http://www.w3.org/1999/xlink"><defs><clipPath id="i0"><path d="M375,0 L375,812 L0,812 L0,0 L375,0 Z"></path></clipPath><filter id="i1" x="-50%" y="-47.3684211%" filterUnits="userSpaceOnUse" width="168.421053%" height="168.421053%"><feGaussianBlur stdDeviation="6" in="SourceAlpha" result="i2"></feGaussianBlur><feOffset dx="0" dy="2" in="i2" result="i3"></feOffset><feColorMatrix values="0 0 0 1.0 0 0 0 0 0.3411764705882353 0 0 0 0 0.3411764705882353 0 0 0 0 0.25 0" type="matrix" in="i3"></feColorMatrix></filter><clipPath id="i4"><path d="M26,0 C40.4,0 52,11.73 52,26 C52,40.4 40.4,52 26,52 C11.73,52 0,40.4 0,26 C0,11.6 11.6,0 26,0 Z"></path></clipPath><clipPath id="i5"><path d="M16.0335911,0.00108213228 C17.4943338,-0.0200018347 18.700946,1.13650805 18.7417938,2.59683171 L18.7417938,10.5339866 C18.6446217,10.9603789 18.2654427,11.2628673 17.8281182,11.2628673 C17.3907936,11.2628673 17.0116146,10.9603789 16.9144425,10.5339866 L16.9144425,2.59683171 C16.875271,2.10878108 16.4669821,1.73314963 15.9773645,1.73470685 L2.7456558,1.73470685 C2.25602921,1.73313737 1.84772662,2.10877208 1.80855441,2.59683171 L1.80855441,20.5515006 C1.84306354,21.0432666 2.25268191,21.4242098 2.7456558,21.4230004 L8.1714127,21.4230004 C8.64755112,21.4230004 9.03353756,21.8089869 9.03353756,22.2851253 C9.03353756,22.7612637 8.64755112,23.1472502 8.1714127,23.1472502 L2.74563237,23.1472502 C2.03724431,23.167404 1.34989026,22.9051832 0.834922833,22.4183276 C0.319955409,21.931472 0.0196022767,21.2599041 0,20.5515006 L0,2.59683171 C0.0196022154,1.888424 0.319958589,1.21685252 0.834931122,0.729996252 C1.34990365,0.243139985 2.03726375,-0.0190780541 2.7456558,0.00108213228 L16.0335911,0.00108213228 Z"></path></clipPath><clipPath id="i6"><path d="M9.49272499,8.46192047 C10.0013044,8.04725608 10.7486944,8.11823668 11.1701231,8.62122513 C11.7885918,9.1178891 12.0790996,9.1272641 12.7256932,8.62122513 C13.1525637,8.12406573 13.8994127,8.06148394 14.4030679,8.48067047 L14.9653335,8.78992821 C15.8462083,9.27719377 15.8930599,9.40839687 15.6868802,10.3454748 C15.6093573,10.6811396 15.6899702,11.033819 15.9056236,11.3024716 C16.121277,11.5711242 16.4481746,11.7261054 16.7926613,11.7230137 C17.3361768,11.7698652 17.6641611,12.0228964 17.6641611,12.519537 C17.6959718,13.2504144 17.6865898,13.9825035 17.6360596,14.7123257 C17.6173096,15.068435 17.3455518,15.3214193 16.9425909,15.3214193 C15.9680364,15.4151693 15.4151459,16.1554426 15.7618567,16.9988409 C15.8516652,17.2451447 15.820431,17.5193423 15.6775286,17.7391377 C15.0684116,18.1889501 14.3937164,18.563786 13.7096462,18.9948484 C13.3867618,18.8324485 13.0738402,18.6509551 12.7725447,18.4513329 C12.013498,17.8422158 11.7979668,17.8328408 11.07642,18.4513329 C10.6965039,18.8906292 10.0475852,18.9752673 9.56770153,18.6481141 C9.36152187,18.545036 9.16474066,18.4232079 8.96795944,18.3107548 C8.03085804,17.8047392 8.03085804,17.7016611 8.2182877,16.7177081 C8.27658616,16.3812856 8.18273106,16.0363293 7.96202024,15.7758191 C7.74130942,15.5153089 7.41645914,15.3660575 7.07503008,15.3682943 C6.55026455,15.3214428 6.23165522,15.0777866 6.23165522,14.5998726 C6.18482198,13.8603165 6.18482198,13.1185384 6.23165522,12.3789823 C6.25038178,12.0041464 6.53151455,11.7792402 6.95320198,11.7323887 C7.9652565,11.6293106 8.38696737,11.0295685 8.0964596,10.0924671 C7.93117922,9.65782144 8.13221776,9.16956589 8.55562357,8.977311 Z M11.9197793,11.2638497 C10.6725078,11.2638497 9.66140463,12.2749763 9.66140463,13.5222477 C9.66140463,14.7695192 10.6725234,15.7806302 11.9197949,15.7806302 C12.5195217,15.783112 13.0954088,15.5459797 13.5194834,15.1219051 C13.943558,14.6978304 14.1806903,14.1219433 14.1782048,13.5222165 C14.1782048,12.2749451 13.1670507,11.2638497 11.9197793,11.2638497 Z M6.10045212,8.78990477 L6.10045212,10.5235295 L0,10.5235295 L0,8.78990477 L6.10045212,8.78990477 Z M9.58645153,4.39495239 C9.89449293,4.39490161 10.1791567,4.55921057 10.333192,4.82597378 C10.4872274,5.092737 10.4872274,5.42141749 10.333192,5.68818071 C10.1791567,5.95494392 9.89449293,6.11925288 9.58645153,6.11920211 L0.918327961,6.11920211 C0.610286562,6.11925288 0.325622839,5.95494392 0.171587476,5.68818071 C0.0175521128,5.42141749 0.0175521128,5.092737 0.171587476,4.82597378 C0.325622839,4.55921057 0.610286562,4.39490161 0.918327961,4.39495239 L9.58645153,4.39495239 Z M9.58645153,-1.33226763e-15 C10.0625899,-1.33226763e-15 10.4485764,0.385986447 10.4485764,0.862124859 C10.4485764,1.33826327 10.0625899,1.72424972 9.58645153,1.72424972 L0.918327961,1.72424972 C0.442189549,1.72424972 0.0562031016,1.33826327 0.0562031016,0.862124859 C0.0562031016,0.385986447 0.442189549,-1.33226763e-15 0.918327961,-1.33226763e-15 L9.58645153,-1.33226763e-15 Z"></path></clipPath></defs><g transform="translate(-295.0 -638.0)"><g clip-path="url(#i0)"><g transform="translate(307.0 648.0)"><path d="M26,52 C40.4,52 52,40.4 52,26 C52,11.73 40.4,0 26,0 C11.6,0 0,11.6 0,26 C0,40.4 11.73,52 26,52 Z" stroke="none" fill="#000000" filter="url(#i1)"></path><g clip-path="url(#i4)"><polygon points="0,0 52,0 52,52 0,52 0,0" stroke="none" fill="#FF5757"></polygon></g><g transform="translate(15.0 14.99999999999995)"><g transform="translate(1.0825799296871992 0.0)"><g clip-path="url(#i5)"><polygon points="0,1.11022302e-16 18.7417938,1.11022302e-16 18.7417938,23.1483316 0,23.1483316 0,1.11022302e-16" stroke="none" fill="#FFFFFF"></polygon></g></g><g transform="translate(5.233876125000279 4.9770500619636096)"><g clip-path="url(#i6)"><polygon points="0,-1.33226763e-15 17.6825878,-1.33226763e-15 17.6825878,18.9948484 0,18.9948484 0,-1.33226763e-15" stroke="none" fill="#FFFFFF"></polygon></g></g></g></g></g></g></svg>