<?xml version="1.0" encoding="UTF-8"?>
<svg width="20px" height="20px" viewBox="0 0 20 20" version="1.1" xmlns="http://www.w3.org/2000/svg" xmlns:xlink="http://www.w3.org/1999/xlink">
    <title>编组 4</title>
    <g id="新首页" stroke="none" stroke-width="1" fill="none" fill-rule="evenodd">
        <g id="我的" transform="translate(-16.000000, -426.000000)" fill="#FF5757" fill-rule="nonzero">
            <g id="编组-4" transform="translate(16.000000, 426.000000)">
                <g id="管理员-(1)" transform="translate(1.000000, 1.000000)">
                    <path d="M17.9023846,14.4268626 C17.8366154,14.7771837 17.6102308,15.0042694 17.3277692,15.0042694 L17.2806923,15.0042694 C16.7268461,15.0056541 16.2782308,15.4542867 16.2768462,16.0081542 C16.2844615,16.1396977 16.3149231,16.2691642 16.3654615,16.3903227 C16.5004615,16.7046425 16.3973077,17.0695027 16.1183077,17.2668179 L16.0906154,17.285511 L14.9254615,17.9266126 C14.8258067,17.9743594 14.716808,17.9994229 14.6063077,18 C14.3875385,18 14.1715385,17.9079195 14.0344615,17.7549136 C13.8842308,17.5922151 13.4868461,17.2557406 13.2071538,17.2557406 C12.9336923,17.2557406 12.5293846,17.5922151 12.3881538,17.7459133 C12.1638767,17.9766733 11.8217314,18.0476821 11.5241538,17.9252279 L10.3721538,17.2848186 C10.0689231,17.074349 9.96300001,16.6963345 10.1007692,16.388938 C10.125,16.3321666 10.1886923,16.1521597 10.1886923,16.0095388 C10.1886923,15.4563637 9.73661539,15.0056541 9.18346154,15.0056541 L9.144,15.0056541 C8.85461538,15.0056541 8.62961539,14.7778761 8.56246154,14.4268626 C8.55207693,14.3735528 8.46346154,13.8868418 8.46346154,13.4963652 C8.46346154,13.104504 8.55207693,12.6164083 8.56246154,12.5644832 C8.62961539,12.2141621 8.85461538,11.9856918 9.13707692,11.9856918 L9.18415384,11.9856918 C9.73799999,11.9856918 10.188,11.5377515 10.1893846,10.983884 C10.1823251,10.8517865 10.1520957,10.721959 10.1000769,10.6003308 C9.96593992,10.2858934 10.0694758,9.92047557 10.3486154,9.7231432 L10.3763077,9.70652718 L11.5705385,9.05019425 L11.5933846,9.04119389 C11.8888648,8.9239428 12.2257939,8.99421852 12.4497692,9.21981614 C12.5951538,9.3721297 12.9863077,9.68991114 13.257,9.68991116 C13.5235385,9.68991116 13.9126154,9.37905305 14.058,9.22743182 C14.2843846,9.00380784 14.6222308,8.93665141 14.9164615,9.05642524 L16.0892308,9.70514251 C16.3938461,9.91561214 16.5004615,10.2950114 16.362,10.6024078 C16.3123141,10.7234411 16.2830702,10.8518852 16.2754615,10.9824993 C16.2768462,11.5356744 16.7254615,11.9836148 17.2793077,11.9843071 L17.3194615,11.9843071 C17.6081538,11.9843071 17.8338461,12.2120851 17.901,12.5637909 C17.9106923,12.6164083 18,13.1031193 18,13.4956729 C18,13.9076118 17.901,14.4227086 17.9023846,14.4268626 L17.9023846,14.4268626 Z M17.028,12.8801877 C16.0749351,12.7551217 15.3621299,11.9430789 15.3616154,10.981807 C15.3650769,10.7837994 15.3996923,10.5885611 15.4640769,10.4016308 L14.634,9.94053618 C14.5258426,10.0401204 14.4113742,10.1326237 14.2913077,10.2174699 C13.9285385,10.4722489 13.5823846,10.6010231 13.257,10.6010231 C12.9267692,10.6010231 12.5764615,10.4722489 12.2123077,10.2105466 C12.0909402,10.1243544 11.9761611,10.0292415 11.8689231,9.92599715 L11.0007692,10.4030155 C11.0492308,10.547021 11.1039231,10.7595677 11.1039231,10.9824993 C11.1030981,11.9444162 10.3898306,12.7569033 9.43615385,12.8822647 C9.40312767,13.0851964 9.3839296,13.2901379 9.37869231,13.4956729 C9.38423078,13.7006039 9.40292308,13.9048425 9.43615385,14.1076964 C10.3904443,14.2319077 11.104318,15.0450852 11.1039231,16.0074618 C11.1039231,16.2290088 11.0471538,16.4429401 11.0000769,16.587638 L11.8031538,17.0362706 C11.9118462,16.9324205 12.0260769,16.8354937 12.1465385,16.7461825 C12.5148461,16.4775568 12.8727692,16.33909 13.2064615,16.33909 C13.545,16.33909 13.9056923,16.4803262 14.2774615,16.7551829 C14.3986154,16.8458787 14.5142308,16.9448825 14.6229231,17.0508096 L15.4633846,16.587638 C15.3995981,16.4009281 15.365264,16.2054263 15.3616154,16.0081542 C15.3608242,15.0461254 16.0741053,14.2329477 17.028,14.1083888 C17.0515384,13.9498442 17.0854615,13.6936805 17.0854615,13.4942882 C17.0854615,13.2942036 17.0515385,13.0394246 17.028,12.8801877 L17.028,12.8801877 Z M13.212,15.2604331 C12.2337011,15.2589093 11.4409058,14.466393 11.439,13.4880572 C11.4658275,12.5281101 12.2517149,11.7638503 13.212,11.7638503 C14.1722851,11.7638503 14.9581725,12.5281101 14.985,13.4880572 C14.9830942,14.466393 14.1902989,15.2589093 13.212,15.2604331 L13.212,15.2604331 Z M13.212,12.6641794 C12.7509231,12.6641794 12.3715385,13.0283472 12.3521538,13.4887496 C12.3653576,13.9539594 12.7462745,14.3242323 13.2116538,14.3242323 C13.6770332,14.3242323 14.0579501,13.9539594 14.0711538,13.4887496 C14.0518677,13.0281203 13.673015,12.6645176 13.212,12.6641794 L13.212,12.6641794 Z M10.6393846,8.15015962 L10.3506923,8.37447594 C9.76292307,8.89718835 8.64138463,9.07165659 7.89992308,9.12912035 L7.80507693,9.12704335 C7.59658006,9.12752034 7.38821212,9.137454 7.18061539,9.15681372 L7.17161538,9.15681372 L7.173,9.15819839 C3.81876923,9.47459517 1.18523077,12.2854725 1.18523077,15.6993731 L1.18523077,16.7025655 L8.53546153,16.7025655 C8.72842257,17.1197539 8.96885757,17.5132926 9.252,17.8753865 L0.592615395,17.8753865 C0.267388326,17.8769148 0.00228673676,17.6149001 0,17.289665 L0,15.6993731 C0,12.5160199 1.93015385,9.69337283 4.91884616,8.50809647 L5.25738462,8.37447594 L4.97007693,8.15015962 C3.84715386,7.2743567 3.20469232,5.96792184 3.20469232,4.56248317 C3.20469232,2.04654025 5.26776923,0 7.80369231,0 C10.3403077,0 12.4033846,2.04654025 12.4047692,4.56248317 C12.4047692,5.96792184 11.7595385,7.2743567 10.6393846,8.15015962 L10.6393846,8.15015962 Z M7.80438462,1.17350668 C5.92200001,1.17350668 4.3906154,2.69456519 4.3906154,4.56248317 C4.3906154,6.43178584 5.92200001,7.95284435 7.80438462,7.95284435 C9.68746154,7.95284435 11.2188462,6.43247818 11.2188462,4.56248317 C11.2188462,2.6931805 9.68746154,1.17350668 7.80438462,1.17350668 Z" id="形状"></path>
                </g>
            </g>
        </g>
    </g>
</svg>