<?xml version="1.0" encoding="UTF-8"?><svg version="1.1" width="16px" height="16px" viewBox="0 0 16.0 16.0" xmlns="http://www.w3.org/2000/svg" xmlns:xlink="http://www.w3.org/1999/xlink"><defs><clipPath id="i0"><path d="M375,0 L375,812 L0,812 L0,0 L375,0 Z"></path></clipPath><clipPath id="i1"><path d="M2.46,0.350000004 C3.24,-0.116666668 4.24,-0.116666668 5.02,0.350000004 C5.8,0.843333332 6.29333333,1.69666666 6.24,2.62333333 C6.24,3.44999999 5.84666667,4.20333333 5.18666667,4.69666666 C6.51333333,5.37666666 7.36666667,6.67 7.46,8.16333333 C7.46,8.38333333 7.34,8.57666666 7.12,8.57666666 L0.34,8.57666666 C0.12,8.57666666 0,8.41 0,8.16333333 C0.1,6.66999999 0.98,5.35666666 2.29333333,4.69666666 C1.62666667,4.21 1.24,3.45666666 1.24,2.62333333 C1.18666667,1.69 1.68,0.816666676 2.46,0.350000004 Z"></path></clipPath><clipPath id="i2"><path d="M11.46,0 C11.9,0 12.26,0.36 12.26,0.8 L12.26,3.83333333 C12.0266667,3.57333333 11.7533333,3.33999998 11.4466667,3.14666666 L11.4266667,3.13333333 C10.88,2.80666666 10.2466667,2.63333333 9.6,2.63333333 C8.95333334,2.63333333 8.32000002,2.80666666 7.77333334,3.13333333 C6.65333334,3.8 5.97333334,5.06 6.03333334,6.35333333 C6.04000002,7.02 6.22000002,7.65333333 6.55333334,8.2 C5.53333333,9.09999998 4.89333333,10.3933333 4.8,11.7866667 L4.8,11.8533333 C4.80000002,12 4.82000002,12.1333333 4.85333334,12.2666667 L0.8,12.2666667 C0.36,12.2666667 0,11.9066667 0,11.4666667 L0,0.8 C0,0.36 0.36,0 0.8,0 Z M4.04666667,7.46666666 L1.64666667,7.46666666 C1.35333334,7.46666666 1.11333334,7.70666667 1.11333334,8 C1.11333334,8.29333333 1.35333334,8.53333333 1.64666667,8.53333333 L4.04666667,8.53333333 C4.34,8.53333333 4.58,8.29333334 4.58,8 C4.58,7.70666666 4.34,7.46666666 4.04666667,7.46666666 Z M5.11333334,5.33333333 L1.64666667,5.33333333 C1.35333334,5.33333333 1.11333334,5.57333331 1.11333334,5.86666666 C1.11333334,6.16 1.35333334,6.4 1.64666667,6.4 L5.11333334,6.4 C5.40666667,6.4 5.64666667,6.15999998 5.64666667,5.86666666 C5.64666667,5.57333333 5.40666667,5.33333333 5.11333334,5.33333333 Z M5.91333334,2.13333333 L3.24666667,2.13333333 C2.95333334,2.13333333 2.71333334,2.37333331 2.71333334,2.66666666 C2.71333334,2.96 2.95333334,3.2 3.24666667,3.2 L5.91333334,3.2 C6.20666667,3.2 6.44666667,2.95999998 6.44666667,2.66666666 C6.44666667,2.37333333 6.20666667,2.13333333 5.91333334,2.13333333 Z M1.64666667,2.13333333 C1.35333334,2.13333333 1.11333334,2.37333331 1.11333334,2.66666666 C1.11333334,2.96 1.35333334,3.2 1.64666667,3.2 C1.94,3.2 2.18,2.95999998 2.18,2.66666666 C2.18,2.37333333 1.94,2.13333333 1.64666667,2.13333333 Z"></path></clipPath></defs><g transform="translate(-34.0 -738.0)"><g clip-path="url(#i0)"><g transform="translate(16.0 640.0)"><g transform="translate(18.0 98.0)"><g transform="translate(7.199999999999996 5.556666667968749)"><g clip-path="url(#i1)"><polygon points="0,0 7.46,0 7.46,8.57666666 0,8.57666666 0,0" stroke="none" fill="#FF5757"></polygon></g></g><g transform="translate(1.3333333281249997 1.8666666718749996)"><g clip-path="url(#i2)"><polygon points="0,0 12.26,0 12.26,12.2666667 0,12.2666667 0,0" stroke="none" fill="#FF5757"></polygon></g></g></g></g></g></g></svg>