<?xml version="1.0" encoding="UTF-8"?><svg version="1.1" width="76px" height="76px" viewBox="0 0 76.0 76.0" xmlns="http://www.w3.org/2000/svg" xmlns:xlink="http://www.w3.org/1999/xlink"><defs><clipPath id="i0"><path d="M375,0 L375,812 L0,812 L0,0 L375,0 Z"></path></clipPath><filter id="i1" x="-50%" y="-47.3684211%" filterUnits="userSpaceOnUse" width="168.421053%" height="168.421053%"><feGaussianBlur stdDeviation="6" in="SourceAlpha" result="i2"></feGaussianBlur><feOffset dx="0" dy="2" in="i2" result="i3"></feOffset><feColorMatrix values="0 0 0 1.0 0 0 0 0 0.3411764705882353 0 0 0 0 0.3411764705882353 0 0 0 0 0.25 0" type="matrix" in="i3"></feColorMatrix></filter><clipPath id="i4"><path d="M26,0 C40.36,0 52,11.64 52,26 C52,40.36 40.36,52 26,52 C11.64,52 0,40.36 0,26 C0,11.64 11.64,0 26,0 Z"></path></clipPath><clipPath id="i5"><path d="M20,0 L20,1.26315789 L0,1.26315789 L0,0 L20,0 Z"></path></clipPath><clipPath id="i6"><path d="M0.789473684,0 C1.22548796,-8.00945232e-17 1.57894737,0.353459408 1.57894737,0.789473684 L1.57894737,2.36842105 C1.57894737,2.80443533 1.22548796,3.15789474 0.789473684,3.15789474 C0.353459408,3.15789474 -5.76259537e-17,2.80443533 0,2.36842105 L0,0.789473684 C-5.33963488e-17,0.353459408 0.353459408,8.00945232e-17 0.789473684,0 Z"></path></clipPath><filter id="i7" x="-66.6697847%" y="-52.3783076%" filterUnits="userSpaceOnUse" width="195.24255%" height="187.297179%"><feGaussianBlur stdDeviation="2" in="SourceAlpha" result="i8"></feGaussianBlur><feOffset dx="0" dy="2" in="i8" result="i9"></feOffset><feColorMatrix values="0 0 0 0.8784313725490196 0 0 0 0 0.1921568627450981 0 0 0 0 0.1921568627450981 0 0 0 0 1.0 0" type="matrix" in="i9"></feColorMatrix></filter><clipPath id="i10"><path d="M5.23882211,0 C6.06882211,0 6.73882211,0.71 6.73882211,1.58 L6.71882211,5.01 C6.70882211,5.11 6.78882211,5.19 6.88882211,5.19 L11.3288221,5.22 C12.2588221,5.22 13.0088221,6.01 12.998921,6.98 L12.9888221,9.57 C12.9688221,12.54 10.6488221,14.93 7.80882211,14.9101246 C6.44882211,14.9101246 5.13882211,14.33 4.17882211,13.32 L3.65882211,12.77 L0.428822113,9.36 C-0.151177887,8.74 -0.141177887,7.75 0.448822113,7.14 C1.03882211,6.53 1.98882211,6.53 2.57882211,7.15 L3.68882211,8.32 L3.69882211,5.17 L3.71882211,1.56 C3.72882211,0.7 4.40882211,0 5.23882211,0 Z"></path></clipPath></defs><g transform="translate(-295.0 -629.0)"><g clip-path="url(#i0)"><g transform="translate(307.0 639.0)"><path d="M26,0 C11.64,0 0,11.64 0,26 C0,40.36 11.64,52 26,52 C40.36,52 52,40.36 52,26 C52,11.64 40.36,0 26,0 Z" stroke="none" fill="#000000" filter="url(#i1)"></path><g clip-path="url(#i4)"><polygon points="0,0 52,0 52,52 0,52 0,0" stroke="none" fill="#FF5757"></polygon></g><g transform="translate(14.13999999999942 14.78999999999996)"><g transform="translate(0.0 3.157894736842106)"><path d="M2,0 L18,0 C19.1045695,-2.02906125e-16 20,0.8954305 20,2 L20,14.8421053 C20,15.9466748 19.1045695,16.8421053 18,16.8421053 L2,16.8421053 C0.8954305,16.8421053 -3.0881846e-16,15.9466748 0,14.8421053 L0,2 C-1.3527075e-16,0.8954305 0.8954305,2.02906125e-16 2,0 Z" stroke="#FFFFFF" stroke-width="1.5" fill="none" stroke-miterlimit="10"></path></g><g transform="translate(0.0 7.368421052631579)"><g clip-path="url(#i5)"><polygon points="0,0 20,0 20,1.26315789 0,1.26315789 0,0" stroke="none" fill="#FFFFFF"></polygon></g></g><g transform="translate(4.210526315789474 0.0)"><g clip-path="url(#i6)"><polygon points="0,0 1.57894737,0 1.57894737,3.15789474 0,3.15789474 0,0" stroke="none" fill="#FFFFFF"></polygon></g></g><g transform="translate(13.68421052631579 0.0)"><g clip-path="url(#i6)"><polygon points="0,0 1.57894737,0 1.57894737,3.15789474 0,3.15789474 0,0" stroke="none" fill="#FFFFFF"></polygon></g></g><g transform="translate(4.736842105263158 10.526315789473678)"><path d="M0,3.16 L3.35,6.03 C3.54,6.19 3.83,6.18 4.01,6.01 L10.53,0" stroke="#FFFFFF" stroke-width="1.2" fill="none" stroke-miterlimit="10"></path></g><g transform="translate(11.002036469281189 15.49948081647656) rotate(-29.999999999999996)"><path d="M7.80882211,14.9101246 C10.6488221,14.93 12.9688221,12.54 12.9888221,9.57 L12.998921,6.98 C13.0088221,6.01 12.2588221,5.22 11.3288221,5.22 L6.88882211,5.19 C6.78882211,5.19 6.70882211,5.11 6.71882211,5.01 L6.73882211,1.58 C6.73882211,0.71 6.06882211,0 5.23882211,0 C4.40882211,0 3.72882211,0.7 3.71882211,1.56 L3.69882211,5.17 L3.68882211,8.32 L2.57882211,7.15 C1.98882211,6.53 1.03882211,6.53 0.448822113,7.14 C-0.141177887,7.75 -0.151177887,8.74 0.428822113,9.36 L3.65882211,12.77 L4.17882211,13.32 C5.13882211,14.33 6.44882211,14.9101246 7.80882211,14.9101246 Z" stroke="none" fill="#000000" filter="url(#i7)"></path><g clip-path="url(#i10)"><polygon points="-5.55111512e-17,2.27373675e-13 12.9990179,2.27373675e-13 12.9990179,14.9102477 -5.55111512e-17,14.9102477 -5.55111512e-17,2.27373675e-13" stroke="none" fill="#FFFFFF"></polygon></g></g></g></g></g></g></svg>