<?xml version="1.0" encoding="UTF-8"?><svg version="1.1" width="16px" height="16px" viewBox="0 0 16.0 16.0" xmlns="http://www.w3.org/2000/svg" xmlns:xlink="http://www.w3.org/1999/xlink"><defs><clipPath id="i0"><path d="M375,0 L375,812 L0,812 L0,0 L375,0 Z"></path></clipPath><clipPath id="i1"><path d="M6.85714286,0 C10.6285714,0 13.7142857,3.08571428 13.7142857,6.85714286 C13.7142857,10.6285714 10.6285714,13.7142857 6.85714286,13.7142857 C3.08571428,13.7142857 0,10.6285714 0,6.85714286 C0,3.08571428 3.08571428,0 6.85714286,0 Z M3.57142858,5.85714286 C2.94024601,5.85714286 2.42857144,6.36881743 2.42857144,7 C2.42857144,7.63118257 2.94024601,8.14285714 3.57142858,8.14285714 C4.20261113,8.14285714 4.71428568,7.63118256 4.71428568,7 C4.71428568,6.36881744 4.20261113,5.85714286 3.57142858,5.85714286 Z M7,5.85714286 C6.36881743,5.85714286 5.85714286,6.36881743 5.85714286,7 C5.85714286,7.63118257 6.36881743,8.14285714 7,8.14285714 C7.63118256,8.14285714 8.14285711,7.63118256 8.14285711,7 C8.14285711,6.36881744 7.63118256,5.85714286 7,5.85714286 Z M10.4285714,5.85714286 C9.79738885,5.85714286 9.28571428,6.36881743 9.28571428,7 C9.28571428,7.63118257 9.79738885,8.14285714 10.4285714,8.14285714 C11.059754,8.14285714 11.5714285,7.63118256 11.5714285,7 C11.5714285,6.36881744 11.059754,5.85714286 10.4285714,5.85714286 Z"></path></clipPath><linearGradient id="i2" x1="6.85714286px" y1="0px" x2="6.85714286px" y2="13.7142857px" gradientUnits="userSpaceOnUse"><stop stop-color="#FD8484" offset="0%"></stop><stop stop-color="#FF5757" offset="100%"></stop></linearGradient></defs><g transform="translate(-16.0 -280.0)"><g clip-path="url(#i0)"><g transform="translate(0.0 182.0)"><g transform="translate(16.0 98.0)"><g transform="translate(1.0 1.0)"><g clip-path="url(#i1)"><polygon points="0,0 13.7142857,0 13.7142857,13.7142857 0,13.7142857 0,0" stroke="none" fill="url(#i2)"></polygon></g></g></g></g></g></g></svg>