<svg xmlns="http://www.w3.org/2000/svg" xmlns:xlink="http://www.w3.org/1999/xlink" width="35" height="38" viewBox="0 0 35 38"><defs><style>.a{fill:url(#a);}.b{fill:#ffe3e3;opacity:0.4;}.c{isolation:isolate;}.d{fill:#fff;}.e{fill:#fe5656;}</style><linearGradient id="a" x1="0.5" x2="0.5" y2="1" gradientUnits="objectBoundingBox"><stop offset="0" stop-color="#ff5757" stop-opacity="0.702"/><stop offset="1" stop-color="#ff5757"/></linearGradient></defs><g transform="translate(-133 -247)"><g transform="translate(85)"><circle class="a" cx="17.5" cy="17.5" r="17.5" transform="translate(48 247)"/><ellipse class="b" cx="8.5" cy="1.5" rx="8.5" ry="1.5" transform="translate(57 279)"/></g><g class="c"><g transform="translate(143 228.168)"><path class="d" d="M260.023,33.841h-4.586c.417-2.189,1.251-4.9-.521-5.733-1.876-.834-1.98.313-2.189,2.189-.208,1.98-3.127,4.065-3.127,4.065v9.172h9.9c1.355-.625,2.189-6.15,2.606-8.13S260.023,33.841,260.023,33.841Z" transform="translate(-245.535)"/><path class="d" d="M0,428.8H2.918v9.276H0Z" transform="translate(0 -394.438)"/></g><g transform="translate(70.032 163.303)"><path class="e" d="M419.489,518.65a.694.694,0,0,0-.694.694v.677a.694.694,0,0,0,1.389,0v-.677A.694.694,0,0,0,419.489,518.65Z" transform="translate(-339.196 -417.453)"/><path class="e" d="M663.267,518.65a.694.694,0,0,0-.694.694v.677a.694.694,0,0,0,1.389,0v-.677A.694.694,0,0,0,663.267,518.65Z" transform="translate(-577.555 -417.453)"/><path class="e" d="M484.488,654.89a.7.7,0,0,0-.959.195,1.041,1.041,0,0,1-.76.439.979.979,0,0,1-.74-.431.694.694,0,0,0-1.176.739,2.359,2.359,0,0,0,1.915,1.08,2.4,2.4,0,0,0,1.924-1.072A.691.691,0,0,0,484.488,654.89Z" transform="translate(-399.773 -550.549)"/></g></g></g></svg>