<svg xmlns="http://www.w3.org/2000/svg" xmlns:xlink="http://www.w3.org/1999/xlink" width="20" height="21" viewBox="0 0 20 21" fill="none"><g opacity="1" transform="translate(0 -0.000003814697265625)  rotate(0 10 10.000001907348633)"><g opacity="1" transform="translate(0 0.000003814697265625)  rotate(0 10 10)"><path id="Rectangle" fill-rule="evenodd" style="fill:#EBEBEB" transform="translate(0 0)  rotate(0 10 10)" opacity="0" d="M0,20L20,20L20,0L0,0L0,20Z " /></g><g opacity="1" transform="translate(1.0000610351561932 0)  rotate(0 8.868881225585959 9.999998092651367)"><path id="路径 37" fill-rule="evenodd" style="fill:#FF5757" transform="translate(9.12018585205081 11.38241195678711)  rotate(0 4.308788299560554 4.308792114257791)" opacity="1" d="M4.31 0Z M0 4.31C0 6.69 1.93 8.62 4.31 8.62C6.69 8.62 8.62 6.69 8.62 4.31C8.62 1.93 6.69 0 4.31 0C1.93 0 0 1.93 0 4.31Z M3.66247 1.7272L3.66247 4.5772L5.57247 6.4872L5.62247 6.5372C5.86247 6.7272 6.20247 6.7272 6.44247 6.5372L6.49247 6.4872L6.53247 6.4372C6.72247 6.2072 6.72247 5.8572 6.53247 5.6272L6.49247 5.5772L4.95247 4.0372L4.95247 1.7272L4.95247 1.6572C4.92247 1.3272 4.64247 1.0772 4.31247 1.0772C3.97247 1.0772 3.69247 1.3272 3.66247 1.6572L3.66247 1.7272Z " /><path id="路径 50" fill-rule="evenodd" style="fill:#FF5757" transform="translate(0 0)  rotate(0 7.964836120605497 9.335723876953125)" opacity="1" d="M8.3 17.69Z M1.42 17.69C1.2 17.69 1.02 17.5 1.02 17.29L1.02 1.39C1.02 1.18 1.2 1 1.42 1L14.51 1C14.73 1 14.91 1.18 14.91 1.39L14.91 10.37C15.26 10.51 15.6 10.71 15.91 10.92L15.91 10.91C15.92 10.91 15.92 10.92 15.93 10.92L15.93 0.79C15.93 0.35 15.58 0 15.14 0L0.79 0C0.35 0 0 0.35 0 0.79L0 17.88C0 18.32 0.35 18.67 0.79 18.67L9.03 18.67C8.76 18.37 8.52 18.04 8.32 17.67L8.3 17.67L8.3 17.69L1.42 17.69Z M12.2123 3.71616Z M3.17232 4.21616C3.17232 4.48616 3.40232 4.71616 3.67232 4.71616L12.2123 4.71616C12.4823 4.71616 12.7123 4.48616 12.7123 4.21616C12.7123 3.94616 12.4823 3.71616 12.2123 3.71616L3.67232 3.71616C3.40232 3.71616 3.17232 3.94616 3.17232 4.21616Z M12.7123 7.29787Z M3.67232 6.79787C3.40232 6.79787 3.17232 7.02787 3.17232 7.29787C3.17232 7.56787 3.40232 7.79787 3.67232 7.79787L12.2123 7.79787C12.4823 7.79787 12.7123 7.56787 12.7123 7.29787C12.7123 7.02787 12.4823 6.79787 12.2123 6.79787L3.67232 6.79787Z M3.67232 9.87955Z M3.67232 10.8796L9.15232 10.8796C9.42232 10.8796 9.65232 10.6496 9.65232 10.3796C9.65232 10.1096 9.42232 9.87955 9.15232 9.87955L3.67232 9.87955C3.40232 9.87955 3.17232 10.1096 3.17232 10.3796C3.17232 10.6496 3.40232 10.8796 3.67232 10.8796Z " /></g></g></svg>