<svg xmlns="http://www.w3.org/2000/svg" xmlns:xlink="http://www.w3.org/1999/xlink" width="21" height="21" viewBox="0 0 21 21" fill="none"><g opacity="1" transform="translate(0.035400390625 0.03533935546875)  rotate(0 10 10)"><g opacity="0" transform="translate(0 0)  rotate(0 9.99627685546875 10)"><path id="Rectangle" fill-rule="evenodd" style="fill:#EBEBEB" transform="translate(0 0)  rotate(0 9.99627685546875 10)" opacity="1" d="M0,20L19.99,20L19.99,0L0,0L0,20Z " /><rect  id="Rectangle 2" style="stroke:#50E3C2; stroke-width:0.10000000149011612; stroke-opacity:1; stroke-dasharray:0 0" transform="translate(2.222222328186035 2.222222328186035)  rotate(0 7.774054527282715 7.777777671813965)" x="0.05000000074505806" y="0.05000000074505806" rx="0"  width="15.448109053075314" height="15.455555342137814" /><rect  id="Rectangle 2" style="stroke:#50E3C2; stroke-width:0.10000000149011612; stroke-opacity:1; stroke-dasharray:0 0" transform="translate(1.1111111640930176 1.1111111640930176)  rotate(0 8.88516616821289 8.88888931274414)" x="0.05000000074505806" y="0.05000000074505806" rx="7.949999999254942"  width="17.670332334935665" height="17.677778623998165" /><rect  id="Rectangle 3" style="stroke:#50E3C2; stroke-width:0.10000000149011612; stroke-opacity:1; stroke-dasharray:0 0" transform="translate(3.3333334922790527 1.1111111640930176)  rotate(0 6.6629438400268555 8.88888931274414)" x="0.05000000074505806" y="0.05000000074505806" rx="0"  width="13.225887678563595" height="17.677778623998165" /><rect  id="Rectangle 4" style="stroke:#50E3C2; stroke-width:0.10000000149011612; stroke-opacity:1; stroke-dasharray:0 0" transform="translate(1.1111111640930176 3.3333334922790527)  rotate(0 8.88516616821289 6.6666669845581055)" x="0.05000000074505806" y="0.05000000074505806" rx="0"  width="17.670332334935665" height="13.233333967626095" /><path  id="Rectangle 5" style="stroke:#50E3C2; stroke-width:0.10000000149011612; stroke-opacity:1; stroke-dasharray:0 0" transform="translate(9.996277391910553 0)  rotate(0 0 10)" d="M0,0L0,20 " /><path  id="Rectangle 6" style="stroke:#50E3C2; stroke-width:0.10000000149011612; stroke-opacity:1; stroke-dasharray:0 0" transform="translate(0 10.000000536441803)  rotate(0 9.99627685546875 0)" d="M0,0L19.99,0 " /><rect  id="Rectangle 8" style="stroke:#50E3C2; stroke-width:0.10000000149011612; stroke-opacity:1; stroke-dasharray:0 0" transform="translate(4.44444465637207 4.44444465637207)  rotate(0 5.551832675933838 5.555555820465088)" x="0.05000000074505806" y="0.05000000074505806" rx="0"  width="11.00366535037756" height="11.01111163944006" /><path  id="Path 3" style="stroke:#50E3C2; stroke-width:0.10000000149011612; stroke-opacity:1; stroke-dasharray:0 0" transform="translate(0 0)  rotate(0 9.99627685546875 10)" d="M0,0L19.99,20 " /><path  id="Path 4" style="stroke:#50E3C2; stroke-width:0.10000000149011612; stroke-opacity:1; stroke-dasharray:0 0" transform="translate(0 0)  rotate(0 9.99627685546875 10)" d="M0,20L19.99,0 " /></g><path id="路径 51" fill-rule="evenodd" style="fill:#FF5757" transform="translate(0.00012241693772807594 3)  rotate(0 9.999938791531136 7.224868774414105)" opacity="1" d="M1.11152 13.3431Z M18.8915 13.3431L18.8915 2.22305L10.5015 8.39305C10.3915 8.56305 10.1715 8.61305 10.0015 8.61305C9.83152 8.61305 9.61152 8.50305 9.50152 8.39305L1.11152 2.22305L1.11152 13.3431L18.8915 13.3431Z M9.99728 7.22151Z M18.3373 1.11151L1.66728 1.11151L9.99728 7.22151L18.3373 1.11151Z M1.11 14.45C1.11 14.45 1.11 14.45 1.11 14.45Z M20 13.34L20 1.11C20 0.78 19.72 0 18.89 0L1.11 0C0.11 0 0 0.72 0 1.11L0 13.34C0 14.12 0.28 14.45 1.11 14.45L18.89 14.45C19.22 14.45 20 14.34 20 13.34Z M1.11 14.45 " /></g></svg>