<?xml version="1.0" encoding="UTF-8"?>
<svg width="35px" height="38px" viewBox="0 0 35 38" version="1.1" xmlns="http://www.w3.org/2000/svg" xmlns:xlink="http://www.w3.org/1999/xlink">
    <title>组 106</title>
    <defs>
        <linearGradient x1="50%" y1="0%" x2="50%" y2="100%" id="linearGradient-1">
            <stop stop-color="#FF5757" stop-opacity="0.702" offset="0%"></stop>
            <stop stop-color="#FF5757" offset="100%"></stop>
        </linearGradient>
        <filter x="-17.6%" y="-100.0%" width="135.3%" height="300.0%" filterUnits="objectBoundingBox" id="filter-2">
            <feGaussianBlur stdDeviation="1" in="SourceGraphic"></feGaussianBlur>
        </filter>
    </defs>
    <g id="主页" stroke="none" stroke-width="1" fill="none" fill-rule="evenodd">
        <g id="我的---1" transform="translate(-290.000000, -265.000000)">
            <g id="组-136" transform="translate(16.000000, 251.000000)">
                <g id="组-114" transform="translate(24.000000, 14.000000)">
                    <g id="组-113" transform="translate(239.000000, 0.000000)">
                        <g id="组-106" transform="translate(11.000000, 0.000000)">
                            <rect id="路径" x="0" y="0" width="35" height="35"></rect>
                            <g id="组-104">
                                <rect id="路径" x="0" y="0" width="35" height="35"></rect>
                                <path d="M17.5,0 C7.84,0 0,7.84 0,17.5 C0,27.16 7.84,35 17.5,35 C27.16,35 35,27.16 35,17.5 C35,7.84 27.16,0 17.5,0 Z" id="路径" fill="url(#linearGradient-1)"></path>
                                <path d="M17.5,32 C12.81,32 9,32.67 9,33.5 C9,34.33 12.81,35 17.5,35 C22.19,35 26,34.33 26,33.5 C26,32.67 22.19,32 17.5,32 Z" id="路径" fill="#FFE3E3" opacity="0.4" filter="url(#filter-2)"></path>
                            </g>
                            <g id="组-105" transform="translate(7.424072, 7.386151)">
                                <rect id="路径" x="0" y="0.600017541" width="18.7391469" height="20.0138311"></rect>
                                <g id="组-103">
                                    <rect id="路径" x="0" y="0.600017541" width="18.7391469" height="20.0138311"></rect>
                                    <path d="M0,17.3422129 C0,17.7322129 0.16,18.3222129 0.94,18.8922129 C1.43,19.2422129 2.11,19.5522129 2.96,19.8222129 C4.63,20.3322129 6.83,20.6122129 9.17,20.6122129 C11.51,20.6122129 13.72,20.3322129 15.39,19.8222129 C16.24,19.5522129 16.92,19.2422129 17.41,18.8922129 C18.18,18.3222129 18.34,17.7322129 18.34,17.3422129 C18.34,16.9422129 18.18,16.3522129 17.41,15.7922129 C16.92,15.4322129 16.24,15.1222129 15.39,14.8622129 C13.72,14.3422129 11.51,14.0622129 9.17,14.0622129 C9.06,14.0622129 8.95,14.0622129 8.84,14.0622129 C8.48,14.0722129 8.19,14.3622129 8.19,14.7222129 C8.19,15.0922129 8.49,15.3822129 8.85,15.3722129 C8.96,15.3722129 9.07,15.3722129 9.17,15.3722129 C11.38,15.3722129 13.45,15.6322129 15,16.1122129 C15.7,16.3322129 16.27,16.5822129 16.63,16.8522129 C16.93,17.0622129 17.03,17.2422129 17.03,17.3422129 C17.03,17.4322129 16.93,17.6122129 16.63,17.8322129 C16.27,18.0922129 15.7,18.3522129 15,18.5622129 C13.45,19.0422129 11.38,19.3022129 9.17,19.3022129 C6.96,19.3022129 4.89,19.0422129 3.34,18.5622129 C2.64,18.3522129 2.08,18.0922129 1.71,17.8322129 C1.42,17.6122129 1.31,17.4322129 1.31,17.3422129 C1.31,17.2022129 1.53,16.8622129 2.36,16.4822129 C3.22,16.0822129 4.43,15.7722129 5.87,15.5822129 C6.23,15.5322129 6.48,15.2022129 6.44,14.8422129 C6.39,14.4922129 6.06,14.2322129 5.7,14.2822129 C4.13,14.4922129 2.79,14.8422129 1.81,15.2922129 C1.29,15.5322129 0.87,15.8022129 0.57,16.1022129 C0.1,16.5722129 0,17.0322129 0,17.3422129 Z" id="路径" fill="#FFFFFF"></path>
                                    <g id="组-102" transform="translate(10.451123, 8.925046) rotate(-2.000000) translate(-10.451123, -8.925046) translate(1.854759, 0.294751)">
                                        <rect id="路径" x="8.37020094e-14" y="-2.09078146e-14" width="17.1908166" height="17.2605884"></rect>
                                        <path d="M0.42,0.893603909 C0.04,1.02360391 -0.08,1.28360391 0.06,1.66360391 L5.58,16.8436039 C5.72,17.2236039 5.98,17.3436039 6.36,17.2036039 C6.74,17.0636039 6.86,16.8036039 6.72,16.4236039 L1.2,1.25360391 C1.06,0.873603909 0.8,0.753603909 0.42,0.893603909 Z" id="路径" fill="#FFFFFF"></path>
                                        <path d="M17.1927284,8.86 L17.1927284,-2.89086465e-14 C15.9227284,0.98 14.6327284,1.47 13.3027284,1.47 C11.3127284,1.47 9.82272842,0.52 7.41272842,0.52 C5.80272842,0.52 3.83272842,1.22 1.51272842,2.61 L4.84272842,11.69 C5.44272842,10.39 6.59272842,9.74 8.29272842,9.74 C10.8327284,9.74 11.6027284,10.31 14.0027284,10.31 C15.6027284,10.31 16.6627284,9.83 17.1927284,8.86 Z" id="路径" fill="#FFFFFF"></path>
                                    </g>
                                </g>
                                <path d="M11.6974422,3.44168049 C12.8974422,3.89168049 13.6274422,5.33168049 13.0074422,6.50168049 L11.4774422,4.97168049 L12.0674422,4.39168049 L11.6974422,4.02168049 C11.4974422,4.22168049 11.1774422,4.26168049 10.9574422,4.18168049 L9.79744219,5.34168049 L10.4574422,5.99168049 L10.8974422,5.56168049 L12.4274422,7.08168049 C11.6774422,7.49168049 10.6474422,7.37168049 9.87744219,6.57168049 L9.50744219,6.94168049 C9.61744219,7.09168049 9.70744219,7.23168049 9.82744219,7.35168049 C9.82077552,7.35834716 9.80744219,7.37168049 9.78744219,7.39168049 C9.76744219,7.38168049 9.74744219,7.38168049 9.71744219,7.38168049 C9.52744219,7.37168049 9.36744219,7.54168049 9.36744219,7.74168049 C9.36744219,7.94168049 9.52744219,8.10168049 9.72744219,8.10168049 C9.92744219,8.10168049 10.0874422,7.94168049 10.0874422,7.74168049 C10.0874422,7.72168049 10.0874422,7.70168049 10.0774422,7.67168049 L10.1374422,7.62168049 C11.0174422,8.21168049 11.9774422,8.29168049 13.0174422,7.67168049 L13.4374422,8.10168049 L14.0174422,7.52168049 L13.5874422,7.08168049 C14.8274422,5.22168049 13.1774422,3.40168049 11.6974422,3.44168049 Z" id="路径" fill="#FF5757"></path>
                            </g>
                        </g>
                    </g>
                </g>
            </g>
        </g>
    </g>
</svg>