<svg xmlns="http://www.w3.org/2000/svg" xmlns:xlink="http://www.w3.org/1999/xlink" width="35" height="38" viewBox="0 0 35 38"><defs><style>.a{fill:url(#a);}.b{fill:#ffe3e3;opacity:0.4;}.c{isolation:isolate;}.d{fill:#fff;}.e{fill:#ff5757;}</style><linearGradient id="a" x1="0.5" x2="0.5" y2="1" gradientUnits="objectBoundingBox"><stop offset="0" stop-color="#ff5757" stop-opacity="0.702"/><stop offset="1" stop-color="#ff5757"/></linearGradient></defs><g transform="translate(-48 -247)"><circle class="a" cx="17.5" cy="17.5" r="17.5" transform="translate(48 247)"/><ellipse class="b" cx="8.5" cy="1.5" rx="8.5" ry="1.5" transform="translate(57 279)"/><g class="c" transform="translate(25.468 -188.386)"><path class="d" d="M1.367,0H14.7a1.367,1.367,0,0,1,1.367,1.367V16.405A1.367,1.367,0,0,1,14.7,17.773L7.844,13.329,1.367,17.773A1.367,1.367,0,0,1,0,16.405V1.367A1.367,1.367,0,0,1,1.367,0Z" transform="translate(32 444)"/><path class="e" d="M4.127.721a.3.3,0,0,1,.559,0l.75,1.933a.3.3,0,0,0,.273.191L7.9,2.9a.3.3,0,0,1,.165.546L6.372,4.623a.3.3,0,0,0-.113.339l.616,1.89a.3.3,0,0,1-.445.347L4.566,6.03a.3.3,0,0,0-.319,0L2.384,7.2a.3.3,0,0,1-.445-.347l.616-1.89a.3.3,0,0,0-.113-.339L.751,3.442A.3.3,0,0,1,.916,2.9L3.1,2.845a.3.3,0,0,0,.273-.191Z" transform="translate(35.525 446.938)"/></g></g></svg>