<?xml version="1.0" encoding="UTF-8"?><svg version="1.1" width="20px" height="20px" viewBox="0 0 20.0 20.0" xmlns="http://www.w3.org/2000/svg" xmlns:xlink="http://www.w3.org/1999/xlink"><defs><clipPath id="i0"><path d="M375,0 L375,812 L0,812 L0,0 L375,0 Z"></path></clipPath><clipPath id="i1"><path d="M4.31,0 C6.69,0 8.62,1.93 8.62,4.31 C8.62,6.69 6.69,8.62 4.31,8.62 C1.93,8.62 0,6.69 0,4.31 C0,1.93 1.93,0 4.31,0 Z M4.31246796,1.07720184 C3.97246796,1.07720184 3.69246796,1.32720184 3.66246796,1.65720184 L3.66246796,4.57720184 L5.62246796,6.53720184 C5.86246796,6.72720184 6.20246796,6.72720184 6.44246796,6.53720184 L6.49246796,6.48720184 L6.53246796,6.43720184 C6.72246796,6.20720184 6.72246796,5.85720184 6.53246796,5.62720184 L6.49246796,5.57720184 L4.95246796,4.03720184 L4.95246796,1.65720184 C4.92246796,1.32720184 4.64246796,1.07720184 4.31246796,1.07720184 Z"></path></clipPath><clipPath id="i2"><path d="M15.14,0 C15.58,0 15.93,0.35 15.93,0.79 L15.93,10.92 L15.91,10.91 L15.91,10.92 C15.6,10.71 15.26,10.51 14.91,10.37 L14.91,1.39 C14.91,1.18 14.73,1 14.51,1 L1.42,1 C1.2,1 1.02,1.18 1.02,1.39 L1.02,17.29 C1.02,17.5 1.2,17.69 1.42,17.69 L8.3,17.69 L8.3,17.67 L8.32,17.67 C8.52,18.04 8.76,18.37 9.03,18.67 L0.79,18.67 C0.35,18.67 0,18.32 0,17.88 L0,0.79 C0,0.35 0.35,0 0.79,0 L15.14,0 Z M9.1523175,9.87955093 C9.4223175,9.87955093 9.6523175,10.1095509 9.6523175,10.3795509 C9.6523175,10.6495509 9.4223175,10.8795509 9.1523175,10.8795509 L3.6723175,10.8795509 C3.4023175,10.8795509 3.1723175,10.6495509 3.1723175,10.3795509 C3.1723175,10.1095509 3.4023175,9.87955093 3.6723175,9.87955093 L9.1523175,9.87955093 Z M12.2123175,6.79786682 C12.4823175,6.79786682 12.7123175,7.02786682 12.7123175,7.29786682 C12.7123175,7.56786682 12.4823175,7.79786682 12.2123175,7.79786682 L3.6723175,7.79786682 C3.4023175,7.79786682 3.1723175,7.56786682 3.1723175,7.29786682 C3.1723175,7.02786682 3.4023175,6.79786682 3.6723175,6.79786682 L12.2123175,6.79786682 Z M12.2123175,3.71616364 C12.4823175,3.71616364 12.7123175,3.94616364 12.7123175,4.21616364 C12.7123175,4.48616364 12.4823175,4.71616364 12.2123175,4.71616364 L3.6723175,4.71616364 C3.4023175,4.71616364 3.1723175,4.48616364 3.1723175,4.21616364 C3.1723175,3.94616364 3.4023175,3.71616364 3.6723175,3.71616364 L12.2123175,3.71616364 Z"></path></clipPath></defs><g transform="translate(-16.0 -462.0)"><g clip-path="url(#i0)"><g transform="translate(0.0 450.0)"><g opacity="60.0000024%"><g transform="translate(16.0 11.999996185302733)"><g transform="translate(1.0000610351561932 0.0)"><g transform="translate(9.12018585205081 11.38241195678711)"><g clip-path="url(#i1)"><polygon points="0,0 8.62,0 8.62,8.62 0,8.62 0,0" stroke="none" fill="#FF5757"></polygon></g></g><g clip-path="url(#i2)"><polygon points="0,0 15.93,0 15.93,18.67 0,18.67 0,0" stroke="none" fill="#FF5757"></polygon></g></g></g></g></g></g></g></svg>