<svg xmlns="http://www.w3.org/2000/svg" xmlns:xlink="http://www.w3.org/1999/xlink" width="24" height="24" viewBox="0 0 24 24"><defs><style>.a{fill:none;}.b{fill:rgba(255,255,255,0.01);}.c{stroke:#ddd;stroke-linecap:round;stroke-linejoin:round;stroke-width:2px;fill:url(#a);}</style><linearGradient id="a" x1="0.5" x2="0.5" y2="1" gradientUnits="objectBoundingBox"><stop offset="0" stop-color="#d9d9d9"/><stop offset="1" stop-color="#ededed"/></linearGradient></defs><rect class="a" width="24" height="24"/><path class="b" d="M0,0H24V24H0Z"/><path class="c" d="M0,3.5A3.5,3.5,0,1,1,3.5,7,3.5,3.5,0,0,1,0,3.5Z" transform="translate(8.5 3)"/><path class="c" d="M.436,2.184A4,4,0,0,1,2.184.436C3.04,0,4.16,0,6.4,0h5.2c2.24,0,3.36,0,4.216.436a4,4,0,0,1,1.748,1.748C18,3.04,18,4.16,18,6.4V7H0V6.4C0,4.16,0,3.04.436,2.184Z" transform="translate(3 14)"/></svg>