<svg xmlns="http://www.w3.org/2000/svg" xmlns:xlink="http://www.w3.org/1999/xlink" width="21" height="21" viewBox="0 0 21 21" fill="none"><g opacity="1" transform="translate(0.035400390625 0.03533935546875)  rotate(0 10 10)"><g opacity="0" transform="translate(0 0)  rotate(0 10 10)"><path id="Rectangle" fill-rule="evenodd" style="fill:#EBEBEB" transform="translate(0 0)  rotate(0 10 10)" opacity="1" d="M0,20L20,20L20,0L0,0L0,20Z " /><rect  id="Rectangle 2" style="stroke:#50E3C2; stroke-width:0.10000000149011612; stroke-opacity:1; stroke-dasharray:0 0" transform="translate(2.222222328186035 2.222222328186035)  rotate(0 7.777777671813965 7.777777671813965)" x="0.05000000074505806" y="0.05000000074505806" rx="0"  width="15.455555342137814" height="15.455555342137814" /><rect  id="Rectangle 2" style="stroke:#50E3C2; stroke-width:0.10000000149011612; stroke-opacity:1; stroke-dasharray:0 0" transform="translate(1.1111111640930176 1.1111111640930176)  rotate(0 8.88888931274414 8.88888931274414)" x="0.05000000074505806" y="0.05000000074505806" rx="7.949999999254942"  width="17.677778623998165" height="17.677778623998165" /><rect  id="Rectangle 3" style="stroke:#50E3C2; stroke-width:0.10000000149011612; stroke-opacity:1; stroke-dasharray:0 0" transform="translate(3.3333334922790527 1.1111111640930176)  rotate(0 6.6666669845581055 8.88888931274414)" x="0.05000000074505806" y="0.05000000074505806" rx="0"  width="13.233333967626095" height="17.677778623998165" /><rect  id="Rectangle 4" style="stroke:#50E3C2; stroke-width:0.10000000149011612; stroke-opacity:1; stroke-dasharray:0 0" transform="translate(1.1111111640930176 3.3333334922790527)  rotate(0 8.88888931274414 6.6666669845581055)" x="0.05000000074505806" y="0.05000000074505806" rx="0"  width="17.677778623998165" height="13.233333967626095" /><path  id="Rectangle 5" style="stroke:#50E3C2; stroke-width:0.10000000149011612; stroke-opacity:1; stroke-dasharray:0 0" transform="translate(10.000000536441803 0)  rotate(0 0 10)" d="M0,0L0,20 " /><path  id="Rectangle 6" style="stroke:#50E3C2; stroke-width:0.10000000149011612; stroke-opacity:1; stroke-dasharray:0 0" transform="translate(0 10.000000536441803)  rotate(0 10 0)" d="M0,0L20,0 " /><rect  id="Rectangle 8" style="stroke:#50E3C2; stroke-width:0.10000000149011612; stroke-opacity:1; stroke-dasharray:0 0" transform="translate(4.44444465637207 4.44444465637207)  rotate(0 5.555555820465088 5.555555820465088)" x="0.05000000074505806" y="0.05000000074505806" rx="0"  width="11.01111163944006" height="11.01111163944006" /><path  id="Path 3" style="stroke:#50E3C2; stroke-width:0.10000000149011612; stroke-opacity:1; stroke-dasharray:0 0" transform="translate(0 0)  rotate(0 10 10)" d="M0,0L20,20 " /><path  id="Path 4" style="stroke:#50E3C2; stroke-width:0.10000000149011612; stroke-opacity:1; stroke-dasharray:0 0" transform="translate(0 0)  rotate(0 10 10)" d="M0,20L20,0 " /></g><g opacity="1" transform="translate(1 1)  rotate(0 9 9)"><path id="Vector" fill-rule="evenodd" style="fill:#FF5757" transform="translate(9.685754713828487e-7 1.490116030566924e-8)  rotate(0 8.999999515712261 8.99999999254942)" opacity="1" d="M11.71 0.56L11.71 4.85C11.71 5 11.65 5.14 11.55 5.25C11.44 5.35 11.3 5.41 11.15 5.41L10.13 5.41C9.98 5.41 9.83 5.47 9.73 5.58C9.62 5.68 9.56 5.82 9.56 5.97L9.56 7.87C9.56 8.02 9.62 8.17 9.73 8.27C9.83 8.38 9.98 8.44 10.13 8.44L15.75 8.44C15.9 8.44 16.04 8.5 16.15 8.6C16.25 8.71 16.31 8.85 16.31 9L16.31 12.94C16.31 13.09 16.37 13.23 16.48 13.34C16.58 13.44 16.73 13.5 16.88 13.5L17.44 13.49C17.59 13.49 17.73 13.55 17.84 13.65C17.94 13.76 18 13.9 18 14.05L18 17.43C18 17.58 17.94 17.72 17.84 17.82C17.73 17.93 17.59 17.99 17.44 17.99L14.06 17.99C13.91 17.99 13.77 17.93 13.66 17.82C13.56 17.72 13.5 17.58 13.5 17.43L13.5 14.05C13.5 13.9 13.56 13.76 13.66 13.65C13.77 13.55 13.91 13.49 14.06 13.49L14.62 13.49C14.77 13.49 14.92 13.43 15.02 13.32C15.13 13.22 15.19 13.08 15.19 12.93L15.19 10.12C15.19 9.98 15.13 9.83 15.02 9.73C14.92 9.62 14.77 9.56 14.62 9.56L10.12 9.56C9.98 9.56 9.83 9.62 9.73 9.73C9.62 9.83 9.56 9.98 9.56 10.12L9.56 12.94C9.56 13.09 9.62 13.23 9.73 13.34C9.83 13.44 9.98 13.5 10.12 13.5L10.68 13.5C10.83 13.5 10.97 13.56 11.07 13.66C11.18 13.77 11.24 13.91 11.24 14.06L11.24 17.44C11.24 17.59 11.18 17.73 11.07 17.84C10.97 17.94 10.83 18 10.68 18L7.3 18C7.15 18 7.01 17.94 6.9 17.84C6.8 17.73 6.74 17.59 6.74 17.44L6.74 14.06C6.74 13.91 6.8 13.77 6.9 13.66C7.01 13.56 7.15 13.5 7.3 13.5L7.87 13.5C7.95 13.5 8.02 13.49 8.09 13.46C8.16 13.43 8.22 13.38 8.28 13.33C8.33 13.28 8.37 13.21 8.4 13.14C8.43 13.08 8.44 13 8.44 12.93L8.44 10.12C8.44 9.98 8.38 9.83 8.27 9.73C8.17 9.62 8.02 9.56 7.87 9.56L3.37 9.56C3.23 9.56 3.08 9.62 2.98 9.73C2.87 9.83 2.81 9.98 2.81 10.12L2.81 12.94C2.81 13.09 2.87 13.23 2.98 13.34C3.08 13.44 3.23 13.5 3.37 13.5L3.94 13.5C4.09 13.5 4.23 13.56 4.34 13.66C4.44 13.77 4.5 13.91 4.5 14.06L4.5 17.44C4.5 17.59 4.44 17.73 4.34 17.84C4.23 17.94 4.09 18 3.94 18L0.56 18C0.41 18 0.27 17.94 0.16 17.84C0.06 17.73 0 17.59 0 17.44L0 14.06C0 13.91 0.06 13.77 0.16 13.66C0.27 13.56 0.41 13.5 0.56 13.5L1.12 13.5C1.2 13.5 1.27 13.49 1.34 13.46C1.41 13.43 1.47 13.38 1.53 13.33C1.58 13.28 1.62 13.21 1.65 13.14C1.68 13.08 1.69 13 1.69 12.93L1.69 9C1.69 8.85 1.75 8.71 1.85 8.6C1.96 8.5 2.1 8.44 2.25 8.44L7.88 8.44C8.02 8.44 8.17 8.38 8.27 8.27C8.38 8.17 8.44 8.02 8.44 7.87L8.44 5.97C8.44 5.82 8.38 5.68 8.27 5.58C8.17 5.47 8.02 5.41 7.88 5.41L6.85 5.41C6.7 5.41 6.56 5.35 6.45 5.25C6.35 5.14 6.29 5 6.29 4.85L6.29 0.56C6.29 0.41 6.35 0.27 6.45 0.16C6.56 0.06 6.7 0 6.85 0L11.15 0C11.3 0 11.44 0.06 11.55 0.16C11.65 0.27 11.71 0.41 11.71 0.56Z" /></g></g></svg>