<?xml version="1.0" encoding="UTF-8"?>
<svg width="35px" height="38px" viewBox="0 0 35 38" version="1.1" xmlns="http://www.w3.org/2000/svg" xmlns:xlink="http://www.w3.org/1999/xlink">
    <title>组 107</title>
    <defs>
        <linearGradient x1="50%" y1="0%" x2="50%" y2="100%" id="linearGradient-1">
            <stop stop-color="#FF5757" stop-opacity="0.702" offset="0%"></stop>
            <stop stop-color="#FF5757" offset="100%"></stop>
        </linearGradient>
        <filter x="-17.6%" y="-100.0%" width="135.3%" height="300.0%" filterUnits="objectBoundingBox" id="filter-2">
            <feGaussianBlur stdDeviation="1" in="SourceGraphic"></feGaussianBlur>
        </filter>
    </defs>
    <g id="主页" stroke="none" stroke-width="1" fill="none" fill-rule="evenodd">
        <g id="我的---1" transform="translate(-210.000000, -265.000000)">
            <g id="组-136" transform="translate(16.000000, 251.000000)">
                <g id="组-114" transform="translate(24.000000, 14.000000)">
                    <g id="组-112" transform="translate(159.000000, 0.000000)">
                        <g id="组-107" transform="translate(11.000000, 0.000000)">
                            <rect id="路径" x="0" y="0" width="35" height="35"></rect>
                            <g id="组-101">
                                <rect id="路径" x="0" y="0" width="35" height="35"></rect>
                                <path d="M17.5,0 C7.84,0 0,7.84 0,17.5 C0,27.16 7.84,35 17.5,35 C27.16,35 35,27.16 35,17.5 C35,7.84 27.16,0 17.5,0 Z" id="路径" fill="url(#linearGradient-1)"></path>
                                <path d="M17.5,32 C12.81,32 9,32.67 9,33.5 C9,34.33 12.81,35 17.5,35 C22.19,35 26,34.33 26,33.5 C26,32.67 22.19,32 17.5,32 Z" id="路径" fill="#FFE3E3" opacity="0.4" filter="url(#filter-2)"></path>
                            </g>
                            <g id="组-100" transform="translate(10.000031, 9.000000)">
                                <rect id="路径" x="0" y="0" width="15.1066055" height="17.772522"></rect>
                                <path d="M12.95,0 C14.12,0 15.04,0.83 15.11,1.94 L15.11,1.94 L15.11,15.74 C15.11,16.85 14.19,17.77 13.04,17.77 L13.04,17.77 L2.06,17.77 C0.92,17.77 0,16.85 0,15.74 L0,15.74 L0,2.03 C0,0.92 0.92,0 2.06,0 L2.06,0 Z M12.9520874,0.952098846 L2.0620874,0.952098846 C1.4620874,0.952098846 0.952087403,1.43209885 0.952087403,2.03209885 L0.952087403,15.7720988 C0.952087403,16.3720988 1.4620874,16.8520988 2.0620874,16.8520988 L13.0120874,16.8520988 C13.6120874,16.8520988 14.1220874,16.3720988 14.1220874,15.7720988 L14.1220874,1.97209885 C14.1220874,1.39209885 13.6120874,0.952098846 12.9520874,0.952098846 Z" id="路径-28" fill="#FFFFFF"></path>
                                <path d="M3.14603035,0.571266174 L3.14603035,17.1712662 L1.36603035,17.1712662 C0.88603035,17.1712662 0.47603035,16.7912662 0.47603035,16.2512662 L0.47603035,16.2512662 L0.47603035,1.49126617 C0.47603035,1.05126617 0.85603035,0.571266174 1.36603035,0.571266174 L1.36603035,0.571266174 L3.14603035,0.571266174 Z M13.7122883,0.571258545 C14.1822883,0.571258545 14.6022883,0.951258545 14.6022883,1.49125854 L14.6022883,1.49125854 L14.6022883,16.2512585 C14.6922883,16.7612585 14.3122883,17.1712585 13.8022883,17.1712585 L13.8022883,17.1712585 L4.06228828,17.1712585 L4.06228828,0.631258545 L9.33228828,0.631258545 L9.33228828,6.25125854 L11.0422883,4.41125854 L12.8222883,6.19125854 L12.8222883,0.571258545 Z" id="路径-29" fill="#FFFFFF"></path>
                            </g>
                        </g>
                    </g>
                </g>
            </g>
        </g>
    </g>
</svg>