<?xml version="1.0" encoding="UTF-8"?><svg version="1.1" width="14px" height="14px" viewBox="0 0 14.0 14.0" xmlns="http://www.w3.org/2000/svg" xmlns:xlink="http://www.w3.org/1999/xlink"><defs><clipPath id="i0"><path d="M375,0 L375,812 L0,812 L0,0 L375,0 Z"></path></clipPath><clipPath id="i1"><path d="M0.102864483,4.95812156 C0.674389874,1.97044774 3.52462034,-0.334411639 6.61600901,0.0399379704 C9.69751292,0.413111798 12.0030969,2.91703367 12.0568775,6.03571141 C12.0441809,6.76885203 11.9356809,7.51843992 11.6540403,8.20016063 C10.4964289,11.002102 7.39205198,12.734438 4.3986223,11.8379731 C1.4789387,10.9635884 -0.480364033,8.00666258 0.102864483,4.95812156 Z M6.03081175,0.850598127 C3.24161253,0.898641095 0.796438702,3.17210985 0.845753155,6.03571141 C0.893796124,8.82491063 3.16721019,11.2701528 6.03081175,11.2208247 C8.89424925,11.1715102 11.1666516,8.89916258 11.2159797,6.03571141 L11.2079223,5.8218683 C11.0509606,3.12270332 8.82104092,0.802534825 6.03081175,0.850598127 Z M5.38227269,4.37639695 C4.99854417,3.99266844 5.593093,3.39811961 5.97682151,3.78184813 L7.93343089,5.73843016 C8.09540159,5.90040086 8.09540159,6.17102195 7.93343089,6.33299266 L5.97680784,8.28954735 C5.59307933,8.67327586 4.9985305,8.07872703 5.38225901,7.69498485 L7.041,6.035 Z"></path></clipPath></defs><g transform="translate(-164.0 -535.0)"><g clip-path="url(#i0)"><g transform="translate(16.0 273.0)"><g transform="translate(148.0 259.0)"><g transform="translate(14.0 3.000000000000001) rotate(90.00000000000001)"><g transform="translate(0.9543816106369931 0.9434526546482056)"><g clip-path="url(#i1)"><polygon points="0,6.9388939e-18 12.0569536,6.9388939e-18 12.0569536,12.0756381 0,12.0756381 0,6.9388939e-18" stroke="none" fill="#FF5757"></polygon></g></g></g></g></g></g></g></svg>