<?xml version="1.0" encoding="UTF-8"?><svg version="1.1" width="48px" height="48px" viewBox="0 0 48.0 48.0" xmlns="http://www.w3.org/2000/svg" xmlns:xlink="http://www.w3.org/1999/xlink"><defs><clipPath id="i0"><path d="M375,0 L375,812 L0,812 L0,0 L375,0 Z"></path></clipPath><clipPath id="i1"><path d="M25,0 C37.7025492,-2.33342044e-15 48,10.2974508 48,23 L48,25 C48,37.7025492 37.7025492,48 25,48 L23,48 C10.2974508,48 1.55561363e-15,37.7025492 0,25 L0,23 C-1.55561363e-15,10.2974508 10.2974508,2.33342044e-15 23,0 L25,0 Z"></path></clipPath><linearGradient id="i2" x1="9.91307616px" y1="7.3043468px" x2="37.0435095px" y2="40.173912px" gradientUnits="userSpaceOnUse"><stop stop-color="#71F6F6" offset="0%"></stop><stop stop-color="#3BE0E1" offset="100%"></stop></linearGradient><clipPath id="i3"><path d="M12.73,0.32 L17.5,4.57 L17.5,3.3 C17.5,3.02 17.72,2.8 18,2.8 L20.2,2.8 C20.48,2.8 20.7,3.02 20.7,3.3 L20.7,7.44 L23.67,10.08 C24.34,10.69 23.92,11.8 23.01,11.81 L20.38,11.81 L20.38,19.89 C20.38,20.95 19.52,21.82 18.46,21.82 L5.52,21.82 C4.46,21.82 3.59,20.96 3.59,19.89 L3.59,11.81 L1.08,11.81 C0.09,11.81 -0.37,10.59 0.36,9.93 L11.06,0.32 C11.53,-0.11 12.26,-0.11 12.73,0.32 Z M11.3255071,7.66845047 C11.2655071,7.65845047 11.2355071,7.73845047 11.2855071,7.77845047 C12.2755071,8.34845047 15.2355071,10.3584505 13.8355071,13.2984505 C13.1355071,12.6517838 12.0355071,11.6784505 10.5355071,10.3784505 L10.5655071,10.3584505 L11.0955071,9.78845047 C11.1355071,9.73845047 11.1355071,9.65845047 11.0855071,9.61845047 L10.2055071,8.85845047 C10.1555071,8.81845047 10.0955071,8.81845047 10.0455071,8.86845047 L9.76550714,9.14845047 L9.49550714,8.90845047 C9.44550714,8.85845047 9.37550714,8.86845047 9.33550714,8.91845047 L7.64550714,10.7984505 C7.60550714,10.8484505 7.60550714,10.9284505 7.65550714,10.9684505 L8.88550714,12.0984505 C8.93550714,12.1484505 9.01550714,12.1384505 9.05550714,12.0884505 L9.62550714,11.4484505 L12.8055071,14.3584505 C11.3988405,15.2651171 9.89550714,14.9817838 8.29550714,13.5084505 C8.25550714,13.4684505 8.19550714,13.4684505 8.14550714,13.5084505 C7.84550714,13.7984505 7.61550714,14.0184505 7.49550714,14.1284505 C7.45550714,14.1684505 7.45550714,14.2384505 7.49550714,14.2784505 L7.98550714,14.8284505 C8.02550714,14.8684505 8.02550714,14.9384505 7.98550714,14.9784505 L7.39550714,15.6384505 C7.35550714,15.6784505 7.35550714,15.7484505 7.39550714,15.7884505 L8.31550714,16.6584505 C8.33550714,16.6784505 8.36550714,16.6884505 8.38550714,16.6884505 C8.41550714,16.6884505 8.44550714,16.6684505 8.46550714,16.6484505 L9.07550714,15.9684505 C10.9555071,17.0484505 12.7988405,17.0484505 14.6055071,15.9684505 C15.0355071,16.3484505 15.3655071,16.6684505 15.5155071,16.7884505 C15.5755071,16.8284505 15.6555071,16.8284505 15.6855071,16.7884505 L16.5255071,15.8184505 C16.5555071,15.7784505 16.5555071,15.7084505 16.5055071,15.6784505 L15.5555071,14.8284505 C17.7888405,11.0417838 16.3788405,8.65511714 11.3255071,7.66845047 Z"></path></clipPath></defs><g transform="translate(-302.0 -332.0)"><g clip-path="url(#i0)"><g transform="translate(288.0 332.0)"><g transform="translate(14.0 0.0)"><g clip-path="url(#i1)"><polygon points="0,0 48,0 48,48 0,48 0,0" stroke="none" fill="url(#i2)"></polygon></g><g transform="translate(12.037333156541512 13.131701682761102)"><g clip-path="url(#i3)"><polygon points="0.002144812,-0.0025 23.9989733,-0.0025 23.9989733,21.82 0.002144812,21.82 0.002144812,-0.0025" stroke="none" fill="#FFFFFF"></polygon></g></g></g></g></g></g></svg>