<?xml version="1.0" encoding="UTF-8"?><svg version="1.1" width="44px" height="44px" viewBox="0 0 44.0 44.0" xmlns="http://www.w3.org/2000/svg" xmlns:xlink="http://www.w3.org/1999/xlink"><defs><clipPath id="i0"><path d="M375,0 L375,859 L0,859 L0,0 L375,0 Z"></path></clipPath><clipPath id="i1"><path d="M22,0 C34.1502645,-2.23196738e-15 44,9.8497355 44,22 C44,34.1502645 34.1502645,44 22,44 C9.8497355,44 1.48797825e-15,34.1502645 0,22 C-1.48797825e-15,9.8497355 9.8497355,2.23196738e-15 22,0 Z"></path></clipPath><linearGradient id="i2" x1="9.08698648px" y1="6.69565123px" x2="33.9565504px" y2="36.826086px" gradientUnits="userSpaceOnUse"><stop stop-color="#71F6F6" offset="0%"></stop><stop stop-color="#3BE0E1" offset="100%"></stop></linearGradient><clipPath id="i3"><path d="M4.07,0 C5.29666667,2.23333333 6.96333333,4.62 9.07,7.16 L14.26,0 L17.61,0 C18.4,0 18.99,0.59 18.99,1.31 L18.99,10.51 C18.99,11.24 18.34,11.83 17.61,11.83 L1.38,11.83 C0.66,11.83 0,11.24 0,10.51 L0,1.31 C0,0.59 0.66,0 1.38,0 Z"></path></clipPath><clipPath id="i4"><path d="M6.24175537,17.7437897 C6.50175537,17.8137897 6.83175537,17.8137897 7.10175537,17.8737897 C7.42175537,17.9437897 7.75175537,17.8737897 8.08175537,17.8737897 L8.15175537,18.5337897 C7.75175537,18.5937897 7.36175537,18.5937897 6.96175537,18.5337897 C6.70175537,18.5337897 6.44175537,18.4637897 6.11175537,18.4037897 L6.24175537,17.7437897 Z M11.1019092,16.823761 L11.3719092,17.413761 C10.6419092,17.743761 10.0519092,18.003761 9.53190918,18.203761 L9.33190918,17.613761 C9.86190918,17.413761 10.3819092,17.213761 11.1019092,16.823761 Z M3.15157104,16.823761 C3.74157104,17.083761 4.34157104,17.353761 4.93157104,17.483761 L4.73157104,18.133761 C4.14157104,17.873761 3.55157104,17.673761 2.89157104,17.413761 L3.15157104,16.823761 Z M14.1292151,15.3122406 L14.3892151,15.9022406 C13.7992151,16.1622406 13.2792151,16.4322406 12.5492151,16.7622406 L12.2892151,16.1622406 C13.0092151,15.8422406 13.5392151,15.5722406 14.1292151,15.3122406 Z M0.39,15.1808014 C0.92,15.5708014 1.51,15.9008014 2.04,16.2308014 L1.71,16.7608014 C1.12,16.4908014 0.59,16.1008014 0,15.7108014 L0.39,15.1808014 Z M17.3522253,14.5893402 L17.3522253,15.2493402 C16.7622253,15.3093402 16.1622253,15.3793402 15.5122253,15.5793402 L15.3122253,14.9193402 C15.9722253,14.7193402 16.6922253,14.6593402 17.3522253,14.5893402 Z M8.21301025,0 C10.9730103,0 13.4730103,2.23 13.4730103,5.06 C13.4730103,6.85333333 11.7196769,9.76666667 8.21301025,13.8 C4.75301025,9.68 3.02301025,6.76666667 3.02301025,5.06 C3.02301025,2.23 5.45301025,0 8.21301025,0 Z M6.30889893,5.31829238 C6.30889893,6.43829238 7.22889893,7.29829238 8.27889893,7.29829238 C9.39889893,7.29829238 10.2488989,6.37829238 10.2488989,5.31829238 C10.2488989,4.20829238 9.32889893,3.34829238 8.27889893,3.34829238 C7.22889893,3.28829238 6.30889893,4.20829238 6.30889893,5.31829238 Z"></path></clipPath></defs><g transform="translate(-28.0 -564.0)"><g clip-path="url(#i0)"><g transform="translate(28.0 564.0)"><g clip-path="url(#i1)"><polygon points="0,0 44,0 44,44 0,44 0,0" stroke="none" fill="url(#i2)"></polygon></g><g transform="translate(13.000030517578098 11.999999999999998)"><g transform="translate(0.0 8.543304443359375)"><g clip-path="url(#i3)"><polygon points="0,0 18.99,0 18.99,11.83 0,11.83 0,0" stroke="none" fill="#FFFFFF"></polygon></g></g><g transform="translate(0.9200477600097372 0.0)"><g clip-path="url(#i4)"><polygon points="0,0 17.3522253,0 17.3522253,18.5787897 0,18.5787897 0,0" stroke="none" fill="#FFFFFF"></polygon></g></g></g></g></g></g></svg>