<svg xmlns="http://www.w3.org/2000/svg" width="12" height="12" viewBox="0 0 12 12"><defs><style>.a{fill:none;}.b{fill:#ffe818;}</style></defs><rect class="a" width="12" height="12"/><path class="b" d="M10.879,9.381,11.986,10.5l-1.5,1.488-1.1-1.108a6.42,6.42,0,0,1-7.406-.115l-.15.138a.89.89,0,0,1,.023.173A.936.936,0,0,1,.923,12a.929.929,0,0,1-.012-1.857.681.681,0,0,1,.162.023.844.844,0,0,0,.1-.1,8.973,8.973,0,0,1-.819-1.05l.958-.946A5.472,5.472,0,0,0,7.868,9.381L3.945,5.447,2.815,6.566l-1.7-1.684L4.107,1.894A1.863,1.863,0,0,0,6,1.5l.946.934-1.5,1.5L9.368,7.881C10.971,4.87,9.091,1.167,6,0c3.819-.115,8.064,4.592,4.88,9.379Z" transform="translate(0.001 0)"/></svg>