<svg xmlns="http://www.w3.org/2000/svg" xmlns:xlink="http://www.w3.org/1999/xlink" width="76.599" height="69" viewBox="0 0 76.599 69"><defs><style>.a,.b{fill:#fff;}.a{stroke:#707070;}.c,.i,.m{fill:none;stroke-linecap:round;stroke-linejoin:round;stroke-width:2px;}.c{stroke:#ff5757;}.d,.o{fill:#ff5757;}.e{fill:#f64141;}.f{clip-path:url(#a);}.g{clip-path:url(#b);}.h{clip-path:url(#c);}.i{stroke:#ff6d6d;}.j{fill:#ff6d6d;}.k{clip-path:url(#d);}.l{clip-path:url(#e);}.m{stroke:#ff7e7e;}.n{fill:#ff7e7e;}.o{opacity:0.8;}</style><clipPath id="a"><circle class="a" cx="27.5" cy="27.5" r="27.5" transform="translate(277 165)"/></clipPath><clipPath id="b"><circle class="a" cx="27.5" cy="27.5" r="27.5" transform="translate(268 158)"/></clipPath><clipPath id="c"><circle class="a" cx="27.5" cy="27.5" r="27.5" transform="translate(274 162)"/></clipPath><clipPath id="d"><circle class="b" cx="21" cy="21" r="21" transform="translate(271 166)"/></clipPath><clipPath id="e"><circle class="a" cx="27.5" cy="27.5" r="27.5" transform="translate(265 155)"/></clipPath></defs><g transform="translate(-268 -158)"><g transform="translate(0 12)"><circle class="b" cx="30" cy="30" r="30" transform="translate(282 155)"/></g><g transform="translate(-6827 1271)"><path class="c" d="M7181-1065.894v-9.406h30.278v9.986" transform="translate(-57)"/><rect class="d" width="14" height="13" rx="2" transform="translate(7132 -1095)"/><rect class="d" width="12" height="11" rx="2" transform="translate(7133 -1067)"/><rect class="e" width="12" height="11" rx="2" transform="translate(7148 -1067)"/><rect class="d" width="12" height="11" rx="2" transform="translate(7118 -1067)"/><rect class="d" width="2" height="15" transform="translate(7138 -1082)"/></g><g class="f"><g transform="translate(-6827 1271)"><path class="c" d="M7181-1065.894v-9.406h30.278v9.986" transform="translate(-57)"/><rect class="d" width="14" height="13" rx="2" transform="translate(7132 -1095)"/><rect class="d" width="12" height="11" rx="2" transform="translate(7133 -1067)"/><rect class="d" width="12" height="11" rx="2" transform="translate(7148 -1067)"/><rect class="d" width="12" height="11" rx="2" transform="translate(7118 -1067)"/><rect class="d" width="2" height="15" transform="translate(7138 -1082)"/></g></g><g class="g"><g class="h"><g transform="translate(-6827 1271)"><path class="i" d="M7181-1065.894v-9.406h30.278v9.986" transform="translate(-57)"/><rect class="j" width="14" height="13" rx="2" transform="translate(7132 -1095)"/><rect class="j" width="12" height="11" rx="2" transform="translate(7133 -1067)"/><rect class="j" width="12" height="11" rx="2" transform="translate(7148 -1067)"/><rect class="j" width="12" height="11" rx="2" transform="translate(7118 -1067)"/><rect class="j" width="2" height="15" transform="translate(7138 -1082)"/></g></g></g><g class="k"><g class="l"><g class="h"><g transform="translate(-6827 1271)"><path class="m" d="M7181-1065.894v-9.406h30.278v9.986" transform="translate(-57)"/><rect class="n" width="14" height="13" rx="2" transform="translate(7132 -1095)"/><rect class="n" width="12" height="11" rx="2" transform="translate(7133 -1067)"/><rect class="n" width="12" height="11" rx="2" transform="translate(7148 -1067)"/><rect class="n" width="12" height="11" rx="2" transform="translate(7118 -1067)"/><rect class="n" width="2" height="15" transform="translate(7138 -1082)"/></g></g></g></g><g transform="translate(6 -93)"><path class="d" d="M494.77,162.148a1.2,1.2,0,1,1,1.2-1.2A1.209,1.209,0,0,1,494.77,162.148Zm0-1.889a.687.687,0,1,0,.687.687A.7.7,0,0,0,494.77,160.259Z" transform="translate(-189.27 103.054)"/><path class="d" d="M165.852,113.806a1.863,1.863,0,1,1,1.863-1.863A1.819,1.819,0,0,1,165.852,113.806Zm0-2.927a1.065,1.065,0,1,0,1.065,1.065A1.079,1.079,0,0,0,165.852,110.878Zm-59.79,34.774a3.1,3.1,0,0,1-2.129-.8,3.457,3.457,0,0,1-1.2-2.262,3.231,3.231,0,0,1,.754-2.44,3.457,3.457,0,0,1,2.262-1.2,3.361,3.361,0,1,1,.577,6.7Zm0-5.855h-.222a2.28,2.28,0,0,0-1.685.887,2.5,2.5,0,0,0-.577,1.819,2.28,2.28,0,0,0,.887,1.685,2.487,2.487,0,0,0,4.081-2.129A2.47,2.47,0,0,0,106.062,139.8Z" transform="translate(170.882 157.718)"/><path class="o" d="M735.7,296.352a.2.2,0,0,1-.2-.2v-1.3l-.921.921a.207.207,0,1,1-.292-.292l.922-.921h-1.3a.2.2,0,0,1,0-.4h1.3l-.922-.921a.207.207,0,0,1,.292-.292l.921.921v-1.3a.2.2,0,0,1,.4,0v1.3l.922-.921a.207.207,0,0,1,.292.292l-.921.921h1.3a.2.2,0,1,1,0,.4h-1.3l.921.921a.207.207,0,0,1-.292.292l-.922-.921v1.3A.2.2,0,0,1,735.7,296.352Z" transform="translate(-415.696 -18.352)"/><path class="d" d="M196.814,107.931a.279.279,0,0,1-.28-.28v-1.8l-1.274,1.274a.286.286,0,1,1-.4-.4l1.274-1.274h-1.8a.28.28,0,0,1,0-.559h1.8l-1.274-1.274a.286.286,0,0,1,.4-.4l1.274,1.274v-1.8a.28.28,0,1,1,.559,0v1.8l1.274-1.274a.286.286,0,0,1,.4.4l-1.274,1.274h1.8a.28.28,0,0,1,0,.559h-1.8l1.274,1.274a.286.286,0,1,1-.4.4l-1.274-1.274v1.8C197.124,107.807,196.969,107.931,196.814,107.931Z" transform="translate(87.952 162.069)"/><g transform="translate(194.492 -121.279)"><path class="j" d="M820.8,754.613h-1.893a.218.218,0,1,1,0-.437H820.8a.218.218,0,0,1,0,.437Z" transform="translate(-683.18 -334.038)"/><path class="j" d="M838.874,736.537a.217.217,0,0,1-.218-.218v-1.893a.218.218,0,0,1,.437,0v1.893A.217.217,0,0,1,838.874,736.537Z" transform="translate(-702.202 -315.017)"/></g><path class="d" d="M828.872,520.7a1.618,1.618,0,0,1-1.48,1.745,1.635,1.635,0,0,1,1.48,1.745,1.618,1.618,0,0,1,1.48-1.745A1.635,1.635,0,0,1,828.872,520.7Z" transform="translate(-498.873 -237.704)"/></g></g></svg>