<?xml version="1.0" encoding="UTF-8"?><svg version="1.1" width="44px" height="44px" viewBox="0 0 44.0 44.0" xmlns="http://www.w3.org/2000/svg" xmlns:xlink="http://www.w3.org/1999/xlink"><defs><clipPath id="i0"><path d="M375,0 L375,859 L0,859 L0,0 L375,0 Z"></path></clipPath><clipPath id="i1"><path d="M22,0 C34.1502645,-2.23196738e-15 44,9.8497355 44,22 C44,34.1502645 34.1502645,44 22,44 C9.8497355,44 1.48797825e-15,34.1502645 0,22 C-1.48797825e-15,9.8497355 9.8497355,2.23196738e-15 22,0 Z"></path></clipPath><linearGradient id="i2" x1="9.08695567px" y1="4.78260854px" x2="35.8695645px" y2="37.3043468px" gradientUnits="userSpaceOnUse"><stop stop-color="#73F7F7" offset="0%"></stop><stop stop-color="#36DEDF" offset="100%"></stop></linearGradient><filter id="i3" x="-48.7974526%" y="-38.6847195%" filterUnits="userSpaceOnUse" width="169.710647%" height="164.474533%"><feGaussianBlur stdDeviation="2" in="SourceAlpha" result="i4"></feGaussianBlur><feOffset dx="0" dy="2" in="i4" result="i5"></feOffset><feColorMatrix values="0 0 0 0.1843137254901961 0 0 0 0 0.807843137254902 0 0 0 0 0.8117647058823529 0 0 0 0 1.0 0" type="matrix" in="i5"></feColorMatrix></filter><clipPath id="i6"><path d="M10.35,0 L10.97,0.41 C12.23,1.21 13.58,1.88 14.98,2.39 C16.49,2.94 18.07,3.26 19.67,3.33 L20.6900111,3.35 L20.6900111,13.03 C20.7,17.89 13.97,23.02 10.35,23.02 C6.74,23.02 0,17.89 0,13.02 L0,3.34 L1.03,3.33 C2.63,3.26 4.21,2.94 5.72,2.39 C7.12,1.87 8.47,1.21 9.73,0.41 L10.35,0 Z M5.46223803,7.43465238 C5.15223803,7.73465238 4.91223803,8.09465238 4.74223803,8.49465238 C4.58223803,8.89465238 4.49223803,9.31465238 4.49223803,9.75465238 C4.49223803,10.1846524 4.58223803,10.6046524 4.74223803,11.0046524 C4.91223803,11.4046524 5.16223803,11.7646524 5.47223803,12.0646524 L7.41223803,13.9746524 L9.42223803,15.9646524 C10.152238,16.6346524 10.452238,16.8246524 11.392238,15.9946524 C12.0255714,15.4346524 13.2155714,14.2546524 14.962238,12.4546524 C16.322238,11.0846524 16.342238,8.88465238 14.992238,7.53465238 C13.682238,6.22465238 11.562238,6.20465238 10.192238,7.46465238 L10.162238,7.43465238 C8.86223803,6.15465238 6.76223803,6.15465238 5.46223803,7.43465238 Z M7.14243943,11.1476547 C7.20243943,11.1476547 7.25243943,11.1576547 7.31243943,11.1776547 C7.36243943,11.1976547 7.40243943,11.2376547 7.44243943,11.2676547 L10.2424394,14.0676547 L13.0424394,11.2676547 C13.1224394,11.1976547 13.2224394,11.1576547 13.3324394,11.1676547 C13.4424394,11.1676547 13.5424394,11.2076547 13.6224394,11.2876547 C13.6924394,11.3676547 13.7424394,11.4676547 13.7424394,11.5776547 C13.7524394,11.6876547 13.7124394,11.7876547 13.6424394,11.8676547 L10.5424394,14.9676547 C10.4624394,15.0476547 10.3524394,15.0876547 10.2424394,15.0876547 C10.1324394,15.0876547 10.0224394,15.0476547 9.94243943,14.9676547 L6.84243943,11.8676547 C6.80243943,11.8276547 6.77243943,11.7876547 6.75243943,11.7376547 C6.73243943,11.6776547 6.72243943,11.6276547 6.72243943,11.5676547 C6.72243943,11.5176547 6.73243943,11.4576547 6.75243943,11.4076547 C6.77243943,11.3576547 6.81243943,11.3076547 6.84243943,11.2676547 C6.88243943,11.2276547 6.93243943,11.1976547 6.98243943,11.1776547 C7.03243943,11.1576547 7.09243943,11.1476547 7.14243943,11.1476547 Z"></path></clipPath></defs><g transform="translate(-97.0 -161.0)"><g clip-path="url(#i0)"><g transform="translate(81.0 161.0)"><g transform="translate(16.0 0.0)"><g clip-path="url(#i1)"><polygon points="0,0 44,0 44,44 0,44 0,0" stroke="none" fill="url(#i2)"></polygon></g><g transform="translate(11.972595214843748 10.000010013580319)"><path d="M10.35,0 L10.97,0.41 C12.23,1.21 13.58,1.88 14.98,2.39 C16.49,2.94 18.07,3.26 19.67,3.33 L20.6900111,3.35 L20.6900111,13.03 C20.7,17.89 13.97,23.02 10.35,23.02 C6.74,23.02 0,17.89 0,13.02 L0,3.34 L1.03,3.33 C2.63,3.26 4.21,2.94 5.72,2.39 C7.12,1.87 8.47,1.21 9.73,0.41 L10.35,0 Z M5.46223803,7.43465238 C5.15223803,7.73465238 4.91223803,8.09465238 4.74223803,8.49465238 C4.58223803,8.89465238 4.49223803,9.31465238 4.49223803,9.75465238 C4.49223803,10.1846524 4.58223803,10.6046524 4.74223803,11.0046524 C4.91223803,11.4046524 5.16223803,11.7646524 5.47223803,12.0646524 L7.41223803,13.9746524 L9.42223803,15.9646524 C10.152238,16.6346524 10.452238,16.8246524 11.392238,15.9946524 C12.0255714,15.4346524 13.2155714,14.2546524 14.962238,12.4546524 C16.322238,11.0846524 16.342238,8.88465238 14.992238,7.53465238 C13.682238,6.22465238 11.562238,6.20465238 10.192238,7.46465238 L10.162238,7.43465238 C8.86223803,6.15465238 6.76223803,6.15465238 5.46223803,7.43465238 Z M7.14243943,11.1476547 C7.20243943,11.1476547 7.25243943,11.1576547 7.31243943,11.1776547 C7.36243943,11.1976547 7.40243943,11.2376547 7.44243943,11.2676547 L10.2424394,14.0676547 L13.0424394,11.2676547 C13.1224394,11.1976547 13.2224394,11.1576547 13.3324394,11.1676547 C13.4424394,11.1676547 13.5424394,11.2076547 13.6224394,11.2876547 C13.6924394,11.3676547 13.7424394,11.4676547 13.7424394,11.5776547 C13.7524394,11.6876547 13.7124394,11.7876547 13.6424394,11.8676547 L10.5424394,14.9676547 C10.4624394,15.0476547 10.3524394,15.0876547 10.2424394,15.0876547 C10.1324394,15.0876547 10.0224394,15.0476547 9.94243943,14.9676547 L6.84243943,11.8676547 C6.80243943,11.8276547 6.77243943,11.7876547 6.75243943,11.7376547 C6.73243943,11.6776547 6.72243943,11.6276547 6.72243943,11.5676547 C6.72243943,11.5176547 6.73243943,11.4576547 6.75243943,11.4076547 C6.77243943,11.3576547 6.81243943,11.3076547 6.84243943,11.2676547 C6.88243943,11.2276547 6.93243943,11.1976547 6.98243943,11.1776547 C7.03243943,11.1576547 7.09243943,11.1476547 7.14243943,11.1476547 Z" stroke="none" fill="#000000" filter="url(#i3)"></path><g clip-path="url(#i6)"><polygon points="0,0 20.6900222,0 20.6900222,23.02 0,23.02 0,0" stroke="none" fill="#FFFFFF"></polygon></g></g></g></g></g></g></svg>