<?xml version="1.0" encoding="UTF-8"?><svg version="1.1" width="44px" height="44px" viewBox="0 0 44.0 44.0" xmlns="http://www.w3.org/2000/svg" xmlns:xlink="http://www.w3.org/1999/xlink"><defs><clipPath id="i0"><path d="M375,0 L375,859 L0,859 L0,0 L375,0 Z"></path></clipPath><clipPath id="i1"><path d="M22,0 C34.1502645,-2.23196738e-15 44,9.8497355 44,22 C44,34.1502645 34.1502645,44 22,44 C9.8497355,44 1.48797825e-15,34.1502645 0,22 C-1.48797825e-15,9.8497355 9.8497355,2.23196738e-15 22,0 Z"></path></clipPath><linearGradient id="i2" x1="8.13043481px" y1="5.26086995px" x2="35.3913038px" y2="36.8260887px" gradientUnits="userSpaceOnUse"><stop stop-color="#FEDE8E" offset="0%"></stop><stop stop-color="#FEC467" offset="100%"></stop></linearGradient><clipPath id="i3"><path d="M10,0 C15.52,0 20,4.48 20,10 C20,15.52 15.52,20 10,20 C4.48,20 0,15.52 0,10 C0,4.48 4.48,0 10,0 Z"></path></clipPath></defs><g transform="translate(-91.0 -480.0)"><g clip-path="url(#i0)"><g transform="translate(91.0 480.0)"><g clip-path="url(#i1)"><polygon points="0,0 44,0 44,44 0,44 0,0" stroke="none" fill="url(#i2)"></polygon></g><g transform="translate(12.0 12.0)"><g clip-path="url(#i3)"><polygon points="0,0 20,0 20,20 0,20 0,0" stroke="none" fill="#FFFFFF"></polygon></g><path d="M10,20 C15.52,20 20,15.52 20,10 C20,4.48 15.52,0 10,0 C4.48,0 0,4.48 0,10 C0,15.52 4.48,20 10,20 Z" stroke="#FFFFFF" stroke-width="1" fill="none" stroke-linejoin="round"></path><g transform="translate(7.0 9.0)"><path d="M0,0 L6,0" stroke="#FECB71" stroke-width="2" fill="none" stroke-linecap="round" stroke-linejoin="round" stroke-dasharray=" 0.0 0.0"></path></g><g transform="translate(7.0 12.0)"><path d="M0,0 L6,0" stroke="#FECB71" stroke-width="2" fill="none" stroke-linecap="round" stroke-linejoin="round" stroke-dasharray=" 0.0 0.0"></path></g><g transform="translate(10.004150390625 9.0)"><path d="M0,0 L0,6" stroke="#FECB71" stroke-width="2" fill="none" stroke-linecap="round" stroke-linejoin="round" stroke-dasharray=" 0.0 0.0"></path></g><g transform="translate(7.0 5.5)"><path d="M6,0 L3,3 L0,0" stroke="#FECB71" stroke-width="2" fill="none" stroke-linecap="round" stroke-linejoin="round" stroke-dasharray=" 0.0 0.0"></path></g></g></g></g></g></svg>