<?xml version="1.0" encoding="UTF-8"?>
<svg width="40px" height="46px" viewBox="0 0 40 46" version="1.1" xmlns="http://www.w3.org/2000/svg" xmlns:xlink="http://www.w3.org/1999/xlink">
    <title>组 411</title>
    <defs>
        <linearGradient x1="50%" y1="0%" x2="50%" y2="100%" id="linearGradient-1">
            <stop stop-color="#FF6F60" offset="0%"></stop>
            <stop stop-color="#FF5C52" offset="100%"></stop>
        </linearGradient>
    </defs>
    <g id="组织生活" stroke="none" stroke-width="1" fill="none" fill-rule="evenodd">
        <g id="学习习总书记说话备份" transform="translate(-16.000000, -534.000000)">
            <g id="组-411" transform="translate(16.000000, 534.000000)">
                <rect id="路径" x="0" y="0" width="40" height="46"></rect>
                <g id="组-404">
                    <rect id="路径" x="0" y="0" width="40" height="46"></rect>
                    <path d="M0,4.01804812 L0,41.9987772 C0,44.2082379 1.79,45.9978011 3.99,45.9978011 L35.95,45.9978011 C38.15,45.9978011 39.94,44.2082379 39.94,41.9987772 L39.94,14.4854931 C40.2,13.7456737 40.06,14.4555004 25.55,0.0190242641 L3.99,0.0190242641 C1.79,0.0190242641 0,1.80858744 0,4.01804812 Z" id="路径" fill="url(#linearGradient-1)"></path>
                    <path d="M40,14.25 L25.74,0 L25.5,14.58 L40,14.25 Z" id="路径" fill="#FFFFFF" opacity="0.5"></path>
                </g>
                <path d="M18.7186464,16.0888331 L18.8772598,16.0983531 C19.5318702,16.0983531 20.1461969,16.4183531 20.5490341,16.9483531 C21.3949921,18.1583531 21.3144247,20.5483531 20.2066225,24.1883531 C21.2036445,26.1183531 22.5330072,27.8583531 24.124214,29.3183531 C25.4435058,29.0483531 26.7829394,28.9083531 28.1324439,28.9183531 C31.1033681,28.9983531 31.4961344,30.4083531 31.4961344,31.2183531 C31.4961344,33.4259288 29.6120475,33.5597213 28.5321178,33.5678299 L28.3338625,33.5683531 C26.5915917,33.4783531 24.9399593,32.7783531 23.6508803,31.5883531 C21.0626515,32.1683531 18.5449191,32.9983531 16.1077542,34.0583531 C14.1640648,37.5783531 12.3009429,39.3983531 10.7198069,39.3983531 C10.3773953,39.4083531 10.0450547,39.3083531 9.76306864,39.1083531 C9.07824543,38.8083531 8.63512454,38.0983531 8.6552664,37.3283531 L8.6552664,37.3283531 L8.65599309,37.2642974 C8.67145182,36.6512995 8.99192318,35.0529959 14.8186752,32.4783531 C16.1883216,29.9283531 17.3061948,27.2583531 18.1622238,24.4883531 C17.4069041,22.9283531 15.7452007,19.1283531 16.9335704,17.1483531 C17.3162657,16.4283531 18.0816564,16.0183531 18.8772598,16.0983531 Z M12.9851317,35.6738049 C12.0312135,36.0938049 11.2059136,36.7538049 10.584259,37.5738049 L10.7986227,37.4938049 C11.7311044,37.1538049 12.5028135,36.5138049 12.9851317,35.6738049 Z M19.4851232,27.5826183 L19.3193905,27.6226183 C18.7496845,29.1226183 18.0971122,30.5726183 17.4031067,31.9926183 L17.5274062,32.0326183 C18.9672086,31.5326183 20.4380859,31.1126183 21.9296798,30.7826183 L22.0539793,30.6926183 C21.0906583,29.7526183 20.2205618,28.7026183 19.4851232,27.5826183 Z M26.2591248,31.1451965 C26.8693902,31.4351965 27.5322647,31.6051965 28.205661,31.6251965 C28.6370555,31.6951965 29.0789718,31.6551965 29.4893227,31.5051965 C29.5734973,31.3051965 29.2894082,31.0251965 28.0057465,31.0251965 C27.4165247,30.9951965 26.8378247,31.0451965 26.2591248,31.1451965 Z M19.0478275,18.2310804 L18.8099253,18.2310804 C18.6909743,18.2210804 18.5839183,18.2510804 18.4887574,18.3210804 C18.1913798,19.4410804 18.3579113,20.6110804 18.9526666,21.6310804 C19.4522611,20.5410804 19.4879464,19.3410804 19.0478275,18.2310804 Z" id="路径-219" fill="#FFFFFF"></path>
            </g>
        </g>
    </g>
</svg>