<?xml version="1.0" encoding="UTF-8"?><svg version="1.1" width="16px" height="16px" viewBox="0 0 16.0 16.0" xmlns="http://www.w3.org/2000/svg" xmlns:xlink="http://www.w3.org/1999/xlink"><defs><clipPath id="i0"><path d="M375,0 L375,812 L0,812 L0,0 L375,0 Z"></path></clipPath><clipPath id="i1"><path d="M5.86690909,6.31127272 C6.41079906,6.31165364 6.94756805,6.43496879 7.43709092,6.672 C6.35345455,7.38618181 5.63490909,8.59781817 5.63490909,9.97672727 L5.63490909,10.1636364 C5.63167541,10.3888641 5.67629543,10.6122121 5.76581819,10.8189091 L3.13480023,10.8185884 C1.36862452,10.8145794 0,10.7604579 0,10.0298182 L0,9.80436364 C0,7.87490908 1.59636364,6.31127272 3.56581819,6.31127272 Z M11.5869091,7.07709091 C13.2210909,7.07709091 14.5454545,8.37527272 14.5454545,9.97672727 L14.5454545,10.1636364 C14.5454545,10.7941818 13.2210909,10.8181818 11.5869091,10.8181818 L9.47441436,10.8181345 C7.93405809,10.8170454 6.71709092,10.7909091 6.71709092,10.1636364 L6.71709092,9.97672727 C6.71709092,8.37527272 8.04218183,7.07709091 9.67709092,7.07709091 Z M10.5352727,1.83781817 L10.6922312,1.84299731 C11.8850695,1.92198358 12.8261818,2.89457576 12.8261818,4.08290909 C12.8261818,5.32290909 11.8007273,6.328 10.5352727,6.328 C9.27054545,6.328 8.24436364,5.32290911 8.24436364,4.08290909 C8.24436364,2.84290908 9.27054547,1.83781817 10.5352727,1.83781817 Z M4.60072728,0 C6.12581819,0 7.36145455,1.21090909 7.36145455,2.70472727 C7.36145455,4.19854544 6.12509091,5.40945455 4.60072728,5.40945455 C3.07636366,5.40945455 1.84072728,4.19854545 1.84072728,2.70472727 C1.84072728,1.21090908 3.07636364,0 4.60072728,0 Z"></path></clipPath></defs><g transform="translate(-34.0 -766.0)"><g clip-path="url(#i0)"><g transform="translate(16.0 640.0)"><g transform="translate(18.0 126.0)"><g transform="translate(0.7287272656249986 2.466909093750001)"><g clip-path="url(#i1)"><polygon points="0,0 14.5454545,0 14.5454545,10.8189091 0,10.8189091 0,0" stroke="none" fill="#FF5757"></polygon></g></g></g></g></g></g></svg>