<?xml version="1.0" encoding="UTF-8"?><svg version="1.1" width="20px" height="23px" viewBox="0 0 20.0 23.0" xmlns="http://www.w3.org/2000/svg" xmlns:xlink="http://www.w3.org/1999/xlink"><defs><clipPath id="i0"><path d="M20,0 L20,23 L0,23 L0,0 L20,0 Z"></path></clipPath><clipPath id="i1"><path d="M12.7781276,0 C18.8824963,6.07752335 19.8959766,6.78903396 19.9862156,7.0830678 L19.9920978,7.10956142 C19.9978176,7.15218237 19.9841769,7.18838645 19.9670742,7.23705083 L19.9670742,20.9914458 C19.9670742,22.0909977 19.0772046,22.9906311 17.9773657,22.9906311 L1.99970698,22.9906311 C0.889869605,22.9906311 0,22.0909977 0,20.9914458 L0,1.99918531 C0,0.899633391 0.889869605,0 1.99970698,0 Z"></path></clipPath><linearGradient id="i2" x1="9.99671089px" y1="0px" x2="9.99671089px" y2="22.9906311px" gradientUnits="userSpaceOnUse"><stop stop-color="#FFA341" offset="0%"></stop><stop stop-color="#FF8D41" offset="100%"></stop></linearGradient><clipPath id="i3"><path d="M0.12,0 L7.14,7.02 L0,7.18 L0.12,0 Z"></path></clipPath></defs><g clip-path="url(#i0)"><g transform="translate(0.0 0.009368896484375)"><g clip-path="url(#i1)"><polygon points="0,0 19.9934218,0 19.9934218,22.9906311 0,22.9906311 0,0" stroke="none" fill="url(#i2)"></polygon></g></g><g transform="translate(12.859375 0.0)"><g clip-path="url(#i3)"><polygon points="0,0 7.14,0 7.14,7.18 0,7.18 0,0" stroke="none" fill="#FFFFFF" opacity="50%"></polygon></g></g><g transform="translate(6.0 6.009368896484375)"><text transform="translate(0.0 13.0)" font-family="PingFangSC-Regular, PingFang SC" font-size="12.0" font-weight="normal" fill="#FFFFFF" text-anchor="left" line-spacing="17.0">P</text></g></g></svg>