<?xml version="1.0" encoding="UTF-8"?><svg version="1.1" width="18px" height="18px" viewBox="0 0 18.0 18.0" xmlns="http://www.w3.org/2000/svg" xmlns:xlink="http://www.w3.org/1999/xlink"><defs><clipPath id="i0"><path d="M375,0 L375,812 L0,812 L0,0 L375,0 Z"></path></clipPath><clipPath id="i1"><path d="M8.35714285,0 C12.9728571,0 16.7142857,3.74142857 16.7142857,8.35714285 C16.7142857,12.9728571 12.9728571,16.7142857 8.35714285,16.7142857 C3.74142857,16.7142857 0,12.9728571 0,8.35714285 C0,3.74142857 3.74142857,0 8.35714285,0 Z M8.35714285,6.10714285 C6.40992857,6.10714285 4.82142857,7.69564285 4.82142857,9.64285713 C4.82142857,11.5900714 6.40992857,13.1785714 8.35714285,13.1785714 C10.3043571,13.1785714 11.8928571,11.5900714 11.8928571,9.64285713 C11.8928571,7.69564285 10.3043571,6.10714285 8.35714285,6.10714285 Z M8.62039285,7.92064285 L9.04082142,8.74607142 L9.98260713,8.87560713 C10.2879643,8.92189285 10.3782857,9.11571428 10.18125,9.3162857 L9.46125,9.99257142 L9.62967857,10.899 C9.68014285,11.2062857 9.49467857,11.3361428 9.20892857,11.1902143 L8.3510357,10.7691428 L7.50985713,11.1902143 C7.2237857,11.3358214 7.03896428,11.2062857 7.08942857,10.899 L7.2575357,9.99257142 L6.56807142,9.34489285 C6.33246427,9.13467857 6.39964285,8.92414285 6.73617857,8.87560713 L7.67796428,8.74607142 L8.0990357,7.92064285 C8.25010713,7.6455 8.46867855,7.6455 8.62039285,7.92064285 Z M6.56935713,3.85714285 L4.11621428,4.04485713 C4.04357143,4.04485713 3.97092857,4.08246428 3.91660713,4.1390357 C3.8802857,4.1952857 3.84396428,4.27049998 3.86196428,4.34539285 C3.86196428,4.40196428 3.89828572,4.45821428 3.93460713,4.51446428 L5.22482142,6.75 C6.09717857,5.73557143 7.69596427,5.51025 7.7142857,5.51025 L6.86025,4.04485713 C6.80783083,3.93122268 6.69449572,3.8580871 6.56935713,3.85714285 Z M9.90064285,4.04517857 L9,5.4530357 L9.12632142,5.47971428 C9.51846427,5.56939285 10.7292857,5.90464285 11.4319286,6.75 L12.7832143,4.60092857 C12.8192143,4.56396428 12.8552143,4.50835713 12.8552143,4.45307142 C12.8732143,4.28592857 12.7652143,4.13807142 12.6028928,4.11942857 L10.1889643,3.8600357 C10.059845,3.83985814 9.93601948,3.91937154 9.90064285,4.04517857 Z"></path></clipPath></defs><g transform="translate(-16.0 -523.0)"><g clip-path="url(#i0)"><g transform="translate(16.0 523.0)"><g transform="translate(0.6428571503906255 0.6428571503906237)"><g clip-path="url(#i1)"><polygon points="0,0 16.7142857,0 16.7142857,16.7142857 0,16.7142857 0,0" stroke="none" fill="#FF6330"></polygon></g></g></g></g></g></svg>