<svg xmlns="http://www.w3.org/2000/svg" width="18" height="18" viewBox="0 0 18 18"><defs><style>.a{fill:#fff;stroke:#ff5757;}.b{fill:#ff5757;}.c{stroke:none;}.d{fill:none;}</style></defs><g transform="translate(-50 -120)"><g class="a" transform="translate(50 120)"><circle class="c" cx="9" cy="9" r="9"/><circle class="d" cx="9" cy="9" r="8.5"/></g><g transform="translate(-13.98 59.451)"><path class="b" d="M473.914,272.31a.706.706,0,0,0-.754-.623s-.732-.059-.784.626a28.634,28.634,0,0,0,.307,5.688.468.468,0,0,0,.477.315v-.005a.463.463,0,0,0,.446-.313A28.634,28.634,0,0,0,473.914,272.31Z" transform="translate(-400.265 -207.137)"/><path class="b" d="M467.828,654.868a.9.9,0,1,1-.9.9A.9.9,0,0,1,467.828,654.868Z" transform="translate(-394.948 -582.691)"/></g></g></svg>