<svg xmlns="http://www.w3.org/2000/svg" width="20.071" height="20.071" viewBox="0 0 20.071 20.071"><defs><style>.a{opacity:0;}.b{fill:#ebebeb;}.c,.f{fill:none;}.c{stroke:#50e3c2;stroke-miterlimit:10;stroke-width:0.1px;}.d{fill:#ff5757;}.e{stroke:none;}</style></defs><g transform="translate(-15.965 -403.965)"><g class="a" transform="translate(16 404)"><rect class="b" width="20" height="20"/><g class="c" transform="translate(2.222 2.222)"><rect class="e" width="15.556" height="15.556"/><rect class="f" x="0.05" y="0.05" width="15.456" height="15.456"/></g><g class="c" transform="translate(1.111 1.111)"><rect class="e" width="17.778" height="17.778" rx="8"/><rect class="f" x="0.05" y="0.05" width="17.678" height="17.678" rx="7.95"/></g><g class="c" transform="translate(3.333 1.111)"><rect class="e" width="13.333" height="17.778"/><rect class="f" x="0.05" y="0.05" width="13.233" height="17.678"/></g><g class="c" transform="translate(1.111 3.333)"><rect class="e" width="17.778" height="13.333"/><rect class="f" x="0.05" y="0.05" width="17.678" height="13.233"/></g><path class="c" d="M.889,0V20" transform="translate(9.111)"/><path class="c" d="M0,.889H20" transform="translate(0 9.111)"/><g class="c" transform="translate(4.444 4.444)"><rect class="e" width="11.111" height="11.111"/><rect class="f" x="0.05" y="0.05" width="11.011" height="11.011"/></g><path class="c" d="M0,0,20,20"/><path class="c" d="M0,20,20,0"/></g><g transform="translate(-35.84 356.81)"><path class="d" d="M60.268,47.94h-6.78a.849.849,0,0,0-.848.848v6.78a.849.849,0,0,0,.848.848h6.78a.849.849,0,0,0,.848-.848v-6.78A.849.849,0,0,0,60.268,47.94Zm.109,7.628a.11.11,0,0,1-.109.109h-6.78a.11.11,0,0,1-.11-.109v-6.78a.11.11,0,0,1,.11-.109h6.78a.11.11,0,0,1,.109.109v6.78Z" transform="translate(0 0)"/><path class="d" d="M181.478,173.887h-2.357a.536.536,0,0,0-.535.535v2.357a.536.536,0,0,0,.535.536h2.357a.536.536,0,0,0,.536-.536v-2.357A.536.536,0,0,0,181.478,173.887Zm-.2,2.69h-1.951v-1.951h1.951Z" transform="translate(-123.422 -123.423)"/><path class="d" d="M181.478,675.606h-2.357a.536.536,0,0,0-.535.536V678.5a.536.536,0,0,0,.535.535h2.357a.536.536,0,0,0,.536-.535v-2.357A.536.536,0,0,0,181.478,675.606Zm-.2,2.69h-1.951v-1.951h1.951Z" transform="translate(-123.422 -615.088)"/><path class="d" d="M672.94,177.315H675.3a.536.536,0,0,0,.536-.536v-2.357a.536.536,0,0,0-.536-.535H672.94a.536.536,0,0,0-.536.535v2.357A.536.536,0,0,0,672.94,177.315Zm.2-2.69h1.951v1.951h-1.951Z" transform="translate(-607.345 -123.423)"/><path class="d" d="M60.268,546.435h-6.78a.849.849,0,0,0-.848.848v6.78a.849.849,0,0,0,.848.848h6.78a.849.849,0,0,0,.848-.848v-6.78A.849.849,0,0,0,60.268,546.435Zm.109,7.628a.11.11,0,0,1-.109.109h-6.78a.11.11,0,0,1-.11-.109v-6.78a.11.11,0,0,1,.11-.109h6.78a.11.11,0,0,1,.109.109v6.78Z" transform="translate(0 -488.505)"/><path class="d" d="M549.4,547.776a.849.849,0,0,0-.848.848v3.9a.369.369,0,0,0,.738,0v-3.9a.11.11,0,0,1,.109-.11h4.1a.369.369,0,0,0,0-.738Z" transform="translate(-485.971 -489.82)"/><path class="d" d="M547.3,56.416h6.78a.849.849,0,0,0,.848-.848v-6.78a.849.849,0,0,0-.848-.848H547.3a.849.849,0,0,0-.848.848v6.78A.849.849,0,0,0,547.3,56.416Zm-.109-7.628a.11.11,0,0,1,.109-.109h6.78a.11.11,0,0,1,.109.109v6.78a.11.11,0,0,1-.109.109H547.3a.11.11,0,0,1-.109-.109Z" transform="translate(-483.921 0)"/><path class="d" d="M765.465,548.146a.369.369,0,0,0-.369-.369h-1.353a.369.369,0,1,0,0,.738h.984v1.423h-3.069a.369.369,0,1,0,0,.738H765.1a.369.369,0,0,0,.369-.369s0,0,0,0,0,0,0,0Z" transform="translate(-694.447 -489.82)"/><path class="d" d="M550.186,864.828h-.9V863.8a.369.369,0,0,0-.738,0v1.4a.369.369,0,0,0,.369.369h1.267a.369.369,0,1,0,0-.738Z" transform="translate(-485.971 -799.149)"/><path class="d" d="M683.909,772.309a.369.369,0,0,0-.369-.369h-2.332a.369.369,0,0,0-.369.369v3.267a.369.369,0,0,0,.738,0v-2.9h1.963A.369.369,0,0,0,683.909,772.309Z" transform="translate(-615.609 -709.491)"/><path class="d" d="M751.6,723.425a.369.369,0,0,0-.369.369v3.894h-3.341a.369.369,0,0,0,0,.738h3.71a.369.369,0,0,0,.369-.369v-4.263A.369.369,0,0,0,751.6,723.425Z" transform="translate(-680.959 -661.948)"/><path class="d" d="M637.929,623.62a.369.369,0,0,0-.369.369v1.2a.369.369,0,0,0,.738,0v-1.2A.369.369,0,0,0,637.929,623.62Z" transform="translate(-573.198 -564.144)"/></g></g></svg>