<svg xmlns="http://www.w3.org/2000/svg" width="18" height="18" viewBox="0 0 18 18"><defs><style>.a{fill:#999;}</style></defs><path class="a" d="M119.54,121.658V119.54h2.118v2.118Zm6.353,4.235v2.118h2.118v-2.118Zm0,8.471h2.118v-2.118h-2.118Zm4.235-6.353h-2.118v4.235h2.118Zm2.118,4.235h-2.118v2.118h4.235v-4.235h-2.118v2.118Zm0-4.235h2.118v-2.118h-2.118Zm-9.529-11.647h2.118v8.471h-8.471v-8.471h6.353Zm0,2.118h-4.235v4.235h4.235v-4.235Zm-1.059,12.706V129.07H119.54v2.118Zm1.059-5.294h2.118v8.471h-8.471v-8.471h6.353Zm0,2.118h-4.235v4.235h4.235v-4.235Zm8.471-6.353V119.54H129.07v2.118Zm3.176-5.294v8.471h-8.471v-8.471h8.471Zm-2.118,2.118h-4.235v4.235h4.235v-4.235Z" transform="translate(-116.364 -116.364)"/></svg>