<?xml version="1.0" encoding="UTF-8"?><svg version="1.1" width="14px" height="14px" viewBox="0 0 14.0 14.0" xmlns="http://www.w3.org/2000/svg" xmlns:xlink="http://www.w3.org/1999/xlink"><defs><clipPath id="i0"><path d="M375,0 L375,812 L0,812 L0,0 L375,0 Z"></path></clipPath><clipPath id="i1"><path d="M6.63541666,0 C7.53670139,0 8.27684938,0.71229187 8.31133332,1.61291666 L8.3125,1.67708334 L8.3125,2.625 L11.59375,2.625 C12.4950347,2.62496705 13.2351827,3.33729187 13.2696667,4.23791666 L13.2708333,4.30208334 L13.2708333,5.76041666 C13.2708333,5.89578758 13.2170574,6.02561406 13.1213357,6.12133575 C13.0256141,6.21705745 12.8957876,6.27083334 12.7604167,6.27083334 L12.3958333,6.27083334 L12.3958333,11.0104167 C12.3958663,11.9117014 11.6835415,12.6518494 10.7829167,12.6863333 L10.71875,12.6875 L2.55208332,12.6875 C1.6507986,12.6875 0.910650604,11.9752081 0.876166662,11.0745833 L0.875,11.0104167 L0.875,6.27083334 L0.510416662,6.27083334 C0.244812618,6.27082342 0.0236054114,6.06711999 0.00175,5.80241666 L0,5.76041666 L0,4.30208334 C0,3.37585579 0.750855778,2.62500001 1.67708332,2.625 L4.95833332,2.625 L4.95833332,1.67708334 C4.95833332,0.750855786 5.70918911,0 6.63541666,0 Z M11.375,6.27083334 L1.89583332,6.27083334 L1.89583332,11.0104167 C1.89583332,11.3554518 2.16294069,11.6415926 2.50716666,11.6652083 L2.55208332,11.6666667 L4.38025,11.6666667 C4.37877014,11.656399 4.37760294,11.6460887 4.37675,11.63575 L4.375,11.59375 L4.375,9.84375 C4.37512311,9.57011948 4.59099994,9.34526363 4.86439839,9.33399592 C5.13779685,9.32272821 5.37144433,9.52905759 5.39408332,9.80175 L5.39583332,9.84375 L5.39583332,11.59375 C5.39583332,11.6185417 5.39408332,11.6433333 5.39058332,11.6669583 L7.88025,11.6669583 C7.87876424,11.6565938 7.87759702,11.6461861 7.87675,11.63575 L7.875,11.59375 L7.875,9.84375 C7.87512311,9.57011948 8.09099994,9.34526363 8.36439839,9.33399592 C8.63779685,9.32272821 8.87144433,9.52905759 8.89408332,9.80175 L8.89583332,9.84375 L8.89583332,11.59375 C8.89583332,11.6185417 8.89408332,11.6433333 8.89058332,11.6669583 L10.71875,11.6666667 C11.0637851,11.666709 11.3499259,11.3995593 11.3735417,11.0553333 L11.375,11.0104167 L11.375,6.27083334 Z M11.59375,3.64583334 L1.67708332,3.64583334 C1.31464646,3.64583334 1.02083332,3.93964647 1.02083332,4.30208334 L1.02083332,5.25 L12.25,5.25 L12.25,4.30208334 C12.25,3.95704824 11.9828926,3.67090739 11.6386667,3.64729166 L11.59375,3.64583334 Z M6.63541666,1.02083334 C6.29038157,1.02079095 6.00424074,1.2879407 5.980625,1.63216666 L5.97916666,1.67708334 L5.97916666,2.625 L7.29166666,2.625 L7.29166666,1.67708334 C7.29166666,1.31464647 6.99785353,1.02083334 6.63541666,1.02083334 Z"></path></clipPath></defs><g transform="translate(-285.0 -103.0)"><g clip-path="url(#i0)"><g transform="translate(285.0 103.0)"><g transform="translate(0.36458333789062447 0.65625)"><g clip-path="url(#i1)"><polygon points="0,0 13.2708333,0 13.2708333,12.6875 0,12.6875 0,0" stroke="none" fill="#333333"></polygon></g></g></g></g></g></svg>