<?xml version="1.0" encoding="UTF-8"?><svg version="1.1" width="28px" height="28px" viewBox="0 0 28.0 28.0" xmlns="http://www.w3.org/2000/svg" xmlns:xlink="http://www.w3.org/1999/xlink"><defs><clipPath id="i0"><path d="M375,0 L375,812 L0,812 L0,0 L375,0 Z"></path></clipPath><clipPath id="i1"><path d="M24.040625,0 C24.9839844,0.0328125 25.7386719,0.806640625 25.7386719,1.75820312 L25.7386719,20.8851562 C25.6894531,21.7546875 25.0113281,22.4546875 24.1527344,22.5367187 L16.7125,22.5367187 L13.825,24.2046875 C13.5625,24.3304687 13.278125,24.3851562 12.99375,24.3742188 C13.5515625,24.3441406 13.9917969,23.8847656 13.9917969,23.31875 L13.9917969,1.39726563 L15.8539063,0.196875 C16.0261719,0.073828125 16.2394531,0 16.4664062,0 L24.040625,0 Z M9.27226562,0 C9.49921875,0 9.7125,0.073828125 9.88476562,0.196875 L11.746875,1.39726563 L11.746875,23.31875 C11.746875,23.8847656 12.1898437,24.3441406 12.7476562,24.3742188 C12.4632812,24.3851562 12.1789063,24.3304687 11.9164062,24.2046875 L9.02890625,22.5367187 L1.5859375,22.5367187 C0.72734375,22.4546875 0.04921875,21.7546875 -1.77635684e-15,20.8851562 L-1.77635684e-15,1.75820312 C-1.77635684e-15,0.806640625 0.7546875,0.0328125 1.69804687,0 Z"></path></clipPath><clipPath id="i2"><path d="M4.165,0 C4.62615777,-8.47133073e-17 5,0.373842234 5,0.835 C5,1.29615777 4.62615777,1.67 4.165,1.67 L0.835,1.67 C0.373842234,1.67 5.64755382e-17,1.29615777 0,0.835 C-5.64755382e-17,0.373842234 0.373842234,-2.63089951e-17 0.835,0 L4.165,0 Z"></path></clipPath><clipPath id="i3"><path d="M6.165,0 C6.62615777,2.63089951e-17 7,0.373842234 7,0.835 C7,1.29615777 6.62615777,1.67 6.165,1.67 L0.835,1.67 C0.373842234,1.67 5.64755382e-17,1.29615777 0,0.835 C-5.64755382e-17,0.373842234 0.373842234,1.9573561e-16 0.835,0 L6.165,0 Z"></path></clipPath></defs><g transform="translate(-42.0 -116.0)"><g clip-path="url(#i0)"><g transform="translate(28.0 116.0)"><g transform="translate(14.0 0.0)"><g transform="translate(1.1976562500000014 1.9824218749999982)"><g clip-path="url(#i1)"><polygon points="-1.77635684e-15,0 25.7386719,0 25.7386719,24.3755828 -1.77635684e-15,24.3755828 -1.77635684e-15,0" stroke="none" fill="#FFD2D2"></polygon></g><path d="M13.9917969,23.31875 L13.9917969,1.39726563 L15.8539063,0.196875 C16.0261719,0.073828125 16.2394531,0 16.4664062,0 L24.040625,0 C24.9839844,0.0328125 25.7386719,0.806640625 25.7386719,1.75820312 L25.7386719,20.8851562 C25.6894531,21.7546875 25.0113281,22.4546875 24.1527344,22.5367187 L16.7125,22.5367187 L13.825,24.2046875 C13.5625,24.3304687 13.278125,24.3851562 12.99375,24.3742188 C13.5515625,24.3441406 13.9917969,23.8847656 13.9917969,23.31875 Z M11.746875,23.31875 L11.746875,1.39726563 L9.88476562,0.196875 C9.7125,0.073828125 9.49921875,0 9.27226562,0 L1.69804687,0 C0.7546875,0.0328125 -1.77635684e-15,0.806640625 -1.77635684e-15,1.75820312 L-1.77635684e-15,20.8851562 C0.04921875,21.7546875 0.72734375,22.4546875 1.5859375,22.5367187 L9.02890625,22.5367187 L11.9164062,24.2046875 C12.1789063,24.3304687 12.4632812,24.3851562 12.7476562,24.3742188 C12.1898437,24.3441406 11.746875,23.8847656 11.746875,23.31875 Z" stroke="#FF5757" stroke-width="1" fill="none" stroke-miterlimit="10"></path></g><g transform="translate(6.0 7.000000000000036)"><g clip-path="url(#i2)"><polygon points="0,0 5,0 5,1.67 0,1.67 0,0" stroke="none" fill="#FF5757"></polygon></g></g><g transform="translate(4.0 12.000000000000039)"><g clip-path="url(#i3)"><polygon points="0,0 7,0 7,1.67 0,1.67 0,0" stroke="none" fill="#FF5757"></polygon></g></g><g transform="translate(6.0 16.00000000000004)"><g clip-path="url(#i2)"><polygon points="0,0 5,0 5,1.67 0,1.67 0,0" stroke="none" fill="#FF5757"></polygon></g></g></g></g></g></g></svg>