<?xml version="1.0" encoding="UTF-8"?><svg version="1.1" width="55px" height="45px" viewBox="0 0 55.0 45.0" xmlns="http://www.w3.org/2000/svg" xmlns:xlink="http://www.w3.org/1999/xlink"><defs><clipPath id="i0"><path d="M375,0 L375,898 L0,898 L0,0 L375,0 Z"></path></clipPath><clipPath id="i1"><path d="M20.24,0 C31.42,0 40.49,9.28 40.49,20.74 C40.49,32.19 31.42,41.47 20.24,41.47 C9.06,41.47 0,32.19 0,20.74 C0,9.28 9.06,0 20.24,0 Z"></path></clipPath><clipPath id="i2"><path d="M1.82,0 L2.57,1.1 L3.84,1.33 L3.08,2.42 L3.28,3.76 L2.05,3.33 L0.9,3.93 L0.91,2.57 L0,1.61 L1.23,1.2 L1.82,0 Z"></path></clipPath><clipPath id="i3"><path d="M12.95,0 C20.1,0 25.9,6.02 25.9,13.44 C25.9,20.87 20.1,26.88 12.95,26.88 C5.8,26.88 0,20.87 0,13.44 C0,6.02 5.8,0 12.95,0 Z"></path></clipPath><clipPath id="i4"><path d="M43.6101697,0 C45.7901697,-0.0198321644 47.5401697,1.75016784 47.5203395,3.95016784 L47.4201697,15.8001678 C47.4001697,18.0001678 45.6201697,19.7901678 43.4401697,19.8101678 L3.91016973,20.1403357 C1.73016973,20.1601678 -0.019830266,18.3901678 0,16.2001678 L0.100169734,4.35016784 C0.120169734,2.15016784 1.90016973,0.350167836 4.07016973,0.330167836 Z"></path></clipPath><clipPath id="i5"><path d="M1.82,0 L2.57,1.1 L3.84,1.33 L3.08,2.42 L3.28,3.76 L2.05,3.33 L0.9,3.93 L0.91,2.57 L0,1.61 L1.23,1.2 L1.82,0 Z"></path></clipPath></defs><g transform="translate(-258.0 -588.0)"><g clip-path="url(#i0)"><g transform="translate(260.0000000000001 590.0)"><g transform="translate(5.369268418708089 0.0)"><g clip-path="url(#i1)"><path d="M20.24,0 C9.06,0 0,9.28 0,20.74 C0,32.19 9.06,41.47 20.24,41.47 C31.42,41.47 40.49,32.19 40.49,20.74 C40.49,9.28 31.42,0 20.24,0 Z" stroke="#FF5757" stroke-width="2" fill="none" stroke-miterlimit="5"></path></g></g><g transform="translate(8.384893418708089 2.094665527343751)"><g transform="translate(0.0 10.56466674804688)"><g clip-path="url(#i2)"><polygon points="0,0 3.84,0 3.84,3.93 0,3.93 0,0" stroke="none" fill="#FF5757"></polygon></g></g><g transform="translate(3.84429931640625 4.758514404296875)"><g clip-path="url(#i2)"><polygon points="0,0 3.84,0 3.84,3.93 0,3.93 0,0" stroke="none" fill="#FF5757"></polygon></g></g><g transform="translate(9.98260498046875 0.8294372558593748)"><g clip-path="url(#i2)"><polygon points="0,0 3.84,0 3.84,3.93 0,3.93 0,0" stroke="none" fill="#FF5757"></polygon></g></g><g transform="translate(17.4476318359375 0.0)"><g clip-path="url(#i2)"><polygon points="0,0 3.84,0 3.84,3.93 0,3.93 0,0" stroke="none" fill="#FF5757"></polygon></g></g></g><g transform="translate(12.664190293708092 7.294525146484373)"><g clip-path="url(#i3)"><path d="M12.95,0 C5.8,0 0,6.02 0,13.44 C0,20.87 5.8,26.88 12.95,26.88 C20.1,26.88 25.9,20.87 25.9,13.44 C25.9,6.02 20.1,0 12.95,0 Z" stroke="#FF5757" stroke-width="2" fill="none" stroke-miterlimit="5"></path></g></g><g transform="translate(0.0 0.1334077362962489)"><g transform="translate(7.247535904753022e-13 23.760170053792766) rotate(-30.000000445292045)"><path d="M0.100169734,4.35016784 L0,16.2001678 C-0.019830266,18.3901678 1.73016973,20.1601678 3.91016973,20.1403357 L43.4401697,19.8101678 C45.6201697,19.7901678 47.4001697,18.0001678 47.4201697,15.8001678 L47.5203395,3.95016784 C47.5401697,1.75016784 45.7901697,-0.0198321644 43.6101697,0 L4.07016973,0.330167836 C1.90016973,0.350167836 0.120169734,2.15016784 0.100169734,4.35016784 Z" stroke="#FFFFFF" stroke-width="2" fill="none" stroke-miterlimit="5"></path><g clip-path="url(#i4)"><polygon points="-0.000166879206,-0.000165044109 47.5205063,-0.000165044109 47.5205063,20.1405007 -0.000166879206,20.1405007 -0.000166879206,-0.000165044109" stroke="none" fill="#FFFFFF"></polygon></g></g><g transform="translate(7.247535904753022e-13 23.760200571370895) rotate(-30.000000445292045)"><g clip-path="url(#i4)"><polygon points="-0.000166879206,-0.000165044109 47.5205063,-0.000165044109 47.5205063,20.1405007 -0.000166879206,20.1405007 -0.000166879206,-0.000165044109" stroke="none" fill="#FFFFFF"></polygon><path d="M43.4401697,19.8101678 C45.6201697,19.7901678 47.4001697,18.0001678 47.4201697,15.8001678 L47.5203395,3.95016784 C47.5401697,1.75016784 45.7901697,-0.0198321644 43.6101697,0 L4.07016973,0.330167836 C1.90016973,0.350167836 0.120169734,2.15016784 0.100169734,4.35016784 L0,16.2001678 C-0.019830266,18.3901678 1.73016973,20.1601678 3.91016973,20.1403357 L43.4401697,19.8101678 Z" stroke="#FF5757" stroke-width="2" fill="none" stroke-miterlimit="5"></path></g></g><g transform="translate(7.23864303445724 20.765724438604853) rotate(-30.000000445292045)"><text transform="translate(0.0 12.0)" font-family="PingFangSC-Regular, PingFang SC" font-size="11.0" font-weight="normal" fill="#FF5757" text-anchor="right">已签到</text></g></g><g transform="translate(43.321416855780626 39.59548950195313) rotate(180.0)"><g transform="translate(0.0 10.56467914581299)"><g clip-path="url(#i2)"><polygon points="0,0 3.84,0 3.84,3.93 0,3.93 0,0" stroke="none" fill="#FF5757"></polygon></g></g><g transform="translate(3.8443157668607455 4.758515357971191)"><g clip-path="url(#i2)"><polygon points="0,0 3.84,0 3.84,3.93 0,3.93 0,0" stroke="none" fill="#FF5757"></polygon></g></g><g transform="translate(9.982584952880643 0.8294520378112791)"><g clip-path="url(#i2)"><polygon points="0,0 3.84,0 3.84,3.93 0,3.93 0,0" stroke="none" fill="#FF5757"></polygon></g></g><g transform="translate(17.447652816345105 0.0)"><g clip-path="url(#i5)"><polygon points="0,0 3.84,0 3.84,3.93 0,3.93 0,0" stroke="none" fill="#FF5757"></polygon></g></g></g></g></g></g></svg>