<?xml version="1.0" encoding="UTF-8"?><svg version="1.1" width="16px" height="16px" viewBox="0 0 16.0 16.0" xmlns="http://www.w3.org/2000/svg" xmlns:xlink="http://www.w3.org/1999/xlink"><defs><clipPath id="i0"><path d="M375,0 L375,812 L0,812 L0,0 L375,0 Z"></path></clipPath><clipPath id="i1"><path d="M14.8571429,0 C15.488,0 16,0.511428578 16,1.14285714 L16,12.5714286 C16,13.2022857 15.488,13.7142857 14.8571429,13.7142857 L4.13085714,13.7142857 L0,15.9931429 L0,1.14285714 C0,0.511428578 0.511428578,0 1.14285714,0 L14.8571429,0 Z M14.2857143,1.14285714 L1.71428572,1.14285714 C1.39885714,1.14285714 1.14285714,1.39885714 1.14285714,1.71428572 L1.14285714,13.7182857 L3.51485714,12.5714286 L14.2857143,12.5714286 C14.6011429,12.5714286 14.8571429,12.3154286 14.8571429,12 L14.8571429,1.71428572 C14.8571429,1.39885714 14.6011429,1.14285714 14.2857143,1.14285714 Z M6.28571428,8 C6.60114286,8 6.85714286,8.256 6.85714286,8.57142858 C6.85714286,8.88685714 6.60114286,9.14285714 6.28571428,9.14285714 L2.85714286,9.14285714 C2.54171428,9.14285714 2.28571428,8.88685714 2.28571428,8.57142858 C2.28571428,8.256 2.54171428,8 2.85714286,8 L6.28571428,8 Z M10.8571429,4.57142858 C11.1725714,4.57142858 11.4285714,4.82742858 11.4285714,5.14285714 C11.4285714,5.45828572 11.1725714,5.71428572 10.8571429,5.71428572 L2.85714286,5.71428572 C2.54171428,5.71428572 2.28571428,5.45828572 2.28571428,5.14285714 C2.28571428,4.82742858 2.54171428,4.57142858 2.85714286,4.57142858 L10.8571429,4.57142858 Z"></path></clipPath></defs><g transform="translate(-16.0 -448.0)"><g clip-path="url(#i0)"><g transform="translate(16.0 448.0)"><g transform=""><g clip-path="url(#i1)"><polygon points="0,0 16,0 16,15.9931429 0,15.9931429 0,0" stroke="none" fill="#FF5757"></polygon></g></g></g></g></g></svg>