<?xml version="1.0" encoding="UTF-8"?><svg version="1.1" width="22px" height="22px" viewBox="0 0 22.0 22.0" xmlns="http://www.w3.org/2000/svg" xmlns:xlink="http://www.w3.org/1999/xlink"><defs><clipPath id="i0"><path d="M375,0 L375,812 L0,812 L0,0 L375,0 Z"></path></clipPath><clipPath id="i1"><path d="M4.5,0 C6.99,0 9,2.01 9,4.5 C9,6.99 6.99,9 4.5,9 C2.01,9 0,6.99 0,4.5 C0,2.01 2.01,0 4.5,0 Z"></path></clipPath><clipPath id="i2"><path d="M4.35,0.15 C4.56,-0.05 4.89,-0.05 5.09,0.15 C5.3,0.36 5.3,0.69 5.09,0.89 L2.12,3.86 C1.91,4.06 1.58,4.06 1.38,3.86 L0.15,2.63 C-0.05,2.42 -0.05,2.09 0.15,1.89 C0.36,1.69 0.69,1.69 0.89,1.89 L1.75,2.75 Z"></path></clipPath><clipPath id="i3"><path d="M7.76,0 C10.37,0 12.45,2.09 12.45,4.65 C12.45,6.09 11.8,7.39 10.69,8.31 L10.43,8.51 C9.85,9.03 8.74,9.12 7.96,9.19 L7.24,9.29 C3.85,9.62 1.17,12.49 1.17,15.96 L1.17,15.99 C1.18,16.56 1.64,17.16 2.2,17.15 L7.96,17.15 C8.16,17.15 8.57,17.45 8.57,17.76 C8.57,18.06 8.16,18.37 7.96,18.37 L2.17,18.37 C0.96,18.36 -0.01,17.18 -7.66291769e-05,15.96 C-7.66291769e-05,12.69 2.02,9.81 5.02,8.64 L5.35,8.51 L5.02,8.31 C3.91,7.39 3.26,6.09 3.26,4.65 C3.26,2.09 5.35,0 7.76,0 Z M7.88013443,1.22443426 C5.99013443,1.22443426 4.42013443,2.74443426 4.42013443,4.64443426 C4.42013443,6.54443426 6.01013443,7.96443426 7.91013443,7.96443426 C9.80013443,7.96443426 11.3401344,6.54443426 11.3401344,4.64443426 C11.3401344,2.74443426 9.78013443,1.22443426 7.88013443,1.22443426 Z"></path></clipPath></defs><g transform="translate(-15.0 -405.0)"><g clip-path="url(#i0)"><g transform="translate(0.0 394.0)"><g opacity="60.0000024%"><g transform="translate(16.0 12.0)"><g transform="translate(0.9999028422307674 1.0)"><g transform="translate(9.000097157769277 10.0)"><g clip-path="url(#i1)"><polygon points="0,0 9,0 9,9 0,9 0,0" stroke="none" fill="#FF5757"></polygon></g></g><g transform="translate(11.00006664019115 13.0)"><g clip-path="url(#i2)"><polygon points="0,0 5.2475,0 5.2475,4.01 0,4.01 0,0" stroke="none" fill="#FFFFFF"></polygon></g></g><g clip-path="url(#i3)"><polygon points="-0.000152093607,0 12.45,0 12.45,18.37 -0.000152093607,18.37 -0.000152093607,0" stroke="none" fill="#FF5757"></polygon></g></g></g></g></g></g></g></svg>