<svg xmlns="http://www.w3.org/2000/svg" xmlns:xlink="http://www.w3.org/1999/xlink" width="21" height="21" viewBox="0 0 21 21" fill="none"><g opacity="1" transform="translate(0.035400390625 0.03533935546875)  rotate(0 10 10)"><g opacity="1" transform="translate(0 0)  rotate(0 10 10)"><g opacity="0" transform="translate(0 0)  rotate(0 10 10)"><path id="Rectangle" fill-rule="evenodd" style="fill:#EBEBEB" transform="translate(0 0)  rotate(0 10 10)" opacity="1" d="M0,20L20,20L20,0L0,0L0,20Z " /><rect  id="Rectangle 2" style="stroke:#50E3C2; stroke-width:0.10000000149011612; stroke-opacity:1; stroke-dasharray:0 0" transform="translate(2.222222328186035 2.222222328186035)  rotate(0 7.777777671813965 7.777777671813965)" x="0.05000000074505806" y="0.05000000074505806" rx="0"  width="15.455555342137814" height="15.455555342137814" /><rect  id="Rectangle 2" style="stroke:#50E3C2; stroke-width:0.10000000149011612; stroke-opacity:1; stroke-dasharray:0 0" transform="translate(1.1111111640930176 1.1111111640930176)  rotate(0 8.88888931274414 8.88888931274414)" x="0.05000000074505806" y="0.05000000074505806" rx="7.949999999254942"  width="17.677778623998165" height="17.677778623998165" /><rect  id="Rectangle 3" style="stroke:#50E3C2; stroke-width:0.10000000149011612; stroke-opacity:1; stroke-dasharray:0 0" transform="translate(3.3333334922790527 1.1111111640930176)  rotate(0 6.6666669845581055 8.88888931274414)" x="0.05000000074505806" y="0.05000000074505806" rx="0"  width="13.233333967626095" height="17.677778623998165" /><rect  id="Rectangle 4" style="stroke:#50E3C2; stroke-width:0.10000000149011612; stroke-opacity:1; stroke-dasharray:0 0" transform="translate(1.1111111640930176 3.3333334922790527)  rotate(0 8.88888931274414 6.6666669845581055)" x="0.05000000074505806" y="0.05000000074505806" rx="0"  width="17.677778623998165" height="13.233333967626095" /><path  id="Rectangle 5" style="stroke:#50E3C2; stroke-width:0.10000000149011612; stroke-opacity:1; stroke-dasharray:0 0" transform="translate(10.000000536441803 0)  rotate(0 0 10)" d="M0,0L0,20 " /><path  id="Rectangle 6" style="stroke:#50E3C2; stroke-width:0.10000000149011612; stroke-opacity:1; stroke-dasharray:0 0" transform="translate(0 10.000000536441803)  rotate(0 10 0)" d="M0,0L20,0 " /><rect  id="Rectangle 8" style="stroke:#50E3C2; stroke-width:0.10000000149011612; stroke-opacity:1; stroke-dasharray:0 0" transform="translate(4.44444465637207 4.44444465637207)  rotate(0 5.555555820465088 5.555555820465088)" x="0.05000000074505806" y="0.05000000074505806" rx="0"  width="11.01111163944006" height="11.01111163944006" /><path  id="Path 3" style="stroke:#50E3C2; stroke-width:0.10000000149011612; stroke-opacity:1; stroke-dasharray:0 0" transform="translate(0 0)  rotate(0 10 10)" d="M0,0L20,20 " /><path  id="Path 4" style="stroke:#50E3C2; stroke-width:0.10000000149011612; stroke-opacity:1; stroke-dasharray:0 0" transform="translate(0 0)  rotate(0 10 10)" d="M0,20L20,0 " /></g><g opacity="1" transform="translate(0.9999389648438068 0.47841037553928345)  rotate(0 7.223007202148395 8.980788403538952)"><path id="路径 36" fill-rule="evenodd" style="fill:#FF5757" transform="translate(0 0)  rotate(0 7.223007202148395 8.980788403538938)" opacity="0" d="M0,16.49C0,17.9 1.71,17.96 7.46,17.96L8.89,17.96C9.2,17.96 9.51,17.96 9.8,17.96C9.45,17.28 9.26,16.51 9.26,15.7C9.26,12.97 11.45,10.76 14.15,10.76C14.25,10.76 14.35,10.76 14.45,10.77C13.25,9.44 11.65,8.78 10.17,8.48C10.87,8.04 11.49,7.45 11.87,6.57C13.03,4.44 12.18,1.72 10.1,0.54L10.1,0.54C8.02,-0.64 5.32,0.17 4.24,2.38C3.16,4.59 3.93,7.3 6.17,8.48C3.32,9.07 0,11.05 0,16.49Z " /></g></g><g opacity="1" transform="translate(0.9999028422307674 1)  rotate(0 9.000048578884638 9.5)"><path id="椭圆 11" fill-rule="evenodd" style="fill:#FF5757" transform="translate(9.000097157769277 10)  rotate(0 4.5 4.5)" opacity="1" d="M4.5,0C2.01,0 0,2.01 0,4.5C0,6.99 2.01,9 4.5,9C6.99,9 9,6.99 9,4.5C9,2.01 6.99,0 4.5,0Z " /><path id="路径 35" fill-rule="evenodd" style="fill:#FFFFFF" transform="translate(11.000066640191152 13)  rotate(0 2.6261978149414062 2.0067138671875)" opacity="1" d="M5.09 0.89L2.12 3.86C1.91 4.06 1.58 4.06 1.38 3.86L0.15 2.63C-0.05 2.42 -0.05 2.09 0.15 1.89C0.36 1.69 0.69 1.69 0.89 1.89L1.75 2.75L4.35 0.15C4.56 -0.05 4.89 -0.05 5.09 0.15C5.3 0.36 5.3 0.69 5.09 0.89ZM5.09 0.15C5.095 0.15 5.0975 0.1525 5.0975 0.15375C5.0975 0.155 5.095 0.155 5.09 0.15Z" /><path id="路径 49" fill-rule="evenodd" style="fill:#FF5757" transform="translate(0 0)  rotate(0 6.227167547861487 9.185455322265625)" opacity="1" d="M4.42013 4.64443C4.42013 6.54443 6.01013 7.96443 7.91013 7.96443C9.80013 7.96443 11.3401 6.54443 11.3401 4.64443C11.3401 2.74443 9.78013 1.22443 7.88013 1.22443C5.99013 1.22443 4.42013 2.74443 4.42013 4.64443Z M3.26 4.65C3.26 6.09 3.91 7.39 5.02 8.31L5.35 8.51L5.02 8.64C2.02 9.81 0 12.69 0 15.96C-0.01 17.18 0.96 18.36 2.17 18.37L7.96 18.37C8.16 18.37 8.57 18.06 8.57 17.76C8.57 17.45 8.16 17.15 7.96 17.15L2.2 17.15C1.64 17.16 1.18 16.56 1.17 15.99L1.17 15.96C1.17 12.49 3.85 9.62 7.24 9.29L7.96 9.19C8.74 9.12 9.85 9.03 10.43 8.51L10.69 8.31C11.8 7.39 12.45 6.09 12.45 4.65C12.45 2.09 10.37 0 7.76 0C5.35 0 3.26 2.09 3.26 4.65Z " /></g></g></svg>