<?xml version="1.0" encoding="UTF-8"?><svg version="1.1" width="18px" height="18px" viewBox="0 0 18.0 18.0"
    xmlns="http://www.w3.org/2000/svg" xmlns:xlink="http://www.w3.org/1999/xlink">
    <defs>
        <clipPath id="i0">
            <path d="M375,0 L375,812 L0,812 L0,0 L375,0 Z"></path>
        </clipPath>
        <clipPath id="i1">
            <path
                d="M8.35714285,0 C12.9728571,0 16.7142857,3.74142857 16.7142857,8.35714285 C16.7142857,12.9728571 12.9728571,16.7142857 8.35714285,16.7142857 C3.74142857,16.7142857 0,12.9728571 0,8.35714285 C0,3.74142857 3.74142857,0 8.35714285,0 Z">
            </path>
        </clipPath>
        <clipPath id="i2">
            <path
                d="M0.557393852,0.000355715949 C0.73697676,-0.00734328252 0.890073716,0.110860363 0.9,0.264876295 L0.9,0.844786801 C0.9,1.37269753 0.681259146,1.8 0,1.8 L0,0.000355715949 Z">
            </path>
        </clipPath>
        <clipPath id="i3">
            <path
                d="M0.597491154,0 L6.60250885,0 C6.95657768,0 7.15328258,0.118633475 7.19262357,0.355900425 L7.2,0.449563533 C7.2,0.749854511 7.00083628,0.9 6.60250885,0.9 L0.597491154,0.9 C0.243422322,0.9 0.0467174153,0.781366527 0.007376434,0.544099582 L0,0.450436475 C0,0.150145497 0.199163718,0 0.597491154,0 Z">
            </path>
        </clipPath>
        <clipPath id="i4">
            <path
                d="M6.60907128,0.000639298834 C6.75945551,-0.00658140861 6.90636574,0.0497138361 7.01727634,0.157061376 C7.12818694,0.264408916 7.19394795,0.413952738 7.2,0.572584132 L7.2,4.05755271 C7.2,5.78158715 5.8849892,7.20939927 4.16079914,7.46769694 L4.16079914,9.9 L3.03822894,9.9 L3.03822894,7.46769694 C1.31695464,7.20939928 0,5.78158715 0,4.05755271 L0,0.567459179 C0.0152064132,0.239066989 0.279495915,-0.0144399665 0.590928732,0.000639298834 Z">
            </path>
        </clipPath>
        <clipPath id="i5">
            <path
                d="M1.7953833,0 L2.35554289,1.18212158 L3.6,1.36877235 L2.70230835,2.29237187 L2.91878027,3.59356377 L1.8046167,2.98212158 L0.693530922,3.6 L0.901795385,2.29880811 L0,1.3794994 L1.24240525,1.18641239 L1.7953833,0 Z">
            </path>
        </clipPath>
        <clipPath id="i6">
            <path
                d="M0.9,0.000300705104 L0.9,1.8 C0.216422287,1.8 0,1.37268446 0,0.844757603 L0,0.26482937 C0.00994573827,0.111270923 0.162445776,-0.00675700741 0.341788857,0.000300705104 L0.9,0.000300705104 Z">
            </path>
        </clipPath>
    </defs>
    <g transform="translate(-16.0 -109.0)">
        <g clip-path="url(#i0)">
            <g transform="translate(16.0 109.0)">
                <g transform="translate(0.6428571503906255 0.6428571503906237)">
                    <g clip-path="url(#i1)">
                        <polygon points="0,0 16.7142857,0 16.7142857,16.7142857 0,16.7142857 0,0" stroke="none"
                            fill="#FFD03D"></polygon>
                    </g>
                </g>
                <g transform="translate(4.499999999999999 4.499999999999999)">
                    <g transform="translate(8.100000000000001 0.9000000000000908)">
                        <g clip-path="url(#i2)">
                            <polygon points="0,-1.11022302e-16 0.9,-1.11022302e-16 0.9,1.8 0,1.8 0,-1.11022302e-16"
                                stroke="none" fill="#FFFFFF"></polygon>
                        </g>
                    </g>
                    <g transform="translate(0.8999999999999986 9.0)">
                        <g clip-path="url(#i3)">
                            <polygon points="0,0 7.2,0 7.2,0.9 0,0.9 0,0" stroke="none" fill="#FFFFFF"></polygon>
                        </g>
                    </g>
                    <g transform="translate(0.8999999999999986 0.0)">
                        <g clip-path="url(#i4)">
                            <polygon points="0,-1.08420217e-19 7.2,-1.08420217e-19 7.2,9.9 0,9.9 0,-1.08420217e-19"
                                stroke="none" fill="#FFFFFF"></polygon>
                        </g>
                    </g>
                    <g transform="translate(2.700000000000003 1.7999999999999547)">
                        <g clip-path="url(#i5)">
                            <polygon points="0,0 3.6,0 3.6,3.6 0,3.6 0,0" stroke="none" fill="#FFD655"></polygon>
                        </g>
                    </g>
                    <g transform="translate(0.0 0.9000000000000908)">
                        <g clip-path="url(#i6)">
                            <polygon points="0,0 0.9,0 0.9,1.8 0,1.8 0,0" stroke="none" fill="#FFFFFF"></polygon>
                        </g>
                    </g>
                </g>
            </g>
        </g>
    </g>
</svg>