<?xml version="1.0" encoding="UTF-8"?><svg version="1.1" width="12px" height="12px" viewBox="0 0 12.0 12.0" xmlns="http://www.w3.org/2000/svg" xmlns:xlink="http://www.w3.org/1999/xlink"><defs><clipPath id="i0"><path d="M375,0 L375,812 L0,812 L0,0 L375,0 Z"></path></clipPath><clipPath id="i1"><path d="M5.25,0 C8.14921875,0 10.5,2.35078125 10.5,5.25 C10.5,8.14921875 8.14921875,10.5 5.25,10.5 C2.35078125,10.5 0,8.14921875 0,5.25 C0,2.35078125 2.35078125,0 5.25,0 Z M4.18007812,3.08789062 C4.11796875,3.04335937 4.03125,3.08789062 4.03125,3.1640625 L4.03125,3.71367187 C4.03125,3.834375 4.08867187,3.946875 4.1859375,4.0171875 L5.88984375,5.25 L4.1859375,6.4828125 C4.08867188,6.553125 4.03125,6.66679687 4.03125,6.78632812 L4.03125,7.3359375 C4.03125,7.41210937 4.11796875,7.45664062 4.18007813,7.41210937 L7.06289063,5.32617187 C7.11445313,5.28867187 7.11445313,5.21132812 7.06289063,5.17382812 Z"></path></clipPath></defs><g transform="translate(-204.0 -370.0)"><g clip-path="url(#i0)"><g transform="translate(16.0 306.0)"><g transform="translate(176.0 0.0)"><g transform="translate(12.0 64.0)"><g transform="translate(0.75 0.75)"><g clip-path="url(#i1)"><polygon points="0,0 10.5,0 10.5,10.5 0,10.5 0,0" stroke="none" fill="#FBA44F"></polygon></g></g></g></g></g></g></g></svg>