<svg xmlns="http://www.w3.org/2000/svg" width="29.748" height="29.748" viewBox="0 0 29.748 29.748"><defs><style>.a{fill:none;opacity:0;}.b{fill:#292d32;}</style></defs><path class="a" d="M0,0H29.748V29.748H0Z"/><path class="b" d="M6.2,0H4.958C1.24,0,0,2.219,0,4.958V23.551a1.236,1.236,0,0,0,1.983.992L4.1,22.956a1.249,1.249,0,0,1,1.636.124L7.8,25.149a1.249,1.249,0,0,0,1.76,0l2.082-2.082a1.229,1.229,0,0,1,1.611-.112l2.12,1.587a1.242,1.242,0,0,0,1.983-.992V2.479A2.486,2.486,0,0,1,19.832,0ZM4.921,14.886a1.24,1.24,0,1,1,1.24-1.24A1.243,1.243,0,0,1,4.921,14.886Zm0-4.958a1.24,1.24,0,1,1,1.24-1.24A1.243,1.243,0,0,1,4.921,9.928ZM12.4,14.577H8.677a.93.93,0,1,1,0-1.859H12.4a.93.93,0,0,1,0,1.859Zm0-4.958H8.677a.93.93,0,1,1,0-1.859H12.4a.93.93,0,0,1,0,1.859Z" transform="translate(2.479 2.479)"/><path class="b" d="M2.491,0V1.859a3.12,3.12,0,0,1,2.169.892,3.137,3.137,0,0,1,.917,2.206v3c0,.917-.409,1.339-1.339,1.339H1.859v-6.8a.635.635,0,0,1,.632-.632Zm0,0A2.492,2.492,0,0,0,0,2.491v8.664H4.239a2.981,2.981,0,0,0,3.2-3.2v-3A4.951,4.951,0,0,0,2.491,0Z" transform="translate(19.832 2.479)"/></svg>