<?xml version="1.0" encoding="UTF-8"?><svg version="1.1" width="22px" height="22px" viewBox="0 0 22.0 22.0" xmlns="http://www.w3.org/2000/svg" xmlns:xlink="http://www.w3.org/1999/xlink"><defs><clipPath id="i0"><path d="M375,0 L375,812 L0,812 L0,0 L375,0 Z"></path></clipPath><clipPath id="i1"><path d="M22,0 L22,22 L0,22 L0,0 L22,0 Z"></path></clipPath><clipPath id="i2"><path d="M12.57,0 L13.48,2.72 C14.05,2.89 14.59,3.11 15.1,3.39 L17.67,2.11 L19.89,4.33 L18.61,6.9 C18.89,7.41 19.11,7.95 19.28,8.52 L22,9.43 L22,12.57 L19.28,13.48 C19.11,14.04 18.89,14.59 18.61,15.1 L19.89,17.67 L17.67,19.89 L15.1,18.61 C14.59,18.89 14.04,19.11 13.48,19.28 L12.57,22 L9.43,22 L8.52,19.28 C7.96,19.11 7.41,18.89 6.9,18.61 L4.33,19.89 L2.11,17.67 L3.39,15.1 C3.11,14.59 2.89,14.04 2.72,13.48 L0,12.57 L0,9.43 L2.72,8.52 C2.89,7.95 3.11,7.41 3.39,6.9 L2.11,4.33 L4.33,2.11 L6.9,3.39 C7.41,3.11 7.96,2.89 8.52,2.72 L9.43,0 L12.57,0 Z M11.0014286,7.07142857 C8.83142857,7.07142857 7.07142857,8.83142857 7.07142857,11.0014286 C7.07142857,13.1714286 8.83142857,14.9314286 11.0014286,14.9314286 C13.1714286,14.9314286 14.9314286,13.1714286 14.9314286,11.0014286 C14.9314286,8.83142857 13.1714286,7.07142857 11.0014286,7.07142857 Z"></path></clipPath></defs><g transform="translate(-301.0 -771.0)"><g clip-path="url(#i0)"><g transform="translate(0.0 762.0)"><g transform="translate(301.0 9.0)"><g clip-path="url(#i1)"><g clip-path="url(#i2)"><polygon points="0,0 22,0 22,22 0,22 0,0" stroke="none" fill="#969799"></polygon></g></g></g></g></g></g></svg>