<?xml version="1.0" encoding="UTF-8"?>
<svg width="26px" height="26px" viewBox="0 0 26 26" version="1.1" xmlns="http://www.w3.org/2000/svg" xmlns:xlink="http://www.w3.org/1999/xlink">
    <title>Group 116</title>
    <g id="主页" stroke="none" stroke-width="1" fill="none" fill-rule="evenodd">
        <g id="自定义" transform="translate(-234.000000, -699.000000)">
            <g id="组-70" transform="translate(219.000000, 699.000000)">
                <g id="Group-116" transform="translate(15.000000, 0.000000)">
                    <rect id="路径" x="0" y="0" width="26" height="26"></rect>
                    <path d="M0,0 L46,0 L46,46 L0,46 L0,0 Z" id="Rectangle-23"></path>
                    <g id="文件夹_folder-1">
                        <rect id="路径" x="0" y="0" width="25" height="25"></rect>
                        <path d="M0,0 L25,0 L25,25 L0,25 L0,0 Z"></path>
                        <path d="M20.3158334,2.08333349 L4.68583337,2.08333349 C4.11583337,2.08333349 3.64583337,2.55333349 3.64583337,3.12333349 L3.64583337,21.8733335 C3.64583337,22.4533335 4.11583337,22.9133335 4.68583337,22.9133335 L20.3158334,22.9133335 C20.8858334,22.9133335 21.3558334,22.4533335 21.3558334,21.8733335 L21.3558334,3.12333349 C21.3558334,2.55333349 20.8858334,2.08333349 20.3158334,2.08333349 Z" id="路径" stroke="#FF5757" stroke-width="2" fill="#FFD2D2" stroke-linecap="round" stroke-linejoin="round" stroke-dasharray="0,0"></path>
                        <line x1="8.33333397" y1="15.104166" x2="10.413334" y2="15.104166" id="路径" stroke="#FF5757" stroke-width="2" stroke-linecap="round" stroke-linejoin="round" stroke-dasharray="0,0"></line>
                        <line x1="8.33333397" y1="18.2291679" x2="13.543334" y2="18.2291679" id="路径" stroke="#FF5757" stroke-width="2" stroke-linecap="round" stroke-linejoin="round" stroke-dasharray="0,0"></line>
                        <path d="M20.8366765,2.60416651 C19.5300099,7.11749984 16.7500099,9.37416651 12.4966765,9.37416651 C8.25000985,9.37416651 5.47334319,7.11749984 4.16667652,2.60416651" id="路径" stroke="#FF5757" stroke-width="2" stroke-linecap="round" stroke-linejoin="round" stroke-dasharray="0,0"></path>
                        <path d="M12.496676,7.29166698 C11.346676,7.29166698 10.416676,8.22166698 10.416676,9.37166698 C10.416676,10.521667 11.346676,11.461667 12.496676,11.461667 C13.646676,11.461667 14.586676,10.521667 14.586676,9.37166698 C14.586676,8.22166698 13.646676,7.29166698 12.496676,7.29166698 Z" id="路径" stroke="#FF5757" stroke-width="2" stroke-linecap="round" stroke-linejoin="round" stroke-dasharray="0,0"></path>
                        <path d="M3.64583349,6.25333337 L3.64583349,3.12333337 C3.64583349,2.55333337 4.11583349,2.08333337 4.68583349,2.08333337 L7.81583349,2.08333337" id="路径" stroke="#FF5757" stroke-width="2" stroke-linecap="round" stroke-linejoin="round" stroke-dasharray="0,0"></path>
                        <path d="M17.1875,2.08333349 L20.3175,2.08333349 C20.8875,2.08333349 21.3575,2.55333349 21.3575,3.12333349 L21.3575,6.25333349" id="路径" stroke="#FF5757" stroke-width="2" stroke-linecap="round" stroke-linejoin="round" stroke-dasharray="0,0"></path>
                    </g>
                </g>
            </g>
        </g>
    </g>
</svg>