<?xml version="1.0" encoding="UTF-8"?><svg version="1.1" width="193px" height="147px" viewBox="0 0 193.0 147.0" xmlns="http://www.w3.org/2000/svg" xmlns:xlink="http://www.w3.org/1999/xlink"><defs><clipPath id="i0"><path d="M375,0 L375,812 L0,812 L0,0 L375,0 Z"></path></clipPath><clipPath id="i1"><path d="M11.38,0 C12.67,0 13.72,1.05 13.72,2.35 C13.72,3.65 12.67,4.7 11.38,4.7 L10.89,4.7 C7.47,4.7 4.67,7.51 4.67,10.95 L4.67,14.37 C4.65,15.67 3.61,16.71 2.34,16.71 C1.04,16.71 0,15.67 0,14.37 L0,10.95 C0,4.9 4.88,0 10.89,0 Z"></path></clipPath><clipPath id="i2"><path d=""></path></clipPath><clipPath id="i3"><path d="M6.31,0 C9.81,0 12.63,2.86 12.63,6.35 C12.63,9.86 9.81,12.69 6.31,12.69 C2.82,12.69 0,9.83 0,6.35 C0,2.84 2.84,0 6.31,0 Z M6.30921788,3.11479064 C4.52921788,3.11479064 3.09921788,4.55479064 3.09921788,6.34479064 C3.09921788,8.13479064 4.52921788,9.57479064 6.30921788,9.57479064 C8.09921788,9.57479064 9.52921788,8.13479064 9.52921788,6.34479064 C9.52921788,4.55479064 8.09921788,3.11479064 6.30921788,3.11479064 Z"></path></clipPath><clipPath id="i4"><path d="M155.16405,28.8917778 C155.95405,28.8917778 156.60405,29.5417778 156.60405,30.3317778 L156.60405,33.3117778 L159.56405,33.3117778 C160.35405,33.3117778 161.00405,33.9617778 161.00405,34.7517778 C161.00405,35.5517778 160.35405,36.1917778 159.56405,36.1917778 L156.60405,36.1917778 L156.60405,39.1717778 C156.60405,39.9717778 155.95405,40.6217778 155.16405,40.6217778 C154.37405,40.6217778 153.73405,39.9717778 153.73405,39.1717778 L153.73405,36.1917778 L150.76405,36.1917778 C149.97405,36.1917778 149.33405,35.5517778 149.33405,34.7517778 C149.33405,33.9617778 149.97405,33.3117778 150.76405,33.3117778 L153.73405,33.3117778 L153.73405,30.3317778 C153.73405,29.5417778 154.37405,28.8917778 155.16405,28.8917778 Z M5.83,3.55271368e-15 C6.62,3.55271368e-15 7.27,0.65 7.27,1.44 L7.27,4.42 L10.23,4.42 C11.02,4.42 11.67,5.07 11.67,5.86 C11.67,6.66 11.02,7.3 10.23,7.3 L7.27,7.3 L7.27,10.28 C7.27,11.08 6.62,11.73 5.83,11.73 C5.04,11.73 4.4,11.08 4.4,10.28 L4.4,7.3 L1.43,7.3 C0.64,7.3 0,6.66 0,5.86 C0,5.07 0.64,4.42 1.43,4.42 L4.4,4.42 L4.4,1.44 C4.4,0.65 5.04,3.55271368e-15 5.83,3.55271368e-15 Z"></path></clipPath><clipPath id="i5"><path d="M4.52,0 C5.13,0 5.62,0.51 5.62,1.14 L5.62,3.51 L7.91,3.51 C8.52,3.51 9,4.02 9,4.65 C9,5.28 8.51,5.8 7.9,5.8 L5.6,5.8 L5.6,8.17 C5.6,8.8 5.11,9.31 4.5,9.31 C3.89,9.31 3.4,8.8 3.4,8.17 L3.4,5.8 L1.1,5.8 C0.49,5.8 0,5.29 0,4.65 C0,4.02 0.49,3.51 1.1,3.51 L3.41,3.51 L3.41,1.14 C3.41,0.51 3.91,0 4.52,0 Z"></path></clipPath><clipPath id="i6"><path d="M1.17,0.3075 C1.89,-0.1025 2.78,-0.1025 3.5,0.3075 C4.23,0.7275 4.67,1.5075 4.67,2.3475 C4.67,3.1875 4.23,3.9575 3.5,4.3775 C2.78,4.7975 1.89,4.7975 1.17,4.3775 C0.45,3.9575 0,3.1875 0,2.3475 C0,1.5075 0.45,0.7275 1.17,0.3075 Z"></path></clipPath><clipPath id="i7"><path d="M1.55,0.42 C2.51,-0.14 3.69,-0.14 4.65,0.42 C5.61,0.97 6.2,2 6.2,3.11 C6.2,4.23 5.61,5.26 4.65,5.81 C3.69,6.37 2.51,6.37 1.55,5.81 C0.59,5.26 0,4.23 0,3.11 C0,2 0.59,0.97 1.55,0.42 Z"></path></clipPath><clipPath id="i8"><path d="M4.1,0 C6.36,0 8.21,1.86 8.21,4.12 C8.21,6.4 6.36,8.25 4.1,8.25 C1.83,8.25 0,6.39 0,4.12 C0,1.84 1.85,0 4.1,0 Z M4.10385272,2.02397181 C2.94385272,2.02397181 2.01385272,2.96397181 2.01385272,4.12397181 C2.01385272,5.28397181 2.94385272,6.22397181 4.10385272,6.22397181 C5.26385272,6.22397181 6.19385272,5.28397181 6.19385272,4.12397181 C6.19385272,2.96397181 5.24385272,2.02397181 4.10385272,2.02397181 Z"></path></clipPath><clipPath id="i9"><path d="M7.96044693,10.367139 C8.44044693,10.367139 8.81044693,10.767139 8.81044693,11.227139 L8.81044693,15.157139 C8.81044693,15.617139 8.44044693,16.017139 7.96044693,16.017139 C7.49044693,16.017139 7.10044693,15.647139 7.10044693,15.157139 L7.10044693,11.227139 C7.10044693,10.767139 7.47044693,10.367139 7.96044693,10.367139 Z M10.2417318,9.43735074 C10.4817318,9.43735074 10.6817318,9.52735074 10.8517318,9.69735074 L13.6017318,12.4873507 C13.7617318,12.6473507 13.8517318,12.8573507 13.8517318,13.0873507 C13.8517318,13.3173507 13.7617318,13.5273507 13.6017318,13.6873507 C13.4417318,13.8573507 13.2317318,13.9473507 13.0017318,13.9473507 C12.7717318,13.9473507 12.5617318,13.8573507 12.4017318,13.6873507 L9.64173185,10.9273507 C9.32173185,10.5773507 9.32173185,10.0373507 9.64173185,9.69735074 C9.80173185,9.52735074 10.0117318,9.43735074 10.2417318,9.43735074 Z M6.29156425,9.66598678 C6.61156425,10.0159868 6.61156425,10.5559868 6.29156425,10.9059868 L3.54156425,13.6659868 C3.38156425,13.8259868 3.17156425,13.9259868 2.94156425,13.9259868 C2.70156425,13.9259868 2.50156425,13.8259868 2.33156425,13.6659868 C2.17156425,13.5059868 2.08156425,13.2959868 2.08156425,13.0659868 C2.08156425,12.8359868 2.17156425,12.6259868 2.33156425,12.4559868 L5.09156425,9.69598678 C5.41156425,9.36598678 5.99156425,9.36598678 6.29156425,9.66598678 Z M4.76,7.15936953 C5.23,7.15936953 5.62,7.52936953 5.62,8.01936953 C5.62,8.50936953 5.23,8.87936953 4.76,8.87936953 L0.86,8.87936953 C0.39,8.87936953 0,8.50936953 0,8.01936953 C0,7.55936953 0.37,7.15936953 0.86,7.15936953 L4.76,7.15936953 Z M15.0753073,7.15936953 C15.5453073,7.15936953 15.9353073,7.55936953 15.9353073,8.01936953 C15.9353073,8.47936953 15.5653073,8.87936953 15.0753073,8.87936953 L11.1753073,8.87936953 C10.7053073,8.87936953 10.3153073,8.50936953 10.3153073,8.01936953 C10.3153073,7.55936953 10.6853073,7.15936953 11.1753073,7.15936953 L15.0753073,7.15936953 Z M13.5786034,2.36945709 C13.7386034,2.52945709 13.8286034,2.73945709 13.8286034,2.97945709 C13.8286034,3.20945709 13.7386034,3.41945709 13.5786034,3.57945709 L10.8286034,6.34945709 C10.6586034,6.50945709 10.4586034,6.59945709 10.2186034,6.59945709 C9.98860336,6.59945709 9.77860336,6.52945709 9.61860336,6.36945709 C9.29860336,6.01945709 9.29860336,5.48945709 9.61860336,5.13945709 L12.3486034,2.36945709 C12.6986034,2.01945709 13.2286034,2.01945709 13.5786034,2.36945709 Z M3.53843576,2.34364592 L6.26843576,5.09364592 C6.58843576,5.44364592 6.58843576,5.97364592 6.26843576,6.32364592 C6.10843576,6.48364592 5.89843576,6.57364592 5.66843576,6.57364592 C5.43843576,6.57364592 5.22843576,6.48364592 5.06843576,6.32364592 L2.30843576,3.55364592 C2.14843576,3.39364592 2.05843576,3.18364592 2.05843576,2.95364592 C2.05843576,2.72364592 2.14843576,2.51364592 2.30843576,2.34364592 C2.65843576,2.02364592 3.18843576,2.02364592 3.53843576,2.34364592 Z M7.96044693,0 C8.44044693,0 8.81044693,0.4 8.81044693,0.88 L8.81044693,4.79 C8.81044693,5.25 8.44044693,5.65 7.96044693,5.65 C7.49044693,5.65 7.10044693,5.28 7.10044693,4.79 L7.10044693,0.86 C7.10044693,0.4 7.47044693,0 7.96044693,0 Z"></path></clipPath><clipPath id="i10"><path d="M3.99458636,5.17851959 C4.23458636,5.17851959 4.42458636,5.37851959 4.42458636,5.60851959 L4.42458636,7.56851959 C4.42458636,7.79851959 4.23458636,7.99851959 3.99458636,7.99851959 C3.76458636,7.99851959 3.56458636,7.81851959 3.56458636,7.56851959 L3.56458636,5.60851959 C3.56458636,5.37851959 3.75458636,5.17851959 3.99458636,5.17851959 Z M5.13988389,4.71407837 C5.25988389,4.71407837 5.35988389,4.76407837 5.44988389,4.84407837 L6.82988389,6.23407837 C6.90988389,6.31407837 6.95988389,6.42407837 6.95988389,6.53407837 C6.95988389,6.65407837 6.90988389,6.75407837 6.82988389,6.83407837 C6.74988389,6.92407837 6.63988389,6.96407837 6.52988389,6.96407837 C6.40988389,6.96407837 6.29988389,6.92407837 6.21988389,6.83407837 L4.83988389,5.45407837 C4.67988389,5.28407837 4.67988389,5.01407837 4.83988389,4.84407837 C4.91988389,4.76407837 5.02988389,4.71407837 5.13988389,4.71407837 Z M3.15499274,4.82839219 C3.32499274,5.00839219 3.32499274,5.26839219 3.15499274,5.44839219 L1.77499274,6.82839219 C1.69499274,6.90839219 1.59499274,6.95839219 1.47499274,6.95839219 C1.35499274,6.95839219 1.25499274,6.90839219 1.17499274,6.82839219 C1.09499274,6.74839219 1.04499274,6.63839219 1.04499274,6.52839219 C1.04499274,6.40839219 1.09499274,6.30839219 1.17499274,6.22839219 L2.55499274,4.83839219 C2.71499274,4.67839219 3.00499274,4.67839219 3.15499274,4.82839219 Z M2.39,3.57619739 C2.62,3.57619739 2.82,3.76619739 2.82,4.00619739 C2.82,4.24619739 2.62,4.43619739 2.39,4.43619739 L0.43,4.43619739 C0.2,4.43619739 0,4.24619739 0,4.00619739 C0,3.77619739 0.19,3.57619739 0.43,3.57619739 L2.39,3.57619739 Z M7.56851959,3.57619739 C7.79851959,3.57619739 7.99851959,3.77619739 7.99851959,4.00619739 C7.99851959,4.23619739 7.81851959,4.43619739 7.56851959,4.43619739 L5.60851959,4.43619739 C5.37851959,4.43619739 5.17851959,4.24619739 5.17851959,4.00619739 C5.17851959,3.77619739 5.36851959,3.57619739 5.60851959,3.57619739 L7.56851959,3.57619739 Z M6.81827286,1.18370102 C6.89827286,1.26370102 6.94827286,1.37370102 6.94827286,1.48370102 C6.94827286,1.60370102 6.89827286,1.70370102 6.81827286,1.78370102 L5.43827286,3.17370102 C5.34827286,3.25370102 5.24827286,3.29370102 5.12827286,3.29370102 C5.01827286,3.29370102 4.90827286,3.26370102 4.82827286,3.18370102 C4.66827286,3.00370102 4.66827286,2.74370102 4.82827286,2.56370102 L6.19827286,1.18370102 C6.37827286,1.01370102 6.63827286,1.01370102 6.81827286,1.18370102 Z M1.77338171,1.17079826 L3.14338171,2.54079826 C3.31338171,2.72079826 3.31338171,2.98079826 3.14338171,3.16079826 C3.06338171,3.24079826 2.96338171,3.29079826 2.84338171,3.29079826 C2.73338171,3.29079826 2.62338171,3.24079826 2.54338171,3.16079826 L1.16338171,1.78079826 C1.08338171,1.69079826 1.03338171,1.59079826 1.03338171,1.47079826 C1.03338171,1.36079826 1.08338171,1.25079826 1.16338171,1.17079826 C1.33338171,1.01079826 1.60338171,1.01079826 1.77338171,1.17079826 Z M3.99458636,0 C4.23458636,0 4.42458636,0.2 4.42458636,0.44 L4.42458636,2.39 C4.42458636,2.62 4.23458636,2.82 3.99458636,2.82 C3.76458636,2.82 3.56458636,2.64 3.56458636,2.39 L3.56458636,0.43 C3.56458636,0.2 3.75458636,0 3.99458636,0 Z"></path></clipPath><clipPath id="i11"><path d="M7.96044693,10.367139 C8.44044693,10.367139 8.83044693,10.737139 8.81044693,11.227139 L8.81044693,15.157139 C8.81044693,15.617139 8.42044693,16.017139 7.96044693,16.017139 C7.49044693,16.017139 7.10044693,15.647139 7.10044693,15.157139 L7.10044693,11.227139 C7.10044693,10.767139 7.47044693,10.367139 7.96044693,10.367139 Z M10.2417318,9.41410603 C10.4817318,9.41410603 10.6817318,9.50410603 10.8517318,9.67410603 L13.6017318,12.464106 C13.7617318,12.624106 13.8517318,12.834106 13.8517318,13.064106 C13.8517318,13.294106 13.7617318,13.504106 13.6017318,13.664106 C13.4417318,13.834106 13.2317318,13.924106 13.0017318,13.924106 C12.7717318,13.924106 12.5617318,13.834106 12.4017318,13.664106 L9.64173185,10.904106 C9.32173185,10.554106 9.32173185,10.014106 9.64173185,9.67410603 C9.80173185,9.50410603 10.0117318,9.41410603 10.2417318,9.41410603 Z M6.29156425,9.64274207 C6.61156425,9.99274207 6.61156425,10.5327421 6.29156425,10.8827421 L3.54156425,13.6427421 C3.38156425,13.8027421 3.17156425,13.9027421 2.94156425,13.9027421 C2.70156425,13.9027421 2.50156425,13.8027421 2.33156425,13.6427421 C2.17156425,13.4827421 2.08156425,13.2727421 2.08156425,13.0427421 C2.08156425,12.8127421 2.17156425,12.6027421 2.33156425,12.4327421 L5.09156425,9.67274207 C5.41156425,9.34274207 5.99156425,9.34274207 6.29156425,9.64274207 Z M4.76,7.15936953 C5.23,7.15936953 5.62,7.52936953 5.62,8.01936953 C5.62,8.47936953 5.23,8.87936953 4.76,8.87936953 L0.86,8.87936953 C0.39,8.87936953 0,8.47936953 0,8.01936953 C0,7.55936953 0.37,7.15936953 0.86,7.15936953 L4.76,7.15936953 Z M15.0753073,7.13612482 C15.5453073,7.13612482 15.9353073,7.53612482 15.9353073,7.99612482 C15.9353073,8.45612482 15.5653073,8.85612482 15.0753073,8.85612482 L11.1753073,8.85612482 C10.7053073,8.85612482 10.3153073,8.45612482 10.3153073,7.99612482 C10.3153073,7.53612482 10.6853073,7.13612482 11.1753073,7.13612482 L15.0753073,7.13612482 Z M13.5754749,2.36945709 C13.7354749,2.52945709 13.8354749,2.73945709 13.8354749,2.97945709 C13.8354749,3.20945709 13.7354749,3.41945709 13.5754749,3.57945709 L10.8254749,6.34945709 C10.6654749,6.50945709 10.4554749,6.59945709 10.2254749,6.59945709 C9.99547486,6.59945709 9.78547486,6.50945709 9.59547486,6.36945709 C9.27547486,6.01945709 9.27547486,5.48945709 9.59547486,5.13945709 L12.3554749,2.36945709 C12.6954749,2.01945709 13.2254749,2.01945709 13.5754749,2.36945709 Z M3.53843576,2.34364592 L6.26843576,5.09364592 C6.58843576,5.44364592 6.58843576,5.97364592 6.26843576,6.32364592 C6.10843576,6.48364592 5.89843576,6.57364592 5.66843576,6.57364592 C5.43843576,6.57364592 5.22843576,6.48364592 5.06843576,6.32364592 L2.30843576,3.55364592 C2.14843576,3.39364592 2.05843576,3.18364592 2.05843576,2.95364592 C2.05843576,2.72364592 2.14843576,2.51364592 2.30843576,2.34364592 C2.65843576,2.02364592 3.18843576,2.02364592 3.53843576,2.34364592 Z M7.96044693,0 C8.44044693,0 8.83044693,0.4 8.81044693,0.86 L8.81044693,4.79 C8.81044693,5.25 8.42044693,5.65 7.96044693,5.65 C7.49044693,5.65 7.10044693,5.28 7.10044693,4.79 L7.10044693,0.86 C7.10044693,0.4 7.47044693,0 7.96044693,0 Z"></path></clipPath><clipPath id="i12"><path d="M15,0 L15,16.5 L7.5,10.5 L0,16.5 L0,0 L15,0 Z"></path></clipPath><clipPath id="i13"><path d="M117.826084,0 C122.246084,0 125.826084,3.58 125.826084,8 L125.826084,67.62 C125.826084,69.96 124.796084,72.19 123.016084,73.71 C121.236084,75.23 118.876084,75.89 116.566084,75.52 L12.6760844,58.93 C9.20608444,58.37 6.49608444,55.61 6.01608444,52.13 L0.0760844437,9.09 C-0.243915556,6.8 0.456084444,4.48 1.97608444,2.74 C3.49608444,1 5.69608444,0 8.00608444,0 Z"></path></clipPath><filter id="i14" x="-18.8811189%" y="-25.8064516%" filterUnits="userSpaceOnUse" width="126.573427%" height="140.860215%"><feGaussianBlur stdDeviation="4" in="SourceAlpha" result="i15"></feGaussianBlur><feOffset dx="0" dy="3" in="i15" result="i16"></feOffset><feColorMatrix values="0 0 0 1.0 0 0 0 0 0.3411764705882353 0 0 0 0 0.3411764705882353 0 0 0 0 0.3 0" type="matrix" in="i16"></feColorMatrix></filter><clipPath id="i17"><path d="M119,0 C123.418278,-8.11624501e-16 127,3.581722 127,8 L127,69 C127,73.418278 123.418278,77 119,77 L8,77 C3.581722,77 5.41083001e-16,73.418278 0,69 L0,8 C-5.41083001e-16,3.581722 3.581722,4.36433818e-15 8,0 L119,0 Z"></path></clipPath><clipPath id="i18"><path d="M37,0 C38.1045695,-2.02906125e-16 39,0.8954305 39,2 C39,3.1045695 38.1045695,4 37,4 L2,4 C0.8954305,4 1.3527075e-16,3.1045695 0,2 C-1.3527075e-16,0.8954305 0.8954305,2.02906125e-16 2,0 L37,0 Z"></path></clipPath><clipPath id="i19"><path d="M22,0 C23.1045695,-2.02906125e-16 24,0.8954305 24,2 C24,3.1045695 23.1045695,4 22,4 L2,4 C0.8954305,4 1.3527075e-16,3.1045695 0,2 C-1.3527075e-16,0.8954305 0.8954305,2.02906125e-16 2,0 L22,0 Z"></path></clipPath><clipPath id="i20"><path d="M36.907354,0 L36.907354,36 L0,36 L0,0 L36.907354,0 Z"></path></clipPath><clipPath id="i21"><path d="M18.45,0 C19.36,0 20.26,0.07 21.16,0.19 L24.54,3.66 L29.45,3.55 C30.9,4.6 32.19,5.86 33.27,7.27 L33.15,12.06 L36.71,15.36 C36.97,17.11 36.97,18.89 36.71,20.64 L33.16,23.94 L33.27,28.73 C32.19,30.14 30.91,31.4 29.45,32.45 L24.54,32.34 L21.16,35.81 C20.27,35.93 19.37,36 18.45,36 C17.54,36 16.63,35.93 15.75,35.81 L12.36,32.34 L7.46,32.45 C6,31.4 4.72,30.14 3.64,28.73 L3.75,23.94 L0.2,20.64 C0.07,19.77 0,18.9 0,18 C0,17.12 0.07,16.24 0.2,15.36 L3.75,12.06 L3.64,7.27 C4.72,5.86 6,4.6 7.46,3.55 L12.36,3.66 L15.75,0.19 C16.63,0.07 17.54,0 18.45,0 Z M18.4525362,3.42857143 C18.0125362,3.42857143 17.5625362,3.44857143 17.1225362,3.48857143 L14.6025362,6.12857143 L13.8625362,6.90857143 L12.7825362,6.88857143 L9.13253616,6.79857143 C8.45253616,7.36857143 7.82253616,7.99857143 7.25253616,8.67857143 L7.34253616,12.3285714 L7.36253616,13.4085714 L6.58253616,14.1485714 L3.94253616,16.6685714 C3.86253616,17.5485714 3.86253616,18.4485714 3.94253616,19.3285714 L6.58253616,21.8485714 L7.36253616,22.5885714 L7.34253616,23.6685714 L7.25253616,27.3185714 C7.82253616,27.9985714 8.45253616,28.6285714 9.13253616,29.1985714 L12.7825362,29.1185714 L13.8625362,29.0885714 L14.6025362,29.8685714 L17.1225362,32.5085714 C18.0025362,32.5885714 18.9025362,32.5885714 19.7825362,32.5085714 L22.3025362,29.8685714 L23.0425362,29.0885714 L24.1225362,29.1185714 L27.7725362,29.1985714 C28.4525362,28.6285714 29.0825362,27.9985714 29.6525362,27.3185714 L29.5725362,23.6685714 L29.5425362,22.5985714 L30.3225362,21.8485714 L32.9625362,19.3285714 C33.0425362,18.4485714 33.0425362,17.5585714 32.9625362,16.6685714 L30.3225362,14.1485714 L29.5425362,13.4085714 L29.5725362,12.3285714 L29.6525362,8.67857143 C29.0825362,7.99857143 28.4525362,7.36857143 27.7725362,6.79857143 L24.1225362,6.88857143 L23.0525362,6.90857143 L22.3025362,6.12857143 L19.7825362,3.48857143 C19.3425362,3.44857143 18.8925362,3.42857143 18.4525362,3.42857143 Z"></path></clipPath><clipPath id="i22"><path d="M20,0 C37.5,0 40.56,7.7 40,11 L0,11 C0.75,7.7 2.5,0 20,0 Z"></path></clipPath><clipPath id="i23"><path d="M8,0 L8,8.5 L0,8.5 L0,0 L8,0 Z"></path></clipPath><clipPath id="i24"><path d="M2.57,0 L2.79,5.72 L0,5.72 L0,0.72 L2.57,0 Z"></path></clipPath><clipPath id="i25"><path d="M0.22,0 L2.79,0.72 L2.79,5.72 L0,5.72 L0.22,0 Z"></path></clipPath><clipPath id="i26"><path d="M2.43072012,0 C2.54709943,0.0646551724 2.67685567,0.136741974 2.81393463,0.215779911 L2.98155682,0.313931229 C4.4296351,1.17605529 6.38761667,2.74137931 2.43072012,4.5 C-0.773825333,5.92424242 -0.271348289,4.10293848 0.893837974,2.17790613 L1.04595063,1.93183592 C1.12357241,1.80876117 1.20336642,1.6858085 1.28454098,1.56379497 L1.44849623,1.32126221 C1.77914987,0.839669421 2.12344739,0.381818182 2.43072012,0 Z"></path></clipPath><clipPath id="i27"><path d="M2.21880078,0 C2.61894571,0.304492754 3.04908014,0.626267591 3.46637823,0.952075651 L3.69246495,1.13010949 C5.78592114,2.79400546 7.34488774,4.5 2.71880078,4.5 C-1.78119922,4.5 0.218800785,0 2.21880078,0 Z"></path></clipPath><clipPath id="i28"><path d="M19,0 L24,8 C23.7,11.64 21.5,20.5 15.5,22 C3.13,25.09 0.9,12.95 0,8 L3,3.5 L19,0 Z"></path></clipPath><clipPath id="i29"><path d="M0.479289941,7.52410333 C1.97928994,2.02410333 16.4792899,-5.97589667 24.4792899,7.02410333 C25.4792899,10.5241033 25.4792899,15.5241033 24.4792899,17.0241033 C23.4792899,18.5241033 23.4792899,11.0241033 21.4792899,12.5241033 C19.4792899,14.0241033 18.4792899,14.5241033 19.4792899,11.0241033 C17.9792899,12.5241033 10.4792899,16.7641033 10.4792899,14.5241033 C10.4792899,13.5241033 12.9792899,11.0241033 10.9792899,11.5241033 C10.3364328,11.6848176 9.43528484,12.2587972 8.5083078,12.8641407 L8.04374307,13.167658 C6.23710244,14.3444158 4.47928994,15.3991033 4.47928994,13.5241033 C4.47928994,11.3109886 3.71739798,13.8488144 3.07683775,16.4444513 L2.99222627,16.7904668 C2.79683899,17.5967128 2.61699486,18.3883656 2.47928994,19.0241033 C2.17928994,18.7241033 1.47928994,18.0241033 1.47928994,17.5241033 C1.47928994,17.0241033 -1.02071006,13.0241033 0.479289941,7.52410333 Z"></path></clipPath><clipPath id="i30"><path d="M48.7937775,0.00046979 C74.937651,0.031436 96,1.5893 96,3.5 C96,5.43 74.51,7 48,7 C21.49,7 0,5.43 0,3.5 C0,1.57 21.49,0 48,0 Z"></path></clipPath></defs><g transform="translate(-91.0 -317.0)"><g clip-path="url(#i0)"><g transform="translate(91.00000000000001 317.0)"><g transform="translate(16.17951789106435 37.24441015488344)"><g transform="translate(2.1655329683044062 -0.0003236970367623826) rotate(7.445461754125973)"><g clip-path="url(#i1)"><polygon points="5.68434189e-14,-2.84217094e-14 13.72,-2.84217094e-14 13.72,16.71 5.68434189e-14,16.71 5.68434189e-14,-2.84217094e-14" stroke="none" fill="#FFC6C6" opacity="50%"></polygon></g></g></g><g transform="translate(49.72625700525896 71.81515689819366)"><g clip-path="url(#i2)"><polygon points="0,0 53.6812291,0 53.6812291,0 0,0 0,0" stroke="none" fill="#FCEE21"></polygon></g></g><g transform="translate(49.72625700525896 94.24629843616526)"><g clip-path="url(#i2)"><polygon points="0,0 43.6434637,0 43.6434637,0 0,0 0,0" stroke="none" fill="#FCEE21"></polygon></g></g><g transform="translate(49.72625700525895 116.6541952678799)"><g clip-path="url(#i2)"><polygon points="0,0 28.933743,0 28.933743,0 0,0 0,0" stroke="none" fill="#FCEE21"></polygon></g></g><g transform="translate(50.39698326253712 47.89635415977614)"><g clip-path="url(#i2)"><polygon points="0,0 107.732514,0 107.732514,0 0,0 0,0" stroke="none" fill="#FCEE21"></polygon></g></g><g transform="translate(78.20569841222095 19.654195267879913)"><g clip-path="url(#i3)"><polygon points="0,0 12.63,0 12.63,12.69 0,12.69 0,0" stroke="none" fill="#F5B5B5" opacity="50%"></polygon></g></g><g transform="translate(20.205698412220954 11.03677765921907)"><g clip-path="url(#i4)"><polygon points="0,3.55271368e-15 161.00405,3.55271368e-15 161.00405,40.6217778 0,40.6217778 0,3.55271368e-15" stroke="none" fill="#ED908B" opacity="20%"></polygon></g></g><g transform="translate(8.205698412220954 105.3458048841831)"><g clip-path="url(#i5)"><polygon points="0,0 9,0 9,9.31 0,9.31 0,0" stroke="none" fill="#F08E8B"></polygon></g></g><g transform="translate(53.61184359915569 0.0024999999999999467)"><g clip-path="url(#i6)"><polygon points="0,0 4.67,0 4.67,4.6925 0,4.6925 0,0" stroke="none" fill="#F7CDCE"></polygon></g></g><g transform="translate(186.205698412221 12.65419526787991)"><g clip-path="url(#i7)"><polygon points="0,0 6.2,0 6.2,6.23 0,6.23 0,0" stroke="none" fill="#F4908B"></polygon></g></g><g transform="translate(107.205698412221 13.654195267879908)"><g clip-path="url(#i7)"><polygon points="0,0 6.2,0 6.2,6.23 0,6.23 0,0" stroke="none" fill="#FF8D87"></polygon></g></g><g transform="translate(0.0 32.14742882941459)"><g clip-path="url(#i8)"><polygon points="0,0 8.21,0 8.21,8.25 0,8.25 0,0" stroke="none" fill="#FF918C"></polygon></g></g><g transform="translate(143.205698412221 0.6541952678799134)"><g clip-path="url(#i9)"><polygon points="0,0 15.9353073,0 15.9353073,16.017139 0,16.017139 0,0" stroke="none" fill="#F4A8A8"></polygon></g></g><g transform="translate(0.2056984122209542 59.65419526787991)"><g clip-path="url(#i10)"><polygon points="0,0 7.99851959,0 7.99851959,7.99851959 0,7.99851959 0,0" stroke="none" fill="#F4A8A8"></polygon></g></g><g transform="translate(176.205698412221 116.6541952678799)"><g clip-path="url(#i11)"><polygon points="0,0 15.9353073,0 15.9353073,16.017139 0,16.017139 0,0" stroke="none" fill="#EC635D"></polygon></g></g><g transform="translate(23.429757963527663 31.53104159174063)"><g transform="translate(16.74379503629946 90.1231536761392)"><g clip-path="url(#i12)"><polygon points="0,0 15,0 15,16.5 0,16.5 0,0" stroke="none" fill="#FF5757"></polygon></g></g><g transform="translate(4.275382865408588 32.69460348746095) rotate(-14.999999999999998)"><g clip-path="url(#i13)"><polygon points="5.66213743e-14,0 125.826084,0 125.826084,75.6206921 5.66213743e-14,75.6206921 5.66213743e-14,0" stroke="none" fill="#FFE9E8"></polygon></g></g><g transform="translate(0.7437950362994599 15.123153676139196)"><path d="M8,0 L119,0 C123.418278,-8.11624501e-16 127,3.581722 127,8 L127,69 C127,73.418278 123.418278,77 119,77 L8,77 C3.581722,77 5.41083001e-16,73.418278 0,69 L0,8 C-5.41083001e-16,3.581722 3.581722,4.36433818e-15 8,0 Z" stroke="none" fill="#000000" filter="url(#i14)"></path><g clip-path="url(#i17)"><polygon points="0,0 127,0 127,77 0,77 0,0" stroke="none" fill="#FF5757"></polygon></g></g><g transform="translate(13.74379503629946 36.1231536761392)"><g clip-path="url(#i18)"><polygon points="0,0 39,0 39,4 0,4 0,0" stroke="none" fill="#FADEDD"></polygon></g></g><g transform="translate(13.74379503629946 50.1231536761392)"><g clip-path="url(#i18)"><polygon points="0,0 39,0 39,4 0,4 0,0" stroke="none" fill="#FADEDD"></polygon></g></g><g transform="translate(39.74379503629946 66.1231536761392)"><g clip-path="url(#i19)"><polygon points="0,0 24,0 24,4 0,4 0,0" stroke="none" fill="#FADEDD"></polygon></g></g><g transform="translate(0.0 68.38001274136141) rotate(-25.309451020025737)"><g clip-path="url(#i20)"><g clip-path="url(#i21)"><polygon points="-5.68434189e-14,0 36.905,0 36.905,36 -5.68434189e-14,36 -5.68434189e-14,0" stroke="none" fill="#FFFFFF"></polygon></g><g transform="translate(14.673083061558565 11.082040144587761) rotate(25.309451020025737)"><path d="M0,4.21 L5.06,9.27 L14.75,0" stroke="#FFFFFF" stroke-width="3" fill="none" stroke-miterlimit="10"></path></g></g></g><g transform="translate(74.24379503629946 63.1231536761392)"><g clip-path="url(#i22)"><polygon points="0,0 40.0606747,0 40.0606747,11 0,11 0,0" stroke="none" fill="#FADEDD"></polygon></g></g><g transform="translate(90.74379503629946 56.6231536761392)"><g clip-path="url(#i23)"><polygon points="0,0 8,0 8,8.5 0,8.5 0,0" stroke="none" fill="#FFFFFF"></polygon></g></g><g transform="translate(88.67646383861356 63.92588069797659) rotate(-51.413298332692705)"><g clip-path="url(#i24)"><polygon points="5.68434189e-14,0 2.79,0 2.79,5.72 5.68434189e-14,5.72 5.68434189e-14,0" stroke="none" fill="#FF5757"></polygon></g></g><g transform="translate(99.14429868767681 61.74895382608105) rotate(51.413298332692705)"><g clip-path="url(#i25)"><polygon points="0,0 2.79,0 2.79,5.72 0,5.72 0,0" stroke="none" fill="#FF5757"></polygon></g></g><g transform="translate(102.813074914401 47.1231536761392)"><g clip-path="url(#i26)"><polygon points="0,0 4.76575555,0 4.76575555,5.00873421 0,5.00873421 0,0" stroke="none" fill="#FFFFFF"></polygon></g></g><g transform="translate(81.5249306300602 47.6231536761392)"><g clip-path="url(#i27)"><polygon points="0,0 5.73018435,0 5.73018435,4.5 0,4.5 0,0" stroke="none" fill="#FFFFFF"></polygon></g></g><g transform="translate(82.74379503629946 37.1231536761392)"><g clip-path="url(#i28)"><polygon points="0,0 24,0 24,22.4966987 0,22.4966987 0,0" stroke="none" fill="#FFFFFF"></polygon></g></g><g transform="translate(81.76521515464347 30.094947019845762)"><g clip-path="url(#i29)"><polygon points="1.11022302e-16,0 25.2292899,0 25.2292899,19.0241033 1.11022302e-16,19.0241033 1.11022302e-16,0" stroke="none" fill="#FADEDD"></polygon></g></g><g transform="translate(16.74379503629946 108.1231536761392)"><g clip-path="url(#i30)"><polygon points="0,0 96,0 96,7 0,7 0,0" stroke="none" fill="#FEEEEE"></polygon></g></g></g></g></g></g></svg>