<?xml version="1.0" encoding="UTF-8"?><svg version="1.1" width="22px" height="22px" viewBox="0 0 22.0 22.0" xmlns="http://www.w3.org/2000/svg" xmlns:xlink="http://www.w3.org/1999/xlink"><defs><clipPath id="i0"><path d="M375,0 L375,812 L0,812 L0,0 L375,0 Z"></path></clipPath><clipPath id="i1"><path d="M22,0 L22,22 L0,22 L0,0 L22,0 Z"></path></clipPath><clipPath id="i2"><path d="M14.06,0 C14.3,0 14.52,0.1 14.69,0.25 C14.84,0.42 14.94,0.64 14.94,0.88 L14.94,1.76 L19.8,1.76 C21.01,1.76 22,2.74 22,3.96 L22,19.8 C22,21.01 21.01,22 19.8,22 L2.2,22 C0.99,22 0,21.01 0,19.8 L0,3.96 C0,2.75 0.99,1.76 2.2,1.76 L7.02,1.76 L7.02,0.88 C7.02,0.4 7.41,0 7.9,0 C8.14,0 8.36,0.1 8.52,0.25 C8.68,0.42 8.78,0.64 8.78,0.88 L8.78,1.76 L13.18,1.76 L13.18,0.88 C13.18,0.4 13.57,0 14.06,0 Z M14.35625,10.69625 L9.45625,15.60625 L7.62625,13.75625 C7.44625,13.59625 7.22625,13.50625 7.00625,13.50625 C6.79625,13.50625 6.57625,13.58625 6.40625,13.75625 C6.05625,14.08625 6.05625,14.63625 6.40625,14.98625 L8.82625,17.42625 L8.84625,17.44625 C9.01625,17.60625 9.23625,17.69625 9.45625,17.69625 L9.54625,17.69625 C9.62625,17.69625 9.71625,17.67625 9.78625,17.64625 C9.84625,17.62625 9.89625,17.59625 9.94625,17.56625 C9.98625,17.53625 10.03625,17.49625 10.07625,17.45625 L10.10625,17.42625 L15.57625,11.92625 C15.75625,11.74625 15.83625,11.51625 15.83625,11.29625 C15.83625,11.07625 15.77625,10.84625 15.57625,10.69625 C15.24625,10.34625 14.69625,10.34625 14.35625,10.69625 Z M7.02,3.52 L2.2,3.52 C1.96,3.52 1.76,3.72 1.76,3.96 L1.76,6.16 L20.24,6.16 L20.24,3.96 C20.24,3.72 20.04,3.52 19.8,3.52 L14.94,3.52 L14.94,4.4 C14.94,4.88 14.54,5.28 14.06,5.28 C13.57,5.28 13.18,4.88 13.18,4.4 L13.18,3.52 L8.78,3.52 L8.78,4.4 C8.78,4.88 8.38,5.28 7.9,5.28 C7.41,5.28 7.02,4.88 7.02,4.4 L7.02,3.52 Z"></path></clipPath></defs><g transform="translate(-52.0 -771.0)"><g clip-path="url(#i0)"><g transform="translate(0.0 762.0)"><g transform="translate(52.0 9.0)"><g clip-path="url(#i1)"><g clip-path="url(#i2)"><polygon points="0,0 22,0 22,22 0,22 0,0" stroke="none" fill="#969799"></polygon></g></g></g></g></g></g></svg>