<?xml version="1.0" encoding="UTF-8"?><svg version="1.1" width="16px" height="16px" viewBox="0 0 16.0 16.0" xmlns="http://www.w3.org/2000/svg" xmlns:xlink="http://www.w3.org/1999/xlink"><defs><clipPath id="i0"><path d="M375,0 L375,812 L0,812 L0,0 L375,0 Z"></path></clipPath><clipPath id="i1"><path d="M16,0 L16,15.9821548 L0,15.9821548 L0,0 L16,0 Z"></path></clipPath><clipPath id="i2"><path d="M8,0 C10.14,0 12.15,0.83 13.66,2.34 C16.78,5.46 16.78,10.53 13.66,13.64 C12.15,15.15 10.14,15.98 8,15.98 C5.86,15.98 3.85,15.15 2.34,13.64 C0.83,12.13 0,10.13 0,7.99 C0,5.86 0.83,3.85 2.34,2.34 C3.86,0.83 5.87,0 8,0 Z"></path></clipPath></defs><g transform="translate(-16.0 -152.0)"><g clip-path="url(#i0)"><g transform="translate(16.0 149.0)"><g transform="translate(0.0 3.0)"><g transform="translate(0.0 0.008922596475485989)"><g clip-path="url(#i1)"><g clip-path="url(#i2)"><polygon points="0,0 16,0 16,15.98 0,15.98 0,0" stroke="none" fill="#FFFFFF"></polygon></g><g transform="translate(8.0 3.491077403524514)"><path d="M0,0 L0,5 L3.5,7.5" stroke="#FF5757" stroke-width="1" fill="none" stroke-miterlimit="10"></path></g></g></g></g></g></g></g></svg>