<?xml version="1.0" encoding="UTF-8"?><svg version="1.1" width="16px" height="17px" viewBox="0 0 16.0 17.0" xmlns="http://www.w3.org/2000/svg" xmlns:xlink="http://www.w3.org/1999/xlink"><defs><clipPath id="i0"><path d="M375,0 L375,812 L0,812 L0,0 L375,0 Z"></path></clipPath><clipPath id="i1"><path d="M11.6000004,0 C12.7045699,7.78148667e-16 13.6000004,0.8954305 13.6000004,2 L13.6000004,8.39999962 C13.6000004,9.50456912 12.7045699,10.3999996 11.6000004,10.3999996 L2,10.3999996 C0.8954305,10.3999996 1.11632554e-15,9.50456912 0,8.39999962 L0,2 C-1.3527075e-16,0.8954305 0.8954305,-2.41183085e-16 2,0 L11.6000004,0 Z"></path></clipPath><clipPath id="i2"><path d="M12.8000004,0 C13.2418282,-1.07267544e-15 13.6000004,0.358172205 13.6000004,0.800000012 C13.6000004,1.24182782 13.2418282,1.60000002 12.8000004,1.60000002 L0.800000012,1.60000002 C0.358172205,1.60000002 5.41083009e-17,1.24182782 0,0.800000012 C-5.41083009e-17,0.358172205 0.358172205,8.11624513e-17 0.800000012,0 L12.8000004,0 Z"></path></clipPath><clipPath id="i3"><path d="M4.47622174,0 C4.89801784,1.44561919e-16 5.23995113,0.341933296 5.23995113,0.763729393 C5.23995113,1.18552549 4.89801784,1.52745879 4.47622174,1.52745879 L0.763729393,1.52745879 C0.341933296,1.52745879 5.1655124e-17,1.18552549 0,0.763729393 C-5.1655124e-17,0.341933296 0.341933296,7.7482686e-17 0.763729393,0 L4.47622174,0 Z"></path></clipPath><clipPath id="i4"><path d="M3.77228993,0 C4.19408603,-6.32594198e-16 4.53601933,0.341933296 4.53601933,0.763729393 C4.53601933,1.18552549 4.19408603,1.52745879 3.77228993,1.52745879 L0.763729393,1.52745879 C0.341933296,1.52745879 5.1655124e-17,1.18552549 0,0.763729393 C-5.1655124e-17,0.341933296 0.341933296,7.7482686e-17 0.763729393,0 L3.77228993,0 Z"></path></clipPath></defs><g transform="translate(-16.0 -116.0)"><g clip-path="url(#i0)"><g transform="translate(16.0 112.0)"><g transform="translate(0.0 4.5)"><g transform="translate(1.2001953125 0.0)"><g clip-path="url(#i1)"><polygon points="0,0 13.6000004,0 13.6000004,10.3999996 0,10.3999996 0,0" stroke="none" fill="#FFFFFF"></polygon></g><g transform="translate(0.0 11.20001220703125)"><g clip-path="url(#i2)"><polygon points="0,0 13.6000004,0 13.6000004,1.60000002 0,1.60000002 0,0" stroke="none" fill="#FFFFFF"></polygon></g></g><g transform="translate(1.565498352050776 14.919860839843752) rotate(-44.99999999999999)"><g clip-path="url(#i3)"><polygon points="5.68434189e-14,1.13686838e-13 5.23995113,1.13686838e-13 5.23995113,1.52745879 5.68434189e-14,1.52745879 5.68434189e-14,1.13686838e-13" stroke="none" fill="#FFFFFF"></polygon></g></g><g transform="translate(8.973823547363287 11.712463378906245) rotate(44.99999999999999)"><g clip-path="url(#i4)"><polygon points="0,0 4.53601933,0 4.53601933,1.52745879 0,1.52745879 0,0" stroke="none" fill="#FFFFFF"></polygon></g></g><g transform="translate(3.0908203125 3.677490234375)"><path d="M7.41,0 L3.98,3.27 L1.99,1.28 L0,3.27" stroke="#FF5757" stroke-width="1" fill="none" stroke-linecap="round" stroke-linejoin="round" stroke-dasharray=" 0.0 0.0"></path></g></g></g></g></g></g></svg>