<?xml version="1.0" encoding="UTF-8"?><svg version="1.1" width="22px" height="22px" viewBox="0 0 22.0 22.0" xmlns="http://www.w3.org/2000/svg" xmlns:xlink="http://www.w3.org/1999/xlink"><defs><clipPath id="i0"><path d="M375,0 L375,812 L0,812 L0,0 L375,0 Z"></path></clipPath><clipPath id="i1"><path d="M22,0 L22,18.5615297 L0,18.5615297 L0,0 L22,0 Z"></path></clipPath><clipPath id="i2"><path d="M1.03,0 C1.6,0 2.06,0.46 2.06,1.03 L2.06,16.5 L20.97,16.5 C21.54,16.5 22,16.96 22,17.53 C22,18.1 21.54,18.56 20.97,18.56 L1.03,18.56 C0.46,18.56 0,18.1 0,17.53 L0,1.03 C0,0.46 0.46,0 1.03,0 Z"></path></clipPath><clipPath id="i3"><path d="M3.09,0 C3.66,0 4.13,0.46 4.13,1.03 L4.13,8.25 C4.13,8.82 3.66,9.28 3.09,9.28 L1.03,9.28 C0.46,9.28 0,8.82 0,8.25 L0,1.03 C0,0.46 0.46,0 1.03,0 Z"></path></clipPath><clipPath id="i4"><path d="M3.09,0 C3.66,0 4.13,0.46 4.13,1.03 L4.13,12.37 C4.13,12.94 3.66,13.41 3.09,13.41 L1.03,13.41 C0.46,13.41 0,12.94 0,12.37 L0,1.03 C0,0.46 0.46,0 1.03,0 Z"></path></clipPath><clipPath id="i5"><path d="M3.09,0 C3.66,0 4.13,0.46 4.13,1.03 L4.13,3.09 C4.13,3.66 3.66,4.12 3.09,4.12 L1.03,4.12 C0.46,4.12 0,3.66 0,3.09 L0,1.03 C0,0.46 0.46,0 1.03,0 Z"></path></clipPath></defs><g transform="translate(-177.0 -771.0)"><g clip-path="url(#i0)"><g transform="translate(0.0 762.0)"><g transform="translate(177.0 9.0)"><g transform="translate(0.0 2.0)"><g clip-path="url(#i1)"><g clip-path="url(#i2)"><polygon points="0,0 22,0 22,18.56 0,18.56 0,0" stroke="none" fill="#FF5757"></polygon></g><g transform="translate(15.46812260181236 6.1871765534046235)"><g clip-path="url(#i3)"><polygon points="0,0 4.13,0 4.13,9.28 0,9.28 0,0" stroke="none" fill="#FF5757"></polygon></g></g><g transform="translate(9.624536413586165 2.062224557642333)"><g clip-path="url(#i4)"><polygon points="0,0 4.13,0 4.13,13.41 0,13.41 0,0" stroke="none" fill="#FF5757"></polygon></g></g><g transform="translate(3.781000545349134 11.3431151262964)"><g clip-path="url(#i5)"><polygon points="0,0 4.13,0 4.13,4.12 0,4.12 0,0" stroke="none" fill="#FF5757"></polygon></g></g></g></g></g></g></g></g></svg>