<?xml version="1.0" encoding="UTF-8"?><svg version="1.1" width="15px" height="16px" viewBox="0 0 15.0 16.0" xmlns="http://www.w3.org/2000/svg" xmlns:xlink="http://www.w3.org/1999/xlink"><defs><clipPath id="i0"><path d="M375,0 L375,1161 L0,1161 L0,0 L375,0 Z"></path></clipPath><clipPath id="i1"><path d="M335,0 C339.418278,-8.11624501e-16 343,3.581722 343,8 L343,32 C343,36.418278 339.418278,40 335,40 L8,40 C3.581722,40 4.09379668e-15,36.418278 0,32 L0,8 C-5.41083001e-16,3.581722 3.581722,8.11624501e-16 8,0 L335,0 Z"></path></clipPath><clipPath id="i2"><path d="M12.455775,0 C12.7914724,0 13.0661312,0.292969375 13.0661312,0.651046594 L13.0661312,3.10004217 C13.0742407,3.15552455 13.0741207,3.2120782 13.0661162,3.26759256 L13.0661162,6.12236103 C13.045715,6.40181956 12.8265186,6.62318947 12.5586952,6.62318947 C12.2784602,6.62318947 12.0512742,6.38085777 12.0512742,6.08194044 L12.0512742,1.73621486 C12.0512742,1.37813762 11.7766155,1.08516827 11.4409181,1.08516827 L6.89641923,1.08516827 C6.72704906,1.08516827 6.57326833,1.15982166 6.46240349,1.27972436 L1.56750224,6.50079247 C1.33012318,6.7539968 1.33012318,7.16832388 1.56750224,7.4215282 L6.11409965,12.2712321 C6.35147871,12.5244364 6.73991034,12.5244364 6.9772894,12.2712321 L11.6338972,7.30416777 C11.7218875,7.16235991 11.8726853,7.06877536 12.0440491,7.06877536 C12.3155301,7.06877536 12.5356108,7.30352819 12.5356108,7.59310786 C12.5356108,7.72541816 12.4895621,7.84620027 12.4137585,7.93845772 L12.4034904,7.95060948 L12.3792369,7.97647994 L6.96910494,13.7472873 C6.73172588,14.0004917 6.34329424,14.0004917 6.10591519,13.7472873 L0.178034293,7.42421438 C-0.0593447644,7.17101005 -0.0593447644,6.75668297 0.178034293,6.50347864 L6.06159025,0.227701625 C6.17374421,0.0885799375 6.33966671,0 6.52413164,0 Z M7.76310162,2.74976766 C8.52112268,1.94121186 9.75012442,1.94121186 10.5081455,2.74976766 C11.2661665,3.55832345 11.2661665,4.86925864 10.5081455,5.67781444 C9.75012442,6.48637023 8.52112268,6.48637023 7.76310162,5.67781444 C7.00508056,4.86925864 7.00508056,3.55832345 7.76310162,2.74976766 Z M9.83400754,3.47919311 C9.45900679,3.07919231 8.851034,3.07919231 8.47603325,3.47919311 C8.10103251,3.87919391 8.10103251,4.52769822 8.47603325,4.92769902 C8.851034,5.32769981 9.45900679,5.32769981 9.83400754,4.92769902 C10.2090083,4.52769822 10.2090083,3.87919391 9.83400754,3.47919311 Z"></path></clipPath></defs><g transform="translate(-28.0 -1044.0)"><g clip-path="url(#i0)"><g transform="translate(16.0 1032.0)"><g clip-path="url(#i1)"><g transform="translate(12.0 10.0)"><g transform="translate(0.0 2.0)"><g transform="translate(0.9465482409668766 1.0566276093750275)"><g clip-path="url(#i2)"><polygon points="0,0 13.0721666,0 13.0721666,13.9371906 0,13.9371906 0,0" stroke="none" fill="#FF8800"></polygon></g></g></g></g></g></g></g></g></svg>