<?xml version="1.0" encoding="UTF-8"?><svg version="1.1" width="48px" height="48px" viewBox="0 0 48.0 48.0" xmlns="http://www.w3.org/2000/svg" xmlns:xlink="http://www.w3.org/1999/xlink"><defs><clipPath id="i0"><path d="M375,0 L375,812 L0,812 L0,0 L375,0 Z"></path></clipPath><clipPath id="i1"><path d="M25,0 C37.7025492,-2.33342044e-15 48,10.2974508 48,23 L48,25 C48,37.7025492 37.7025492,48 25,48 L23,48 C10.2974508,48 1.55561363e-15,37.7025492 0,25 L0,23 C-1.55561363e-15,10.2974508 10.2974508,2.33342044e-15 23,0 L25,0 Z"></path></clipPath><linearGradient id="i2" x1="8.86956382px" y1="7.30434895px" x2="37.565217px" y2="41.7391319px" gradientUnits="userSpaceOnUse"><stop stop-color="#FCADE5" offset="0%"></stop><stop stop-color="#FC82D5" offset="100%"></stop></linearGradient><clipPath id="i3"><path d="M22.27,0 C22.8,0 23.24,0.43 23.24,0.97 L23.24,16.46 C23.24,16.99 22.8,17.43 22.27,17.43 L19.36,17.43 L19.36,21.3 L11.62,17.43 L0.97,17.43 C0.43,17.43 0,16.99 0,16.46 L0,0.97 C0,0.43 0.43,0 0.97,0 L22.27,0 Z M14.5194482,3.87295532 L14.3594482,3.87295532 L14.1494482,3.89295532 C12.7994482,4.03295532 11.9594482,4.83295532 11.6194482,5.79295532 C11.2994482,4.78295532 10.2694482,3.87295532 8.70944824,3.87295532 C7.21944824,3.87295532 5.98944824,5.00295532 5.82944824,6.41295532 L5.80944824,6.57295532 L5.80944824,6.87295532 C5.80944824,9.68295532 7.47944824,11.9329553 11.6194482,13.5529553 C15.6594482,11.9529553 17.3394482,9.75295532 17.4294482,7.09295532 L17.4294482,6.57295532 C17.3394482,5.14295532 16.1694482,3.96295532 14.6894482,3.88295532 L14.5194482,3.87295532 Z"></path></clipPath></defs><g transform="translate(-27.0 -596.0)"><g clip-path="url(#i0)"><g transform="translate(13.0 596.0)"><g transform="translate(14.0 0.0)"><g clip-path="url(#i1)"><polygon points="0,0 48,0 48,48 0,48 0,0" stroke="none" fill="url(#i2)"></polygon></g><g transform="translate(11.938064575195312 15.19389343261719)"><g clip-path="url(#i3)"><polygon points="0,0 23.24,0 23.24,21.3 0,21.3 0,0" stroke="none" fill="#FFFFFF"></polygon></g></g></g></g></g></g></svg>