<svg xmlns="http://www.w3.org/2000/svg" xmlns:xlink="http://www.w3.org/1999/xlink" width="44" height="44" viewBox="0 0 44 44"><defs><style>.a{fill:url(#a);}.b{fill:none;}.c{fill:#fff;}.d{filter:url(#b);}</style><linearGradient id="a" x1="0.196" y1="0.087" x2="0.783" y2="0.891" gradientUnits="objectBoundingBox"><stop offset="0" stop-color="#f7c9a5"/><stop offset="1" stop-color="#fd9f6b"/></linearGradient><filter id="b" x="5.983" y="8.833" width="33.934" height="33.824" filterUnits="userSpaceOnUse"><feOffset dy="2" input="SourceAlpha"/><feGaussianBlur stdDeviation="2" result="c"/><feFlood flood-color="#ec9460"/><feComposite operator="in" in2="c"/><feComposite in="SourceGraphic"/></filter></defs><rect class="a" width="44" height="44" rx="22"/><g transform="translate(11.917 12.833)"><rect class="b" width="22" height="22" transform="translate(0 0)"/><g class="d" transform="matrix(1, 0, 0, 1, -11.92, -12.83)"><path class="c" d="M17.677,3.168A8.085,8.085,0,0,0,21.934,2.2s-.858,4.851-4.4,6.6c-3.355,1.617-8.041.517-11.341,2.717L9.7,21.076l-2.068.748L0,.924,2.068.176l.165.462A22.759,22.759,0,0,1,7.634,0c3.751.066,7.15,3.091,10.043,3.168Z" transform="translate(11.98 12.83)"/></g></g></svg>