<svg xmlns="http://www.w3.org/2000/svg" xmlns:xlink="http://www.w3.org/1999/xlink" width="74.599" height="64" viewBox="0 0 74.599 64"><defs><style>.a,.f{fill:#ff5757;}.b{fill:#ff7d7d;}.c{fill:#ff8989;}.d{fill:#fff;}.e,.f{opacity:0.8;}.g{fill:#ff6d6d;}.h{fill:#f64141;}.i{clip-path:url(#a);}.j{clip-path:url(#b);}.k{clip-path:url(#d);}.l{fill:#ff7e7e;}</style><clipPath id="a"><circle class="a" cx="24.5" cy="24.5" r="24.5" transform="translate(274 269)"/></clipPath><clipPath id="b"><circle class="b" cx="23.5" cy="23.5" r="23.5" transform="translate(264 258)"/></clipPath><clipPath id="d"><circle class="c" cx="18.5" cy="18.5" r="18.5" transform="translate(266 256)"/></clipPath></defs><g transform="translate(-270 -151)"><circle class="d" cx="30" cy="30" r="30" transform="translate(282 155)"/><g class="e" transform="translate(6 -105)"><path class="a" d="M494.77,162.148a1.2,1.2,0,1,1,1.2-1.2A1.209,1.209,0,0,1,494.77,162.148Zm0-1.889a.687.687,0,1,0,.687.687A.7.7,0,0,0,494.77,160.259Z" transform="translate(-189.27 109.054)"/><path class="a" d="M165.852,113.806a1.863,1.863,0,1,1,1.863-1.863A1.819,1.819,0,0,1,165.852,113.806Zm0-2.927a1.065,1.065,0,1,0,1.065,1.065A1.079,1.079,0,0,0,165.852,110.878Zm-59.79,34.774a3.1,3.1,0,0,1-2.129-.8,3.457,3.457,0,0,1-1.2-2.262,3.231,3.231,0,0,1,.754-2.44,3.457,3.457,0,0,1,2.262-1.2,3.361,3.361,0,1,1,.577,6.7Zm0-5.855h-.222a2.28,2.28,0,0,0-1.685.887,2.5,2.5,0,0,0-.577,1.819,2.28,2.28,0,0,0,.887,1.685,2.487,2.487,0,0,0,4.081-2.129A2.47,2.47,0,0,0,106.062,139.8Z" transform="translate(170.882 157.718)"/><path class="f" d="M735.7,296.352a.2.2,0,0,1-.2-.2v-1.3l-.921.921a.207.207,0,1,1-.292-.292l.922-.921h-1.3a.2.2,0,0,1,0-.4h1.3l-.922-.921a.207.207,0,0,1,.292-.292l.921.921v-1.3a.2.2,0,0,1,.4,0v1.3l.922-.921a.207.207,0,0,1,.292.292l-.921.921h1.3a.2.2,0,1,1,0,.4h-1.3l.921.921a.207.207,0,0,1-.292.292l-.922-.921v1.3A.2.2,0,0,1,735.7,296.352Z" transform="translate(-417.696 -14.352)"/><path class="a" d="M196.814,107.931a.279.279,0,0,1-.28-.28v-1.8l-1.274,1.274a.286.286,0,1,1-.4-.4l1.274-1.274h-1.8a.28.28,0,0,1,0-.559h1.8l-1.274-1.274a.286.286,0,0,1,.4-.4l1.274,1.274v-1.8a.28.28,0,1,1,.559,0v1.8l1.274-1.274a.286.286,0,0,1,.4.4l-1.274,1.274h1.8a.28.28,0,0,1,0,.559h-1.8l1.274,1.274a.286.286,0,1,1-.4.4l-1.274-1.274v1.8C197.124,107.807,196.969,107.931,196.814,107.931Z" transform="translate(87.952 162.069)"/><g transform="translate(190.492 -119.279)"><path class="g" d="M820.8,754.613h-1.893a.218.218,0,1,1,0-.437H820.8a.218.218,0,0,1,0,.437Z" transform="translate(-683.18 -334.038)"/><path class="g" d="M838.874,736.537a.217.217,0,0,1-.218-.218v-1.893a.218.218,0,0,1,.437,0v1.893A.217.217,0,0,1,838.874,736.537Z" transform="translate(-702.202 -315.017)"/></g><path class="a" d="M828.872,520.7a1.618,1.618,0,0,1-1.48,1.745,1.635,1.635,0,0,1,1.48,1.745,1.618,1.618,0,0,1,1.48-1.745A1.635,1.635,0,0,1,828.872,520.7Z" transform="translate(-498.873 -233.704)"/><path class="h" d="M0,7.332C6.042,2.805,18,0,18,0a4,4,0,0,1,4,4V34H0S.023,19.926,0,7.332Z" transform="translate(288 274)"/><path class="h" d="M13,4.333C11.337,1.186,6.972.107,6.972.107c-1.305,0-3,.013-2.987,0L4,20.091h9S12.986,11.775,13,4.333Z" transform="translate(310 287.909)"/><rect class="h" width="41" height="4" rx="2" transform="translate(285 308)"/><rect class="d" width="11" height="2" rx="1" transform="translate(294 288)"/><rect class="d" width="11" height="2" rx="1" transform="translate(294 298)"/><g class="i"><path class="a" d="M0,7.332C6.042,2.805,18,0,18,0a4,4,0,0,1,4,4V34H0S.023,19.926,0,7.332Z" transform="translate(288 274)"/><path class="a" d="M13,4.333C11.337,1.186,6.972.107,6.972.107c-1.305,0-3,.013-2.987,0L4,20.091h9S12.986,11.775,13,4.333Z" transform="translate(310 287.909)"/><rect class="a" width="41" height="4" rx="2" transform="translate(285 308)"/><rect class="d" width="11" height="2" rx="1" transform="translate(294 288)"/><rect class="d" width="11" height="2" rx="1" transform="translate(294 298)"/></g><g class="j"><g class="i"><path class="g" d="M0,7.332C6.042,2.805,18,0,18,0a4,4,0,0,1,4,4V34H0S.023,19.926,0,7.332Z" transform="translate(288 274)"/><path class="g" d="M13,4.333C11.337,1.186,6.972.107,6.972.107c-1.305,0-3,.013-2.987,0L4,20.091h9S12.986,11.775,13,4.333Z" transform="translate(310 287.909)"/><rect class="g" width="41" height="4" rx="2" transform="translate(285 308)"/><rect class="d" width="11" height="2" rx="1" transform="translate(294 288)"/><rect class="d" width="11" height="2" rx="1" transform="translate(294 298)"/></g></g><g class="k"><g class="j"><g class="i"><path class="l" d="M0,7.332C6.042,2.805,18,0,18,0a4,4,0,0,1,4,4V34H0S.023,19.926,0,7.332Z" transform="translate(288 274)"/><path class="l" d="M13,4.333C11.337,1.186,6.972.107,6.972.107c-1.305,0-3,.013-2.987,0L4,20.091h9S12.986,11.775,13,4.333Z" transform="translate(310 287.909)"/><rect class="l" width="41" height="4" rx="2" transform="translate(285 308)"/><rect class="d" width="11" height="2" rx="1" transform="translate(294 288)"/><rect class="d" width="11" height="2" rx="1" transform="translate(294 298)"/></g></g></g></g></g></svg>