<?xml version="1.0" encoding="UTF-8"?><svg version="1.1" width="28px" height="28px" viewBox="0 0 28.0 28.0" xmlns="http://www.w3.org/2000/svg" xmlns:xlink="http://www.w3.org/1999/xlink"><defs><clipPath id="i0"><path d="M375,0 L375,812 L0,812 L0,0 L375,0 Z"></path></clipPath><clipPath id="i1"><path d="M16.6614759,0 C17.5816638,0 18.3276235,0.745959696 18.3276235,1.6661476 L18.3276235,9.35541873 C17.7814499,9.22773222 17.2223764,9.16343876 16.6614759,9.16381174 C13.7075112,9.16978122 11.0323588,10.9096658 9.82913429,13.6074787 C8.62590978,16.3052915 9.11889235,19.4581643 11.0882122,21.6599187 L1.6661476,21.6599187 C0.745959688,21.6599187 0,20.913959 0,19.9937711 L0,1.6661476 C0,0.745959688 0.745959688,0 1.6661476,0 Z"></path></clipPath><clipPath id="i2"><path d="M4.16536897,0 C4.62546292,0 4.99844277,0.372979844 4.99844277,0.833073798 C4.99844277,1.29316775 4.62546292,1.6661476 4.16536897,1.6661476 L0.833073798,1.6661476 C0.372979844,1.6661476 0,1.29316775 0,0.833073798 C0,0.372979844 0.372979844,0 0.833073798,0 L4.16536897,0 Z"></path></clipPath><clipPath id="i3"><path d="M6.66459035,0 C7.12468431,0 7.49766415,0.372979844 7.49766415,0.833073798 C7.49766415,1.29316775 7.12468431,1.6661476 6.66459035,1.6661476 L0.833073798,1.6661476 C0.372979844,1.6661476 0,1.29316775 0,0.833073798 C0,0.372979844 0.372979844,0 0.833073798,0 L6.66459035,0 Z"></path></clipPath><clipPath id="i4"><path d="M7.49766416,0 C7.95775811,0 8.33073796,0.372979844 8.33073796,0.833073798 C8.33073796,1.29316775 7.95775811,1.6661476 7.49766416,1.6661476 L0.833073798,1.6661476 C0.372979844,1.6661476 0,1.29316775 0,0.833073798 C0,0.372979844 0.372979844,0 0.833073798,0 L7.49766416,0 Z"></path></clipPath><clipPath id="i5"><path d="M5.41497967,0 C8.40559036,0 10.8299593,2.42436898 10.8299593,5.41497967 C10.8299593,8.40559036 8.40559036,10.8299593 5.41497967,10.8299593 C2.42436898,10.8299593 0,8.40559036 0,5.41497967 C0,2.42436898 2.42436898,0 5.41497967,0 Z"></path></clipPath><clipPath id="i6"><path d="M0.416536894,0 C0.646547218,0 0.833021955,0.186432721 0.833073787,0.416443039 L0.833073787,4.16527511 L3.74883207,4.16527511 C3.97884239,4.16532695 4.16527511,4.35180168 4.16527511,4.58181201 C4.16527511,4.81182233 3.97884239,4.99829707 3.74883207,4.9983489 L0,4.9983489 L0,0.416443039 C5.18321273e-05,0.186432721 0.18652657,0 0.416536894,0 Z"></path></clipPath></defs><g transform="translate(-124.0 -116.0)"><g clip-path="url(#i0)"><g transform="translate(96.0 116.0)"><g transform="translate(28.0 0.0)"><g transform="translate(3.0 2.9999999999999325)"><g clip-path="url(#i1)"><polygon points="0,0 18.3276235,0 18.3276235,21.6599187 0,21.6599187 0,0" stroke="none" fill="#FFD2D2"></polygon></g><path d="M16.6614759,0 L1.6661476,0 C0.745959688,0 0,0.745959688 0,1.6661476 L0,19.9937711 C0,20.913959 0.745959688,21.6599187 1.6661476,21.6599187 L11.0882122,21.6599187 C9.11889235,19.4581643 8.62590978,16.3052915 9.82913429,13.6074787 C11.0323588,10.9096658 13.7075112,9.16978122 16.6614759,9.16381174 C17.2223764,9.16343876 17.7814499,9.22773222 18.3276235,9.35541873 L18.3276235,1.6661476 C18.3276235,0.745959696 17.5816638,0 16.6614759,0 Z" stroke="#FF5757" stroke-width="1" fill="none" stroke-miterlimit="10"></path><g transform="translate(2.49922139364979 13.329180723828358)"><g clip-path="url(#i2)"><polygon points="0,0 4.99844277,0 4.99844277,1.6661476 0,1.6661476 0,0" stroke="none" fill="#FF5757"></polygon></g></g><g transform="translate(2.4992213936498113 9.16381174498747)"><g clip-path="url(#i3)"><polygon points="0,0 7.49766415,0 7.49766415,1.6661476 0,1.6661476 0,0" stroke="none" fill="#FF5757"></polygon></g></g><g transform="translate(2.4992213936498064 4.998442766147491)"><g clip-path="url(#i4)"><polygon points="0,0 8.33073796,0 8.33073796,1.6661476 0,1.6661476 0,0" stroke="none" fill="#FF5757"></polygon></g></g><g transform="translate(10.829959340754229 10.829959340754158)"><g clip-path="url(#i5)"><polygon points="0,0 10.8299593,0 10.8299593,10.8299593 0,10.8299593 0,0" stroke="none" fill="#FFD2D2"></polygon></g><g clip-path="url(#i5)"><path d="M5.41497967,0 C2.42436898,0 0,2.42436898 0,5.41497967 C0,8.40559036 2.42436898,10.8299593 5.41497967,10.8299593 C8.40559036,10.8299593 10.8299593,8.40559036 10.8299593,5.41497967 C10.8299593,2.42436898 8.40559036,0 5.41497967,0 L5.41497967,0 Z" stroke="#FF5757" stroke-width="2" fill="none" stroke-linejoin="round"></path></g></g><g transform="translate(15.829959340754273 12.829959340754613)"><g clip-path="url(#i6)"><polygon points="0,0 4.16527511,0 4.16527511,4.9983489 0,4.9983489 0,0" stroke="none" fill="#FF5757"></polygon></g></g></g></g></g></g></g></svg>