<svg xmlns="http://www.w3.org/2000/svg" xmlns:xlink="http://www.w3.org/1999/xlink" width="19" height="19" viewBox="0 0 19 19" fill="none"><g opacity="1" transform="translate(0.0001469828557674191 0)  rotate(0 9.000048578884638 9.5)"><g opacity="1" transform="translate(0 0)  rotate(0 9.000048578884638 9.5)"><path id="椭圆 11" fill-rule="evenodd" style="fill:#FF5757" transform="translate(9.000097157769277 10)  rotate(0 4.5 4.5)" opacity="1" d="M4.5,0C2.01,0 0,2.01 0,4.5C0,6.99 2.01,9 4.5,9C6.99,9 9,6.99 9,4.5C9,2.01 6.99,0 4.5,0Z " /><path id="路径 49" fill-rule="evenodd" style="fill:#FF5757" transform="translate(0 0)  rotate(0 6.227167547861487 9.185455322265625)" opacity="1" d="M4.42013 4.64443C4.42013 6.54443 6.01013 7.96443 7.91013 7.96443C9.80013 7.96443 11.3401 6.54443 11.3401 4.64443C11.3401 2.74443 9.78013 1.22443 7.88013 1.22443C5.99013 1.22443 4.42013 2.74443 4.42013 4.64443Z M7.96 18.37C8.16 18.37 8.57 18.06 8.57 17.76C8.57 17.45 8.16 17.15 7.96 17.15L2.2 17.15C1.64 17.16 1.18 16.56 1.17 15.99L1.17 15.96C1.17 12.49 3.85 9.62 7.24 9.29L7.96 9.19C8.74 9.12 9.85 9.03 10.43 8.51L10.69 8.31C11.8 7.39 12.45 6.09 12.45 4.65C12.45 2.09 10.37 0 7.76 0C5.35 0 3.26 2.09 3.26 4.65C3.26 6.09 3.91 7.39 5.02 8.31L5.35 8.51L5.02 8.64C2.02 9.81 0 12.69 0 15.96C-0.01 17.18 0.96 18.36 2.17 18.37L7.96 18.37Z " /></g><path id="路径 40" fill-rule="evenodd" style="fill:#FFFFFF" transform="translate(10.600183369927436 12.499969482421875)  rotate(0 2.9200496673583984 1.8582077026367188)" opacity="1" d="M5.84 1.59Z M4.78 0L4.25 0.4L4.58 0.93L0 0.93L0 1.59L5.84 1.59L4.78 0Z M0.796372 3.71639Z M1.12637 2.91639L5.83637 2.91639L5.83637 2.25639L0.0663719 2.25639L0.796372 3.71639L1.39637 3.44639L1.12637 2.91639Z " /></g></svg>