<?xml version="1.0" encoding="UTF-8"?><svg version="1.1" width="48px" height="48px" viewBox="0 0 48.0 48.0" xmlns="http://www.w3.org/2000/svg" xmlns:xlink="http://www.w3.org/1999/xlink"><defs><clipPath id="i0"><path d="M375,0 L375,812 L0,812 L0,0 L375,0 Z"></path></clipPath><clipPath id="i1"><path d="M25,0 C37.7025492,-2.33342044e-15 48,10.2974508 48,23 L48,25 C48,37.7025492 37.7025492,48 25,48 L23,48 C10.2974508,48 1.55561363e-15,37.7025492 0,25 L0,23 C-1.55561363e-15,10.2974508 10.2974508,2.33342044e-15 23,0 L25,0 Z"></path></clipPath><linearGradient id="i2" x1="7.30434537px" y1="6.26087022px" x2="38.086956px" y2="42.7826099px" gradientUnits="userSpaceOnUse"><stop stop-color="#FEE092" offset="0%"></stop><stop stop-color="#FEC061" offset="100%"></stop></linearGradient><filter id="i3" x="-44.3084173%" y="-34.8432056%" filterUnits="userSpaceOnUse" width="163.297739%" height="158.072009%"><feGaussianBlur stdDeviation="2" in="SourceAlpha" result="i4"></feGaussianBlur><feOffset dx="0" dy="2" in="i4" result="i5"></feOffset><feColorMatrix values="0 0 0 0.9176470588235294 0 0 0 0 0.6862745098039216 0 0 0 0 0.3019607843137255 0 0 0 0 1.0 0" type="matrix" in="i5"></feColorMatrix></filter><clipPath id="i6"><path d="M16.4567052,0 C17.3967052,0 18.3267052,0.23 19.1867052,0.66 C20.0567052,1.09 20.8467052,1.73 21.5067052,2.53 C22.1667052,3.33 22.6967052,4.28 23.0567052,5.32 C23.4167052,6.37 23.5967052,7.49 23.5967052,8.62 C23.5967052,9.75 23.4167052,10.88 23.0567052,11.92 C22.6967052,12.97 22.1667052,13.92 21.5067052,14.72 L11.7967052,26.44 L1.70670519,14.25 L1.71670519,14.23 C0.676705194,12.76 0.0667051943,10.91 0.00670519432,8.97 C-0.0632948057,7.04 0.416705194,5.13 1.35670519,3.56 C2.29670519,2 3.64670519,0.86 5.18670519,0.33 C6.72670519,-0.2 8.37670519,-0.09 9.85670519,0.65 L5.19670519,6.28 L6.74670519,8.15 L11.4067052,2.53 C12.7467052,0.91 14.5667052,0 16.4567052,0 Z"></path></clipPath></defs><g transform="translate(-302.0 -277.0)"><g clip-path="url(#i0)"><g transform="translate(288.0 277.0)"><g transform="translate(14.0 0.0)"><g clip-path="url(#i1)"><polygon points="0,0 48,0 48,48 0,48 0,0" stroke="none" fill="url(#i2)"></polygon></g><g transform="translate(12.106353868774677 11.00277052337921)"><path d="M21.5067052,2.53 C20.8467052,1.73 20.0567052,1.09 19.1867052,0.66 C18.3267052,0.23 17.3967052,0 16.4567052,0 C14.5667052,0 12.7467052,0.91 11.4067052,2.53 L6.74670519,8.15 L5.19670519,6.28 L9.85670519,0.65 C8.37670519,-0.09 6.72670519,-0.2 5.18670519,0.33 C3.64670519,0.86 2.29670519,2 1.35670519,3.56 C0.416705194,5.13 -0.0632948057,7.04 0.00670519432,8.97 C0.0667051943,10.91 0.676705194,12.76 1.71670519,14.23 L1.70670519,14.25 L11.7967052,26.44 L21.5067052,14.72 C22.1667052,13.92 22.6967052,12.97 23.0567052,11.92 C23.4167052,10.88 23.5967052,9.75 23.5967052,8.62 C23.5967052,7.49 23.4167052,6.37 23.0567052,5.32 C22.6967052,4.28 22.1667052,3.33 21.5067052,2.53 Z" stroke="none" fill="#000000" filter="url(#i3)"></path><g clip-path="url(#i6)"><polygon points="0,0 23.5967052,0 23.5967052,26.44 0,26.44 0,0" stroke="none" fill="#FFFDFD"></polygon></g></g></g></g></g></g></svg>