<?xml version="1.0" encoding="UTF-8"?><svg version="1.1" width="14px" height="14px" viewBox="0 0 14.0 14.0" xmlns="http://www.w3.org/2000/svg" xmlns:xlink="http://www.w3.org/1999/xlink"><defs><clipPath id="i0"><path d="M375,0 L375,812 L0,812 L0,0 L375,0 Z"></path></clipPath><clipPath id="i1"><path d="M7,0 C10.8675,0 14,3.1325 14,7 C14,10.8675 10.8675,14 7,14 C3.1325,14 0,10.8675 0,7 C0,3.1325 3.1325,0 7,0 Z"></path></clipPath><clipPath id="i2"><path d="M2.78113208,0.00016341453 L2.94623333,0.0107555452 C3.38679257,0.0612189992 3.78866176,0.286401943 4.06171458,0.635803095 C4.63600431,1.37074515 4.51753246,2.4299305 3.7950571,3.01982698 C4.86478098,3.44986227 5.56199897,4.49113458 5.552171,5.64401919 L5.552171,5.93363394 C5.5531131,6.0079393 5.52437529,6.07955071 5.47232886,6.13259166 C5.42028243,6.18563261 5.34922772,6.21572057 5.27491784,6.21618493 L0.275531473,6.21618493 C0.201529116,6.21525412 0.130928157,6.18496106 0.0792630156,6.13197117 C0.0275978741,6.07898128 -0.000898398515,6.00763615 2.16039561e-05,5.93363394 L2.16039561e-05,5.64401919 C0.00134621674,4.5063559 0.684825952,3.48044029 1.7342009,3.0410183 C1.62825704,2.95745114 1.53279354,2.8613947 1.44988397,2.75493543 C0.871682693,2.01950754 0.991241708,0.956061573 1.7183074,0.367379671 C2.06329499,0.0887713892 2.50567409,-0.0397079088 2.94623333,0.0107555452 Z M5.39323607,0.0671692532 C6.04978138,0.253820643 6.54550369,0.793925803 6.67531114,1.46403066 C6.79576791,2.12752564 6.55990228,2.80563933 6.05369898,3.25116559 C7.10892776,3.70463714 7.78465991,4.75174274 7.7631324,5.90008102 C7.76168004,5.97211946 7.73406086,6.04116742 7.68543088,6.09433482 C7.60772936,6.13318557 7.5688786,6.17203633 7.49117709,6.17203633 C7.42376291,6.16693884 7.35344168,6.13891837 7.30200773,6.08748443 C7.25057379,6.03605048 7.22255332,5.96572925 7.22451959,5.89301724 C7.23233678,4.76120546 6.40246899,3.79780439 5.28198162,3.63790724 C5.20926962,3.63987352 5.13894839,3.61185306 5.08751444,3.56041911 C5.03608049,3.50898517 5.00806002,3.43866393 5.0100263,3.36595193 C5.01672195,3.21145254 5.12973829,3.08229102 5.28198162,3.05514585 C5.82341845,2.90182056 6.20158603,2.41335412 6.21439985,1.85077231 C6.21264122,1.28471396 5.82975668,0.790879921 5.28198162,0.648164706 C5.16542934,0.609313949 5.04887707,0.531612427 5.04887707,0.415060148 C5.0126619,0.318784902 5.04177687,0.210136346 5.12128075,0.144870775 C5.18836894,0.0671218521 5.29519949,0.0365988368 5.39323607,0.0671692532 Z M2.7990649,3.38714325 L2.74785253,3.38714325 C1.52651804,3.41694882 0.553712952,4.41880458 0.559819527,5.6404873 L0.559819527,5.65108297 L5.00649442,5.6404873 C5.0143776,4.41061299 4.02884091,3.40457713 2.7990649,3.38714325 Z M2.7608662,0.595424753 C2.15105806,0.595028479 1.65457596,1.08560011 1.64765604,1.69536926 C1.64467736,2.30826494 2.13504168,2.80964869 2.74785253,2.82027535 L2.7831714,2.82027535 C3.39284902,2.8076529 3.87874468,2.30659362 3.87263136,1.696816 C3.86651804,1.08703837 3.37067433,0.595821507 2.7608662,0.595424753 Z"></path></clipPath></defs><g transform="translate(-28.0 -214.0)"><g clip-path="url(#i0)"><g transform="translate(28.0 209.0)"><g transform="translate(0.0 5.0)"><g clip-path="url(#i1)"><polygon points="0,0 14,0 14,14 0,14 0,0" stroke="none" fill="#FF5757"></polygon></g><g transform="translate(3.0 3.0)"><g transform="translate(0.35314445720886356 1.1301405182053008)"><g clip-path="url(#i2)"><polygon points="-3.84424209e-16,-5.20417043e-18 7.76363206,-5.20417043e-18 7.76363206,6.21618493 -3.84424209e-16,6.21618493 -3.84424209e-16,-5.20417043e-18" stroke="none" fill="#FFFFFF"></polygon></g></g></g></g></g></g></g></svg>