<?xml version="1.0" encoding="UTF-8"?><svg version="1.1" width="22px" height="22px" viewBox="0 0 22.0 22.0" xmlns="http://www.w3.org/2000/svg" xmlns:xlink="http://www.w3.org/1999/xlink"><defs><clipPath id="i0"><path d="M375,0 L375,812 L0,812 L0,0 L375,0 Z"></path></clipPath><clipPath id="i1"><path d="M5.70973928,0 C6.92598893,0 7.91531871,0.989329787 7.91531871,2.20557944 L7.91531871,4.42034454 C7.9149785,4.88677203 7.53700554,5.26508521 7.07057805,5.26508521 C6.60415056,5.26508521 6.22583738,4.88677203 6.22583738,4.42034454 L6.22583738,2.20557944 C6.22583738,1.92592707 5.98939164,1.68948133 5.70973928,1.68948133 L2.20557944,1.68948133 C1.92592707,1.68948133 1.68948133,1.92592707 1.68948133,2.20557944 L1.68948133,4.42034454 C1.68948133,4.88677203 1.31116816,5.26508521 0.844740667,5.26508521 C0.378313178,5.26508521 0,4.88677203 0,4.42034454 L0,2.20557944 C0,0.989329787 0.989329787,0 2.20557944,0 L5.70973928,0 Z"></path></clipPath><clipPath id="i2"><path d="M21,0 C21.5522847,-1.01453063e-16 22,0.44771525 22,1 L22,16 C22,17.1045695 21.1045695,18 20,18 L2,18 C0.8954305,18 1.02344917e-15,17.1045695 0,16 L0,1 C-6.76353751e-17,0.44771525 0.44771525,5.45542273e-16 1,0 L21,0 Z"></path></clipPath><clipPath id="i3"><path d="M5.36918937,5.10042372 C5.83561686,5.10042372 6.21393004,5.47873689 6.21393004,5.94516438 C6.21393004,6.41159187 5.83561686,6.78990505 5.36918937,6.78990505 L0.844740667,6.78990505 C0.378313178,6.78990505 0,6.41159187 0,5.94516438 C0,5.47873689 0.378313178,5.10042372 0.844740667,5.10042372 L5.36918937,5.10042372 Z M14.0612068,0 C14.5276343,0 14.9059475,0.378313178 14.9059475,0.844740667 C14.9059475,1.31116816 14.5276343,1.68948133 14.0612068,1.68948133 L0.844740667,1.68948133 C0.378313178,1.68948133 0,1.31116816 0,0.844740667 C0,0.378313178 0.378313178,0 0.844740667,0 L14.0612068,0 Z"></path></clipPath><clipPath id="i4"><path d="M6.32398788,0.247502552 C6.65399128,0.577505954 6.65399128,1.11231559 6.32398788,1.44197878 L3.09471747,4.67124919 C2.92971577,4.8365911 2.71334241,4.91892184 2.49730925,4.91892184 C2.2812761,4.91892184 2.06490273,4.8365911 1.89990103,4.6715894 L0.247502552,3.01919092 C-0.0825008505,2.68918752 -0.0825008505,2.15437788 0.247502552,1.82471469 C0.577505954,1.49471129 1.11231559,1.49471129 1.44197878,1.82471469 L2.49730925,2.87970495 L5.12951164,0.247502552 C5.45951505,-0.0825008505 5.99432468,-0.0825008505 6.32398788,0.247502552 Z"></path></clipPath></defs><g transform="translate(-97.0 -771.0)"><g clip-path="url(#i0)"><g transform="translate(80.0 771.0)"><g transform="translate(17.0 0.0)"><g transform="translate(7.042340642685303 0.0)"><g clip-path="url(#i1)"><polygon points="0,0 7.91531871,0 7.91531871,5.26508521 0,5.26508521 0,0" stroke="none" fill="#969799"></polygon></g></g><g transform="translate(0.0 4.0)"><g clip-path="url(#i2)"><polygon points="0,0 22,0 22,18 0,18 0,0" stroke="none" fill="#969799"></polygon></g></g><g transform="translate(3.547026258002006 9.209476386354481)"><g clip-path="url(#i3)"><polygon points="0,0 14.9059475,0 14.9059475,6.78990505 0,6.78990505 0,0" stroke="none" fill="#FFFFFF"></polygon></g></g><g transform="translate(11.88165341910644 12.151779915256842)"><g clip-path="url(#i4)"><polygon points="1.94289029e-15,-1.94289029e-15 6.57149043,-1.94289029e-15 6.57149043,4.91892184 1.94289029e-15,4.91892184 1.94289029e-15,-1.94289029e-15" stroke="none" fill="#FFFFFF"></polygon></g></g></g></g></g></g></svg>