<svg xmlns="http://www.w3.org/2000/svg" width="16" height="16" viewBox="0 0 16 16"><defs><style>.a{fill:none;}.b{fill:#ff5757;}</style></defs><rect class="a" width="16" height="16"/><path class="b" d="M8,16a8,8,0,1,1,8-8A8.009,8.009,0,0,1,8,16ZM8,1.148A6.85,6.85,0,1,0,14.848,8,6.858,6.858,0,0,0,8,1.148Z"/><path class="b" d="M6.753.172a.562.562,0,0,0-.81,0l-2.49,2.46L1,.172a.562.562,0,0,0-.81,0,.58.58,0,0,0,0,.81l2.45,2.45L.172,5.872a.573.573,0,0,0,0,.82.578.578,0,0,0,.4.17.583.583,0,0,0,.41-.17l2.47-2.44,2.49,2.5a.567.567,0,0,0,.4.16.574.574,0,0,0,.41-.16.582.582,0,0,0,0-.82l-2.49-2.49L6.753.983A.57.57,0,0,0,6.753.172Z" transform="translate(4.542 4.582)"/></svg>