<?xml version="1.0" encoding="UTF-8"?><svg version="1.1" width="16px" height="16px" viewBox="0 0 16.0 16.0" xmlns="http://www.w3.org/2000/svg" xmlns:xlink="http://www.w3.org/1999/xlink"><defs><clipPath id="i0"><path d="M375,0 L375,812 L0,812 L0,0 L375,0 Z"></path></clipPath><clipPath id="i1"><path d="M15.0403624,-0.000963292525 C15.4993467,-0.000963292525 15.8743467,0.390703433 15.8743467,0.872597048 C15.8743467,1.35449066 15.4993467,1.748208 15.0403624,1.748208 L15.0403624,9.35392468 C15.0403624,10.4653559 14.175128,11.3737766 13.1165342,11.3737766 L12.6829405,11.3737766 L13.2962217,12.7538379 C13.4915342,13.1906181 13.3098936,13.7135239 12.893878,13.9165344 C12.4778624,14.1215956 11.9798155,13.9308887 11.7864561,13.4941085 L10.8450499,11.3737766 L5.90364361,11.3737766 L4.96223736,13.4941085 C4.76887799,13.9288381 4.27083111,14.1195449 3.85481549,13.9165344 C3.44075299,13.7135239 3.25911236,13.1906181 3.45247174,12.7538379 L4.06575299,11.3737766 L3.63215924,11.3737766 C2.57356549,11.3737766 1.70833111,10.4653559 1.70833111,9.35392468 L1.70833111,1.75025861 C1.24934674,1.75025861 0.874346736,1.35654127 0.874346736,0.87464766 C0.874346736,0.392754044 1.24934674,-0.000963292525 1.70833111,-0.000963292525 Z M10.8737295,1.99903671 L5.87496397,1.99903671 C5.60636746,2.00108709 5.35007308,2.0954046 5.16349078,2.25943507 C4.97485812,2.42346553 4.87234036,2.64490665 4.87434674,2.8745493 L4.87434674,8.41467818 C4.87234036,8.56845674 4.94205244,8.71608416 5.06712409,8.82475434 C5.19219575,8.9354749 5.36237521,8.99698633 5.5407561,8.99903671 L8.20416727,8.0394585 C8.31283609,8.00050127 8.43585739,8.00050127 8.5445262,8.0394585 L11.2079374,8.99903671 C11.3863183,8.99698633 11.5564977,8.93342452 11.6815694,8.82475434 C11.806641,8.71608416 11.8763531,8.56845674 11.8743467,8.41467818 L11.8743467,2.8745493 C11.8763531,2.64490665 11.771785,2.42346553 11.5852027,2.25943507 C11.39657,2.0954046 11.142326,2.00108709 10.8737295,1.99903671 Z"></path></clipPath><clipPath id="i2"><path d="M1.78514263,0.0584424172 C1.8159018,-0.0194808057 1.93073602,-0.0194808057 1.96149519,0.0584424172 L2.46799613,1.15141815 C2.50285652,1.17807609 2.52951447,1.1985822 2.56437486,1.22524015 L3.63889509,1.39339026 C3.73937503,1.41389637 3.78448848,1.53693304 3.70861587,1.61485626 L2.91707997,2.4515056 C2.90682692,2.48636599 2.89657386,2.51712516 2.88632081,2.55403616 L3.08317947,3.77209917 C3.09548314,3.85617423 3.00730686,3.91564195 2.93758608,3.87668034 L1.93688785,3.31276228 L1.80974996,3.31276228 L0.809051731,3.87668034 C0.739330953,3.91564195 0.651154675,3.85617423 0.663458341,3.77209917 L0.86031701,2.55403616 C0.850063954,2.51917577 0.839810898,2.48841661 0.829557843,2.4515056 L0.038021947,1.61485626 C-0.0378506648,1.53693304 0.00726278003,1.41389637 0.107742725,1.39339026 L1.18636418,1.22524015 C1.21917396,1.1985822 1.2458319,1.17807609 1.27864168,1.15346876 Z"></path></clipPath></defs><g transform="translate(-32.0 -123.0)"><g clip-path="url(#i0)"><g transform="translate(16.0 104.0)"><g transform="translate(16.0 19.0)"><g transform="translate(0.12565326445565006 1.0009632925252845)"><g clip-path="url(#i1)"><polygon points="0.874346736,-0.000963292525 15.8743467,-0.000963292525 15.8743467,13.9990367 0.874346736,13.9990367 0.874346736,-0.000963292525" stroke="none" fill="#FF5757"></polygon></g></g><g transform="translate(6.699999999999644 4.000000000000021)"><g clip-path="url(#i2)"><polygon points="-1.38777878e-16,2.91433544e-16 3.74663781,2.91433544e-16 3.74663781,3.88889458 -1.38777878e-16,3.88889458 -1.38777878e-16,2.91433544e-16" stroke="none" fill="#FF5757"></polygon></g></g></g></g></g></g></svg>