<?xml version="1.0" encoding="UTF-8"?><svg version="1.1" width="14px" height="14px" viewBox="0 0 14.0 14.0" xmlns="http://www.w3.org/2000/svg" xmlns:xlink="http://www.w3.org/1999/xlink"><defs><clipPath id="i0"><path d="M375,0 L375,812 L0,812 L0,0 L375,0 Z"></path></clipPath><clipPath id="i1"><path d="M7,0 C10.8675,0 14,3.1325 14,7 C14,10.8675 10.8675,14 7,14 C3.1325,14 0,10.8675 0,7 C0,3.1325 3.1325,0 7,0 Z"></path></clipPath><clipPath id="i2"><path d="M2.07626883,0 C2.51854143,0 2.87829771,0.359756286 2.87829771,0.802028887 L2.87829771,1.60739801 C2.878174,1.77700801 2.74072929,1.91457644 2.57111929,1.91457644 C2.40150929,1.91457644 2.26394087,1.77700801 2.26394087,1.60739801 L2.26394087,0.802028887 C2.26394087,0.700337117 2.1779606,0.614356849 2.07626883,0.614356849 L0.802028887,0.614356849 C0.700337117,0.614356849 0.614356849,0.700337117 0.614356849,0.802028887 L0.614356849,1.60739801 C0.614356849,1.77700801 0.47678842,1.91457644 0.307178425,1.91457644 C0.137568429,1.91457644 0,1.77700801 0,1.60739801 L0,0.802028887 C0,0.359756286 0.359756286,0 0.802028887,0 L2.07626883,0 Z"></path></clipPath><clipPath id="i3"><path d="M7.69282158,0 C7.86243157,0 8,0.137568429 8,0.307178425 L8,5.45152012 C8,5.96195837 7.58469675,6.37726162 7.0742585,6.37726162 L0.925741502,6.37726162 C0.415303251,6.37726162 0,5.96195837 0,5.45152012 L0,0.307178425 C0,0.137568429 0.137568429,0 0.307178425,0 L7.69282158,0 Z M7.38564315,0.614356849 L0.614356849,0.614356849 L0.614356849,5.45152012 C0.614356849,5.62323323 0.754028392,5.76290477 0.925741502,5.76290477 L7.0742585,5.76290477 C7.24597161,5.76290477 7.38564315,5.62323323 7.38564315,5.45152012 L7.38564315,0.614356849 Z"></path></clipPath><clipPath id="i4"><path d="M1.9524325,1.85469953 C2.1220425,1.85469953 2.25961092,1.99226796 2.25961092,2.16187796 C2.25961092,2.33148795 2.1220425,2.46905638 1.9524325,2.46905638 L0.307178425,2.46905638 C0.137568429,2.46905638 0,2.33148795 0,2.16187796 C0,1.99226796 0.137568429,1.85469953 0.307178425,1.85469953 L1.9524325,1.85469953 Z M5.11316612,0 C5.28277611,0 5.42034454,0.137568429 5.42034454,0.307178425 C5.42034454,0.47678842 5.28277611,0.614356849 5.11316612,0.614356849 L0.307178425,0.614356849 C0.137568429,0.614356849 0,0.47678842 0,0.307178425 C0,0.137568429 0.137568429,0 0.307178425,0 L5.11316612,0 Z"></path></clipPath><clipPath id="i5"><path d="M2.08,0.18 C2.25673112,0.18 2.4,0.32326888 2.4,0.5 C2.4,0.67673112 2.25673112,0.82 2.08,0.82 L0.32,0.82 C0.14326888,0.82 2.164332e-17,0.67673112 0,0.5 C-2.164332e-17,0.32326888 0.14326888,0.18 0.32,0.18 L2.08,0.18 Z"></path></clipPath><clipPath id="i6"><path d="M2.08,0.18 C2.25673112,0.18 2.4,0.32326888 2.4,0.5 C2.4,0.67673112 2.25673112,0.82 2.08,0.82 L0.32,0.82 C0.14326888,0.82 2.164332e-17,0.67673112 0,0.5 C-2.164332e-17,0.32326888 0.14326888,0.18 0.32,0.18 L2.08,0.18 Z"></path></clipPath></defs><g transform="translate(-262.0 -214.0)"><g clip-path="url(#i0)"><g transform="translate(250.0 203.0)"><g transform="translate(12.0 6.0)"><g transform="translate(0.0 5.0)"><g clip-path="url(#i1)"><polygon points="0,0 14,0 14,14 0,14 0,0" stroke="none" fill="#A39A9A"></polygon></g><g transform="translate(3.0 3.0000000000000004)"><g transform="translate(2.5608511427941254 0.0)"><g clip-path="url(#i2)"><polygon points="0,0 2.87829771,0 2.87829771,1.91457644 0,1.91457644 0,0" stroke="none" fill="#FFFFFF"></polygon></g></g><g transform="translate(0.0 1.5895833977669094)"><g clip-path="url(#i3)"><polygon points="0,0 8,0 8,6.37726162 0,6.37726162 0,0" stroke="none" fill="#FFFFFF"></polygon></g></g><g transform="translate(1.2898277301836059 3.3489005041288697)"><g clip-path="url(#i4)"><polygon points="0,0 5.42034454,0 5.42034454,2.46905638 0,2.46905638 0,0" stroke="none" fill="#FFFFFF"></polygon></g></g><g transform="translate(4.480000000000036 4.162354980120218)"><g transform="translate(-0.12727922060664576 1.5697770542427958) rotate(-44.99999999999999)"><g clip-path="url(#i5)"><polygon points="9.09494702e-13,0.18 2.4,0.18 2.4,0.82 9.09494702e-13,0.82 9.09494702e-13,0.18" stroke="none" fill="#FFFFFF"></polygon></g></g><g transform="translate(1.5697770542325757 2.2768838354227894) rotate(-135.0)"><g clip-path="url(#i6)"><polygon points="0,0.18 2.4,0.18 2.4,0.82 0,0.82 0,0.18" stroke="none" fill="#FFFFFF"></polygon></g></g></g></g></g></g></g></g></g></svg>