<?xml version="1.0" encoding="UTF-8"?><svg version="1.1" width="16px" height="16px" viewBox="0 0 16.0 16.0" xmlns="http://www.w3.org/2000/svg" xmlns:xlink="http://www.w3.org/1999/xlink"><defs><clipPath id="i0"><path d="M375,0 L375,1322 L0,1322 L0,0 L375,0 Z"></path></clipPath><clipPath id="i1"><path d="M8,0 C12.418278,0 16,3.581722 16,8 C16,12.418278 12.418278,16 8,16 C3.581722,16 0,12.418278 0,8 C0,3.581722 3.581722,0 8,0 Z"></path></clipPath><clipPath id="i2"><path d="M5.99771429,0 L9.14285714,3.14514286 L8.49371429,3.79428571 L7.86285714,3.16342857 L6.35428571,4.672 C6.60325975,5.58633827 6.34532716,6.56404219 5.67771429,7.23657143 L5.05142857,7.86285714 L5.67771429,8.49371429 L5.02857143,9.14285714 L2.84342857,6.94857143 L1.59085714,8.20114286 L0.941714286,7.552 L2.18971429,6.304 L0,4.11428571 L0.649142857,3.46057143 L1.28,4.09142857 L1.90628571,3.46057143 C2.57880704,2.79622342 3.55417288,2.54018988 4.46628571,2.78857143 L5.97485714,1.28 L5.34857143,0.649142857 L5.99771429,0 Z"></path></clipPath></defs><g transform="translate(-16.0 -211.0)"><g clip-path="url(#i0)"><g transform="translate(0.0 149.0)"><g transform="translate(0.0 52.0)"><g transform="translate(16.0 8.0)"><g transform="translate(0.0 2.0)"><g clip-path="url(#i1)"><polygon points="0,0 16,0 16,16 0,16 0,0" stroke="none" fill="#FF5757"></polygon></g><g transform="translate(3.428571428571429 3.428571428571429)"><g clip-path="url(#i2)"><polygon points="0,0 9.14285714,0 9.14285714,9.14285714 0,9.14285714 0,0" stroke="none" fill="#FFFFFF"></polygon></g></g></g></g></g></g></g></g></svg>